<svg xmlns="http://www.w3.org/2000/svg" xmlns:xlink="http://www.w3.org/1999/xlink" id="Layer_1" data-name="Layer 1" viewBox="0 0 350 133"><defs><linearGradient id="New_Gradient_Swatch_7" x1="12.6" x2="323.94" y1="59.27" y2="59.27" data-name="New Gradient Swatch 7" gradientUnits="userSpaceOnUse"><stop offset="0" stop-color="#a0622c"/><stop offset=".36" stop-color="#7f521d"/><stop offset=".98" stop-color="#3f3300"/></linearGradient><linearGradient xlink:href="#New_Gradient_Swatch_7" id="New_Gradient_Swatch_7-2" x1="8.6" x2="327.94" data-name="New Gradient Swatch 7"/><filter id="drop-shadow-1" width="350" height="133" x="0" y="0" filterUnits="userSpaceOnUse"><feOffset dx="7" dy="7"/><feGaussianBlur result="blur" stdDeviation="5"/><feFlood flood-color="#000" flood-opacity=".75"/><feComposite in2="blur" operator="in"/><feComposite in="SourceGraphic"/></filter><style>.cls-1{fill:#fff}</style></defs><rect width="311.34" height="94.23" x="12.6" y="12.16" rx="46.01" ry="46.01" style="fill:url(#New_Gradient_Swatch_7);filter:url(#drop-shadow-1);stroke:url(#New_Gradient_Swatch_7-2);stroke-miterlimit:10;stroke-width:8px"/><path d="M46.95 67.76c-.74-.85-1.32-1.71-2.52-3.62-.95-1.49-2.62-4.34-3.16-5.31 1.92-.82 4.2-2.44 4.2-5.56 0-1.72-.76-3.12-1.99-3.95-1.29-.92-2.99-1.24-5.54-1.24h-8.53v.48c2.51.4 2.72.72 2.72 3.42v13.61c0 2.76-.23 2.98-2.72 3.46v.48h8.89v-.48c-2.51-.47-2.73-.77-2.73-3.46v-5.97h.81c1.32 0 1.77.33 2.54 1.74 1.09 2.02 2.31 4.15 3.44 5.84 1.19 1.76 2.11 2.37 5.65 2.53.34.01 1.22.01 1.42.01l.1-.44c-1.3-.36-1.8-.65-2.58-1.54m-6.72-9.7c-.84.72-1.91.83-3.52.83h-1.13v-8.61c0-.8.12-1.05.38-1.23.22-.17.73-.25 1.61-.25 2.21 0 4.14 1.47 4.14 5.21 0 1.94-.41 3.16-1.47 4.04ZM61.44 59.94c-.02-2.41-1.94-4.71-4.96-4.71-1.55 0-3.24.66-4.65 2.15-1.36 1.44-2.22 3.39-2.22 5.68 0 3.6 2.37 6.86 6.42 6.86 1.1 0 3.45-.81 5.41-3.49l-.29-.37c-1.24 1.22-2.47 1.58-3.62 1.58-2.3 0-4.82-1.85-4.81-6.33 3.56-.11 7.64-.37 8.55-.58.13-.03.17-.27.17-.78Zm-3.85.34c-1.09.11-3.23.12-4.78.1.26-3 1.39-4.28 2.75-4.28 1.67 0 2.63 1.85 2.63 3.7 0 .37-.22.45-.6.49ZM68.56 66.08v-6.93c0-1.36.03-3.26.07-3.94-1.47.58-3.14.98-4.87 1.22v.42c1.49.42 1.6.56 1.6 2.59v6.66c0 2.48-.09 2.65-1.94 2.96v.48h7.15v-.48c-1.83-.35-2.01-.53-2.01-2.97ZM66.74 51.88c1.09 0 1.87-.8 1.87-1.84 0-1.09-.78-1.85-1.84-1.85-.98 0-1.8.75-1.8 1.85s.82 1.84 1.77 1.84M85.79 55.53l-.12-.13c-1.1.42-3.36.77-4.29.68-1.04-.55-2.1-.85-3.19-.85-2.77 0-5.82 1.95-5.82 5.46 0 2.03 1.23 3.71 3.12 4.49-.72.81-2.26 1.78-3.11 2.3-.05.42.12 1.08.39 1.55.42.74 1.21 1.42 2.55 1.87-1.14.75-2.2 1.53-2.76 2.04-.58.49-.84 1-.84 1.69 0 1.82 1.85 4.07 5.74 4.07 4.24 0 8.13-3.13 8.13-6.57 0-2.85-2.26-3.97-4.79-3.97-1.25 0-2.54.01-3.49.01-1.4 0-1.97-.73-1.97-1.36 0-.3.12-.85.73-1.43.57.17 1.17.28 1.83.28 2.67 0 5.68-1.81 5.68-5.31 0-1.18-.39-2.3-1.04-3.03.55.04 1.57.05 2.08.05.32-.29.93-1.23 1.17-1.84m-9.83 15.61c.28-.18.8-.25 2.41-.25 1.44 0 2.27.09 3.01.4 1.05.44 1.81 1.3 1.81 2.64 0 1.77-.77 3.45-4.19 3.45-2.84 0-4.72-1.71-4.72-3.58 0-1.07.57-1.92 1.68-2.65Zm2.29-6.17c-1.69.02-2.66-2.06-2.66-4.94 0-2.62.9-4.11 2.19-4.11 1.67 0 2.62 2.11 2.62 4.8 0 2.88-.83 4.22-2.16 4.25ZM91.7 66.08v-6.93c0-1.36.03-3.26.07-3.94-1.47.58-3.14.98-4.87 1.22v.42c1.49.42 1.6.56 1.6 2.59v6.66c0 2.48-.09 2.65-1.94 2.96v.48h7.15v-.48c-1.83-.35-2.01-.53-2.01-2.97ZM89.88 51.88c1.09 0 1.87-.8 1.87-1.84 0-1.09-.78-1.85-1.84-1.85-.98 0-1.8.75-1.8 1.85s.82 1.84 1.77 1.84M100.72 60.9c-1.43-.78-2.48-1.43-2.48-2.92 0-1.31.82-2.07 1.96-2.07 1.71 0 2.81 1.23 3.45 3.26l.45-.11c-.11-.57-.34-2.53-.4-3.48-.59-.03-1.7-.35-3.03-.35-3 .02-4.96 1.77-4.95 4.21.01 2.43 2.2 3.61 3.73 4.48 1.96 1.13 2.51 2 2.51 3.21s-.77 2.11-2.08 2.11c-2.07 0-3.45-1.72-4.11-3.79l-.42.1c.14 1.13.43 3.09.53 3.7.65.23 1.96.67 3.52.67 2.46 0 5.23-1.52 5.23-4.52 0-2.23-1.59-3.26-3.92-4.5ZM113.05 68.33c-.9 0-1.83-.51-1.83-3.04V56.6h2.99c.18-.23.26-.79.16-.98h-3.15c-.02-2.13.07-4.22.1-5.07l-.32-.03c-.84.76-2.04 1.69-2.97 2.25v2.86h-1.59l-.5.8.07.17h2.03v9.47c0 2.66 1.21 3.85 3.36 3.85.23 0 .72-.12 1.17-.35l2.12-1.11-.15-.47c-.39.19-.98.35-1.47.35ZM127.47 59.94c-.02-2.41-1.94-4.71-4.96-4.71-1.55 0-3.24.66-4.65 2.15-1.36 1.44-2.22 3.39-2.22 5.68 0 3.6 2.37 6.86 6.42 6.86 1.1 0 3.45-.81 5.41-3.49l-.29-.37c-1.24 1.22-2.47 1.58-3.62 1.58-2.3 0-4.82-1.85-4.81-6.33 3.56-.11 7.64-.37 8.55-.58.13-.03.17-.27.17-.78Zm-3.85.34c-1.09.11-3.23.12-4.78.1.26-3 1.39-4.28 2.75-4.28 1.67 0 2.63 1.85 2.63 3.7 0 .37-.22.45-.6.49ZM138.28 55.23c-1.58 0-3.05 1.94-3.87 3.41.02-1.2.07-2.95.1-3.5-1.53.68-3.21 1.09-4.85 1.32v.39c1.38.4 1.55.59 1.55 2.45v6.89c0 2.41-.11 2.55-1.88 2.85v.48h7.33v-.48c-2.03-.36-2.26-.46-2.26-2.85v-6.55c.67-1.33 1.43-1.75 1.98-1.75.59 0 .95.39 1.51.93.21.21.41.27.8.09.68-.29 1.36-1.35 1.36-2.14 0-.88-.75-1.54-1.79-1.54ZM157.05 59.25c1.45-2.86 2.77-5.43 4.24-8.02 1.05-1.84 1.33-2.37 3.59-2.68v-.48h-6.71v.48c2.64.4 2.65.92 2 2.35-.91 2.01-2.82 5.84-3.93 8.03-1.22-2.39-3.01-5.7-4.39-8.41-.6-1.21-.53-1.57 1.65-1.97v-.48h-8.45v.48c1.94.31 2.2.64 3.59 3.11 1.57 2.79 3.46 6.41 4.14 7.81.3.59.4.99.4 1.61v4.09c0 3.16-.17 3.48-2.84 3.87v.48h9.24v-.48c-2.66-.45-2.9-.63-2.89-3.87v-4.53c.01-.62.13-.93.36-1.39" class="cls-1"/><path d="M168.76 55.23c-3.34 0-7.18 2.7-7.18 7.52 0 3.44 2.32 7.18 7.24 7.18 3.3 0 6.89-2.55 6.89-7.58 0-3.8-2.78-7.12-6.95-7.12m.27 13.98c-2.26 0-3.76-3.09-3.76-7.47 0-3.71 1.16-5.78 3.06-5.78 2.32 0 3.72 2.89 3.72 7.12 0 5-1.45 6.12-3.01 6.12ZM190.87 65.93V55.39c-1.21.26-3.48.5-5.29.56v.46l.78.17c.99.23 1.32.5 1.32 2.16v8.12c-.8.82-1.74 1.1-2.7 1.1-1.28 0-2.47-.71-2.47-3.2v-4.64c0-2.41.03-3.75.1-4.73-1.38.26-3.66.5-5 .56v.45l.59.15c.86.22 1.13.5 1.13 2.02v6.94c0 2.84 1.52 4.41 3.91 4.4 1.54-.01 2.99-1.03 4.45-2.38 0 .82-.04 1.76-.08 2.42 1.56-.5 3.2-1 5.28-1.22v-.47l-.77-.14c-1.08-.2-1.24-.45-1.24-2.2ZM203.23 55.23c-1.58 0-3.05 1.94-3.87 3.41.02-1.2.07-2.95.1-3.5-1.53.68-3.21 1.09-4.85 1.32v.39c1.38.4 1.55.59 1.55 2.45v6.89c0 2.41-.11 2.55-1.88 2.85v.48h7.33v-.48c-2.03-.36-2.26-.46-2.26-2.85v-6.55c.67-1.33 1.43-1.75 1.98-1.75.59 0 .95.39 1.51.93.21.21.41.27.8.09.68-.29 1.36-1.35 1.36-2.14 0-.88-.75-1.54-1.79-1.54ZM212 48.56c2.49.39 2.72.62 2.72 3.57v13.34c0 2.88-.2 3.14-2.72 3.58v.48h8.96v-.48c-2.54-.45-2.75-.66-2.75-3.6V52.13c0-2.98.25-3.16 2.75-3.57v-.48H212zM235.67 66.28v-6.06c0-2.99-1.32-4.99-4-4.99-.9 0-1.5.32-2.5.97-.7.45-1.32.93-2.05 1.45-.01-.93.03-1.78.07-2.5-1.34.57-3.18 1.1-4.84 1.32v.39c1.39.45 1.58.65 1.58 2.44v6.77c0 2.41-.16 2.62-2.01 2.98v.48h7.06v-.48c-1.67-.35-1.86-.43-1.86-2.78v-7.93c.86-.74 1.84-1.16 2.88-1.16 1.57 0 2.48 1.13 2.48 3.38v5.26c0 2.7-.09 2.98-1.83 3.22v.48h6.72v-.48c-1.53-.3-1.69-.45-1.69-2.76ZM245.61 68.33c-.9 0-1.83-.51-1.83-3.04V56.6h2.99c.18-.23.26-.79.16-.98h-3.15c-.02-2.13.07-4.22.1-5.07l-.32-.03c-.84.76-2.04 1.69-2.97 2.25v2.86H239l-.5.8.07.17h2.03v9.47c0 2.66 1.21 3.85 3.36 3.85.23 0 .72-.12 1.17-.35l2.12-1.11-.15-.47c-.39.19-.98.35-1.47.35ZM260.03 59.94c-.02-2.41-1.94-4.71-4.96-4.71-1.55 0-3.24.66-4.65 2.15-1.36 1.44-2.22 3.39-2.22 5.68 0 3.6 2.37 6.86 6.42 6.86 1.1 0 3.45-.81 5.41-3.49l-.29-.37c-1.24 1.22-2.47 1.58-3.62 1.58-2.3 0-4.82-1.85-4.81-6.33 3.56-.11 7.64-.37 8.55-.58.13-.03.17-.27.17-.78Zm-3.85.34c-1.09.11-3.23.12-4.78.1.26-3 1.39-4.28 2.75-4.28 1.67 0 2.63 1.85 2.63 3.7 0 .37-.22.45-.6.49ZM270.84 55.23c-1.58 0-3.05 1.94-3.87 3.41.02-1.2.07-2.95.1-3.5-1.53.68-3.21 1.09-4.85 1.32v.39c1.38.4 1.55.59 1.55 2.45v6.89c0 2.41-.11 2.55-1.88 2.85v.48h7.33v-.48c-2.03-.36-2.26-.46-2.26-2.85v-6.55c.67-1.33 1.43-1.75 1.98-1.75.59 0 .95.39 1.51.93.21.21.41.27.8.09.68-.29 1.36-1.35 1.36-2.14 0-.88-.75-1.54-1.79-1.54ZM285.54 59.94c-.02-2.41-1.94-4.71-4.96-4.71-1.55 0-3.24.66-4.65 2.15-1.36 1.44-2.22 3.39-2.22 5.68 0 3.6 2.37 6.86 6.42 6.86 1.1 0 3.45-.81 5.41-3.49l-.29-.37c-1.24 1.22-2.47 1.58-3.62 1.58-2.3 0-4.82-1.85-4.81-6.33 3.56-.11 7.64-.37 8.55-.58.13-.03.17-.27.17-.78Zm-3.85.34c-1.09.11-3.23.12-4.78.1.26-3 1.39-4.28 2.75-4.28 1.67 0 2.63 1.85 2.63 3.7 0 .37-.22.45-.6.49ZM293.17 60.9c-1.43-.78-2.48-1.43-2.48-2.92 0-1.31.82-2.07 1.96-2.07 1.71 0 2.81 1.23 3.45 3.26l.45-.11c-.11-.57-.34-2.53-.4-3.48-.59-.03-1.7-.35-3.03-.35-3 .02-4.96 1.77-4.95 4.21.01 2.43 2.2 3.61 3.73 4.48 1.96 1.13 2.51 2 2.51 3.21s-.77 2.11-2.08 2.11c-2.07 0-3.45-1.72-4.11-3.79l-.42.1c.14 1.13.43 3.09.53 3.7.65.23 1.96.67 3.52.67 2.46 0 5.23-1.52 5.23-4.52 0-2.23-1.59-3.26-3.92-4.5ZM306.98 67.99c-.39.19-.98.35-1.47.35-.9 0-1.83-.51-1.83-3.04v-8.69h2.99c.18-.23.26-.79.16-.98h-3.15c-.02-2.13.07-4.22.1-5.07l-.32-.03c-.84.76-2.04 1.69-2.97 2.25v2.86h-1.59l-.5.8.07.17h2.03v9.47c0 2.66 1.21 3.85 3.36 3.85.23 0 .72-.12 1.17-.35l2.12-1.11L307 68Z" class="cls-1"/></svg>