<svg xmlns="http://www.w3.org/2000/svg" xmlns:xlink="http://www.w3.org/1999/xlink" data-name="Layer 1" viewBox="0 0 559 170.59"><defs><linearGradient id="a" x1="19.5" x2="539.5" y1="3.5" y2="3.5" gradientUnits="userSpaceOnUse"><stop offset="0" stop-color="#a0622c"/><stop offset=".36" stop-color="#7f521d"/><stop offset=".98" stop-color="#3f3300"/></linearGradient><linearGradient id="b" x1="19" x2="540" y1="3.5" y2="3.5" data-name="New Gradient Swatch 7" gradientUnits="userSpaceOnUse"><stop offset="0" stop-color="#a0622c"/><stop offset=".36" stop-color="#7f521d"/><stop offset=".98" stop-color="#3f3300"/></linearGradient><linearGradient xlink:href="#a" id="c" x1="552.5" x2="558.5" y1="85.3" y2="85.3"/><linearGradient xlink:href="#b" id="d" x1="552" x2="559" y1="85.3" y2="85.3" data-name="New Gradient Swatch 7"/><linearGradient xlink:href="#a" id="e" y1="167.09" y2="167.09"/><linearGradient xlink:href="#b" id="f" y1="167.09" y2="167.09" data-name="New Gradient Swatch 7"/><linearGradient xlink:href="#a" id="g" x1=".5" x2="6.5" y1="85.3" y2="85.3"/><linearGradient xlink:href="#b" id="h" x1="0" x2="7" y1="85.3" y2="85.3" data-name="New Gradient Swatch 7"/><linearGradient xlink:href="#a" id="i" x1=".5" x2="19.5" y1="160.59" y2="160.59"/><linearGradient xlink:href="#b" id="j" x1="0" x2="20" y1="160.59" y2="160.59" data-name="New Gradient Swatch 7"/><linearGradient xlink:href="#a" id="k" x1="539.5" x2="558.5" y1="160.59" y2="160.59"/><linearGradient xlink:href="#b" id="l" x1="539" x2="559" y1="160.59" y2="160.59" data-name="New Gradient Swatch 7"/><linearGradient xlink:href="#a" id="m" x1="539.5" x2="558.5" y1="10" y2="10"/><linearGradient xlink:href="#b" id="n" x1="539" x2="559" y1="10" y2="10" data-name="New Gradient Swatch 7"/><linearGradient xlink:href="#a" id="o" x1=".5" x2="19.5" y1="10" y2="10"/><linearGradient xlink:href="#b" id="p" x1="0" x2="20" y1="10" y2="10" data-name="New Gradient Swatch 7"/><linearGradient xlink:href="#b" id="q" x1="3.5" x2="555.5" y1="85.3" y2="85.3" data-name="New Gradient Swatch 7"/></defs><path d="M19.5 3.5v3h520v-6h-520z" style="stroke-miterlimit:10;fill:url(#a);stroke:url(#b)"/><path d="M555.5 19.5h-3v131.59h6V19.5z" style="stroke-miterlimit:10;fill:url(#c);stroke:url(#d)"/><path d="M539.5 167.09v-3h-520v6h520z" style="stroke-miterlimit:10;fill:url(#e);stroke:url(#f)"/><path d="M3.5 151.09h3V19.5h-6v131.59z" style="stroke-miterlimit:10;fill:url(#g);stroke:url(#h)"/><path d="M19.5 167.09v-3c-7.18 0-13-5.82-13-13h-6c0 10.49 8.51 19 19 19z" style="stroke-miterlimit:10;fill:url(#i);stroke:url(#j)"/><path d="M555.5 151.09h-3c0 7.18-5.82 13-13 13v6c10.49 0 19-8.51 19-19z" style="fill:url(#k);stroke:url(#l);stroke-miterlimit:10"/><path d="M539.5 3.5v3c7.18 0 13 5.82 13 13h6c0-10.49-8.51-19-19-19z" style="stroke-miterlimit:10;fill:url(#m);stroke:url(#n)"/><path d="M19.5 3.5v-3C9.01.5.5 9.01.5 19.5h6c0-7.18 5.82-13 13-13z" style="stroke-miterlimit:10;fill:url(#o);stroke:url(#p)"/><g data-name="path-1-inside-1 1 35" style="opacity:.52"><path d="M3.5 19.5c0-8.84 7.16-16 16-16h520c8.84 0 16 7.16 16 16v131.59c0 8.84-7.16 16-16 16h-520c-8.84 0-16-7.16-16-16z" style="fill:url(#q)"/></g></svg>