<?xml version="1.0" encoding="UTF-8"?>
<svg id="Layer_1" data-name="Layer 1" xmlns="http://www.w3.org/2000/svg" viewBox="0 0 400.49 470.04">
<path d="M188.74,184c50.67-4.58,59.9,15.09,86.34,50.49,13.65,15.79,32.77,26,46.86,39.41.75.71,5.49,7.37,4.48,8.28-.15.13-.94-.25-2.06-.63-.03-.01-.14-.05-.28-.09-.08-.02-.24-.07-.4-.1-.23-.04-.32-.03-.45-.04-.32-.04-.42-.23-.7-.39-.27-.15-.55-.17-1.11-.22-.52-.04-.83-.06-1.19.05-.42.13-.67.38-1,.7-.83.82-1.23,1.71-1.59,2.5-.14.3-.22.49-.31.78-.12.41-.21.91-.3,1.37,0,.03-.01.07-.02.13-.04.22-.07.29-.08.36-.02.16.04.29.1.41.3.6,2.93,4.83,3.04,6.76.13,2.15-2.79,3.84-3.63,4.55-32.81,27.49-105.85-39.61-125.97,3.96-37.04,80.23,97.26,149.68,165.31,87.23,89.76-84.98,32.98-262.77-70.16-287.33l2.13,1.22c-10.52-1.28-1.74,2.14,0,3.68.07.06-.84,1.65-.62,1.81,61.78,30.53,102.47,94.45,101.89,164.38-.36,64.53-63.89,137.67-117.66,129.26-48.09-8.29-91.42-85.96-60.65-103.18,8.92-1.89,22.55,1.07,25.53,1.53,80.23,18.88,100.86,4.49,102.93-21.01-1.77-11.93-19.33-18.88-32.35-29.27-6.55-5.23-14.89-12.13-20.68-18.1-13.71-14.13-23.89-36.48-38.73-46.67-1.97-1.35-15.49-7.57-15.82-8.4-.17-49.45,50.01-55.55,47.35-114.93-.31-7.56-5.6-31.74-13.02-34.61-12.52-4.85-2.5,14.32-1.66,18.16,15.05,65.09-43.7,72.95-50.45,127.12-.72,1.26-1.88.73-2.94.67-11.25-.64-19.55-14.82-27.93-21.64-10.26-8.36-24.13-16.67-24.68-16.97-.05-.02-.39-.21-.83-.5-.54-.36-.9-.67-.94-.7-2.74-2.27-18.17-9.62-18.17-9.62-21.27-15.22-23.28-39.3-14.69-62.8,1.8-4.93,10.09-16.94,9.73-21.26-6.88-15.76-19.96,14.88-22.7,20.49-5.35,15.86-5.35,33.4-.44,49.28-28.31-15.83-42.29-56.66-32.13-87.1.66-1.99,12.38-20.45,10.18-22.09-.66-.49-4.3-.76-5.01-.88,0,0-.34-.06-.67-.06-.47,0-2.35,1.29-2.59,1.51-17.66,16.7-20.59,53.05-13.42,75.09,18.49,58.4,95.17,59.37,122.13,107.39Z"/>
<path d="M140.26,102.62c27.2-5.81,36.16-14.67,68.5-13.22,5.57.25,35.51,6.07,36.92,4.86.44-.38-2.84-2.27,3.66-1.52-3.9-.58-3.49-5.47-3.79-5.7-34.71-9.9-79.81-6.76-111.49,12.42l3.03-.02c-7.33,4.27-1.65,4.2,3.17,3.17Z"/>
<path d="M159.06,83.28l32.32-6.7c-10.97.98-22.12,2.35-32.32,6.7Z"/>
<path d="M279.23,147.65c2.97,1.46,4.81-2.29,2.88-4.43-2.32-2.58-5.61,3.08-2.88,4.43Z"/>
<polygon points="222.72 77.27 216.4 77.5 238.96 80.24 222.72 77.27"/>
<path d="M326.02,193.18c.04-2.65-4.13-2.65-4.09,0-.04,2.65,4.13,2.65,4.09,0Z"/>
<path d="M308.63,161.37c.04-2.53-3.94-2.53-3.91,0-.04,2.53,3.94,2.53,3.91,0Z"/>
<path d="M302.94,186.47c.04-2.5-3.89-2.5-3.85,0-.04,2.5,3.89,2.5,3.85,0Z"/>
<path d="M177.94,121.7c2.74-5.83-11.42-1.08-1.81-1.8-1.75,2.33,1.42,2.64,1.81,1.8Z"/>
<path d="M195.04,77.19h9.76c-1.68-2.01-7.47-.77-9.76,0Z"/>
<path d="M13.48,205.8c.5-1.25,1-2.5,1.53-3.74-.53,1.24-1.03,2.49-1.53,3.74Z"/>
<path d="M345.72,420.61l14.64-1.22c-7.27-1.84-18.52-.61-26.44.86-30.98,5.74-61,24.51-91.77,32.52C80.24,499.08-53.39,304.74,46.2,170.21c-1.32.05-.62-4.08-.61-5.79l-1.82,1.22,1.82-4.26C7.54,195.89-1.89,255.45,4.11,304.72c-6.55-33.11-3.04-67.71,9.38-98.92-45.78,113.74,30.11,241.5,151.08,261.52,79.93,13.23,111.81-25.35,180.96-38.71,3.16-.61,19.21-1.65,19.72-2.51.98-1.67-4.38.66-3.66-2.11.51-1.97,5.68-.39,5.49-2.75-7.21-.86-14.08-1.27-21.34-.62Z"/>
<path d="M137.09,227.87c-20.61,36.75-40.9,82.62-42.15,123.47.16,20.92-1.88,51.23,12.55,67.45,3.09-.13-1.26-1.81-1.51-2.14,4.84-2.9-3.13-1.65-2.44-6.4,1.45,3.98,4.57,2.86,4.81,3.08.61.57,1.73,4.76,3.43,5.45.94-1.97-.39-3.68.91-6.09l1.22.9c-19.1-64.47,3.23-131.38,37.2-186.63-1.46-9.34-26.55-13.52-34.72-17.15-22.77-9.77-38.95-28.92-47.64-51.83-.28-4.23-1.1-9.21-3.65-13.1,46.7,8.51,71.74,21.71,100.67,58.84,1.37.48,6.44-1.21,6.62-3.64-8.45-23.65-36.77-45.51-60.56-53.74-7.97-1.48-61.25-22.64-60.21-7.88,5.13,45.76,40.97,80.01,85.45,89.39Z"/>
<path d="M117.57,180.89l-4.88-1.22c1.41,1.88,8.4,6.25,4.88,1.22Z"/>
<path d="M120.63,191.56c4.15,2.51,8.73,4.41,12.37,6.84,1.9,1.26,15.8,12.34,16.9,10.55l-3.05-8.54-2.43-.31c3.23.02.41-1.35-1.93-4.86-.49-.95-2.92-3.28-3.26-3.39-10.12-11.87-19.05-19.54-39.05-25.93-4.96-.63,2.85,2.5,3.12,2.7.77.57.48,1.95,1.33,2.49,3.18,2.02,8.74,3.86,12.33,5.51l-3.65.29c2.47,1.07,2.86,1.96,4.27,3.97,3.18-.77,1.11,2.07,1.98,2.91,1.98,1.92,8.61,3.93,9.41,6.53l-1.01,1.54c.41-.75-2.28-2.97-2.46-3.04-1.01-.38-.31,1.46-.9,1.21-2.77-1.16-5.16-3.14-7.95-4.25l.32,3.65c4.81-1.65,3.39,1.98,3.66,2.14Z"/>
<path d="M254.81,246.48c1.08.59,3.75,4.89,4.28,4.56,3.78-2.37-4.07-12.51-6.07-14.35-3.8-3.49-8.52-5.83-13.56-6.75-3.68-.67-11.12-1.17-13.29,2.8,6.78-.61,12.26,7.23,17.45,10.3,3.56,2.1,9.15,2.32,11.2,3.44Z"/>
<path d="M87.07,259.32c.93-.51,1.27-2.88.53-3.32-4.16-2.51-3.81,5.12-.53,3.32Z"/>
<path d="M70.82,311.99l1.56-2-2.99-1.61c-.69,1.7-.7,3.19,1.43,3.6Z"/>
<path d="M58.72,226.64c-2.97.84.7,5.53,2.12,3.04.53-.93-1.02-3.35-2.12-3.04Z"/>
<path d="M74.76,285.09c.34-.22.86-1.88.46-2.35-3.21-3.75-4.23,4.8-.46,2.35Z"/>
<path d="M51.64,259.88c-.03,2.04,3.18,2.04,3.15,0,.03-2.04-3.18-2.04-3.15,0Z"/>
</svg>