<?xml version="1.0" encoding="UTF-8"?>
<svg id="Layer_1" data-name="Layer 1" xmlns="http://www.w3.org/2000/svg" viewBox="0 0 462.58 518.35">
  <defs>
    <style>
      .cls-1 {
        fill: #efeddd;
      }
      .cls-2 {
        fill: #f1eedd;
      }
      .cls-3 {
        fill: #30302e;
      }
      .cls-4 {
        fill: #343431;
      }
      .cls-5 {
        fill: #f2efde;
      }
      .cls-6 {
        fill: #d7ceb6;
      }
      .cls-7 {
        fill: #3a3935;
      }
      .cls-8 {
        fill: #3a3936;
      }
      .cls-9 {
        fill: #34332f;
      }
      .cls-10 {
        fill: #363532;
      }
      .cls-11 {
        fill: #d5ccb3;
      }
      .cls-12 {
        fill: #f0edde;
      }
      .cls-13 {
        fill: #32312f;
      }
      .cls-14 {
        fill: #d7ccb5;
      }
      .cls-15 {
        fill: #d9d1bc;
      }
    </style>
  </defs>
  <path class="cls-9" d="M298.42,48.06l64.1-.59c21.46,5.49,32.28,18.26,33.78,40.31,3.5,51.18.9,103.58,5.07,154.84,16.32,44.69,41.8,88.88,57.66,133.34,8.26,23.16,2.35,43.88-20.07,55.46l-208.71,84.29c-9.83,3.13-18.38,3.76-28.25.29-21.68-7.6-25.36-31.05-33.86-49.65-13.83,3.21-23.85,5.81-37.55.05-8.92-3.75-27.94-23.19-32.18-31.82-7.54-15.35-2.67-33.35-5.6-49.4-2.63-14.42-15.57-41.52-21.01-56.99C47.42,258.91,23.4,189.39.26,119.72c-1.83-18.13,5.89-33.72,22.31-41.68,55.13-19.35,109.99-39.64,165.17-58.83C206.85,12.57,241.66-2.93,260.5.49c25.59,4.64,30.37,26.53,37.92,47.58ZM80.25,338.23c3.61,9.99,7.8,19.84,11.01,29.99,1.74.24.94-2.27.99-3.48,1.48-40.26-2.86-85.27-4.04-125.97-.24-8.45,1.34-21.44.05-29.04-.2-1.16-.49-1.8-1.49-2.46l-9.51,3.96c-3.84-2.24-5.13-2.72,0-5,3.12-1.39,6.73-1.71,9.86-3.14l-.87-35.86c-.37-.39-8.61,3.54-9.99,4-3.93,1.3-8.53,2.29-12.53,3.61l-2.46-3.09c.23-1.01,12.67-5.67,15-6.52,1.68-.61,9.59-1.81,10.04-3.67l-1.04-39.32c-.69-.78-9.43,3.46-10.99,4-8.12,2.76-16.61,4.63-24.55,8.01-1.78,0-2.98-1.7-2.41-3.46.54-1.67,24.22-9.11,27.95-10.55,2.26-.87,9.37-2.73,9.89-4.65-.96-9.17-2.06-21.36.11-30.35,8.71-36.17,45.71-31.01,73.54-31.96,35.6-1.21,71.33-2.67,106.92-4.08,9.22-.37,18.49.8,27.55-1.47-5.4-14.94-8.37-31.13-23.8-39.2-16.83-8.8-29.54-2.63-45.73,2.69C158.06,32.81,93.63,58.69,27.99,80.47c-14.52,5.54-24.18,19.59-23.73,35.24,23.87,74.41,49.4,148.89,76,222.53ZM99.61,69.58c-15.1,15.69-9.83,37.61-9.31,57.11,2.06,77.7,4.54,155.36,7,233,.59,18.55-.41,38.7.92,57.08,3.24,44.78,48.59,34.24,79.5,33.42,53.01-1.4,106.12-3.13,159-5,18.69-.66,38.88,3.87,54.01-9.99,16.46-15.07,9.92-44.37,9.49-64.43-1.98-91.59-3.87-183.6-7.91-275.08-1.47-33.3-15.4-45.24-48.59-44.5-42.16.93-84.67,3.63-126.92,5.08-29.24,1-61.19-.38-90.03,1.97-9.53.78-20.43,4.34-27.17,11.34ZM415.25,286.23c-3.84-8.87-7.55-18.07-11.72-26.78-.57-1.19-.54-2.96-2.27-3.22-.16,1.6.92,2.91,1.01,4.48,1.72,30.78-.42,63.37,1.99,94.01.44,5.59,1.01,8.09,4.84,12.03l-3.93,3.95c-.67,25.23,8.71,52.43-14.45,70.51-16.57,12.94-46.76,8.32-67.02,8.98-11.16.37-22.76,1.72-33.92,2.08-18.15.59-40.44-.98-58.04.96-6.5.71-12.71,5.54-19.06,6.98l-4.42-5.51c-4.21-2.63-29.78,8.65-36.02,9.54-.46.61,5.29,12.17,6,13.99,3.95,10.04,5.82,19.43,14.52,26.98,12.06,10.45,25.45,9.66,39.72,4.77,36.94-12.65,76.21-30.92,112.75-45.75,23.01-9.34,46.1-18.38,69-28,25.9-10.88,54.03-19.2,41.48-55.98-10.1-29.6-27.82-64.82-40.48-94.02ZM185.26,456.23l-.48-1.98c-4.84,1.91-10.75.78-16.01.99-1.93.08-3.84.97-5.97,1.03-13.12.37-26.56.31-39.54-1.03,17.53,19.98,41.25,4.95,62,.98Z"/>
  <path class="cls-12" d="M80.25,338.23C53.66,264.6,28.13,190.12,4.26,115.71c-.45-15.65,9.21-29.7,23.73-35.24C93.63,58.69,158.06,32.81,223.74,11.21c16.19-5.32,28.9-11.49,45.73-2.69,15.43,8.07,18.4,24.26,23.8,39.2-9.07,2.27-18.33,1.1-27.55,1.47-35.59,1.42-71.32,2.87-106.92,4.08-27.83.95-64.83-4.22-73.54,31.96-11.62,6.41-9.77,23.53-10,35-3.73,1.44-27.41,8.88-27.95,10.55-.57,1.76.63,3.47,2.41,3.46,7.94-3.38,16.42-5.25,24.55-8.01l2,39c-2.33.85-14.77,5.51-15,6.52l2.46,3.09c4-1.32,8.6-2.31,12.53-3.61l1.8,27.5-.8,7.5c-5.13,2.28-3.84,2.76,0,5,.63.37,1.09.58,1.02,1.44.29,38.73,2.6,77.33,3.99,116.05.11,2.97,3.46,9.02-2.01,9.51Z"/>
  <path class="cls-14" d="M415.25,286.23c-4.62,2.93-.52,9.62-.1,13.6,1.92,18.32,1.15,37.52,2.06,55.94,1.04,21.13,6.49,51.82-.26,71.66-.94,2.75-4.96,5.54-2.7,8.8-22.9,9.62-45.99,18.66-69,28,.53-3.01-1.42-2.05-3.35-1.88-52.39,4.78-105.84-1.92-156.68,12.34l-6.97,3.54c-.71-1.81-6.46-13.38-6-13.99,6.24-.89,31.81-12.17,36.02-9.54l4.42,5.51c6.35-1.44,12.56-6.26,19.06-6.98,17.61-1.94,39.9-.37,58.04-.96,11.16-.36,22.75-1.72,33.92-2.08,20.26-.67,50.45,3.96,67.02-8.98,23.15-18.08,13.77-45.28,14.45-70.51l3.93-3.95c-3.84-3.94-4.41-6.44-4.84-12.03-2.41-30.64-.27-63.23-1.99-94.01-.09-1.56-1.17-2.87-1.01-4.48,1.73.26,1.71,2.03,2.27,3.22,4.17,8.71,7.87,17.92,11.72,26.78Z"/>
  <path class="cls-1" d="M178.25,478.23l6.97-3.54c50.84-14.26,104.29-7.56,156.68-12.34,1.93-.18,3.88-1.13,3.35,1.88-36.54,14.83-75.82,33.1-112.75,45.75-14.28,4.89-27.67,5.68-39.72-4.77-8.71-7.55-10.57-16.93-14.52-26.98Z"/>
  <path class="cls-1" d="M414.25,436.23c-2.26-3.26,1.77-6.05,2.7-8.8,6.75-19.84,1.3-50.53.26-71.66-.91-18.42-.15-37.62-2.06-55.94-.42-3.98-4.52-10.67.1-13.6,12.66,29.2,30.38,64.42,40.48,94.02,12.55,36.78-15.58,45.1-41.48,55.98Z"/>
  <path class="cls-6" d="M77.25,211.23l9.51-3.96c1,.66,1.29,1.29,1.49,2.46,1.29,7.6-.29,20.59-.05,29.04,1.18,40.7,5.52,85.7,4.04,125.97-.04,1.21.75,3.72-.99,3.48-3.21-10.15-7.4-20-11.01-29.99,5.47-.49,2.12-6.54,2.01-9.51-1.39-38.72-3.7-77.32-3.99-116.05.07-.86-.39-1.07-1.02-1.44Z"/>
  <path class="cls-6" d="M74.25,126.23c1.57-.53,10.3-4.78,10.99-4l1.04,39.32c-.45,1.87-8.36,3.06-10.04,3.67l-2-39Z"/>
  <path class="cls-15" d="M185.26,456.23c-20.76,3.97-44.48,19-62-.98,12.98,1.34,26.42,1.4,39.54,1.03,2.13-.06,4.04-.95,5.97-1.03,5.26-.21,11.17.91,16.01-.99l.48,1.98Z"/>
  <path class="cls-6" d="M76.25,171.23c1.38-.45,9.62-4.39,9.99-4l.87,35.86c-3.12,1.43-6.74,1.75-9.86,3.14l.8-7.5-1.8-27.5Z"/>
  <path class="cls-11" d="M75.25,120.23c.23-11.47-1.62-28.59,10-35-2.17,8.99-1.06,21.18-.11,30.35-.53,1.92-7.64,3.78-9.89,4.65Z"/>
  <g>
    <path class="cls-5" d="M99.61,69.58c6.73-6.99,17.63-10.56,27.17-11.34,28.83-2.36,60.79-.97,90.03-1.97,42.25-1.45,84.76-4.15,126.92-5.08,33.18-.73,47.12,11.2,48.59,44.5,4.04,91.48,5.93,183.49,7.91,275.08.43,20.06,6.97,49.37-9.49,64.43-15.13,13.86-35.33,9.33-54.01,9.99-52.88,1.87-105.99,3.6-159,5-30.91.82-76.26,11.36-79.5-33.42-1.33-18.38-.33-38.53-.92-57.08-2.46-77.64-4.94-155.3-7-233-.52-19.5-5.79-41.42,9.31-57.11ZM127.25,115.24c-.61,7.71,3.88,4.08,8.46,3.95,10.35-.3,20.76-.67,31-1l190.04-5.96,2.5-2.48c-4.19-5.16-11.93-1.6-17.45-1.47-59.23,1.37-118,4.02-177,6-12.53.42-25.03-.1-37.54.96ZM360.18,150.61l-231.54,7.55.19,5.74,231.54-7.55-.19-5.74ZM361.22,190.01l-231.08,7.94.2,5.83,231.08-7.94-.2-5.83ZM133.75,250.23c-1.25,1.01-2.15,1.84-2.47,3.53-1.66,8.66,1.88,19.86,1.11,28.83l.8,1.2,31.63-1.5c1.15-1.65,1.41-28.99-2.06-32.06h-29ZM363.18,267.75l-174.07,5.9.2,5.81,174.07-5.9-.2-5.81ZM136.25,389.23h27.5c.29,0,4.39-1.31,4.61-1.6l-.11-30.9-.94-2.06-29.54.59c-6.14,1.16-2.58,8.43-2.49,12.43.16,7.17-.88,14.6.96,21.54ZM367.18,370.7l-174.03,5.37.18,5.72,174.03-5.37-.18-5.72Z"/>
    <path class="cls-10" d="M127.25,115.24c12.51-1.06,25.02-.54,37.54-.96,59-1.98,117.77-4.63,177-6,5.53-.13,13.27-3.68,17.45,1.47l-2.5,2.48-190.04,5.96c-10.24.32-20.65.69-31,1-4.58.13-9.08,3.76-8.46-3.95Z"/>
    <rect class="cls-13" x="128.67" y="154.38" width="231.66" height="5.75" transform="translate(-4.99 8.05) rotate(-1.87)"/>
    <rect class="cls-3" x="130.17" y="193.98" width="231.22" height="5.84" transform="translate(-6.62 8.56) rotate(-1.97)"/>
    <rect class="cls-7" x="193.2" y="373.38" width="174.12" height="5.73" transform="translate(-11.46 8.82) rotate(-1.77)"/>
    <rect class="cls-8" x="189.16" y="270.7" width="174.17" height="5.81" transform="translate(-9.11 9.52) rotate(-1.94)"/>
    <path class="cls-4" d="M133.75,250.23h29c3.47,3.07,3.21,30.42,2.06,32.06l-31.63,1.5-.8-1.2c.76-8.97-2.77-20.18-1.11-28.83.32-1.68,1.23-2.51,2.47-3.53ZM160.25,254.23l-24,1v24h21.5c.54,0,2.23-1.34,3.41-1.09.94-1.56-.91-3.69-.91-4.41v-19.5Z"/>
    <path class="cls-8" d="M136.25,389.23c-1.84-6.94-.8-14.37-.96-21.54-.09-4-3.65-11.27,2.49-12.43l29.54-.59.94,2.06.11,30.9c-.22.3-4.32,1.6-4.61,1.6h-27.5ZM163.25,359.23h-22.5l-1.5,1.5v22l1.5,1.5h23.5v-22.5c0-.33-1.32-1.52-1-2.5Z"/>
    <path class="cls-12" d="M160.25,254.23v19.5c0,.72,1.85,2.85.91,4.41-1.18-.26-2.88,1.09-3.41,1.09h-21.5v-24l24-1Z"/>
    <path class="cls-2" d="M163.25,359.23c-.32.98,1,2.17,1,2.5v22.5h-23.5l-1.5-1.5v-22l1.5-1.5h22.5Z"/>
  </g>
</svg>

