<svg xmlns="http://www.w3.org/2000/svg" xmlns:xlink="http://www.w3.org/1999/xlink" id="Layer_1" data-name="Layer 1" viewBox="0 0 464.55 564.47"><defs><linearGradient id="linear-gradient" x1="0" x2="464.55" y1="282.24" y2="282.24" gradientUnits="userSpaceOnUse"><stop offset="0" stop-color="#f7f4f1"/><stop offset="1" stop-color="#e8d5c4"/></linearGradient><linearGradient id="New_Gradient_Swatch_1" x1="45.59" x2="418.95" y1="463.01" y2="463.01" data-name="New Gradient Swatch 1" gradientUnits="userSpaceOnUse"><stop offset="0" stop-color="#a0622c"/><stop offset=".13" stop-color="#a16530"/><stop offset=".27" stop-color="#a76e3c"/><stop offset=".41" stop-color="#b07e51"/><stop offset=".55" stop-color="#be946f"/><stop offset=".7" stop-color="#cfb095"/><stop offset=".84" stop-color="#e3d2c2"/><stop offset=".98" stop-color="#fbf9f7"/><stop offset="1" stop-color="#fff"/></linearGradient><linearGradient xlink:href="#New_Gradient_Swatch_1" id="New_Gradient_Swatch_1-2" x1="266.3" x2="292.79" y1="99.32" y2="99.32" data-name="New Gradient Swatch 1"/><linearGradient xlink:href="#New_Gradient_Swatch_1" id="New_Gradient_Swatch_1-3" x1="67.1" x2="95.66" y1="246.05" y2="246.05" data-name="New Gradient Swatch 1"/><linearGradient xlink:href="#New_Gradient_Swatch_1" id="New_Gradient_Swatch_1-4" x1="250.99" x2="263.25" y1="87.52" y2="87.52" data-name="New Gradient Swatch 1"/><linearGradient xlink:href="#New_Gradient_Swatch_1" id="New_Gradient_Swatch_1-5" x1="241.75" x2="256.66" y1="39.42" y2="39.42" data-name="New Gradient Swatch 1"/><linearGradient xlink:href="#New_Gradient_Swatch_1" id="New_Gradient_Swatch_1-6" x1="84.19" x2="102.37" y1="84.82" y2="84.82" data-name="New Gradient Swatch 1"/><linearGradient xlink:href="#New_Gradient_Swatch_1" id="New_Gradient_Swatch_1-7" x1="105.46" x2="114.13" y1="212.1" y2="212.1" data-name="New Gradient Swatch 1"/><linearGradient xlink:href="#New_Gradient_Swatch_1" id="New_Gradient_Swatch_1-8" x1="111.88" x2="113.24" y1="208.17" y2="208.17" data-name="New Gradient Swatch 1"/><linearGradient xlink:href="#New_Gradient_Swatch_1" id="New_Gradient_Swatch_1-9" x1="106.96" x2="108.33" y1="207.05" y2="207.05" data-name="New Gradient Swatch 1"/><linearGradient xlink:href="#New_Gradient_Swatch_1" id="New_Gradient_Swatch_1-10" x1="255.13" x2="259.98" y1="63.94" y2="63.94" data-name="New Gradient Swatch 1"/><linearGradient xlink:href="#New_Gradient_Swatch_1" id="New_Gradient_Swatch_1-11" x1="241.99" x2="246.28" y1="49.59" y2="49.59" data-name="New Gradient Swatch 1"/><linearGradient xlink:href="#New_Gradient_Swatch_1" id="New_Gradient_Swatch_1-12" x1="281.02" x2="287.95" y1="114.5" y2="114.5" data-name="New Gradient Swatch 1"/><linearGradient xlink:href="#New_Gradient_Swatch_1" id="New_Gradient_Swatch_1-13" x1="280.35" x2="282.72" y1="109.76" y2="109.76" data-name="New Gradient Swatch 1"/><linearGradient xlink:href="#New_Gradient_Swatch_1" id="New_Gradient_Swatch_1-14" x1="285.99" x2="288.24" y1="109.68" y2="109.68" data-name="New Gradient Swatch 1"/><linearGradient xlink:href="#New_Gradient_Swatch_1" id="New_Gradient_Swatch_1-15" x1="237.75" x2="248" y1="76.44" y2="76.44" data-name="New Gradient Swatch 1"/><linearGradient xlink:href="#New_Gradient_Swatch_1" id="New_Gradient_Swatch_1-16" x1="77.32" x2="87.06" y1="244" y2="244" data-name="New Gradient Swatch 1"/><linearGradient xlink:href="#New_Gradient_Swatch_1" id="New_Gradient_Swatch_1-17" x1="81.84" x2="91.76" y1="237.37" y2="237.37" data-name="New Gradient Swatch 1"/><linearGradient xlink:href="#New_Gradient_Swatch_1" id="New_Gradient_Swatch_1-18" x1="73.53" x2="83" y1="251.02" y2="251.02" data-name="New Gradient Swatch 1"/><linearGradient xlink:href="#New_Gradient_Swatch_1" id="New_Gradient_Swatch_1-19" x1="71.3" x2="80.67" y1="255.02" y2="255.02" data-name="New Gradient Swatch 1"/><linearGradient xlink:href="#New_Gradient_Swatch_1" id="New_Gradient_Swatch_1-20" x1="72.64" x2="81.62" y1="252.79" y2="252.79" data-name="New Gradient Swatch 1"/><linearGradient xlink:href="#New_Gradient_Swatch_1" id="New_Gradient_Swatch_1-21" x1="254.66" x2="259.58" y1="85.89" y2="85.89" data-name="New Gradient Swatch 1"/><linearGradient xlink:href="#New_Gradient_Swatch_1" id="New_Gradient_Swatch_1-22" x1="247.09" x2="252.21" y1="39.26" y2="39.26" data-name="New Gradient Swatch 1"/><linearGradient xlink:href="#New_Gradient_Swatch_1" id="New_Gradient_Swatch_1-23" x1="140.31" x2="157.78" y1="118.51" y2="118.51" data-name="New Gradient Swatch 1"/><linearGradient xlink:href="#New_Gradient_Swatch_1" id="New_Gradient_Swatch_1-24" x1="90.91" x2="96.77" y1="86.46" y2="86.46" data-name="New Gradient Swatch 1"/><linearGradient xlink:href="#New_Gradient_Swatch_1" id="New_Gradient_Swatch_1-25" x1="144.93" x2="153.4" y1="120.02" y2="120.02" data-name="New Gradient Swatch 1"/><linearGradient xlink:href="#New_Gradient_Swatch_1" id="New_Gradient_Swatch_1-26" x1="89.5" x2="91.22" y1="84.49" y2="84.49" data-name="New Gradient Swatch 1"/><linearGradient xlink:href="#New_Gradient_Swatch_1" id="New_Gradient_Swatch_1-27" x1="145.25" x2="146.71" y1="116.92" y2="116.92" data-name="New Gradient Swatch 1"/><linearGradient xlink:href="#New_Gradient_Swatch_1" id="New_Gradient_Swatch_1-28" x1="149.9" x2="151.17" y1="116.02" y2="116.02" data-name="New Gradient Swatch 1"/><linearGradient xlink:href="#New_Gradient_Swatch_1" id="New_Gradient_Swatch_1-29" x1="93.28" x2="94.58" y1="82.45" y2="82.45" data-name="New Gradient Swatch 1"/><linearGradient xlink:href="#New_Gradient_Swatch_1" id="New_Gradient_Swatch_1-30" x1="178.33" x2="183.37" y1="76.59" y2="76.59" data-name="New Gradient Swatch 1"/><linearGradient xlink:href="#New_Gradient_Swatch_1" id="New_Gradient_Swatch_1-31" x1="135.09" x2="136.01" y1="215.73" y2="215.73" data-name="New Gradient Swatch 1"/><linearGradient xlink:href="#New_Gradient_Swatch_1" id="New_Gradient_Swatch_1-32" x1="134.66" x2="135.11" y1="216.17" y2="216.17" data-name="New Gradient Swatch 1"/><linearGradient xlink:href="#New_Gradient_Swatch_1" id="New_Gradient_Swatch_1-33" x1="50.67" x2="388.81" y1="214.76" y2="214.76" data-name="New Gradient Swatch 1"/><linearGradient xlink:href="#New_Gradient_Swatch_1" id="New_Gradient_Swatch_1-34" x1="192.9" x2="193.12" y1="192.55" y2="192.55" data-name="New Gradient Swatch 1"/><linearGradient xlink:href="#New_Gradient_Swatch_1" id="New_Gradient_Swatch_1-35" x1="231.05" x2="231.94" y1="167.56" y2="167.56" data-name="New Gradient Swatch 1"/><linearGradient xlink:href="#New_Gradient_Swatch_1" id="New_Gradient_Swatch_1-36" x1="229.93" x2="230.16" y1="139.89" y2="139.89" data-name="New Gradient Swatch 1"/><linearGradient xlink:href="#New_Gradient_Swatch_1" id="New_Gradient_Swatch_1-37" x1="190.67" x2="190.89" y1="216.64" y2="216.64" data-name="New Gradient Swatch 1"/><linearGradient xlink:href="#New_Gradient_Swatch_1" id="New_Gradient_Swatch_1-38" x1="190.89" x2="191.78" y1="206.82" y2="206.82" data-name="New Gradient Swatch 1"/><linearGradient xlink:href="#New_Gradient_Swatch_1" id="New_Gradient_Swatch_1-39" x1="192.45" x2="192.67" y1="203.7" y2="203.7" data-name="New Gradient Swatch 1"/><linearGradient xlink:href="#New_Gradient_Swatch_1" id="New_Gradient_Swatch_1-40" x1="193.57" x2="194.46" y1="118.92" y2="118.92" data-name="New Gradient Swatch 1"/><linearGradient xlink:href="#New_Gradient_Swatch_1" id="New_Gradient_Swatch_1-41" x1="194.68" x2="194.9" y1="108.65" y2="108.65" data-name="New Gradient Swatch 1"/><linearGradient xlink:href="#New_Gradient_Swatch_1" id="New_Gradient_Swatch_1-42" x1="256.26" x2="256.48" y1="216.64" y2="216.64" data-name="New Gradient Swatch 1"/><linearGradient xlink:href="#New_Gradient_Swatch_1" id="New_Gradient_Swatch_1-43" x1="79.33" x2="84.68" y1="243.56" y2="243.56" data-name="New Gradient Swatch 1"/><linearGradient xlink:href="#New_Gradient_Swatch_1" id="New_Gradient_Swatch_1-44" x1="331.64" x2="346.62" y1="172.38" y2="172.38" data-name="New Gradient Swatch 1"/><linearGradient xlink:href="#New_Gradient_Swatch_1" id="New_Gradient_Swatch_1-45" x1="331.45" x2="344.89" y1="169.23" y2="169.23" data-name="New Gradient Swatch 1"/><linearGradient xlink:href="#New_Gradient_Swatch_1" id="New_Gradient_Swatch_1-46" x1="350.62" x2="369.46" y1="176.27" y2="176.27" data-name="New Gradient Swatch 1"/><linearGradient xlink:href="#New_Gradient_Swatch_1" id="New_Gradient_Swatch_1-47" x1="139.79" x2="143.76" y1="346.43" y2="346.43" data-name="New Gradient Swatch 1"/><linearGradient xlink:href="#New_Gradient_Swatch_1" id="New_Gradient_Swatch_1-48" x1="144.26" x2="148.1" y1="347.55" y2="347.55" data-name="New Gradient Swatch 1"/><linearGradient xlink:href="#New_Gradient_Swatch_1" id="New_Gradient_Swatch_1-49" x1="145.6" x2="149.39" y1="342.54" y2="342.54" data-name="New Gradient Swatch 1"/><linearGradient xlink:href="#New_Gradient_Swatch_1" id="New_Gradient_Swatch_1-50" x1="149.03" x2="152.47" y1="348.92" y2="348.92" data-name="New Gradient Swatch 1"/><linearGradient xlink:href="#New_Gradient_Swatch_1" id="New_Gradient_Swatch_1-51" x1="150.23" x2="153.47" y1="344" y2="344" data-name="New Gradient Swatch 1"/><style>.cls-10{fill:#1f1c1a}</style></defs><rect width="464.55" height="564.47" rx="65.51" ry="65.51" style="fill:url(#linear-gradient)"/><path d="M133.46 459.78c-.23 3.25-.25 6.65.1 9.87.38 3.55 2 4.82 3.07 5.1s.3.5-.8.3-3.57-1.35-4.17-6.27c-.22-1.88-.38-5.17-.05-9.3-2.42-.38-4.87-.88-6.97-1.05-6 7.47-9.32 10.6-10.32 11.55-.85.8-1.45.42-2.2-.08-.7-.5-1.35-1.12-1.15-1.42.12-.17.55.12 1.57-.15 1.32-.35 5.75-3.97 11.05-9.97h-.58c-2.72.02-3.62.08-4.32.33-.77.27-1 .5-1.35.5s-.8-.98-.33-1.42c.35-.33 2.12-.6 2.67-.6 1.35 0 2.87.2 4.55.48 3.2-3.67 6.65-8.15 9.95-13.25.6-.92 1-2.05 1.1-2.95.03-.35 0-.55-.07-.8-.08-.22-.05-.42.1-.8.65-1.75 1.45-4.55 1.9-4.55.5 0 1.05.47 1.05.97s-1.45 3.92-1.62 4.7c-.12.57-2.42 8.82-3.12 18.22 1.25.12 2.52.22 3.75.22 1.32 0 1.82-.12 1.95-.38.12-.22.12-.55.23-.58.1-.02.42.5.45.73.02.22-.27.5-.88.65-.6.15-1.35.22-1.92.22-1.12 0-2.37-.12-3.62-.27Zm-8.29-2c2.05.35 4.25.8 6.47 1.15.32-3.82 1.05-8.3 2.45-13.05-3.45 4.8-6.42 8.72-8.92 11.9" class="cls-10"/><path d="M144.54 475.43c-1.52-1.47-1-4.37-.52-6.42.47-2.05 4.15-13.77 5.27-16.25-1.05 1.22-9.15 12.25-10.95 12.25-.75 0-1.65-1.2-1.65-1.88 0-2.12 3.57-7.17 5.35-7.17 1.15 0 2.35.65 3.02 1.12 2.05-2.6 3.92-5.17 4.57-6.15 1.47-2.22 4.32-10.5 5.75-10.5.45 0 .95.28.95.78 0 .75-3.07 4.87-3.95 6.67s-7.57 19.42-6.95 25.92c.12 1.32.5 1.97.68 2.15.32.33-.65.38-1.57-.53Zm-6.17-11.5c.95 0 3.75-3.17 6.35-6.42-.32-.2-.55-.4-1-.4-1.82 0-5.52 5.05-5.52 6.6 0 .15.08.22.17.22M158.49 468.55c0-3.6 6.15-14.87 5.1-13.45s-7.67 9.72-9.3 9.72c-.58 0-1.35-.97-1.35-1.58 0-1.9 1.05-3.75 1.3-4.37.05-.12.05-.22 0-.35l-.02-.05a.5.5 0 0 1-.02-.38c.3-.72.75-1.42 1.05-1.52.32-.1 1.65.6 1.27 1.1-.6.8-2.65 3.92-2.57 5.37.02.37.08.62.4.62 2.52 0 9.67-10.7 10.52-10.7.2-.05 1.32.33 1.05.92s-5.72 11.65-5.72 15.07c0 .65.23 1.1.6 1.25.3.12.55.77-.08.77s-2.22-.8-2.22-2.45ZM166.07 475.2c0-7.3 10.75-41.12 12.77-41.12.65 0 2.3.83 2 1.3-.25.4-.72-.12-1.3.23-2.62 1.6-11.65 31.24-11.65 39.12 0 .88.05 1.82.6 1.82 1.72 0 9-13.6 12.12-19.82.05-.1.7.08.52.4-3.92 7.27-10.17 20.14-12.32 20.14-1.32 0-2.75-.7-2.75-2.07Z" class="cls-10"/><path d="M176.04 475.9c.17-6.95 3.35-18 6.1-26.09-5.05.57-11.7 1.55-16.05 2.82-.4.12-1.07-1.27-.32-1.45 2.75-.6 10.52-1.5 16.6-2.05 1.42-4.1 2.7-7.37 3.37-8.82.18-.38.88-.27 1.75-.1.85.17 1.7.52 1.6.88-.05.2-.55.1-1.05.47-1.17.88-2.6 3.7-4.02 7.45 2.4-.2 4.37-.33 5.45-.33 3.6 0 3.97 1.15 3.97 1.47 0 .47-.3.83-.65.85-.17 0-.4-.38-.12-.55.42-.3.3-1.17-3.9-1.2-.7 0-2.55.12-4.97.38-2.97 8.02-5.82 19.89-6.07 26.44-.12 3.6 1.82 4.05 1 4.3-.67.22-2.75-1-2.67-4.47Z" class="cls-10"/><path d="M178.6 475.13c0-2.17 4.32-6.17 9.1-9.67-.25-.05-.52-.12-.8-.2-1.27-.4-3-1.5-3-2.87 0-2.58 2.77-4.87 4.1-5.9.32-.22.45-.4.47-.65.02-.2.2-.38.58-.55 1.12-.5 2.47-1.2 3.05-1.2.67 0 1.17 1.2.55 1.42-2.32.83-7.75 5.12-7.75 7.25 0 .88 1.65 1.08 3.05 1.5.35.1.67.22.98.35 3.72-2.62 7.52-4.82 9.67-5.55.18-.05.4.42.25.47-2.1.7-5.65 2.85-9.15 5.4 1.37.72 1.8 1.6 1.8 2.9 0 3.15-7.1 9.6-10.57 9.6-1.72 0-2.32-1.35-2.32-2.3Zm1.92 1.47c3.87-.45 9.75-7.42 9.75-10.05 0-.53-.65-.7-1.57-.88-4.82 3.67-9.3 7.95-9.3 10.02 0 .47.35 1 1.12.9ZM216.49 473.3c-.28-1.62-.9-9.17-1.15-14.25-.25-5.07.05-13.95-.4-13.95s-6.9 15.9-7.32 25.57c-.08 1.5-1.62.22-1.5-.6 0-4.9 7.32-26.14 8.27-26.32.95-.17 2.1.5 2.27 1.62s.9 29.24 2.42 29.24c.5 0 2.37-8.25 4.82-16.75 2.6-9 6.2-18.35 7.7-18.32 1.12.03 1.85.7 1.75.92-.15.35-.95.03-1.42.53-.92 1.02-4.17 7-6.82 16.82s-4.27 17.92-5.42 17.92-2.92-.82-3.2-2.45ZM235.47 466.31c0-2.12 1.7-6.2 2.62-9.25-2.57 2.37-6.5 8.17-8.2 8.17-.5 0-1.35-.77-1.35-1.65 0-1.72 2.62-8.17 4.95-8.17 1.72 0 3.05 1.57 2.85 1.87-.3.42-.88-.57-1.42-.57-1.38 0-4.97 4.47-4.97 7.17 0 .28.2.3.27.3 1.17 0 6-6.05 6.85-7.12s1.2-1.47 1.55-1.47 1.1.45 1.1 1.12c0 .9-2.82 8.62-2.82 10.57 0 .45.35.52.47.52 1.72 0 8.67-8.7 9.97-9.92.35-.33.5.17.33.38-.1.12-2.97 3.55-5.55 6.47-1.8 2.02-3.42 3.85-4.32 3.85-1.3 0-2.32-1.35-2.32-2.27Z" class="cls-10"/><path d="M244.12 466.73c0-2.75 2.67-9.8 2.67-9.95s.07-.4-.08-1.02 2.17.23 2.17 1.55-3.42 6.62-3.42 10.35c0 1 .25 1.4.83 1.35 2.1-.22 5.6-5.72 8-9.97-.2-.5-.33-.97-.33-1.38 0-.88.35-1.7.9-1.7s1.4.35 1.4.97c0 .22-.4 1-1.03 2.12.28.95.8 1.8 1.88 1.8 2.12 0 4.1-2.52 4.35-2.82s1.5 0 .95.58-3.32 3.1-5.12 3.1c-1 0-1.92-.82-2.55-1.8-2.35 3.95-6.72 10.35-8.27 10.35-.92 0-2.35-.78-2.35-3.52Z" class="cls-10"/><path d="M265.39 466.31c0-2.12 1.7-6.2 2.62-9.25-2.57 2.37-6.5 8.17-8.2 8.17-.5 0-1.35-.77-1.35-1.65 0-1.72 2.62-8.17 4.95-8.17 1.72 0 3.05 1.57 2.85 1.87-.3.42-.88-.57-1.42-.57-1.38 0-4.97 4.47-4.97 7.17 0 .28.2.3.27.3 1.17 0 6-6.05 6.85-7.12s1.2-1.47 1.55-1.47 1.1.45 1.1 1.12c0 .9-2.82 8.62-2.82 10.57 0 .45.35.52.47.52 1.72 0 8.67-8.7 9.97-9.92.35-.33.5.17.33.38-.1.12-2.97 3.55-5.55 6.47-1.8 2.02-3.42 3.85-4.32 3.85-1.3 0-2.32-1.35-2.32-2.27Z" class="cls-10"/><path d="M264.12 482.8c0-2.88 7.5-11.02 17-18.7 1.95-4.92 3.07-8.62 2.7-8.12-1.02 1.4-6.55 9.92-9.12 9.92-.7 0-1.7-.38-1.7-1.97 0-2.15 4.42-8.37 6.32-8.37.92 0 1.72.92 2.02 1.5.05.1.08.45-.5.17-.4-.2-.98-.33-1.45.03-2.07 1.47-5.1 5.35-5.1 7.17 0 .17 0 .55.35.55 2.65 0 9.67-10.32 9.92-11.3.45-1.7 1.45-.17 1.25.52-.28.97-1.17 4.17-2.55 8.2 2.62-2.02 5.35-3.97 8.07-5.75.33-.2.88.52.55.72-2.62 1.57-5.82 3.82-9.07 6.37-3.37 9.57-9.07 22.69-15.35 22.69-2.5 0-3.35-2.1-3.35-3.65Zm2.9 2.88c4.4 0 10-11.42 13.52-20.09-7.87 6.45-15.4 14.2-15.4 17.84 0 1.47.7 2.25 1.87 2.25Z" class="cls-10"/><path d="M294.72 466.31c0-2.12 1.7-6.2 2.62-9.25-2.57 2.37-6.5 8.17-8.2 8.17-.5 0-1.35-.77-1.35-1.65 0-1.72 2.62-8.17 4.95-8.17 1.72 0 3.05 1.57 2.85 1.87-.3.42-.87-.57-1.42-.57-1.37 0-4.97 4.47-4.97 7.17 0 .28.2.3.28.3 1.17 0 6-6.05 6.85-7.12s1.2-1.47 1.55-1.47 1.1.45 1.1 1.12c0 .9-2.82 8.62-2.82 10.57 0 .45.35.52.48.52 1.72 0 8.67-8.7 9.97-9.92.35-.33.5.17.32.38-.1.12-2.97 3.55-5.55 6.47-1.8 2.02-3.42 3.85-4.32 3.85-1.3 0-2.32-1.35-2.32-2.27Z" class="cls-10"/><path d="M301.89 475.9c.17-6.95 3.35-18 6.1-26.09-5.05.57-11.7 1.55-16.05 2.82-.4.12-1.07-1.27-.33-1.45 2.75-.6 10.52-1.5 16.6-2.05 1.42-4.1 2.7-7.37 3.37-8.82.17-.38.88-.27 1.75-.1.85.17 1.7.52 1.6.88-.05.2-.55.1-1.05.47-1.17.88-2.6 3.7-4.02 7.45 2.4-.2 4.37-.33 5.45-.33 3.6 0 3.97 1.15 3.97 1.47 0 .47-.3.83-.65.85-.17 0-.4-.38-.12-.55.42-.3.3-1.17-3.9-1.2-.7 0-2.55.12-4.97.38-2.97 8.02-5.82 19.89-6.07 26.44-.12 3.6 1.83 4.05 1 4.3-.67.22-2.75-1-2.67-4.47Z" class="cls-10"/><path d="M310.64 465.56c0-2.38 1.33-6.67 1.85-7.7.08-.15.08-.27.05-.4-.02-.15-.17-.2-.08-.4.55-1.1.7-1.38.88-1.42.1-.02.25-.02.4.05.72.28 1.67 1.28 1.5 1.58-1.8 2.82-4.35 8.77-3.4 9.22 1.35.62 7.4-5.8 10.12-9.42.6-.8.75.05.47.35-.27.3-7.37 9.6-10.37 9.6-.72 0-1.42-.3-1.42-1.45Zm4.35-13.68c.1-.35.6-2.47.75-3.02s1.8.5 1.58 1.03c-.23.52-1.25 2.05-1.45 2.47-.2.4-.97-.12-.88-.47Z" class="cls-10"/><path d="M318.57 467.11c.12-1.9 1.35-5.87 2.77-9.55.05-.12.05-.22 0-.35l-.03-.05a.5.5 0 0 1-.03-.38c.33-.7 1.03-2.05 1.33-2.15.33-.1 1.32.48 1.27 1.1s-2.7 5.5-3.5 10.15c-.22 1.25 6.3-10.62 10.07-10.62.67 0 1.17.5 1.17 1.55 0 1.75-2.92 8.85-2.2 9.25 1.15.65 8.4-7.8 8.87-8.3s.72-.05.45.32c-.27.38-6.87 8.8-9.1 8.8-1.2 0-1.77-1.05-1.77-1.5 0-3.37 2.97-9.02 2.38-9.47-1.2-.9-6.25 5.47-10.32 12.35-.25.2-1.42-.2-1.37-1.15Z" class="cls-10"/><path d="M325.75 482.8c0-2.88 7.5-11.02 17-18.7 1.95-4.92 3.07-8.62 2.7-8.12-1.02 1.4-6.55 9.92-9.12 9.92-.7 0-1.7-.38-1.7-1.97 0-2.15 4.42-8.37 6.32-8.37.92 0 1.72.92 2.02 1.5.05.1.08.45-.5.17-.4-.2-.98-.33-1.45.03-2.07 1.47-5.1 5.35-5.1 7.17 0 .17 0 .55.35.55 2.65 0 9.67-10.32 9.92-11.3.45-1.7 1.45-.17 1.25.52-.28.97-1.17 4.17-2.55 8.2 2.62-2.02 5.35-3.97 8.07-5.75.33-.2.88.52.55.72-2.62 1.57-5.82 3.82-9.07 6.37-3.37 9.57-9.07 22.69-15.35 22.69-2.5 0-3.35-2.1-3.35-3.65Zm2.9 2.88c4.4 0 10-11.42 13.52-20.09-7.87 6.45-15.4 14.2-15.4 17.84 0 1.47.7 2.25 1.87 2.25Z" class="cls-10"/><path d="M87.97 420.45c48.92-10.02 99.05-12.73 148.98-13.43 14.25-.2 28.58-.23 42.66 1.95 17.14 2.66 33.58 8.55 50.31 13.16 15.7 4.33 31.7 7.54 47.85 9.6 7.22.92 14.92 1.8 20.54 6.42 7.54-1.85 14.5 3.49 17.59 10.6s2.7 15.2 2.22 22.95c-.37 5.85-.77 11.8-2.79 17.31-3.62 9.89-12.21 17.38-21.83 21.66s-20.26 5.71-30.77 6.43c-24.04 1.64-48.16 3.7-72.25 3.46-43.11-.42-86.19-9.58-129.08-5.15-33.28-.76-66.44-3-99.47-7.15-4.77-.6-10.11-1.56-12.87-5.5-1.61-2.29-2.02-5.19-2.31-7.98-2.71-26.45 2.64-54.71 19.67-75.13 5.16-6.19 11.63-11.74 19.47-13.64 7.83-1.91 17.16.71 21.21 7.67.45.77 1.14 1.71 1.98 1.44s-.53-1.72-.5-.83" style="fill:none;stroke:url(#New_Gradient_Swatch_1);stroke-dasharray:33.68 18.37 0;stroke-miterlimit:10"/><path d="m276.11 109.33-5.35 5.8c1.32-3.99 4.22-6 5.48-10.36 1.83-6.36 1.06-12.95-2.88-18.34-2.14-2.93-5.32-4.02-7.06-6.99 9.88 2.86 14.9 16.31 11.17 25.66 4.17-3.93 13.19-3.19 14.86 2.97 3.85 14.19-17.95 15.08-16.22 1.26m5.69-5.26c-6.74 1.49-6.41 14.02 2.57 14.07 10.5.06 9.35-16.71-2.57-14.07" style="fill:url(#New_Gradient_Swatch_1-2)"/><path d="m82.05 229.79 13.61 8.46-14.95 24.07-13.61-8.46zm12 8.5-11.97-6.64-12.82 21.79 11.37 7.12 13.43-22.28Z" style="fill:url(#New_Gradient_Swatch_1-3)"/><path d="M258.27 91.92c-.46.46 1.26 3.95-2.01 3.61-2.78-.28-1.07-3.13-1.56-3.61-.22-.22-2.7.45-3.38-.42-.54-.7-.51-10.5.71-11.39s10.06-.92 10.92.65c.25 2.27.97 10.16-1.43 11.07-.79.3-3.1-.07-3.26.09Zm3.35-11.16h-8.03c-.16 0-.69.57-1.12.45v9.15c0 .95 2.4.1 2.9.65 1.18 1.31-.03 2.86.45 3.15 1.86 1.08.59-2.65 1.53-3.38.79-.61 3.26.22 4.08-.39.75-.56 1.51-9.05.19-9.62Z" style="fill:url(#New_Gradient_Swatch_1-4)"/><path d="M244.98 46.29c-.98-.92.44-2.46.15-3.03-.5-.97-3.31-.61-3.38-2.84-.03-.83 3.89-7.91 4.66-8.33 2.19-1.2 9.23 2.44 10.1 4.25.95 1.96-2.89 8.96-4.26 9.66-1.64.85-2.52-1.18-3.54-.91-.5.13-1.55 3.22-3.74 1.19Zm6.98-1.27c.4-.17 3.66-6.65 4.01-7.71-.18-.9-7.64-4.96-8.56-4.7-.44.12-4.79 7.33-4.7 7.78.15.77 2.89 1.27 3.3 2 .6 1.07-.61 2.76.44 3.12 2.06-3.45 4.17.1 5.5-.48Z" style="fill:url(#New_Gradient_Swatch_1-5)"/><path d="m95.37 75.95 7 9.51-11.18 8.23-7-9.51zm-.57 2.21c-.54.01-8.66 5.86-8.69 6.4l5.49 7.25 9.14-6.8c-1.38-.93-4.5-6.88-5.94-6.85" style="fill:url(#New_Gradient_Swatch_1-6)"/><path d="M114.13 211.51c-.12 5.53-10.21.54-8.47-1.34.32-.35 5.64 5.06 8.47 1.34" style="fill:url(#New_Gradient_Swatch_1-7)"/><path d="m113.24 209.72-1.36-1.12 1.14-1.99z" style="fill:url(#New_Gradient_Swatch_1-8)"/><path d="M108.33 205.71v2.68H107c-.07-1.05-.25-2.79 1.33-2.67Z" style="fill:url(#New_Gradient_Swatch_1-9)"/><path d="M257.82 67.37c-4.2-1.11 5.27-8.63-2.67-4.46-.37-3.51 4.13-2.87 4.83-.14-.74 1.81-2.76 2.18-2.16 4.6" style="fill:url(#New_Gradient_Swatch_1-10)"/><path d="M246.28 49.59c0 1.19-.96 2.15-2.15 2.15s-2.15-.96-2.15-2.15.96-2.15 2.15-2.15 2.15.96 2.15 2.15m-2.73-.95c-.22.11-.63 2.09.66 1.78s.39-2.28-.66-1.78" style="fill:url(#New_Gradient_Swatch_1-11)"/><path d="M287.68 114.28c1.72 2.08-5.36.34-6.65.85-.34-2.27 6.28-1.3 6.65-.85" style="fill:url(#New_Gradient_Swatch_1-12)"/><path d="M281.26 107.54c1.64-.26 2.06 3.73.44 4.45-1.45-.59-1.93-4.21-.44-4.45" style="fill:url(#New_Gradient_Swatch_1-13)"/><path d="M286.39 107.99c1.73-1.2 2.57 3.14 1.1 3.56s-1.91-3-1.1-3.56" style="fill:url(#New_Gradient_Swatch_1-14)"/><path d="m248 74.97-8.47 2.94-1.78-.5z" style="fill:url(#New_Gradient_Swatch_1-15)"/><path d="M87.06 244a4.87 4.87 0 1 1-9.739.001A4.87 4.87 0 0 1 87.06 244m-5.15-3.85c-5.1.5-4.17 8.18 1.17 7.5 4.7-.61 3.16-7.92-1.17-7.5" style="fill:url(#New_Gradient_Swatch_1-16)"/><path d="M91.37 240.96c-1.59-.85-11.64-5.18-9.14-7.14.87-.68 11.66 5.74 9.14 7.14m-7.58-6.24c-1-.83-1.01.86-.22.89.39.01.26-.86.22-.89m.45 1.33 1.77.68c-.39-.48-1.63-1.89-1.77-.68m2.9 1.34v.45l.22-.22-.22-.22Zm1.78.89v.45l.22-.22-.22-.22Zm1.56.9h-.89v.44h.89z" style="fill:url(#New_Gradient_Swatch_1-17)"/><path d="M82.9 253.02c.24.32.11 1.16-.64.86l-8.73-5.77c1.48.42 8.84 4.21 9.37 4.91" style="fill:url(#New_Gradient_Swatch_1-18)"/><path d="M80.67 257.91c-3.07-1.2-7.25-3.21-9.37-5.79 3.25 1.52 6.83 3.17 9.37 5.79" style="fill:url(#New_Gradient_Swatch_1-19)"/><path d="M81.56 254.8c.07.1.16.94-.23.89-.52.07-8.38-4.23-8.69-5.81 1.15.71 8.64 4.49 8.92 4.92" style="fill:url(#New_Gradient_Swatch_1-20)"/><path d="M257.37 89.24c-3.84-1.07 3.4-4.69-.61-5.78l-2.06 1.76c-.17-1.3.2-2.45 1.59-2.68 6.43 1.08 1.52 3.3 1.08 6.7" style="fill:url(#New_Gradient_Swatch_1-21)"/><path d="M251.46 36.26c.65.49 1.03 2.31.5 3.13-.15.23-3.91 3.53-4.17 3.43-2.76-1.06 3.55-4.2 3.34-5.12-.84-1.24-2.01-.49-2.9.2-2.28-2.1 1.62-2.86 3.23-1.65Z" style="fill:url(#New_Gradient_Swatch_1-22)"/><path d="M148.49 111.11c-2.91 1.81-4.99.57-6.45 4.47-4.58 12.26 15.39 13.67 14.49 2-.41-5.32-4.13-4.63-7.14-7.37 12.88 1.12 10.13 18.5-2.8 16.4-9.11-1.48-8.19-18.36 1.9-15.5" style="fill:url(#New_Gradient_Swatch_1-23)"/><path d="M90.93 87.9c-.29-1.71 2.3-.45 3.58-1.1.84-.43.87-1.97 1.31-2.26 2.51-1.65-.29 6.44-4.89 3.36" style="fill:url(#New_Gradient_Swatch_1-24)"/><path d="M153.4 117.8c-.53 4.03-5.62 6.02-8.47 2.89 1.4-.99 2.58.76 4.93.03 1.79-.56 1.85-2.64 3.54-2.92" style="fill:url(#New_Gradient_Swatch_1-25)"/><path d="M89.6 83.44c.69-.74 2.5 2.21 1.11 2.22-.42 0-1.53-1.77-1.11-2.22" style="fill:url(#New_Gradient_Swatch_1-26)"/><path d="m146.26 115.57.45 2.67c-1.35.45-2.26-2.96-.45-2.67" style="fill:url(#New_Gradient_Swatch_1-27)"/><path d="m151.17 114.68-.22 2.67c-1.09-.99-1.77-2.6.22-2.67" style="fill:url(#New_Gradient_Swatch_1-28)"/><path d="M94.5 83.44c-.75 1.18-1.92-2.37-.67-2.22.62.08.91 1.84.67 2.22" style="fill:url(#New_Gradient_Swatch_1-29)"/><path d="M183.37 76.59c0 1.39-1.13 2.52-2.52 2.52s-2.52-1.13-2.52-2.52 1.13-2.52 2.52-2.52 2.52 1.13 2.52 2.52m-1.37-.07c0-.64-.52-1.15-1.15-1.15s-1.15.52-1.15 1.15.52 1.15 1.15 1.15 1.15-.52 1.15-1.15" style="fill:url(#New_Gradient_Swatch_1-30)"/><path d="M135.11 215.53c.18-.06.93-.13.9.22.05.45-.62.11-.9.22.06-.05-.06-.43 0-.45Z" style="fill:url(#New_Gradient_Swatch_1-31)"/><path d="M134.66 215.97c.13-.04.37.06.45 0-.02 0-.23.93-.45 0" style="fill:url(#New_Gradient_Swatch_1-32)"/><path d="M260.72 57.56c4.32.79 2.54 11.49 1.26 11.97-.85.32-3.52-.12-3.72.08.11.66-.16 3.42 0 3.57.53.53 12.72-.16 14.94 0 11.91.92 25.11 3.96 33.7 12.71 1.41.3.53-4.02 0-4.91-1.92-3.2-19.48-10.39-23.65-11.61-2.02-.59-14.99-2.82-15.17-3.58-.15-.65.48-1 1.06-1.08 2.11-.3 12.13 2.32 14.79 3.09 8.38 2.42 16.04 6.39 23.41 10.95-3.99-18.91-21.39-33.82-40.59-35.48.22.37 7.09 3.4 3.78 4.46-.58.19-9.24-4.93-11.3-4.53-.17-.24-.18-1.45 0-1.66.43-.52 12.37-4.52 12.87-4.07 1.88 1.65-5.62 2.98-5.8 4.01 19.36 1.38 34.82 14.61 41.5 32.35.77 2.04.67 5.41 1.48 6.78 1.54 2.62 12.95 9.22 14.35 13.97 1.48-.46 5.15-15.26 4.19-17.56-2.28-5.46-17.53-10.51-22.7-12.56.11-1.68 9.15 1.55 10.11 1.93 4.85 1.94 9.19 5.16 13.08 8.56l-3.57-18.74c-1.69-1.6.36 10.1-3.51 6.43 1.94-2.1-.84-13.31 2.62-12.01.64.24 8.69 9.6 8.84 10.37.87 4.53-4.92-3.15-5.7-3.68 3.64 5.67 1.91 14.32 3.12 19.63.22.96 4.59 6.3 5.57 8.26 5.33 10.65 7.48 22.47 6.91 34.37 39.59-6.98 60.72 28.24 34.82 59.12 3.9 1.72 1.79 2.49 1.94 3.13.22.96 1.45 1.56.98 2.46-.58 1.11-20.32 12.68-21.56 12.84-1.65.21-3.71-2.1-5.16-2.04-1.62.07-6.19 3.75-8.33 3.92 5.7 6.55 12.67 14.73 10.71 24.09 3.79-2.75 6.05-7.21 7.35-11.61.6-2.05.31-8.43 2.39-5.94.09 8.31-3.84 15.31-10.06 20.44 7.8 21.73 11.42 46.6 6.34 69.4-4.11 18.44-16.74 39.09-38.6 35.25.4-2.6 4.07-.71 6-.88 16.75-1.51 25.78-15.87 30.02-30.7 6.58-23 2.76-48.22-4.34-70.6-1.03.49-5.2 6.58-5.28 7.02-.14.77 5.19 12.09 5.93 14.42 5.98 18.83 6.48 43.02-8.68 57.77 19.81-5.61-5.46 6.64-6.67 3.52 1.87-1.77 3.58-11.02 4.2-11.79.4-.5 1.86-.6 2.02-.43 1.04 1.09-2.6 8.19-1.12 7.58 16.99-17.65 14.15-46.76 3.36-66.93.14 15.37-3.4 31.63-10.1 45.46-1.92 3.96-5.88 8.76-7.52 12.56-.56 1.29.1 2.74-.45 4.01-.29.68-1.72.87-1.96 1.64-.61 1.92 1.26 5.43-.93 9.75-.56 1.1-4.46 5.26-5.53 5.07-2.75-.48.84-5.7-2.07-5.75.47 14.87-1.33 29.91-1.38 44.85 0 2.13 1.52 4.18.95 7.15-.59 3.13-3.97 2.45-4.03 3.1-.12 1.14 8.5 9.09 8.45 12-.11 6.07-10.18 4.42-13.78 2.7-10.29-4.92-3.77-11.85-5.44-14.41-.38-.59-4.26-.55-4.9-1.23-.72-.78-1.78-6.84.52-7.16l-2.7-39.41-3.06 39.02c1.74.49 1.62 4.83 1.25 6.25-.75 2.94-4.94 2.03-5.34 2.48-.29.34 1.52 6.2.69 8.94-1.59 5.28-17.45 10.82-19.33 5.01-1.87-5.8 6.78-9.29 8.37-14.19-4.9-.84-5.48-2.37-5.34-7.12.02-.83 1.15-1.36 1.15-1.78-.01-2.62-1.38-6.19-.71-9.17-9.84 4.88-20.69 8.22-31.68 9.37-1.46 11.53 9.18 15.1 15.41 21.41 12.47 12.64-6.76 13.93-15.57 9.77-3.56-1.68-7.58-7.32-8.1-7.53-.89-.35-.16 1.27-2.1.79-12.87-3.18-2.03-15.18-4.99-23.6-11.47-1.03-22.3-5.26-29.27-14.68l2.62 34.54c-.45.9-3.86 2.9-4.87 3.22-.95.31-1.62-.98-2.22-.72-.33.15-2.6 4.45-4.26 5.78-7.46 5.97-30.46 5.45-20.22-7.27 2.71-3.37 7.98-6.09 11.09-9.88 5.72-6.97 3.64-9.42 4-17.76.02-.45 1.32-.43 1.36-1.42.15-3.33-1.61-8.27-1.36-11.84l-26.34 2.44-5.67 15.41c-1.52.52-15.97-3.57-17.05-4.71-2.79-2.95 3.14-11.41 2.01-13.58-.21-.41-6.6-3.55-7.97-4.55-17.46-12.76-26.81-37.66-15.48-57.48l-25.15 1.84c-6.04 22.02.33 51.05 21.37 62.85l-3.35-6.23c1.28-1.34 3.99 3.72 4.91 4.67.8.83 7.2 4.66 4.16 5.96-.66.28-15.56 1.64-11.98-1.71h6.92c-23.26-11.95-29.55-42.07-24.6-65.99-21.29-2.7-34.29-21.11-25.45-41.85.73-1.71 7.1-12.21 8.99-11.3-.19 3.03-3.86 5.86-5.58 8.92-11.4 20.26.91 40.15 22.98 42.4 2.93-13.66 11.4-25.17 20.46-35.4-2.54-2.38-5.1-10.79-7.09-12.56-1.51-1.34-11.15-5.09-14.11-6.86-26.85-15.97-51.07-48.06-26.91-77.93 11.23-13.88 18.68-10.9 31.18-17.46.61-.32 10.37-8.13 10.64-8.77.48-1.12.28-6.19.68-8.03 1.29-5.93 2.88-10.92 6.39-15.92 1.24-1.77 7.29-7.43 7.53-8.09 2.33-6.44-1.3-9.76 6.52-16.24 12.69-10.51 25-5.9 38.54-6.93 4.22-.32 10.8-3.41 16.15-3.97 1.63-.17 9.59.25 9.98-.07.19-.16-.93-3-.25-4.93.61-1.72 3.34-2.08 3.72-2.75.42-.74-.14-1.98.99-3.69 1.31-1.98 3.58-1.9 4.94-3.09 2.68-2.36 3.37-5.98 8.69-6.07 2.08-.04 4.31 1.65 5.85 1.67 3.35.04 4.61-3.1 9.83-.84.98.43 5.85 4.27 6.87 5.18 1.12 1.01 1.15 3 1.87 3.7 1.05 1.01 3.61.65 4.9 3.36.18.37 2.47 7.32 2.55 7.72.32 1.78-.45 8.62-.23 9.59.39 1.77 4.69 3.31.7 5.78.74-2.33.72-3.56-1.78-4.46 2.49 3.76-2.01 8.78-2.14 10.55-.07 1 1.31 2.42 1.22 3.92-.08 1.38-1.72 2.69-1.68 3.53.05 1.17 3.86 4.79-.53 6.09 2.85-3.54-2.28-5.18-2.58-8.35-.09-.99 1.05-3.01.8-3.24-2.08-1.9-5.53 5.17-6.51 6.65-.77 1.17-3.36 2.92-3.66 3.93-.49 1.67-.18 8.27.47 10.05 1.62 4.46 4.35 2.35 6.24 3.11 3.65 1.47 16.19 8.59 18.66 11.27 4.85 5.27 6.65 15.91 8.91 22.55l5.79-2.68c-.94-1.03-3.11.25-2.67-2.22 9.4.6 18.65-6.61 25.83-12.33 7.72-6.15 23.95-23.65 22.35-34.31-.27-1.83-8.07-6.9-9.96-7.89-13.53-7.06-31.86-6.84-46.7-5.28.22-1.7 4.88-1.11 6.24-1.34-2.64-.18-1.4-3.63-1.78-4.01-.24-.24-2.73.72-3.48-1.21-.42-1.09-.4-10.84 1.02-10.84 2.22 0 6.09-.36 8.03 0Zm-56-18.29h-.89v.44h.89zm1.34 0h-.89v.44h.89zm14.95-.01v.45l.22-.22-.22-.22Zm.89.45v.45l.22-.22-.22-.22Zm-19.63.45v.45l.22-.22-.22-.22Zm20.52 0v.45l.22-.22-.22-.22Zm11.15 9.82.23.66.23.21v-.44l-.46-.44Zm-43.72 2.68c-.53.53-1.47 1.4-1.35 2.21.46-.56 1.36-1.46 1.35-2.21m47.07 7.13-.22-2.23c-.98.69-.98 1.8.22 2.23m24.33-.89h-8.7v9.37c0 .33 3.82-1.12 3.79 4.01.27-6.16 4.23-3.14 5.13-4 .34-.33.96-8.86-.22-9.37Zm-73.86 1.34c-7.16-.64-14.88-.18-21.42 3.11 3.91-1.25 17.5 8.58 18.52 8.47 2.04-.21-.57-10.06 2.9-11.59Zm-28.11 3.12c-14.97-1.31-41.14.77-41.05 20.97l9.36-5.36c-1.16-.37-9.65 1.79-7.07-1.27.44-.52 12.07-2.22 13.36-1.12.51 1.63-10.66 17.35-4.71 3.75-7.86 5.05-12.73 3.73-8.34 14.12 6.18 14.59 9.24-1.51 13.1-8.02 3.79-6.39 9.2-11.72 14.94-16.3zm77.2-.44v3.56h.45v-3.56zm-52.32 9.92c-2.65-2.79-18.37-9-22.2-8.4-1.97.31-8.89 4.75-10.85 6.14-8.87 6.28-16.86 15.68-19.94 26.24 13.13-8.53 30.51-12.65 46.12-10.65 3.47.44 11.63 3.81 13.07 3.86.88.03 6.14-3.15 8.18-2.58-1.56-6.5-3.92-4.16-8.02-7.58.15 1.74-1.53 2.71-1.77 4.27-.19 1.21 1.46 5.6-.25 4.21-3.47-3.28 1.16-6.59 1.02-9.02-.11-1.83-3.31-6.19-2.58-8.83-3.64 3.98 1.44 5.28 1.34 8.92-1.52-.71-3.85-6.29-4.12-6.58m47.79 5.77c-.23-.36-1.45-.59-1.96-.13-3.33 2.96 4.15 3.52 1.96.13m-36.56.41c-.67-.5-2.68.2-2.19 1.52.77 2.04 4.24.01 2.19-1.52m145.46 40.96c2.88-4.1-4.46-36.07-11.1-40.11.85 3.5-4.94 14.9-4.82 16.66.05.75 5.66 10.73 6.6 13.45 1.23 3.56 2.01 7.22 2.43 10.96.36.51 6.68-.68 6.88-.97ZM234.17 81.21c-3.88 2.11-.19 9.05.47 3.34.14-1.18-.2-2.23-.47-3.34m83.45 23.65c1.4-.93 5.32-7.37 5.15-8.52-.28-1.92-10.96-12.2-13.63-13.34-.71 7.99 8.71 13.21 8.48 21.86M190.4 91.53c-15.29-6.66-33.84-4.83-48.9 1.66-5.54 2.39-13.08 5.29-11.75 12.57 14.52-2.46 29.06.23 41.49 8.03.89-5.12 10.11-9.66 12.07-12.7.92-1.43.53-3.48 1.75-4.94 1.82-2.17 5.87-.77 5.33-4.62Zm-86.08 24.48c3.78-1.57 19.1-9.9 19.58-13.67.1-.76-7.23-11.08-6.2-13.99-8.82 6.64-12.75 16.85-13.38 27.66m165.11 18.31c1.2.59 6.63 2.97 7.47 3.04 2.01.16 18.91-11.33 21.67-13.39 3.42-2.56 18.38-14.57 18.53-18.3.16-4.2-5.14-12.9-8.18-15.97-3.97 20.63-21.67 35.53-39.49 44.63Zm-81.22-38.38c-2.2.11-2.92 2.07-2.67 4.01zm128.52 32.12 15.99-6.5c-1.07-8.15-3.53-16.37-8.63-22.95-.49 2.72-5.1 7.12-5.49 9.25-.36 1.97.64 5.33.35 7.91-.46 4.16-1.25 8.22-2.22 12.28ZM127.87 106.1c.37-.44.87-5.14.32-5.25-1.77.55-1.05 3.02-1.56 3.36-.71.48-1.63-.41-2.23-.02-1.13.73-2.61 2.74-3.58 3.8 1.15-.34 6.61-1.36 7.04-1.88Zm56.77-3.47c-1.02-.77-11.86 9.83-12 11.45-.05.53 3.48 3.72 3.75 3.71.49 0 5.83-5.84 7.74-6.01-1.15-1.7-1.28-4.17.06-5.82-2.17.87-1.08 4.22-1.33 6.03-3.3-3.89.26-6.13 1.79-9.37Zm10.26 8.48c1.09-1.46 2.5-1.56 2.23-4.91-2.27-.47-4.61 3.7-3.57 4.91.11.13 1.05-.12 1.34 0-.64.85-1.94 1.28-1.78 2.68 2.36-.67 3.64.38 3.12-2.68-.39-.09-1.07.12-1.34 0m-32.58 35.25c-.28-5.16.49-10.16 1.56-15.17 1.23-5.74 3.78-10.83 5.63-16.31-11.92-7.71-26.3-9.76-40.2-7.34-1.21 1.36 2.15 19.06 4.06 21.14 1.59 1.74 10.51 3.75 12.67 6.51-3.7-9.63 7.41 4.46 6.02 5.81-4.56-.18-18.95-2.28-4.91-2.9l-12.26-6.92c2.68 6.9 8.71 13.55 14.54 18.04 1.68 1.29 13.35 8.45 14.47 8.28.58-.09.65-.76.45-1.33-.42-1.26-10.83-11.46-10.94-12.27-.06-.44.43-1.08.67-1.1.61-.06 6.87 8.23 8.48 8.91l-2.46-6.01 2.23.66Zm68.73-37.04c.26-1.18-3.29-2.95-3.56-2.67-1.14 1.18 2.75 2.86 3.56 2.67m-103.08 6.92c-.28-1.98 0-5 0-7.14 0-.18-.58-.68-.45-1.12-10.3 1.11-13.97 7.89-17.4 16.73l20.98 3.35c-1.13-3.87-2.56-7.81-3.12-11.82Zm65.15-7.36c-20.05 5.38-21.82 23.82-26.12 41.02l10.95 10.29-.44-23.2c3.83 6.4 2.2 16.91 1.77 24.31-.78 13.29-4.36 27.91-4.92 40.6-.12 2.81-.14 5.6.92 8.27l1.77-2.23c.11.55-.2 1.92.02 2.21.37.48 10.67.45 12.03.47l4.01-101.74Zm37.87.94c-.15-.18-2.51-.41-3.06-.95-1.34 3.6 4.94 3.16 3.06.95m4.97 100.35h11.6c-2.16 1.96-.37 5.49-.44 8.48.72.14.97-.15 1.24-.77.79-1.78 1.12-13.01 1.01-15.53-.52-11.94-3.96-25.59-4.91-37.92-.72-9.24-1.32-18.63-.45-27.88 3.19.96.88 4.31.86 5.99-.08 5.96.58 11.75.93 17.66l11.6-9.37-11.14 11.39c-.32 13.64 3.68 27.63 4.44 41.05.25 4.51-2.88 10.75 1.79 13.6l.89-3.57c-.21 6.61 8.22 6.09 10.26 1.34 0 .97-2.06 4.4.23 3.58.96-.34.92-5.62 2.9-5.81-.11.55-2.32 6.22-.68 5.79 3.29-3.75 4.09-9.62 3.74-14.43-5.82-20.3-8.84-41.84-14.16-62.15-4.13-15.78-6.96-26.26-23.48-32.74l3.79 101.3Zm54.44-59.8c6.36-7.1 12.99-13.56 20.56-19.37.95-.73 2.98-.42 4.19-2.06 1.61-2.18 4.03-19.36 2.24-19.62-10.42 12.2-23.9 21.29-37.7 29.22 4.73 2.55 9.35 6.33 10.71 11.82Zm-59.45-38.28c-.35-.26-2.34-.2-3.03-.53-.47 2.42 1.63 2.64 3.56 2.67.16-.15-.21-1.9-.54-2.14Zm-115.92.36c-.43-.38-9.77 4.85-10.04 5.35-.68 1.26.4 9.47 3.57 6.69.95-.83 3.95-10.63 6.47-12.04m79.43 3.57c1.03-1.15 2.24.58 1.78-2.23-1.57-.09-3.43.37-3.12 2.23.39.08 1.05-.11 1.34 0-1.62 1.81-1.6 2.15-1.77 4.69-.28 1.17.87.46 1.32.66-5.3 4.6 4.44 3.18 1.79 0-.12-.15-1.46.14-1.79 0 .94-.82 2.05-.14 2.24-1.55.47-1.83-1.35-.8-1.36-1.35 0-.18 2.1-.82 1.35-2.45-.5-.11-1.42.14-1.79 0Zm37.02-1.33-3.11-.46c.36.94-.27 6.89 0 7.14.11.11 3.01.1 3.13 0 1.05-.9-.91-1.88-.9-2.01.02-.26 3.25-2.49-1.34-2.68 1.85-.54 2.61.53 2.22-1.99m-66.03 37.92 9.76-32.91c.1-1.96-2.66-2.33-3.73-3.68-5.77 10.56-10.02 24.81-6.03 36.59m-62.47-33.02-7.58 6.24 8.48-.89zm231.15 16.5c24.87-8.46 50.25 7.32 33.47 34.11.12.52 8.64 4.9 9.37 4.99 2.74.33 7.96-12.51 8.6-15.1 7.24-29.19-17.21-43.6-42.87-37.96-.92 3.3-.22 7.73-2.54 10.39l.46-10.69c-.83.69-5.73 1.02-5.98 1.38-.55.78.43 10.83-.49 12.89Zm-102.24-13.77c-1.69-2.32-7.61 1.89.05 2.18-.09-.58.22-1.81-.05-2.18m100.9 1.73c-2.28-.38-21.26 7.16-18.29 10.26.82.18 4.19-3.96 4.45-1.56.05.49-6.43 6.9-6.91 6.91-1.99.07-.61-4.19-1.34-5.36-1.91-.73-18.54 15.67-19.19 18.33-1.04 4.3 1.34 11.06-3.34 15.8-4.69 4.75.77-5.88 1.05-6.98.12-.46 1.58-7.05-.14-5.73-1.54 1.19-6.66 14.68-5.82 16.73l24.44 7.75c2.03.09 13.01-10.18 14.17-12.87-1.83 1.7-11.6 12.16-13.38 11.59-2.4-.76 5.61-6.03 6.69-7.13 8.82-8.94 14.91-20.52 16.72-33.03-.87-.93-7.75 3.75-8.46 3.83-.66.07-.95-.31-.91-.92 2.94-3.44 10.26-2.73 10.26-8.04v-9.59Zm-137 .44c-4.42-1.49-5.32 9.69-.19 6.28.83-2.53-.35-2.71-2.49-2.93 2.65-.16 2.96-.69 2.68-3.35m31.03.46-14.33 10.71-14-10.05c2.51 1.91 11.55 10.51 14.05 10.51 2.22 0 12.57-8.83 14.28-11.17m5.13-.01h-3.13v2.69h3.13zm-124.06 1.34c-1.15-1.4-1.15 2.73 0 1.33.04-.05.04-1.28 0-1.33m-3.19.51c-1.32-.77-10.75.53-12.46 1.47-2.33 1.28-10.05 11.82-11.75 14.57-3.1 5.01-5.61 10.4-7.4 16.02 6.29 1.42 3.63.7 5.63-2.62 2.53-4.19 4.91-6.01 10.17-5.36 5.21.64 5.44 4.9 6.11 5.28.83.46 6.25-1.95 9.52 2.29 4.29 5.56-1.96 11.18-1.1 11.81 4.7 2.14 6.84-5.25 10.97-6.92-3.57-6.87-7.63-13.2-8.3-21.19-.23-2.77.99-13.96-1.39-15.34Zm59.41 32.07c-.3-.42-7.67-3.01-9.51-4.11-7.09-4.26-12-8.56-16.99-15.14-1.55-2.04-4.76-8.65-6.11-9.51-2.3-1.46-20.52-4.53-22.23-3.33-3.75 2.65 5.34 13.48 7.31 15.57 7.47 7.94 20.99 15.97 31.46 18.96 2.02.58 13.39 3.15 14.53 2.78.64-.21 1.7-5 1.54-5.22m-74.52-30.34c-15.03 3.47-29.56 13.36-34.67 28.47-11 32.48 19.09 58.31 45.82 69.7-1-1.79-2.41-9.82-3.34-10.71-.45-.44-5.16-1.74-6.49-2.44-6.66-3.48-11.67-6.66-15.79-13.21-1.23-1.95-3.82-9.29-4.25-9.59-1.29-.9-9.19 1.85-10.25-5.35-.7-4.76 2.61-6.59 2.64-7.99.07-2.66-4.62-4.61-1.42-11.69 2.67-5.89 7.16-4.64 9.35-6.49.62-.52 5-12.22 6.44-14.76 3.3-5.83 7.57-10.92 11.96-15.93Zm142.35-.01h-3.13v1.79h3.13zm.45 2.67h-3.59v2.7h3.59zm-37.04.45c-1.75-1.82-5.78 3.3-1.33 3.35-4.34-.11-.88 8.07 1.29 3.94.09-.17.04-3.17.07-3.86.02-.44-.9-.13-.92-.52 0-.17 2.14-1.62.9-2.9Zm118.7.45c-1.49-.06-1.96 1.51-1.78 2.67.7-.1 2.16-2.28 1.78-2.67m-182.96 24.09c-8.86-6.03-17.45-12.61-23.2-21.86-1.75 9.82 2.37 19.62 8.02 27.47zm101.3-21.86h-3.57c-.68 1.83 1.77 1.63 1.79 2.01.03.5-1.5-.2-1.8 1.33-.06.32.45 3.33.45 4.4 0 .44.91.13.91.52s-.92.09-.9.52c.06 2.28-.04 4.57 0 6.85l3.51-.7c-.71-3.11.57-3.43-3.07-3.54 4.64.81 1.83-5.19 2.72-8.45-3.54-.32 1.91-.97-.03-2.93Zm131.63 4.92c-9.23-4.95-20.59-4.67-30.26-1.26-1.33 10.39-5.43 20.33-11.68 28.7l3.56-2.69c-1.79 2.74-3.68 6.02-5.81 8.47-.37.43-3.31 3.4-3.51 3.59-2.02 1.87-4.58 3.2-6.74 4.9 5.43 2.92 11.4 3.99 17.11 6.53 3.38 1.5 15.74 9.94 16.7 10.12 1.94.34 5.75-2.63 7.67-3.28l.46-.64c-.42-.86-15.78-7.06-16.96-8.7-.15-.2-.94-4.66-.9-4.91.11-.59 1.8-.32 1.34-1.57-1.92-.29-8.62.09-9.97-.51s-.38-3.04-.75-3.49c-.1-.12-1.98.15-2.2-.69-.4-1.55 10.06-8.59 10.5-10.06.87-2.93-5.47-9.45 4.45-10.24 8.25-.65 11.26 3.11 7.8 10.69 10.67-.61-3.46 2.68-6.03 2.72-2.48.03-4.59-1.95-5.7-1.75-.64.11-9.17 7.49-8.8 7.96 4.41-1.2 14.69 4.66 17.18 4.73 2.75.08 13.8-5.83 17.59-6.11.84-1.54-5.52-13.29-3.53-16.01-.59 1.84-9.35 1.47-9.36.66 4.6-.74 6.69-1.35 10.04-4.68l.66.65c-.98 8.23.03 15.24 9.37 17 5.44-7.82 8.08-18.98.9-26.58-2.01 3.61 4.68 8.02-1.57 9.37 3.39-3.79.16-4.04-.14-5.17s1.61-11.46-3.66-3.31l-3.11-2.23c-.95 2.47-1.66 7.99.67 9.81s.99-1.45 2.89-1.33c-3.34 10.89-8.95-10.13-2.93-9.39 1.58.2 2.14 2.43 4.71-1.32Zm-82.99 34.35H269.2c-.99 0-3.9 1.66-2.6-.9l14.8-.5c2.36-10.45 2.24-24.84-11.98-24.92.08-2.66 3.97-1.44 5.6-.92 5.92 1.92 9.47 8.77 9.13 14.75.68-1.26 5.09-7.57 5.16-8.25.39-3.82-7.99-12.8-11.81-12.95-2.72-.11-15.27 9.1-17.91 7.61-.35-.24-.63-.79-.44-1.13.43-.74 13.79-5.84 15.61-7.15.94-1.14-7.39-2.75-8.25-2.69s-9.92 4.25-10.08 4.78l9.41 41.2c5.9-3.6 15.51.45 15.16-8.92Zm-85.69-30.35c1.41-1.57-1.74-4.77-3.36-2.7-2.15 2.73 2.43 3.73 3.36 2.7m-3.56 3.58c.61.62 5.21-.05 3.36-2.71-.8-1.15-5.31.73-3.36 2.71m3.13.44c-.08-.08-2.09-.08-2.39.07-1.02.48-.72 8.09-.76 9.9 0 .45.93.13.92.52 0 .41-.92-.1-.94.86-.17 9.12-.28 18.16-.45 27.29-.02.96 1.03.47.94.86-.08.32-1.92.46-1.35 2.23.18.55 1.34-.09 1.35.45s-1.23-.12-1.38.47c-.62 2.47.52 7.65.04 10.46 5.03-.65 1.76-2.2 1.78-2.45 0-.08.83-.64.88-1.36.07-1.15.59-8.86.48-9.35-.14-.58-1.23.1-1.36-.45-.09-.36 1.14-.09 1.34-1.34.19-1.18.02-4.34 0-5.73 0-.44-.87.14-.9-.96 0-.14.65.12.9-1.73.02-.17-2.35-.53.44-1.85.54-1.93-3.17-.81.04-1.8-.36-4.14 0-8.27-.01-12.4 0-.45-.92-.13-.92-.52s.92-.07.92-.52c0-1.22.5-4.6.43-4.83-.16-.56-1.36.08-1.35-.45 0-.28 4.53-1.81-.89-2.68l2.24-.22c-.13-.76.17-4.3 0-4.47m37.93 7.14c1.38-2.66-1.98-5.61-3.57-4.02-.26.26.41 6.07.44 7.29.01.44.9.13.91.52s-.98-.09-.95.88c.05 1.51.05 12.28.5 12.73 1.14 1.14 6.47-1.21.44-2.01l2.68-.23c-1.97-3.22 1.55-10.21-2.23-11.38 2.92.07 2.41-2.85 0-3.79h1.79Zm-72.3 76.75v-7.59c1.95 1.67-.38 7.02 1.78 7.59v-7.59c.46-.18.89 1.02.89 1.12v6.47c0 .07 1.06-.04 1.34 0 .61-.77-1.89-7.43.45-7.59v7.59c0 .07 1.34.07 1.34 0v-7.59h.45v7.14c0 .07 1.34.07 1.34 0v-7.14h.45v7.14c0 .07 1.34.07 1.34 0v-7.59l1.78 7.14c-2.5-7.07 3.6-11.69 3.16-18.55-.05-.84-1.81-4.46-1.85-7.1-.13-8.08 6.42-38.94 4.08-43.76-1.11-2.3-8.32-7.03-10.07-9.55-3.06 16.86-8.97 33.43-11.68 50.33-1.24 7.71-2.3 15.2 4.1 21.05l-.67-4.01c1.41 1.42 3.32 5.94 2.01.88 2.88.34.11 3.01 3.79 2.23l-.22-2.23c.11 2.98 3.9 3.15 5.51 1.06.89-1.15.52-4.42 1.86-3.5-.33 8.38-6.64 4.4-11.86 6.44-.46.69-.52 6.75.69 7.61Zm-54.88-59.34c-10.21-.68.82-3.13-1.08-10.75-1.57-6.26-9.37-2.96-10.08-3.28-1.07-.49-.75-4.42-4.44-5.4-11.03-2.91-9.52 7.27-11.17 8.72-.46.4-5.03-1.82-6.3-.63s-2.79 19.02-1.73 20.26l5.36-.66c.42 1.44-5 1.48-5.36 2.01-.18.26 1.17 5.39 1.12 6.24 7.18-3.13 3.47.28 7.12 3.14 6.72 5.25 10.28-3.3 11.21-3.54.38-.1 5.38 2.4 7.25 1.24.82-.51 4.66-15.69 8.1-17.33Zm231.5-17.31c-.89.08-3.73.85-4.15 1.68-3.26 8.35 9.3 13.09 11.58 6.23 2.2-6.63-1.4-8.42-7.43-7.91m-174.85 11.53c-5.55-.85-11.11-1.73-16.48-3.38-9.26-2.83-9.85-6.67-20.31-3.35-2.93.93-5.79 2.38-8.24 4.24-.07.82 10.05 10.11 11.35 10.55 1.45.48 2.6-.5 3.81.16 1.13.62.54 2.12 1.6 3.31.89 1.01 11.75 6.4 12.93 6.27 1.32-2.27 1.67-4.92 2.94-7.28 2.65-4.93 6.64-8.28 11.98-10.1-1.45 3.07-5.36 3.85-8.01 6.93s-4.46 7.42-4.88 11.31l7.81 2.26 5.52-20.93Zm-91.46-5.38c-4.64.07-8.86 5.11-8.94 9.61-.05 3.15 3.15 6.98 3.08 7.49-.04.29-2.19 2.24-2.71 3.55-2.32 5.82 2.73 9.66 8.12 7.89-.81-1.53-.03-4.09-.67-5.35-.39-.77-2.81-1.1-2.93-1.59-.23-.99 1.98-3.17 2.23-4.46.97-4.87-.9-12.01 1.81-17.15Zm76.26 25.03L130.02 178l-13.65-13.14c-1.54-.86-8.08 6.1-8.03 6.71.05.56 7.4 3.03 4.4 9.31-1.34 2.81-4.97 1.91-6.2 2.72-.35.23-1.19 3.08-2.42 4.27-1.49 1.43-4.37 1.75-5.05 2.98-1.31 2.37-1.35 21.56-.02 23.69.23.37 4.39 1.78 4.82 1.42-10.31-20.24 25.63-17.59 11.6 1.34.64.45 14.54-.7 15.64-1.09 4.01-1.39 12.13-10.87 18.72-10.52-2.78-6.22-3.62-13.26-2.72-20.03Zm195.05-7.18c1.71 1.42 14.29 8.92 15.31 8.82 1.81-.17 15.9-9.74 19.04-10.84l-16.94-8.7c-.36 1.08 1.24 4.25.87 4.87-.49.82-16.12 4.63-18.27 5.84Zm-140.34-8.48v.45l.22-.22-.22-.22Zm31.46 4.91c1.1-1.2-1.36-4.14-2.93-2.26-1.72 2.06 2.57 2.65 2.93 2.26m-127.56 7.2c.49-.28 2.51.08 3.83-.41 4.65-1.71 2.01-8.11-1.92-9.05-1.65.02-8.76 13.6-7.55 16.09 3.44.46 5.24-6.41 5.64-6.64Zm198.95-1.84c-2.8-1.26-20.41-7.67-21.92-5.99-.4.45-.61 3.94-1.29 4.86zm33.02-3.12c-1.32-.77-12.1-3.28-12.47-2.02-.83 2.74 10.47 2.38 12.47 2.02m-205.71-1.79c-.42-.41-2.21.35-1.78 1.33s2.71-.42 1.78-1.33m101.3-.01-2.94.43c.32 2.93-.58 4.13 2.94 3.59zm107.09 3.13c-.85-.24-5.59.61-4.7 2.24l22.77 11.85 20.29-11.64c-.85-.92-5.59-3.03-5.79-.89-.03.33 2.73-.34.68 2.46-.82 1.12-14.06 8.9-15.1 8.81-.83-1.23-17.33-8.37-15.92-9.71 3.23.71 14.05 8.3 16.28 8.3.65 0 10.38-5.55 11.35-6.33.3-.24 3.25-2.6 1.58-2.87-1.89-.3-12.21 7.67-14.68 7.58-2.91-.11-12.53-7.97-15.33-8.39-2.03-.3-5.11 3.7-1.44-1.42Zm-106.64 4.01c1.43-1.38-1.97-3.86-3.13-2.68-1.68 1.71 1.86 3.9 3.13 2.68m-164.44-1.78v.45l.22-.22-.22-.22Zm234.05 1.34c-3.38-.28-20.94-2.6-22.54-.9-.43.46-.62 3.63-1.55 4.46 7.23 3.13 16.9 1.53 23.52-2.56.45-.28.79.04.57-1m-33.91 1.33c4.23-.42 9.1 4.74 9.37-2.23zm66.12.82c1.1 1.68 19.99 9.33 22.9 11.51 2.3-1.69 20.77-10.9 20.74-12.1-.02-.81-1.18-.57-1.75-.43-3.59.89-15.68 10.7-18.61 10.81-2.46.09-22.42-12.4-23.35-11.49-.06.06-.1 1.43.08 1.7Zm-101.88-.75c-.69-1.02-4.57-.43-2.85 2.19 1.41 2.16 4.48.21 2.85-2.19m99.12 19.12c1.92-2-19.33-17.83-22.07-18.76-6.31-2.15-12.74 3.54-18.98 5.16 4.3 1.29 8.56 2.89 12.65 4.75 3.41 1.55 18.29 10.78 19.38 11 2.58.52 6.27-2.35 9.02-2.14Zm-57.2-12.57c.15-.08 1.55-2.83.97-3.27l-10.26-2.45c.02.89 1.06 6.09 1.34 6.25.35.2 7.6-.34 7.95-.53m66.12 8.12-24.54-12.5c3.69.81 16.26 15.49 17.39 15.82.98.29 5.51-2.16 6.88-2.41l.27-.92ZM148.5 186.52v10.04c0 1.27 2.38 10.3 4.87 8.66.7-.46 2.97-14.25 3.63-16.25v-.67l-8.49-1.78Zm85.23.45c-.15-.15-2.12.09-2.68 0v1.78h2.23c-3.17.17-3.38 3.32 0 2.68-5.03 1.22-.63 5.09.9 3.57.29-.28-.15-7.76-.45-8.03m49.97 1.34c-2.94.02-5.22-2.78-6.25 1.33zm-186.52 2.23c-1.76.65-5.09-1.25-6.39-.84-.51.16-1.69 2.29-2.84 3-5.16 3.2-10.06.7-12.42-4.38-4.75 1.61-1.83 6.18-.14 9.5 4.26 8.36 12.7 13.91 21.55 16.38l.23-23.66Zm203.48 3.57c-3.89-.61-9.93-4.33-13.64-4.43-.58-.02-9.89 1.6-10.35 1.86-.5.28-6.15 9.04-6.27 9.6-.39 1.78.98 5.93.36 8.14 1.54-.33 9.13 1.06 9.82.44.27-.25 1-5.26 2.06-7.09 1.51-2.61 5.67-6.15 8.66-6.96 3.77-1.03 6.8.47 9.37-1.56Zm-26.33-2.23-6.24-.45 2.01 7.58zm-40.16 3.56c-.1-.09-2.58-.09-2.68 0-1.17 1.13.9 2.31.9 2.46 0 .31-3.48 4.12 2.2 1.75l-1.76-1.53c1.15-.03 2.03-1.99 1.34-2.67Zm-40.61 4.92c-5.5.5-2.2 3.26-2.23 3.56 0 .05-.87-.12-.89.3-.08 1.86.22 3.69-.44 5.5 5.77.86 2.8-5.39 3.56-9.37Zm128.07 5.34-8.48-5.34c3.51 4.91.97 8.09 8.48 5.34m25.89 22.77c13.85-2.2 4.21-22.56-2.43-27.25-2.56-1.81-6.41 1.02-9.17 2.03 5.66 7.39 10.17 15.89 11.6 25.21Zm-112.9-27.67c-.11-.11-3.01-.1-3.13 0-.21.2.69 4.68.42 5.16 2.95 1.35 4.16-1.7 1.36-2.26l1.34-.22c-.09-.55.15-2.54 0-2.68Zm-126.4 2.34c-6.65 1.14-7.03 11.38-1.02 13.3 13.17 4.23 14.24-15.57 1.02-13.3m237.95 25.33c.24-4.47-8.98-24.39-12.66-24.53-1.48-.06-5.55 2.15-7.42 2.23l20.07 22.3Zm-193.65-20.98c1.3-.43.86-1.36-.45-1.33zm82.54.89c1.46-1.19-4.14-3.67-3.12 0 .64-.11 2.91.18 3.12 0m81.72.06c-.22.32-.55 7.37-.49 7.75.17 1.15 1.95 2.16 2.06 4.53.07 1.61-1.12 3.45-1.07 4.32.12 2.11 3.56 6.98 2.55 9.91l24.38-4.68c1.26-1.96-17.77-22.99-21.43-23.24-.38-.03-5.82 1.15-5.99 1.4Zm-181.67 7.09c-.16.13-.29.31-.45.45-4.51 3.86-8.41 8.21-10.7 13.83 6.05-3.71 12.32-7.38 19.07-9.7.5-.17 10.25-3.68 6.74-.17-.58.58-12.65 4.72-15.2 5.99-.97.48-11.9 6.32-11.51 7l20.97 1.34c-6.58-5.44 3.57-1.3 6.2-.39l-.02 1.44-8.17 4.32c-2.09-1.93 2.14-2.4 2.89-3.57l-23.14-1.28c-.79.47-3.52 13.26-3.18 14.86.29 1.39 7.7 7.98 8.9 7.64 4.76-5.16 10-9.72 15.76-13.74 2.46-1.71 11.02-7.45 13.39-8.03.6-.15 1.87-.74 2.1.33s-15.59 9.95-17.8 11.64c-1.68 1.28-12.55 10.54-12.09 11.77l9.36 5.37c1.23-9.17 8.03-16.1 15.12-21.26 1.29-.94 6.92-3.45 7.12-3.81.17-.3.68-6.47.56-6.79-.18-.5-1.62-.24-2.06-1.16-.8-1.7.24-5.61-.32-7.71-.23-.86-2.8-3.61-3.54-5.38-3.49-8.33.02-14.11-11.69-8.72-3.31 1.52-5.56 3.5-8.31 5.75Zm99.96-6.7c-3.88-1.59-3.48 3.51-3.14 6.49.2 1.77.65 4.87 3.35 3.79.93-.37-.49-8.83-.21-10.27Zm-41.51.9c-4.62.49-3.41.45-3.59 4.61-.02.46 2.04.16.02 1.04l-.44 4.17c.57-.23 3.85-.77 3.96-.94 1.31-1.88-.85-3.96-.85-4.19 0-.26 1.87-2.56.9-4.68Zm50.43 1.33h-7.36c-.1 0-.59-.85-.67-.22-.37 6.31 1.12 13.81 2.68 2.45v6.25c0 .07 1.34.07 1.34 0v-8.03h.89v8.03h.89v-7.59h.89v7.59c0 .07 1.34.07 1.34 0zm36.15.45c-.35-.35-8.49-.23-9.82-.89.84 3.06-3.05 7.08-3.47 8.8-.43 1.75.34 4.8-.16 6.09-.34.88-1.56.46-1.77 1-.35.93 1.51 9.31 1.38 11.52-.15 2.5-2.68 7.03-2.57 7.99.02.19 1.53 3.31 1.69 3.41.26.17 3.93-.56 4.67 3.13 6.03-4.99 4.43-12.2 7.36-18.51-.1-.47-10.01-2.8-8.03-4.24l8.02 3.12c.26-3.05 2.33-4.32 2.16-7.83-.06-1.4-1.38-2.74-1.18-4.77.2-1.97 2.43-3.78 2.47-4.12.02-.24-.6-4.53-.77-4.7Zm-91.04 0h-12.72c-.1 0-.48-.65-.66-.45-.26.3-.37 6.98-.45 8.03 3.02-.5-.12-5.71 2.22-7.14-1.1 8.33 1.06 12.43 1.8.9v6.69c3.26 1 1.27-5.12 2.67-7.14v6.47c0 .11-.69.88-.44 1.11 3.14 2.89 1.6-7.58 3.12-8.03.46 1.34-1 7.41-.44 8.03.21.23 2.23-.09 2.23-.67v-6.92h.45v7.14c.56.15 2.23-.08 2.23-.67v-7.36Zm56.67-.45h-.89v8.03c2.36.23.89-.55.89-1.12v-6.92Zm6.55 8.18-2.54-3.48 2.25 15.83c2.38-2.36 1.28-9.52.29-12.35m-122.12-1.93c-10.29 1.26-20.66 1.34-30.79-.66-.17.57 3.29 10.49 4.05 11.13.81.68 15.25 4.85 16.26 4.7 1.81-.27 7.87-13.25 10.49-15.16Zm123.6 1.34c.27-.42-.33-1.29-.88-1.34-.41.75.39 2.1.88 1.34m1.79.45c-.22.25.17 5.29 0 6.25 2.14.17-.09-4.45 1.33-5.35-.32 5.32 1.44 9.58 1.57.88.88 0-.82 5.37 1.11 4.91l.89-6.25v6.25l1.33-4.01v4.01l1.34-.89.45 1.34v-7.59c-1.84-.2-.49 3.76-.9 4.91l-.86-4.71c-.57-.43-6.07.02-6.28.25Zm8.48 0 .67 6.68c.78 0 1.59-6.94-.67-6.68m-8.93 4.01c-.01-1.08.36-2.69-.88-3.12.11.78-.04 2.83.88 3.12m-80.32-2.67c-4.23 1.6-2.14 6.88-2.22 10.39 0 .25-2.01.86-.44 3.44l2.67-13.83Zm173.59 12.93 4.01-5.35c-2.61 1.97-5.61 1.34-4.01 5.35m-230.71.01-13.38-3.57 6.02 10.21zm195.45 2.67c-.05-2.29-.78-4.79-2.67-6.25l-2.68 4.46c2.09-.33 3.76.6 5.35 1.79m-26.33-5.35-.92.28-1.75 4.63c1.51-1.31 2.93-1.54 4.9-1.34l-2.24-3.56Zm36.61 16.06c5.84-1.09 12.31-3.36 17.36-6.5 2.6-1.62 8.43-4.74 4.96-8.02-.91-.86-21.31 5.69-24.52 4.74-.82 3.43 2.1 6.05 2.2 9.78m-203.5-11.6-8.45 6.91 5.11 6.02zm174.93 26.77h6.69c.79-1.94-1.61-13.75-1.16-14.31.69-.84 2.53-.18 2.94-.42.07-.04-.68-1.07-.06-1.57 3.11-2.5 7.27-4.79 10.9-6.47l.26-1.05c-6.85-5.7-4.17-.6-4.6.17-.34.61-8.97 7.69-10.55 9.14-.15.14.19 2.14-1.91 1.14-.71-.34-7.95-10.21-10.9-10.36l-.09-1.26 3.56-.9c-4.74-1.82-7.74 3.05-10.26 6.25 1.09.37 12.87 5.4 12.05 3.14-.84-.18-9.33-5.42-7.8-5.81l10.03 6.92-2.67.66c2.12.88 3.05-1.18 4.82.55zm40.17 25.89c9.15-14.59 12.39-33.36 12.48-50.42-6.83 5.43-14.92 9.49-23.65 10.71-.47 2.87 2.58 3.27 3.5 6.13.42 1.31-.13 6.03.17 7.35 1.96 8.59 7.2 17.15 7.5 26.23m-27.67-42.4c1.6-.43 9.82-1.66 9.76-3.26-.22-5.93-11.07 2.06-9.76 3.26m-140.13 7.6c-4.02-2.43-5.77-7.76-6.91-12.05-7.04 3.74-15.09 9.69-18.61 17.09-.86 1.81-3.72 7.77-.52 8.22 2.77.39 21.5-11.25 25.76-12.34l.27-.92Zm-56.67-9.83c-9.52 8.63-17.59 21-20.09 33.71 1.89 1.27 23.84-.54 25.84-2.74 1.85-2.04.06-5.14.04-7.52-.03-3.64.85-12.86.39-15.52-.35-2.01-5.67-5.37-6.19-7.92Zm172.18 16.01c-.01-1.17-1.15-11.92-1.35-12.57-.24-.77-1.2-1.29-1.92-1.53-1.78 1.82-8.63 6.42-8.93 8.77-.28 2.13 7.1 10.8 2.48 14.32l-.89-5.8-.46 7.58c-1.08.32-1.25-.91-1.3-1.61-.47-5.88 2.38-13.65-3.38-18.46 1.23 5.43-9.61 6.26-10.06 7.82-.68 7.9 6.03 18.39 14.74 15.15 3.12-1.16 5.44-7.8 5.72-10.83.3-3.27-3-8.41-3.48-11.7 2.99 4.22 5.61 8.38 6.13 13.73.31 3.16-4.12 7.58.55 9.03-.24-2.18 2.72-8.11 2.52-9.6-.09-.65-1.83-1.52-1.66-3.12.11-1.05 1.3-1.08 1.3-1.17Zm23.72-12.89c.72-.72-1.45-1.87-1.33-.67.03.32 1.07.92 1.33.67m9.68 18.62c.7-1.1.4-2.41.94-3.31.83-1.39 5.93-8.27 5.9-8.79-.02-.45-4.31-6.81-4.68-7.01-.17-.09-3.67-.54-3.8-.39-.72.8-2.34 20.28-.89 21.42.45-.52 2.34-1.61 2.54-1.91Zm-52.74-16.38v.45l.22-.22-.22-.22Zm30.57.44-6.69-.44c.59 3.04.26 6.12.85 9.16.14.73.97.74 1.3 1.86.66 2.22-2.69 2.63 3.64 2.35l.89-12.93Zm1.33.89v-1.33c-.95-.2-.36 1.88 0 1.33m6.03-1.33v.45l.22-.22-.22-.22Zm6.92 0-5.8.45c1.15 1.82.43 12.48.89 12.94 2.14 2.12 2.2-2.19 2.31-2.39.38-.65 1.26-.76 1.42-1.28.82-2.71.44-6.82 1.18-9.71Zm-43.51 1.78v.45l.22-.22-.22-.22Zm-8.71.89c-1.72-.03-.74 2.98.45 2.68zm1.57 0v.45l.22-.22-.22-.22Zm37.25.89v-.89h-.44v.89zm-33.02.45v-.89h-.44v.89zm-1.74-.63-.93.19.45 2.23.93-.19zm-141.05 17.59c.11-1.91 6.74-9.75 6.66-10.41-.07-.63-6.49-5.73-7.54-6.54-.9 5.6-.21 11.12 0 16.73l.89.22Zm139.23-16.95h-.89c.15.98.24 2.11 1.34 1.77zm65.73 3.45c-.33-.65-.08-1.43-.14-2.12-.65 1.88-4.85 7.32-5.1 8.86-.39 2.4 1.43 8.53 1.55 11.43.21 5.43-2.18 14.07.51 18.24 3.14 4.86 6.78.88 8.38 2.11.18.14-.34 2.22 1.13 2.2 2.85-.05 3.48-10.31 3.3-12.22-.5-5.36-7.12-23.65-9.64-28.5Zm-148.73 82.67c-4.65.66-7.24-5.63-8.48-6.47-2.54-1.73-11.98-1.14-12.51-7.15l13.85-70.27-24.53 12.5c2.48 2.79 11.5 3.73 13.56 5.4.63.51.69 1.56.27 1.73-1.93.8-13.38-5.46-15.5-5.71-4.94-.57-.18 10.09 1 12.41 1.47 2.9 3.94 5.75 6.26 8.02-2.51-8.96 5.85 3.21 3.37 4.22s-17.75-6.5-4.49-3.1c-5.46-5.12-9.47-12.68-9.82-20.31l-18.26 6.09c-1.06 2.6 7.82 22.83 10.71 24.45 1.23.69 4.97.69 5.56 1.58.83 1.27-.71 3.44 0 5.35.75 2.04 8.85 7.48 9.59 9.16.21.47.7 1.05-.24 1.12-1.63.12-8.31-7.08-9.81-8.48-.53 5.55-4.52 1.58-5.57 2.23-.14.09.29 1.65-1.13 1.81-2.07.24-1.12-1.67-1.84-2.31-.38-.34-2.19-.29-2.61-1.25-.24-.54 1.18-7.23 1.52-8.32.62-1.98 1.99-.6 1.8-1.73l-10.02-23.45c-7.75 14.69-2.64 34.34 10.85 43.86l-.37 1.2c-12.16-6.17-17.42-22.08-15.62-35.25-5.4 20.5 7.06 43.36 26.16 51.71 1.25.02 1.48-5.85 2.38-6.47.52-.36 3.57.84 5.16-1.98 2.8 2.81-.32 3.11 4.79 4.6 5.41 1.57 2.54-.36 4.81-1.24 2.91-1.14 1.65 3.07 1.8 3.32.45.75 3.55.28 1.77 4.94l15.61-2.22Zm146.59-82.99-.66.66.21.21.46-.44v-.44Zm-.89 1.34c-.7.83-1.65 2.01-1.8 3.1.7-.83 1.65-2 1.8-3.1m-96.39 1.32v.45l.22-.22-.22-.22Zm.22 3.13c-.09-.66.38-1.91-.44-1.78.09.66-.38 1.91.44 1.78m81.89-1.79v.45l.22-.22-.22-.22Zm-112.01.45v.45l.22-.22-.22-.22Zm92.37 0v.45l.22-.22-.22-.22Zm-148.82 6.7-10.86-6.23-8.32 13.35 19.18-7.13Zm144.58-5.36v-.89h-.44v.89zm2.23-.89c-.94-1.01-1.7.93-.88 1.33 1.06.52 1.14-1.06.88-1.33m1.34 0h-.89v.44h.89zm22.75 1.33v-1.33c-.95-.2-.36 1.88 0 1.33m1.79-1.33c-.49-.76-1.29.59-.88 1.34.56-.05 1.15-.92.88-1.34m7.82.01-.66.66.21.21.46-.44v-.44Zm-123.84 2.21v-.89h-.44v.89zm29.9-.89h-.45v6.69h.45zm-30.12 1.34v.45l.22-.22-.22-.22Zm92.59.01c-.88-1.03-3.05 2.17-1.1 2.67 1.18.3 1.36-2.37 1.1-2.67m22.76.45c-.29-.35-3.58-.71-2.47 1.32 1.26 2.32 3.35-.27 2.47-1.32m-116.02 3.12v5.35h.45v-5.35zm30.57 2.22v.45l.22-.22-.22-.22Zm-30.13 4.46v-.89h-.44v.89zm30.8-.44h-.45v8.48h.45zm-49.31.45v.45l.22-.22-.22-.22Zm104.19 1.78v-1.33c-.95-.2-.36 1.88 0 1.33m-104.42 1.78v-1.33c-.95-.2-.36 1.88 0 1.33m103.97.45c-.09-.66.38-1.91-.44-1.78.09.66-.38 1.91.44 1.78m-4.91-1.34c-4.21 4.57-10.56 3.48-15.17.23 5.08 14.03 4.87 36.57 10.12 49.67.97 2.41 3.36 3.17 5.49 4.1-.52-9.85-1.78-19.79-1.35-29.69.11-2.54 2.46-13.75 2.21-14.44-.05-.13-1.66-.64-2.2-1.6-1.78-3.22.3-5.12.89-8.26Zm-80.76 1.34v-.89h-.44v.89zm-18.75 2.68c-.13-.72.43-2.32-.44-2.23.15.61-.46 2.27.44 2.23m18.75.44c-.19-.68.5-2.63-.44-2.67.19.68-.5 2.63.44 2.67m85.23-.44v-1.33c-.95-.2-.36 1.88 0 1.33m-104.42 3.12c-.13-.72.43-2.32-.44-2.23.15.61-.46 2.27.44 2.23m19.19-2.23h-.45v13.83h.45zm56.45.45v.45l.22-.22-.22-.22Zm-24.77.44h-.89c-.13.31.45.55.45.67v7.81h.45v-8.48Zm-51.32 4.02c-.13-.72.43-2.32-.44-2.23.15.61-.46 2.27.44 2.23m76.75-1.34v-.89h-.44v.89zM171.69 307l2.23-20.52-2.66 17.63zm79.88-18.29c-.09-.66.38-1.91-.44-1.78.09.66-.38 1.91.44 1.78m.45 3.12v-1.33c-.95-.2-.36 1.88 0 1.33m-25.88.45h-.45v8.92h.45zm26.32 3.12c-.09-.66.38-1.91-.44-1.78.09.66-.38 1.91.44 1.78m-58.67.45v.45l.22-.22-.22-.22Zm59.12 3.57c-.21-.78.54-2.95-.44-3.12.22.75-.55 2.89.44 3.12m69.61 1.34c-.02-1.08.36-2.69-.88-3.12.03 1.06-.38 2.68.88 3.12m.89-.01c-.21-.78.54-2.95-.44-3.12.22.75-.55 2.89.44 3.12m.9-3.12v4.47h.89v-4.47zm2.23 0v4.02h.89v-4.02zm-133.2.45v.45l.22-.22-.22-.22Zm126.95 1.78c-.09-.66.38-1.91-.44-1.78.09.66-.38 1.91.44 1.78m9.37 1.79-.44-3.56c.56 1.3-1.23 4.02.44 3.56m-136.32-2.23v.45l.22-.22-.22-.22Zm60.02 3.56c-.21-.78.54-2.95-.44-3.12.22.75-.55 2.89.44 3.12m-59.79-2.67h-.45v17.4h.45zm127.32 1.66c-.26-.73.16-1.73-.59-1.65v4.46c2.47-.37.65-2.63.59-2.8Zm-185.33.57c-1.25.46-7.72-1.41-8.05-1.15s-1.82 7.54-1.59 7.86c.66.94 3.35-.11 3.39 2.66.86-2.56-4.1-8.47 1.44-8.38 3.34.06 4.44 5.18 4.81-.99m91.03-.89c-1.23-.25-.43 5.38 0 6.69zm27.21 4.9c-.21-.78.54-2.95-.44-3.12.22.75-.55 2.89.44 3.12m-124.49.45c.41.38 2.68-.04 2.22-1.55-.52-1.75-3.39.46-2.22 1.55m4.9 4.02c.13-2.16 1.2-4.3-1.78-4.91l-2.24 4.46zm120.04-1.34c-.19-.68.5-2.63-.44-2.67.19.68-.5 2.63.44 2.67m-83.44-2.23v3.56h.45v-3.56zm56.22 1.34c-1.24-.38-.43 5.06 0 6.25zm27.64 1.76-.62.07.67 6.25.62-.07zm-83.87 4.04c-.21-.78.54-2.95-.44-3.12.22.75-.55 2.89.44 3.12m-.44 4.01c-.21-.78.54-2.95-.44-3.12.22.75-.55 2.89.44 3.12m56.45-2.67v.45l.22-.22-.22-.22Zm.22.89v5.35h.45v-5.35zm28.56 3.12c-.19-.68.5-2.63-.44-2.67.19.68-.5 2.63.44 2.67m-62.03-.89v-.89h-.44v.89zm-24.54 9.82.89-9.81c-.63 3.09-1.73 6.74-.89 9.81m24.54-7.59c-.09-.66.38-1.91-.44-1.78.09.66-.38 1.91.44 1.78m62.47 2.23c-.19-.68.5-2.63-.44-2.67.19.68-.5 2.63.44 2.67m-62.47-.89v-.89h-.44v.89zm34.36 6.25.02-4.7-.9-1.55.88 6.24Zm-34.36-4.91v-.89h-.44v.89zm-.22.89v.45l.22-.22-.22-.22Zm63.14 2.23c-.13-.72.43-2.32-.44-2.23.15.61-.46 2.27.44 2.23m-63.14-.44v.45l.22-.22-.22-.22Zm63.59 3.57c-.19-.68.5-2.63-.44-2.67.19.68-.5 2.63.44 2.67m18.74 17.85c.64-1.21-.48-10.35 0-12.49-2.22 2.97-4.16 6.69-7.58 8.49l2.02.07c2.39 2.17-5.74 3.32-6.63 2.98-1.73-.32 3.89-9.41 4.59-6.81l-.21 1.96c1.65-1.57 8.63-8.33 6.93-10.48-.17-.22-4.53-2.78-4.81-2.82-.62-.09-11.39 3.49-11.87 3.89-.69.59-.56 2.85-1.32 3.93-2.42 3.4-11.19 4-15.04 3.92 2.29 2.35.07 7.77.45 11.06.05.43 1.12.49 1.27 1.05.3 1.14-.46 4.07.72 4.5 3.76.49 30.71-7.79 31.48-9.24Zm-107.1-15.62c-.21-.78.54-2.95-.44-3.12.22.75-.55 2.89.44 3.12m24.77-3.12v.45l.22-.22-.22-.22Zm34.58.44v4.46h.45v-4.46zm-81.21.9c-.55-.83-1.43 1.24-1.34 1.33.43.4 1.74-.71 1.34-1.33m46.63.89v.45l.22-.22-.22-.22Zm-49.3 1.34c-1.07-1.44-3.18 1-2.68 2.66l16.95 4.91c2.16-6.27-2.22-1.29-3.29-1.82-1.2-.59-.29-1.97-.98-2.7-.23-.24-5.96-2.1-6.29-2.08-1.25.07-1.47 1.91-2.94 1.64-1.69-.31-.59-2.39-.76-2.62Zm1.89.88c0-.3-.25-.55-.55-.55s-.55.25-.55.55.25.55.55.55.55-.25.55-.55m10.22-.21-.48 1.77.93.25.48-1.77zm37.41.22h-.89v.44h.89zm34.59.89v.45l.22-.22-.22-.22Zm-34.81.45v.45l.22-.22-.22-.22Zm-35.47 6.25c-2.45.61-16.19-5.37-16.95-4.91-4.46 2.67 8.47 3.12 3.36 6.75-3.52 2.51-1.97-5.09-4.26-3.63-.45.29-2.34 9.04-3.13 10.26l16.95 4.92 4.02-13.38Zm-1.79-4.91c-.49-.76-1.29.59-.88 1.34.56-.05 1.15-.92.88-1.34m72.72-.04-.58.05.24 2.72.58-.05zm-35.24 1.83c-1.37.27-3.87-.6-4.9.44 1.37-.27 3.85.6 4.9-.44m-5.35.44c-.66.09-1.91-.38-1.78.44.66-.09 1.91.38 1.78-.44m6.47 0v.45l.22-.22-.22-.22Zm1.56.45h-.89v.44h.89zm38.82 0c-.72.13-2.32-.43-2.23.44.61-.15 2.27.46 2.23-.44m-37.48.44h-.89v.44h.89zm40.16 0c-.66.09-1.91-.38-1.78.44.66-.09 1.91.38 1.78-.44m-39.49.44v.45l.22-.22-.22-.22Zm30.24 12.15c.02-.17 1.2-.09 1.25-1.63.04-1.17-.89-10.26-1.58-10.5-9.24 4.26-18.89 4.85-28.34.88 3.87 11.18 17.99 16.29 29 16.95-.14-1.97-.54-3.68-.33-5.7m12.82-12.14c-.68.19-2.63-.5-2.67.44.68-.19 2.63.5 2.67-.44m-98.61 2.22c.65.5 1.93-1.01.66-1.33-1.05-.27-.72 1.29-.66 1.33m10.26 13.4-15.61-4.47c.28 1.57 3.63 2.03 4.91 2.45 2.77.91 8.32 2.9 10.7 2.02m133.87 15.61c1.3-1.45-4.9-4.96-6.24-2zm22.76 0c.21.26 4.72-3.33 6.23-2-1.28-2.78-7.93-.1-6.23 2m2.17 7.99c2.81-3.7-3.5-8.01-6.19-10.22-.88 5.79.81 8.28 6.19 10.22m-21.37-9.77c-.51-.48-6.79 6.25-6.93 6.71-1.72 5.57 11.38-.46 6.93-6.71m-4.9 3.12c1.16-1.1-4.6-2.87-5.35-2.22zm31.23-2.23c-2.01-.05-5.54-.39-6.24 2.22zm-32.57 4.01c1.19-1.15-4.74-3.3-5.79-2.22zm33.91-2.22c-2.28.02-4.68-.54-6.23 1.56zm-35.25 2.68c-1.85-.58-3.8-1.63-5.79-.89 1.69.41 4.04 1.5 5.79.89m36.59-.9-4.14.09-2.1 1.68zm-117.81.89c-10.32 4.86-12.23 14.54-25.65 12.94-2.64-.32-9.54-4.99-7.07-.1 1.95 3.87 13.93 2.62 17.55 1.21 4.61-1.81 8.94-9.23 9.61-9.13s.49 1.67.89 1.77c2.05.49 6.31-3.97 4.69-6.68Zm60.57 14.16c.67-.82.92-2.35-.1-2.99-14.58 9.04-22.48-5.9-34.14-10.72-1.11 3.17 2.99 6.62 5.6 6.67 2.04.04.61-1.2 1.31-1.31s6.87 7.33 10.05 8.69c3.52 1.51 14.73 2.78 17.27-.33Zm21.99-9.26c-2.21-4.75-8.52-6.43-11.09-1.03 2.02 3.58 7.88 2.66 11.09 1.03m30.06-2.96c-7.14 5.34 11.44 5.93 8.35.48-1.31-2.32-6.46-1.9-8.35-.48m-24.93.74v.45l.22-.22-.22-.22Zm33.69 2.68c-5.6 4.06-11.5.58-16.49-2.46 3.89 3.44 12.75 8.49 16.49 2.46m-49.97.44c3.7 4.83 12.26 1.4 15.6-2.46-5.22 3.02-9.56 5.57-15.6 2.46" style="fill:url(#New_Gradient_Swatch_1-33)"/><path d="m192.9 192.32.22.23-.22.22z" style="fill:url(#New_Gradient_Swatch_1-34)"/><path d="M231.05 167.34h.89v.44h-.89z" style="fill:url(#New_Gradient_Swatch_1-35)"/><path d="m229.93 139.67.23.22-.23.22z" style="fill:url(#New_Gradient_Swatch_1-36)"/><path d="m190.67 216.42.22.22-.22.22z" style="fill:url(#New_Gradient_Swatch_1-37)"/><path d="M190.89 206.61h.89v.44h-.89z" style="fill:url(#New_Gradient_Swatch_1-38)"/><path d="m192.45 203.48.22.22-.22.22z" style="fill:url(#New_Gradient_Swatch_1-39)"/><path d="M193.57 118.7h.89v.44h-.89z" style="fill:url(#New_Gradient_Swatch_1-40)"/><path d="m194.68 108.43.22.22-.22.23z" style="fill:url(#New_Gradient_Swatch_1-41)"/><path d="m256.26 216.42.22.22-.22.22z" style="fill:url(#New_Gradient_Swatch_1-42)"/><path d="M81.56 243.64c-.19-.56-.71-2.44.23-2.67 1.63 0 .55 1.69.66 1.78.69.55 1.42-1.67 2.23-.21-.55 2.48-2.3 1.07-3.12 1.11.9 2.7 1.02.67 1.79 1.34 3.65 3.16-8.92-1.01-1.79-1.34Z" style="fill:url(#New_Gradient_Swatch_1-43)"/><path d="M345.51 171.8c.13.03 1 .45 1.11.67-.48 1.4-15.75.61-14.95-.67h1.79c3.19 0 9.3-.53 12.05 0" style="fill:url(#New_Gradient_Swatch_1-44)"/><path d="M343.72 168.67c.54.11 1.4.5 1.11 1.34-4.18-.2-9.71.45-13.38-1.34 3.55.5 8.98-.68 12.27 0" style="fill:url(#New_Gradient_Swatch_1-45)"/><path d="M368.93 177.6c-.7.88-1.5-.9-1.59-.9-5.44.47-11.2 2.37-16.7 2.68-.27-1.35 1.85-1.34 2.67-1.56 4.38-1.21 9.75-1.34 14.28-2.01-2.42-5.54 3.63-1.09 1.34 1.79" style="fill:url(#New_Gradient_Swatch_1-46)"/><path d="M143.55 344.98c1.01 1.54-1.74 5.19-3.33 2.64-1.74-2.81 2.34-4.14 3.33-2.64m-1.3.85c-.49-.76-1.29.59-.88 1.34.56-.05 1.15-.92.88-1.34" style="fill:url(#New_Gradient_Swatch_1-47)"/><path d="M144.99 345.89c1.93-1.2 4.55 2.09 2.16 3.31-2.56 1.31-3.77-2.31-2.16-3.31m1.72 1.28c-.05-.04-1.28-.04-1.33 0-1.4 1.15 2.73 1.15 1.33 0" style="fill:url(#New_Gradient_Swatch_1-48)"/><path d="M145.88 343.98c-1.24-1.93 1.96-5.21 3.31-2.16 1.06 2.4-2.5 3.41-3.31 2.16m2.17-2.17c-.49-.43-1.76.84-1.33 1.33.66.75 2.08-.68 1.33-1.33" style="fill:url(#New_Gradient_Swatch_1-49)"/><path d="M152.47 348.92a1.72 1.72 0 1 1-3.44 0 1.72 1.72 0 0 1 3.44 0m-1.18.02c0-.3-.25-.55-.55-.55s-.55.25-.55.55.25.55.55.55.55-.25.55-.55" style="fill:url(#New_Gradient_Swatch_1-50)"/><path d="M152.91 345.78c-1.85 1.23-3.61-2.5-2.12-3.46 2.45-1.57 3.37 2.62 2.12 3.46m-.4-1.3c.72-.72-1.45-1.87-1.33-.67.03.32 1.07.92 1.33.67" style="fill:url(#New_Gradient_Swatch_1-51)"/></svg>