<?xml version="1.0" encoding="UTF-8"?>
<svg id="Layer_1" data-name="Layer 1" xmlns="http://www.w3.org/2000/svg" xmlns:xlink="http://www.w3.org/1999/xlink" viewBox="0 0 450.22 538.31">
  <defs>
    <style>
      .cls-1 {
        fill: url(#linear-gradient-8);
      }

      .cls-2 {
        fill: url(#linear-gradient-7);
      }

      .cls-3 {
        fill: url(#linear-gradient-5);
      }

      .cls-4 {
        fill: url(#linear-gradient-6);
      }

      .cls-5 {
        fill: url(#linear-gradient-9);
      }

      .cls-6 {
        fill: url(#linear-gradient-4);
      }

      .cls-7 {
        fill: url(#linear-gradient-3);
      }

      .cls-8 {
        fill: url(#linear-gradient-2);
      }

      .cls-9 {
        fill: url(#linear-gradient);
      }

      .cls-10 {
        fill: url(#linear-gradient-10);
      }

      .cls-11 {
        fill: url(#linear-gradient-11);
      }

      .cls-12 {
        fill: url(#linear-gradient-12);
      }

      .cls-13 {
        fill: url(#linear-gradient-13);
      }

      .cls-14 {
        fill: url(#linear-gradient-19);
      }

      .cls-15 {
        fill: url(#linear-gradient-14);
      }

      .cls-16 {
        fill: url(#linear-gradient-21);
      }

      .cls-17 {
        fill: url(#linear-gradient-20);
      }

      .cls-18 {
        fill: url(#linear-gradient-22);
      }

      .cls-19 {
        fill: url(#linear-gradient-23);
      }

      .cls-20 {
        fill: url(#linear-gradient-28);
      }

      .cls-21 {
        fill: url(#linear-gradient-25);
      }

      .cls-22 {
        fill: url(#linear-gradient-32);
      }

      .cls-23 {
        fill: url(#linear-gradient-31);
      }

      .cls-24 {
        fill: url(#linear-gradient-33);
      }

      .cls-25 {
        fill: url(#linear-gradient-30);
      }

      .cls-26 {
        fill: url(#linear-gradient-15);
      }

      .cls-27 {
        fill: url(#linear-gradient-16);
      }

      .cls-28 {
        fill: url(#linear-gradient-17);
      }

      .cls-29 {
        fill: url(#linear-gradient-18);
      }

      .cls-30 {
        fill: url(#linear-gradient-35);
      }

      .cls-31 {
        fill: url(#linear-gradient-34);
      }

      .cls-32 {
        fill: url(#linear-gradient-36);
      }

      .cls-33 {
        fill: url(#linear-gradient-27);
      }

      .cls-34 {
        fill: url(#linear-gradient-24);
      }

      .cls-35 {
        fill: url(#linear-gradient-26);
      }

      .cls-36 {
        fill: url(#linear-gradient-29);
      }
    </style>
    <linearGradient id="linear-gradient" x1="0" y1="288.1" x2="123.41" y2="288.1" gradientUnits="userSpaceOnUse">
      <stop offset="0" stop-color="#a0622c"/>
      <stop offset=".13" stop-color="#a16530"/>
      <stop offset=".27" stop-color="#a76e3c"/>
      <stop offset=".41" stop-color="#b07e51"/>
      <stop offset=".55" stop-color="#be946f"/>
      <stop offset=".7" stop-color="#cfb095"/>
      <stop offset=".84" stop-color="#e3d2c2"/>
      <stop offset=".98" stop-color="#fbf9f7"/>
      <stop offset="1" stop-color="#fff"/>
    </linearGradient>
    <linearGradient id="linear-gradient-2" x1="136.05" y1="387.5" x2="159.07" y2="387.5" xlink:href="#linear-gradient"/>
    <linearGradient id="linear-gradient-3" x1="292.52" y1="383.59" x2="319.53" y2="383.59" xlink:href="#linear-gradient"/>
    <linearGradient id="linear-gradient-4" x1="290.69" y1="456.98" x2="325.27" y2="456.98" xlink:href="#linear-gradient"/>
    <linearGradient id="linear-gradient-5" x1="110.41" y1="292.33" x2="165.4" y2="292.33" xlink:href="#linear-gradient"/>
    <linearGradient id="linear-gradient-6" x1="310.44" y1="292.66" x2="348.04" y2="292.66" xlink:href="#linear-gradient"/>
    <linearGradient id="linear-gradient-7" x1="280.13" y1="77.38" x2="331.46" y2="77.38" xlink:href="#linear-gradient"/>
    <linearGradient id="linear-gradient-8" x1="132.06" y1="273.33" x2="174.66" y2="273.33" xlink:href="#linear-gradient"/>
    <linearGradient id="linear-gradient-9" x1="314.71" y1="337.87" x2="356.08" y2="337.87" xlink:href="#linear-gradient"/>
    <linearGradient id="linear-gradient-10" x1="347.45" y1="320.88" x2="386.94" y2="320.88" xlink:href="#linear-gradient"/>
    <linearGradient id="linear-gradient-11" x1="50.7" y1="185.03" x2="61.04" y2="185.03" xlink:href="#linear-gradient"/>
    <linearGradient id="linear-gradient-12" x1="138.26" y1="233.95" x2="148.11" y2="233.95" xlink:href="#linear-gradient"/>
    <linearGradient id="linear-gradient-13" x1="159.53" y1="433.13" x2="171.7" y2="433.13" xlink:href="#linear-gradient"/>
    <linearGradient id="linear-gradient-14" x1="154.9" y1="388.81" x2="178.97" y2="388.81" xlink:href="#linear-gradient"/>
    <linearGradient id="linear-gradient-15" x1="101.72" y1="331.66" x2="111.3" y2="331.66" xlink:href="#linear-gradient"/>
    <linearGradient id="linear-gradient-16" x1="298.34" y1="124.73" x2="307.32" y2="124.73" xlink:href="#linear-gradient"/>
    <linearGradient id="linear-gradient-17" x1="102.46" y1="307.9" x2="140.09" y2="307.9" xlink:href="#linear-gradient"/>
    <linearGradient id="linear-gradient-18" x1="150.39" y1="53.41" x2="164.07" y2="53.41" xlink:href="#linear-gradient"/>
    <linearGradient id="linear-gradient-19" x1="288.82" y1="67.37" x2="298.83" y2="67.37" xlink:href="#linear-gradient"/>
    <linearGradient id="linear-gradient-20" x1="416.87" y1="182.16" x2="433.85" y2="182.16" xlink:href="#linear-gradient"/>
    <linearGradient id="linear-gradient-21" x1="120.57" y1="247.11" x2="133.3" y2="247.11" xlink:href="#linear-gradient"/>
    <linearGradient id="linear-gradient-22" x1="293.75" y1="156.65" x2="323.99" y2="156.65" xlink:href="#linear-gradient"/>
    <linearGradient id="linear-gradient-23" x1="152.42" y1="388.74" x2="167.87" y2="388.74" xlink:href="#linear-gradient"/>
    <linearGradient id="linear-gradient-24" x1="125.75" y1="226.74" x2="159.22" y2="226.74" xlink:href="#linear-gradient"/>
    <linearGradient id="linear-gradient-25" x1="325.22" y1="83.57" x2="333.36" y2="83.57" xlink:href="#linear-gradient"/>
    <linearGradient id="linear-gradient-26" x1="409.76" y1="227.36" x2="434.37" y2="227.36" xlink:href="#linear-gradient"/>
    <linearGradient id="linear-gradient-27" x1="396.82" y1="241.55" x2="437.55" y2="241.55" xlink:href="#linear-gradient"/>
    <linearGradient id="linear-gradient-28" x1="20.55" y1="223.84" x2="53.51" y2="223.84" xlink:href="#linear-gradient"/>
    <linearGradient id="linear-gradient-29" x1="316.59" y1="284.33" x2="342.54" y2="284.33" xlink:href="#linear-gradient"/>
    <linearGradient id="linear-gradient-30" x1="317.21" y1="297.39" x2="341.89" y2="297.39" xlink:href="#linear-gradient"/>
    <linearGradient id="linear-gradient-31" x1="316.59" y1="293.74" x2="342.02" y2="293.74" xlink:href="#linear-gradient"/>
    <linearGradient id="linear-gradient-32" x1="330.65" y1="339.99" x2="347.43" y2="339.99" xlink:href="#linear-gradient"/>
    <linearGradient id="linear-gradient-33" x1="184.53" y1="180.77" x2="212.9" y2="180.77" xlink:href="#linear-gradient"/>
    <linearGradient id="linear-gradient-34" x1="204.89" y1="147.78" x2="232.04" y2="147.78" xlink:href="#linear-gradient"/>
    <linearGradient id="linear-gradient-35" x1="79.35" y1="269.16" x2="450.22" y2="269.16" xlink:href="#linear-gradient"/>
    <linearGradient id="linear-gradient-36" x1="390.65" y1="218.11" x2="446.33" y2="218.11" xlink:href="#linear-gradient"/>
  </defs>
  <path class="cls-9" d="M4.32,229.21c-12.76-13.75,5.38-30.67,20.36-24.69.27-10,11.42-16.46,20.18-11.22,3.5,2.1,3.62,5.45,3.91,5.67.31.23,7.27-.42,7.63-.56.44-.18,1.02-3.55,3.3-4.23,2.81-.84,8.19,1.61,11.9-.14l-1.18-7c.95-2.39,5.38.47,4.85,2.32-.3,1.04-2.65.58-2.5,3.76.03.67,2.3,4.53,2.55,4.63.41.17,4.22-4.07,8.25-1.17,1.82,1.31,2.07,4.65,2.3,4.79,1.98,1.29,8.63-1.5,7.29,7.13-.22,1.39-5.16,7.87-6.57,8.24-6.19,1.63-8.91-2.81-14.06-4.79-2.49,10.23-1.85-4.31-2.21-4.85-.28-.41-3.28-.98-3.53-1.44-.62-1.13.32-4.06-.07-5.11-.2-.53-2.46.36-1.82-4.4-1.79-2.09-6.59-.7-7.48,1.91,2.3,1.35,7.27,5.48,8.28,7.74,1.66,3.71-2.91,12.9,5.43,12.19,3.35-.28,2.5-3.16,4.79-3.58-2.03,7.19-12.09,5.83-12.03-1.85l-4.01,6.18c5.84,1.1,14.68,4.09,14.68,11.41,0,8.22-6.59,6.14-9.75,8.03-1.42.84-5.98,11.19-11.7,10.22l8.61,26.49c3.9-8.13,8.22-16.05,13.09-23.63,2.68-4.18,13.28-16.41,14.36-18.97,1.2-2.85.9-8.19,1.88-11.7,1.47-5.27,10.65-21.16,15.09-23.8,1.78-1.06,1.76-.9,3.73-.26-7.27,9.12-15.86,18.51-16.65,30.85,3.76-3.28,24.89-23.27,28.07-23.21.82.02,1.62.7,2.15,1.3-4.73,4.41-30.82,24.07-31.38,28.97-.93,8.17,10.15,27.99,15.65,34.29,1.58,1.82,9.58,7.98,9.56,8.62-.07,2.5-13.58,2.54-16.27,3.18-.75.18-1.49.42-2.24.55,1.56,2.16-.79,1.22-1.83-.32l16.03-2.16c-.03-3.5-18.04-1.67-19.35-1.15-1.18.47-.97,2.31-1.94,3l-.61-2.47c-1.36-.36-25.75-.45-27.03-.02-.58.2-1.12,1.8-1.03,2.2.33,1.39,2.82,1.17,4.1,1.28,15.74,1.31,21.09-4.35,34.76,8.89-2.61-1.33-12.49-8.02-13.27-8.02h-24.38l3.09,9.25c-1.53,1.62-3.71-8.72-4.63-9.25l-.92-.62,3.22,10.7,15.9-.22c-.93-2.35-4.8-.66-6.17-1.23-.07-.03.64-1.11.06-1.55-2.39-1.83-4.74-3.7-6.85-5.84,7.1-1.22,9.29,3.84,14.81,6.79l-1.84,1.22,22.83.62c-.18-.72-1.15-1.17-1.85-1.84.68.34,3.33.88,3.59,1.34l-.86,3.52c-11.49-2.29-26.45,1.27-37.54-.59-5.93-1-8.17-9.48-11.21,1.27l.66,1.26h46.59c-.15,1.06-.82.88-1.54,1-6.71,1.09-45.12-1.15-46.63.63-.48.56-.74,5.26-1.81,6.39h46.28c.17.91-.23,1.46-1.05,1.77-2.38.91-12.99-.79-16.53.07.36,3.63-1.82-2.33-3.09,1.26l-26.09-.83c-6.51,26.03-.35,54.52,17.76,74.26,0-.99-2.4-11.63,1.54-7.4,1.58,1.69,1.94,12.39,4.02,15.09-1.01,3.41-23.61-6.07-16.36-7.68l8.33,2.76c-18.54-21.75-25.23-50.23-18.52-78.07h-16.65s17.22-.64,17.22-.64l1.9-7.99-16.66-.62h17.28c-.19-1.53,1.99-6.28,1.89-7.04-.05-.37-2.92-1.16-1.88-3.45l2.45,2.46c.69-3.47,4.25-7.03,4.18-10.64-.03-1.5-8.28-27.31-9.07-28.59-3.2-5.18-8.44-4.68-10.41,1.16l12.21,34.37-1.49-1.29-20.72.06v8.64h4.32s-1.85-1.84-1.85-1.84c6.2.41,16.89-3.36,20.36,2.45l-23.98-1-.09-9.22,22.23-.27c-1.2-.77-1.56-5.55-1.85-5.55h-21.6l20.98-.62-8.96-24.68c-7.72,1.29-15.75,1.22-17.58-8.02-13.15,9.9-29.37.04-17.27-14.81.85,3.05-1.59,3.01-2.5,5.83-4.11,12.74,11.97,14.91,19.47,7.77,2.89,6.7,9.92,11.97,16.88,7.01l-2.76-8.83.71-1.28c10.49,2.59,14.55,13.36,24.59,3.01,1.31-1.35,2.47-5,3.27-5.55,1.38-.95,4.13.42,6.68-1.78,8.19-7.04-4.87-17.16-12.66-14.83l3.7-7.4c-7.2-.62-7.5-9.49,0-10.49-2.37-.45-4.92-3.43-7.15-3.7-1.85-.22-5.92,1.6-6.41,1.22-.11-.08-.05-1.91-.7-2.69-8.42-10.08-20.58-3.64-22.11,7.99-11.92-3.77-26.81,3.48-23.95,17.69.39,1.96,2.35,3.9,2.94,6.01ZM77.14,200.83c1.06-1.11,3.14,4.73,6.19,2.69,2.78-1.86.22-6.84-2.85-7.01-4.64-.26-8.79,8.68-2.73,6.15.21-.2-.88-1.56-.62-1.84ZM91.19,203.44c-.87-1.01-4.72-1.77-5.75-.17-1.81,2.01.71,4.2-.86,6.99-1.17,2.06-5.65.77-6.81,3.52,2.89.99,6.26,3.3,9.25.94,1.45-1.14.95-2.54,1.59-3.35,1.41-1.77,5.98-3.96,2.58-7.92ZM59.04,205.25c-2.73.94-1.38,5.82,1.89,6.55,7.2,1.61,4.62-8.79-1.89-6.55ZM90.1,237.24c-4.67,1.71-27.1,38.55-25.3,40.11l45.66-1.86c-10.34-10.02-19.15-23.56-20.37-38.25ZM60.47,277.96c-.29-5.55-2.48-10.7-4.16-15.89-1.38-4.28-2.25-10.62-5.71-13.73,3.48,9.77,5.51,20.18,9.86,29.61Z"/>
  <path class="cls-8" d="M143.8,427.92l.91-5.56c1.68-2.89,3.5,12.56,3.41,13.29-.12.91.34,1.02-.94.93-1.31-.1-16.14-13.05-9.36-11.64l3.51,2.98c-10.44-26.01-2.25-62.69,13.08-85.35.74-1.1,2.23-4.68,3.88-4.12,1.61.54.29,1.3.07,1.9-2.8,7.67-9.59,16.08-12.72,24.93-6.94,19.62-10.47,43.13-1.83,62.64Z"/>
  <path class="cls-7" d="M316.48,370.63c.57.95,0,3.66.2,4.15s2.08-.19,2.44,1.62c.49,2.48-1.58,10.06-1.34,14.22.06,1.07,1.95,1.38,1.72,2.45-.08.36-3.07,5.23-4.15,4l.61-4.31c-3.56-2.19-11.87,3.64-13.17,3.59-.45-.02-8.01-3.36-8.31-3.71-.18-.21-1.46-4.31-1.97-5.12l3.08.29.62-17.9c2.41,1.12,19.66-.27,20.25.72ZM303.63,372.39l11.71-.32-18.5-.31c1.19,8.34-5.7,21.05,6.17,22.83-.17-5.68-2.75-11.08,0-16.65l-3.38,1.22-.96-1.56c2.83-6.58,5.7-2.12,10.83-3.35l.61,1.21c-4.58,1.23-.04,2.89,2.77,1.24l-1.77,1.61-.7,12.57c-1.93.24-.97-.32-1.09-1.35-.15-1.3,2.28-16.04-2.69-10.63-.73.8-1.5,13.39-3.01,15.68,4.4-1.91,7.83-3.88,12.96-3.08l1.85-14.81c-3.63.31-4.42-.29-6.49-1.82-.24-.18.38-1.23.32-1.26-1.72-.81-7.28,1.41-8.64-1.23Z"/>
  <path class="cls-6" d="M322.67,442.83l2.6,18.77-13,1.51.18,6.03-20.55,1.99-1.21-21.58c.33-.42,8.4-.26,9.28-.9,1.08-.79.03-2.71.97-3.48,1.2-.98,18.69-1.99,21.73-2.34ZM322.14,443.97c-2.64.96-20.33,1.65-20.98,2.48-.14.17.08,1.33,0,1.84l17.9-2.46-9.87,2.47,1.23,1.22-18.54.9.65,19.47,18.86-1.81c1.08-3.2-2.56-17.71.07-19.06,1.51-.78,6.9-.62,8.84-.72l-8.64,1.85v2.47c1.86-.53,9.07-1.86,9.26.61-1.96.98-11.83-.69-8.37,2.97,2.75-.42,6.61-2.26,8.98-.19l-9.25,1.54c.02,3.36,7.74-1.41,9.26.91-2.22,1.54-8.33.53-9.26,3.4l12.34-1.23-2.47-16.66Z"/>
  <path class="cls-3" d="M130.22,290.31c-1.18-2-13.17-9.04-12.93-10.15,1.29-5.97,14.35,4.5,17.87,3.37l-.8,1.11c-1.57-.51-5.98-2.28-5.99.72l37.02,19.46c.13.92-.65,1.42-1.49,1.51-4.61.5-22.71-12.3-28.11-13.89-8.19-2.42-17.16.46-24.41-.9-1.04-.19-1.03.31-.91-1.24h19.75Z"/>
  <path class="cls-4" d="M348.04,273.69c-3.07,6.67-2.47,34.45-5.53,38.53-5.47,7.31-24.24-.65-32.07-.35l6.2-41.87,31.4,3.69ZM346.83,274.89l-29.62-3.71-4.94,39.49,23.75,4.33,1.56-6.18,4.31,1.85,4.94-35.78Z"/>
  <path class="cls-2" d="M303.63,49.01v8.64s16.67,1.86,16.67,1.86l-4.92,30.82c.6.93,20.52,3.58,15.18,7.99l-15.22-4.62-3.07,12.09,6.8-45.66c-4.63,1.45-16.94-5.4-16.16,2.66-4.06,3.98-2.6-4.08-2.98-4.51s-10.17-.92-11.75-1.6l-6.7,42.88,27.72,5.61-29.05-4.68,6.52-43.45c1.6-3.02,10.33.94,13.31-.27,1.53-1.16-1-8.33,3.66-7.76Z"/>
  <path class="cls-1" d="M172.8,264.38l-4.93,2.16,6.79,8.04-29.37,9.54-13.23-19.41,12.98,18.81,27.75-10.17-6.52-7.15-3.34,1.28,1.84,1.83-20.98,5.56,4.32-2.45c-8.01,2.6-10.64-2.96-13.57-9.26l7.07,8.41,29.34-9.02,1.85,1.84Z"/>
  <path class="cls-5" d="M356.08,334.13c-2.06,4.62-14.2,13-18.77,12.91-3.8-.07-23.42-10.77-22.57-13.83,2.46-1.79,5.69-.62,8.67-1.21,1.95-.39,10.1-3.33,10.67-3.29,3.16.22,15.18,9.14,22,5.42ZM354.23,335.37c-6.03,3.23-17.21-5.25-20.16-5.41-3.05-.17-12.16,5.69-16.87,3.56-2.51,2.03,17.84,12.35,21.3,12.27,2.73-.06,13.7-7.68,15.72-10.41Z"/>
  <path class="cls-10" d="M386.94,316.23l-12.15,15.31-27.34-9.16,13.98-12.19c8.3,3.2,16.45,6.27,25.51,6.03ZM385.09,317.47c-8.48.39-15.8-3.83-23.66-6.11l-10.9,11.03,24.3,7.88,10.26-12.8Z"/>
  <path class="cls-11" d="M57.49,190.86c.49.34,1.68,0,2.37.09.94-2.67-1.92-1.52-1.84-2.15.19-1.62,3.17-.23,2.99,1.33l-.89,1.4-5.8.66c1.93-1.76,2.86-1.94,0-3.7l-.3,1.87h-1.26c-3.39-5.27-3.11-13.09,4.95-12.42,9.07.75-3.6,10.62-.22,12.93Z"/>
  <path class="cls-12" d="M148.11,228.6l-.05,9.83c-9.71,2.71-10.79-.96-9.21-9.83h9.26Z"/>
  <path class="cls-13" d="M164.6,423.06c5.68-1.01,11.82,19.38,1.63,20.16-9.61.73-7.71-19.07-1.63-20.16ZM166.63,441.5c7.17-2.27,3.39-14.78-1.55-17.88-4.75,4.47-8.16,16.41.92,17.88l-3.08-4.61,3.68-.63c-4.98-2.24-5.32-5.74-1.53-9.55,7,7.59-1.47,1.13-.25,5.16.32,1.05,4.03,1.68,4.01,3.78-.02,1.67-2.91,3.59-2.21,5.85Z"/>
  <path class="cls-15" d="M154.9,375.47c2.34-1.18,12.63-1.39,14.9-.91,10.04,2.12,3.32,22.72,5.47,24.98.31.33,2.7-.37,3.38-.63l.31,1.23c-.96,1.19-14.6,3.05-16.94,3.13-12.49.4,11.07-3.46,12.62-3.12v-19.74s-4.94.61-4.94.61v-5.55h-14.82Z"/>
  <path class="cls-26" d="M110.78,313.77c2.41.09-4.18,9.02-4.65,10.14-2,4.82-3.15,11.3-2.72,16.49.24,2.9,4.22,6.38.58,9.13-3.99-2.59-1.48-5.59-1.57-7.11-.62-11.42-.18-20.07,8.35-28.66Z"/>
  <path class="cls-27" d="M307.32,121.26c-.43,7.2-.47,10.37-8.97,6.76l1.21-7.48c1.86-1.53,5.66.3,7.77.73Z"/>
  <path class="cls-28" d="M138.24,297.1l-3.7-3.7c4.79.82,6.3,6.16,5.24,10.18-1.21,4.57-4.54,1.46-5.85,2.8-.56.57,1.58,14.11.3,16.02l-.92-16.04-30.84-.31,35.63-.75.77-6.97-32.71-1.23h32.09Z"/>
  <path class="cls-29" d="M159.78,61.29c-6.84.36-.83-6.33-.65-8.43.4-4.86-6.71-1.5-4.85,2.94-9.44-1.6.44-13.83,7.12-9.28,6.62,4.5-1.11,9.71-1.62,14.77ZM158.6,60.73c.07-4.91,7.5-8.14,2.5-12.67-4.34-3.94-11.96,2.28-8.06,6.5-.46-5.93,8.11-8.25,7.41-1.6-.23,2.21-4.29,5.16-1.86,7.77Z"/>
  <path class="cls-14" d="M297.05,67.95c.23.67,2.32,2.67,1.64,4.5l-9.87-.62c.42-2.56,4.71-13.53,7.72-8.02.69,1.25.04,2.79.51,4.14Z"/>
  <path class="cls-17" d="M431.18,173.26c3.36,3.32.15,6.92.41,8.75.29,2.06,5.62,5.02-1.14,9.55-2.66-.64,2.13-2.72,2.23-5.23.15-3.67-2.31-2.31-2.56-3.12-.42-1.39,2.74-5.23.69-8.65s-6.6-.77-6.22,2.81c-1.4,1.11-2.95-5.47-5.5-2.1-1.81,5.13-2.46,12.88,2.73,16.27l2.77-3.67c-5.21,16.33-12.48-16.31-3.39-14.85,3.54,5.74,4.93-4.75,9.99.24Z"/>
  <path class="cls-16" d="M126.51,231.68c1.11,9.73,2.35,19.48,6.79,28.38-5.01-1.41-5.22-16.98-6.25-18.44-.24-.34-5.05-1.37-5.46.23l9.23,20.68c-2.3-3.79-10.1-17.35-10.25-20.96s3.93-1.29,5.93-1.26v-8.64Z"/>
  <polygon class="cls-18" points="293.75 161.94 317.86 164.73 323.99 147.75 318.66 165.56 293.75 161.94"/>
  <path class="cls-19" d="M154.9,376.71l1.53,22.22,11.44-.31c-5.22.46-13.67,5.6-15.45-1.85l2.48-.31v-19.75Z"/>
  <path class="cls-34" d="M159.22,222.42v6.17c-1.42-.47-.06-3.24-.88-4.35-1.02-1.38-27.33,1.56-31.21.65v6.17c-1.73-.94-1.87-6.57-.22-7.31l32.31-1.32Z"/>
  <path class="cls-21" d="M326.45,71.85c3.32,6.93,8.41,15.66,6.49,23.43l-7.72-23.12,1.23-.31Z"/>
  <path class="cls-35" d="M409.78,231.68c-.34-1.68,3.13-1.99,4.2-2.28,3.13-.85,15.81-1.92,16.94-2.65,1.21-.78.97-2.52,1.09-3.7,2.85-.07.64,3.04,2.37,4.74l-.83,1.42c-7.15-3.08-16.47,1.29-23.76,2.48Z"/>
  <polygon class="cls-33" points="437.55 236.63 418.77 247.71 396.82 235.39 419.35 246.46 437.55 236.63"/>
  <path class="cls-20" d="M41.95,213.17c.16-.06.8-3.2,2.48-2.46-4.69,4.73,2.23,5.15,5.14,7.5,5.86,4.75,5.35,14.73-2.67,15.94.16-2.21,2.27-.84,3.84-3.25,3.37-5.15.55-12.39-5.69-13.41,5.99,8.03-10.41,13.47-2.48,17.89l1.85-4.93c1.27,5.46-3.41,10.1-5.56,3.08-7.32,7.16-21.73-1.01-13.28-9.9,1.01-1.06,9.89-5.81,11.8-6.71,1.55-.73,5.49-.21,5.18-1.59-7.61-7.79-25.5.6-19.74,12.02-3.99-1.46-1.88-8.02-.26-10.44,3.35-5.02,9.75-5.95,15.2-5.42,1.27.12,3.97,1.76,4.18,1.68ZM37.02,229.82l-6.12-1.58-.06-6.43c-15.3,6.74,1.61,20.9,8.64,8.33l-1.85-.61c4.17-2.12.96-6.05-2.18-7.07-1.79-.13-1.58,7.39,1.57,7.38Z"/>
  <path class="cls-36" d="M330.77,276.12c2.74,5.28.67,9.29-1.22,14.19l12.96,1.25c.17.13-.34.82-.61.94-1.14.49-23.71-2.04-24.69-2.8-3.66-2.84,10.29-.87,11.11.62-.39-5.01-4.15-11.85,2.46-14.19Z"/>
  <path class="cls-25" d="M341.89,298.34c-.26,1.13-1.1,1.17-2.06,1.18-5.85.08-16.58-3-22.62-4.27l24.68,3.09Z"/>
  <path class="cls-23" d="M341.89,294.64c.24.23.22,1.68-.86,1.17l-24.44-3.95c2.96-1.28,24.36,1.89,25.3,2.78Z"/>
  <path class="cls-22" d="M338.19,344.61l1.85-2.45c-1.89-.4-3.35,3.22-4.32.62l3.7-2.47-6.17,2.46,4.32-3.69c-14.94,6.45-1.72-3.33,2.84-3.7,1.12-.09,6.91,1.4,7.02,2.15l-9.24,7.09Z"/>
  <g>
    <g>
      <path class="cls-24" d="M212.9,210.08c-14.83-15.78-24.3-37.47-28.37-58.63,6.67,21.42,15.86,40.08,28.37,58.63Z"/>
      <path class="cls-31" d="M206.38,136.37c5.2,4.66,9.5,11.45,15.02,16.35.58.52,1.78-.05,1.92.06.21.18.07,1.64.67,2.14.5.41,1.76-.43,1.85-.36.4.32,3.13,5.66,6.2,6.15-12.32-3.9-20.34-14.7-27.14-25-.08-2.11,1.16.37,1.48.66Z"/>
    </g>
    <g>
      <path class="cls-30" d="M312.89,220.57c-2.02,1.08-4.06,2.56-6.22,3.49,5.22,16.29,6.48,34.09,2.93,50.92-2.07,9.81-5,8.18-7.07,12.67-1.17,2.54-.11,8.1-.85,10.25-.39,1.11-2.17,1.21-2.74,2.57-.69,1.62,1.42,13.59.98,16.61-.6,4.07-9.44,16.58-12.95,17.94-3.05,1.18-4.15-.92-6.77-.28l5.59-36.07c-5.39-2.16-.56-9.1-1.87-12.89-.16-.45-2.93-1.3-4.18-3.36-2.16-3.55-2.55-11.4-4.41-15.98-.35-.86.57-1.79-1.31-1.43,12.71,41.05.78,83.9-.64,125.56-.39,11.43,1.22,23.5.63,34.57-.7,12.96-5.36,27.87-4.95,40.73.1,3.29,3.48,9.21,3.12,9.58-1.04,1.05-4.05-2.02-1.86,4.94l-3.39-4.32-.31,3.7-3.08-3.08c1.23,2.99-1.04,9.33-.04,11.95.24.63,3.28.9,4.18,1.8,1.31,1.32,1.45,5.2,2.75,7.43,6.37,10.89,25.48,13.23,26.41,26.66.32,4.55.23,8.49-4.05,10.73-.89.47-10.03,2.97-10.96,3.03-.83.06-1.88-1.49-2.55-1.53-.41-.02-1.28,1.19-2.42,1.03-5.66-.79-16.53-5.76-21.08-9.22-1.68-1.28-.53-3.47-3.04-3.15-.3.04-.04,2.03-4.67.33-6.79-2.49-6.52-5.81-6.05-12.27.91-12.39,7.06-25.69,3.04-38.39l-2.51-.27v4.32s-1.55-3.09-1.55-3.09l-2.16,3.09c1.85-2.61.39-7.53-2.47-6.17.83-3.24,4.18-4,4.35-7.66.43-9.54-7.07-27.49-8.03-38.95-1.18-13.98,1.17-28.48.62-42.59-.93-23.97-6.27-48.9-6.5-73.12-.32,24.71-6.25,49.15-6.23,73.86.01,12.69,3.21,26.13,2.86,38.19-.25,8.6-3.27,18.03-4.26,26.59-.33,2.89-1.72,15.25-1.35,17.19.54,2.82,3.34,3.99,4.35,6.49-3.95-1.34-1.75.59-3.06,1.62-.59.46-1.71-.57-1.87-.37-.71.88,2.85,4.77.92,6.17l-2.76-4.31c-.83.48-1.83,14.82-1.28,16.28.29.76,1.97.17,2.43,1.38.62,1.6-.24,5.77.09,7.93.81,5.29,5.03,19.81-.07,23.42-3.68,2.6-7.11,1-8.4,1.37-.65.19-8.53,6.79-10.74,7.87-3.5,1.7-15.89,4.4-19.19,3.94-4.04-.56-12.54-3.18-13.41-7.61-3.72-18.81,18.92-19.77,26.62-32.54,1.37-2.27,1.38-5.38,2.66-7.21,1.11-1.6,3.04-1.14,3.43-2.77.18-.74-.3-11-.67-11.44-.23-.27-1.96.86-2.7.56-.78-.32-.73-1.56-1.45-1.81-3.51-1.18-2.52,2.61-5.09,3.71.06-1.73,1.82-4.11,1.26-5.85-.3-.93-1.85.58-1.89-1.24-.04-1.49,2.31-3.07,2.48-5.53.61-8.71-5.12-25.96-6.16-35.84-1.24-11.83-.29-23.9-1.27-35.76-2.5-30.34-7.53-60.5-7.4-91.04-24.07,20.82-43.97,49.19-57.49,77.96-16.22,34.52-21.66,70.03,7.2,99.77l-1.54-10.48c2.53-3.01,5.85,14.91,7.74,16.05-.62,1.88-6.41-.54-8.22-1.08-8.67-2.61-19.33-9.64-2-4.79-32.76-36.58-18.9-77.5,1.63-115.64,4.03-7.49,10.51-14.89,11.96-22.91,1.18-.32.14,2.53,1.22,1.84s12.02-16.83,14.51-19.75c7.8-9.17,16.54-17.66,25.29-25.93.83-18.24,4.88-36.11,9.58-53.67-6.61,1.74-10.4-5.68-13.19-10.57-4.46-7.8-7.61-15.98-5.34-25.19-6.61-.39-22.79-11.32-27.59-11.65-4.16-.28-8.98,7.43-13.73,4.81l9.86-7.09c-2.17-.56-12.48-8.22-13.26-8.2-.61.02-7.55,6.29-8.72,7.22-5.87-1.5,6.26-7.72,5.94-8.89-32.66-21.58-47.03-58.49-34.83-96.56,1.3-4.05,9.28-18.2,9.44-19.61s-1.73-3.83-1.14-4.48c.17-.19,3.6-.19,4.89-.98,1.78-1.08,9.91-11.65,13.34-14.43,4.41-3.57,9.68-6.85,15.09-8.67l-10.07-.09c-1.14-.23-1.35-2.36-1.02-2.97.49-.89,17.82-.45,20.34-.63-1.11,2.01-8.46,14.7-9.23,15.13-.51.29-.97.4-1.55.28-2.86-.88,3.08-8.45,4-9.86-10.28,3.31-18.6,11.19-25.3,19.44,3.43-.41,8.73-.54,7.06-4.63,2.96-3.7,4.99,1.06,6.85,1.25,2.32.23,8.02-3.46,11.1-2.54l2.75,6.22-2.5-5.51c-4.22,1.01-27.86,6.05-28.64,9.13-.27,1.07.66,3.1.29,4.41l-1.86-1.84v2.46s-1.83-1.22-1.83-1.22l1.85,8.63-.63-4.92,8.64-1.85-7.4,2.47c1.23,8.39,4.77,2.55,6.89,1.97,1.03-.28,3.89.64,6.33-.67.65-.35.24-1.83.37-1.93.34-.26,1,1.19,1.88.97,3.38-.84,7.24-1.61,5.52-5.28,1.84,3.23,6.73,1.61,4.93-1.85,2.71,1.23,6.66,2.73,8.01-1.23l4.32,13.57-3.36-6.63-4.61,1.76c-.33,5.5,3.14.85,6.12,3.02-3.16,1.15-9.37,1.01-11.12,4.32-2.37-1.07-1.06-2.83-1.85-4.93-2.52,2.07-8.39,1.07-6.15,4.94l5.54-1.23-5.55,2.47c2.95,1.12.62,3.61,1.24,4.31.29.33,7.85-1.93,7.41-3.7l3.69,1.22-27.15,8.65-6.18-20.07c-23.42,38.49-10.9,86.79,27.15,109.93,4.1-2.73,29.46-17.2,32.44-13.99l.27,1.87-29.62,13.6c-.27.72,12.19,8.19,12.96,8.3,1.91.27,27.07-14.66,32.1-14.78,1.16-.95.5-1.53.02-2.51-1.84-3.8-18.81-15.41-23.19-19.39-16.4-14.89-40.01-41.61-22.15-64.14,3.88-4.9,40.39-28.81,45.6-29.09,2.93-.16,5.97,1.36,7.9,1.14,2.84-.33,7.69-5.8,11.9-4.74l-.35-10.56c-2.84.82.13,7.64,0,9.87-3.7-2.55-2.7-8.49-2.06-12.25,1.89-11.03,11.89-24.4,19.96-31.88,23.46-21.75,35.31-20.99,53.32,5.94,6.9,10.32,13.97,29.73,12.05,42.14-.52,3.33-3.44,5.99-3.5,8.52-.11,5.14,8.66,11.49,9.17,19.93.02.31-.49,6.08-1.9,5.86,1.19-8.56-4.16-13.53-8.64-19.74.24,10.24,12.91,14.39,4.94,25.92l4.31-5.55c-1.09,8.43-12.36,9.06.61,16.35-1.12,2.47-5.57-.86-6.16-.3,2.7,5.95-3.19,7.37-5.55,11.09,13.08,4.53,18.47,16.98,22.84,29.01l7.37-39.86,29.88,4.11c.37-.25,1.01-2.03,1.01-2.2v-11.73c2.86-2.73,1.84,1.47,3.08,2.77l3.42-11.1c11.76,5.03,22.34,15.01,27.5,26.78l-2.51,1.61c-4.2-11.43-14.25-19.39-24.4-25.29l-2.14,11.09c10.43-11.79-1.59,9.2-3.5,9.81l-31.09-3.96-7.84,39.4c.89,2.29.48,4.72,3.53,4.75.21,1.26-1.67.12-1.83.9-.34,1.64,4.28,12.76,3.7,15.75,23.85-8.91,46.13-21.42,67.77-34.67l-2.89-13.9,2.65-2.02,3.74,12.93c26.18-19.58,51.04-59.3,28.84-90.55-12.79-18-41.92-25.92-63.09-25.17l-.61.93c1.65-.86,9.42,5.48,5.24,5.57-.8.02-12.6-6.06-14.48-6.56-.26-1.72,12.54-8.33,13.57-7.95,4.4,1.6-4.95,4.05-4.95,5.86,26.56-2.76,61.44,9.1,72.11,35.57,11.47,28.45-5.32,57.82-25.52,77.33-2.24,2.17-10.66,7.44-11.65,9.27-.37.68-.79,12.63-1.3,15.45-3.23,17.7-13.39,33.17-26.25,45.34l28.71,18.06c1.46-2.25,15.23-11.99,15.63-12.92.8-1.85-5.16-8.65-.83-12.85,5.19-5.04,12.46-1.05,17.59.62-4.73-1.59-18.1-4.29-17.85,3.92.24,7.97,8.78,14.69,13.66,6.39,7.25-12.34-14.67-10.42-10.61-4.76,4.83-5.89,13.89-2.2,8.64,4.94,3.71-10.75-11.43-7.87-7.1,1.23-3.81-4.46-4.53-11.83,3.08-12.04,10.17-.28,10.93,8.64,4.02,14.21,6.21.31,7.7-9.05,6.17-13.89,2.98.97,4.72.89,7.4,1.84h-6.17c.61,6.73-.13,13.25-8.33,13.63-2.57.12-9.1-2.39-9.58-2.28-1.06.23-13.38,10.93-13.56,11.81l20.01,4.04,5.28,3.05c-2.1.44-11.85-1.29-7.41,4.64,2.36,3.15,28.04,11.89,32.52,16.23l23.65-13.46-23.64,14.7c-3.91-.45-33.1-18.62-34.36-17.17-.63.72.27,2.31.98,3.02,1.44,1.42,31.31,16.66,33.16,16.58,3.32-2.58,28.53-15.1,29.39-16.54.42-.69-.13-1.99-.92-2.44l-3.38,1.23,3.68-2.8.03-1.21c-4.34-1.53-4.75-3.52-9.26-.93.99-2.01,4.06-2.2,5.55-3.08.03.28-.82.94-.62,1.22s6.01,2.2,6.17,2.49c.33.59-2.36,2.83.33,4.93l-30.93,18.49c-1.95.09-31.91-14.75-33.89-16.64-3.28-3.13.13-4.95.31-8.64l-10.49-.62c32.55,32.02,28.58,73.85,8.06,111.33,5.02,4.29,22.51,7.65,9.22,14.57l3.38-.02.31,1.23-27.76,10.5c5.24-.31,11.96-2.77,17.24-4.66,2.98-1.07,8.7-2.52,9.92-5.2l.63,4.52c-5.78,1.34-18.78,9.85-23.6,10.49-3.11.41-5.38-2.91-7.9-1.77-2,.91-9.3,13.13-13.57,13.93,15.92,23.72,19.77,60.51-9.88,75.28l8.84.1.75,2.39c-2.52.25-18.47,3.43-17.99-.07.12-.9,9.72-12.68,11.16-14.15,3.26,1.62-3.16,7.64-2.77,8.01,25.89-13.75,22.45-48.04,7.72-68.98l-21.29,12.84c-.14,1.67,20.26-2.54,12.99,2.81-.92.68-20.19.74-22.87.88-1.39-1.27,11.83-15.09,12.68-17.89,5.36-1.07-3.88,11.02-5.27,12.03-.06,1.75,21.61-11.79,22.17-14.2-8.25-10.09-18.41-19.2-29.63-25.87-8.21-4.88-17.39-8.63-26.27-12.03-.32-.12-7.33.38-5.15-2.51.56-.74,10.49,2.13,11.89,2.6,19.11,6.4,38.96,19.58,50.52,36.17,2.18,1.01,12.08-11.23,13.5-13.78-12.53-4.43-9.84-9.44-9.27-20.67.95-1.07,24.35-4.99,27.45-8.05,2.85-2.82,12.98-31.32,14.09-36.51,10.02-46.97-20.53-76.7-59.24-96.03-5.58,3.27-10.49,7.56-16.06,10.86-2.17,1.29-4.97,1.85-6.36,2.59.48-1.05-1.47-2.01-1.23-2.46.56-1.07,18.73-9.26,20.36-12.96l-33.94-13.58,7.43,28.97c3.17.07,4.38-1.97,7.38.03ZM217.23,10.75c-.12,1.25-7.71,12.78-6.79,13.57,7.4.6,4.7-8.6,9.57-12.33l-3.4,11.11,5.52-.67.96-6.74c.22,5.7-2.65,7.12,4.62,7.41l2.48-14.19-1.86,14.18,6.35.65c.43-.13,1.06-1.35,1.06-1.57v-13.89l.91,15.43,8.01,2.51,1.57-1.27c-1.63,1.72,1.21,2.95,1.85,2.46.76-.58-.02-5.41,1.23-6.17-1.39,3.79,1.48,4.95,1.88,5.91.12.27-.85,1.53-.63,2.11.07.2,3.78,1.26,3.99,1.23,3.91-.54-6.18-23.18-10.36-26.04-10.27-7.03-19.79-1.67-26.96,6.29.05-.49.2-1.29-.3-1.23-5.19,4.75-9.81,10.12-12.65,16.66,6.61.07,5.85-5.64,8.53-10.28,1.53-2.65,2.66-3.19,4.42-5.14ZM262.9,35.43c-2.11-9.59-5.36-18.06-12.95-24.68.95,3.69,3.55,6.79,4.76,10.35,2.29,6.72-.52,11.33,8.19,14.32ZM262.28,51.79c.46-3.5-.33-7.81,0-11.42,1,2.81,1.45,6.56,1.21,9.55-.5,6.31-5.61,9,.95,13.27,6.19-12.74,5.79-21.39-6.67-29.11-13.38-8.28-30.75-11.89-46.22-8.34-16.54,3.79-18.61,10.54-16.53,26.97,7.64-4.6,2.23-15.02,6.17-22.21l-.94,17.27c7.56-4.37,4.61-11.21,7.11-18.5l-.32,13.56c3.88-2.99,9.77-3.36,14.52-2.72l1.84-12.69-.36,12.99,12.72,3.4,1.82-15.78.12,16.54c5.29.79,7.94,4.53,12.41,7.05.94.53,2.42-.41,2.91-.15.62.33-.65,2.9.92,2.46,3.71-4.9,1.32-11.21,2.78-16.65,2.24,5.87-1.5,12.5.62,17.27l-1.84.3,4.3,4.02c.35-.14,2.36-6.17,2.48-7.1ZM191.32,57.03c5.1-1.18,1.7-9.01,1.92-12.58.24-3.9,1.28-7.77,2.38-11.49-6.54,6.16-6.78,15.94-4.31,24.07ZM221.55,41.61c-15.29-2.24-23.21,10.49-31.35,20.66l6.67,9.29c7.58-.38,8.89-10.47,14.24-14.17,4.05-2.8,9.06-2.12,12.91-4.98l-13.3,2.14-.89-1.2,20.36-5.26-1.27-1.29-20.94,3.46c6.48-3.95,14.32-3.93,21.6-4.94-7.26-3.51-16.83.53-24.07,3.09l16.04-6.77ZM269.66,67.51c2.41-7.36,2.92-16.67-1.2-23.43,1.2,6.61.83,14.48-2.98,20.15.66,2.57,1.79,3.08,4.18,3.29ZM202.42,74.94c2.56,25.13,30.16,46.21,46.21,16.88,1.32-2.41,9.18-19.13,2.25-17.51-2.29,1.7,2.72,2.76,1.92,4.95l-2.21,2.2-2.18-.37c-2.06-2.11.4-5.11.17-6.4-.06-.33-3.16-3.91-3.81-5.4-4.28-9.85,5.03-23.08-12.41-24.63-1.92.09-.38,2.88-1.23,4.35-.75,1.3-3.91.86-4.63,2.16l1.23.92c-3.68,3.78-14.9,4.42-17.63,8.59-1.97,3.01.55,2.64.87,4.81.48,3.28-5.31,8.67-8.55,9.43ZM192.55,69.99c-1.68-1.91,1.03-5.14-4.94-2.48l2.47-2.16-.96-1.53-10.61,5.21,1.03,2.54c3.81-.81.61.32.64,1.8.12,5.35,10.01-3.57,12.36-3.39l-9.87,6.78c2.83-.82,3.9-.03,2.77,2.47l8.96-4.92-6.17,4.32c1.93,4.21,9.29.69,8.63-3.96-.44-3.05-3.45-3.71-4.31-4.69ZM178.36,76.78c-2.22-2.22,3.25-17.26-14.16-9.53-4.63,2.06-34.68,22.27-37.7,25.86-24.59,29.26,23.34,64.16,42.9,80.54,3.34.7.51-29.74-1.53-33.02l1.21-.29,4.32,23.46-1.23,1.84h1.85c-1.74,1.93-1.62,6.08.01,8.02-3.74-.28-.47.99-.63,1.84-.01.06-1.15-.15-1.23.42-2.94,20.71-9.67,44.49,3.2,62.12,3.83,5.24,8.7,9.84,10.99,1.04-.63-.59-4.67,1.94-4.31-1.23l14.19-6.49-11.1-1.85c7.43-6.86,17.94,1.35,26.53,1.24-2.35-1.3-2.34-4.12.26-2.82,1.39.7.22,3.61.36,3.73,1.2,1.04,13.69,1.55,16.35,2.47,6.68-1.59,14.06-1.9,20.55-4.15,4.22-1.46,10.72-6.12,14.28-6.64.98-.15,3.93.64,1.9,1.87-3.18-.37-6.29,1.57-8.62,3.67l6.77,2.77h-11.72c8.69,3.04,20.54,14.43,25.28-.38,1.28-4.02.02-6.81-.44-9.8-.3-1.88-3.18-12.32-2.62-12.64.14-.08,2.96-.09,3.09,0-2.73,4.27,2.35,10.72,2.95,15.3.4,3.02-1.04,8.67-2.68,11.2-2.69,4.17-6.63,2.97-6.43,8.31.22,6.09,6.81,29.56,9.04,36.05,2.44,7.1,6.94,3.37,11.66,3.26.27,0,.21,1.02.56,1.02,5.53.12,2.23-.68,2.78-1.08,1.19-.88,1.27,1.39,2.74,1.92,9.56,3.45,10.61-9.67,11.38-15.9,4.47-36.1-14.06-74.43-20.15-109.9l-1.68-.81c-1.5,3.81-9.23,10.79-10.02,14.05-1.34,5.53-.27,16.64-1.28,23.37-.93,6.17-2.75,14.03-5.66,19.37,4.89-18.42,4.78-36.63,4.32-55.54,3.43.68.52,9.52,2.77,9.86l10.16-13.91c-4.34-17.28-15.57-26.64-31.26-33.49-12.01,11.41-30.02,14.34-43.85,4.36-2.97-2.14-7.94-9.34-9.24-9.95-1.07-.5-1.94,1.13-3.54-.67-1.64,1.6-1.66,1.81-1.58-.64l-29.34-6.22-12.32,14.86,10.18-14.8-24.68,9.25c8.99-6.84,21.2-6.49,29-15.43.51-2.26-14.17-.29-15.42-3.07,5.97-.5,12.89,1.57,18.78.57,5.53-.94,12.83-9.2,12.05-15.02-.54-4.02-2.92-2.64-3.06-2.84-.24-.33.73-1.44.49-1.75-1.21-1.58-4.51-1.88-3.58-4.41-.27-.28-1.66.8-1.84.61ZM257.12,79.02c2.34-2.13,5.56-8.97,1.16-10.28l-3.86,5.24.46,6.5c.11.13,1.92-1.18,2.23-1.46ZM269.06,101.47c2.12-7.85-6.44-9.63-8.32-16.03-4.06,4.76,1.53,5.81,3.99,8.95,1.78,2.27,2.71,4.78,4.33,7.08ZM196.87,87.89c-.09,0,.37-1.56-.61-1.23-.49.17-6.41,7.21-6.69,7.81-5.14,11.01,3.42,10.41,9.13,14.11,2.25,1.46,2.9,4.18,4.96,5.22-.66-9.08-8.43-5.46-9.1-13.41-.56-6.6,2.17-8.46,3.87-13.74-.49.35-.91,1.24-1.54,1.23ZM270.91,117.51c.59-3.72-3.45-5.11-4.17-8.48-.79-3.7.46-6.9-1.26-11.09-.53-1.3-6.48-8.09-7.51-8.2-.1,0-1.28,1.44-1.25,1.53.91,3.06,12.31,9.44,7.41,16.97l1.22-1.23c-1,4.96,2.72,7.22,5.55,10.49ZM257.97,110.11c5.98-6.13.59-13.83-6.18-16.04l3.09,15.42c2.71-1.84,2.12-5.36,2.15-8.02,2.02,2.56,1.57,5.75.94,8.64ZM184.1,106.21c-1.87-1.79-2.35-5.04-3.58-7.2-3.68,2.85-9.84,2.39-10.81,8.01l18.11,4.37,1.64-3.75c-1.35,1.13-4.28-.41-5.35-1.43ZM216.62,104.56l-1.11,11.33c8.18,7.98,20.54,9.77,29.47,1.94-3.75-4.44-4-9.58-3.69-15.13-7.72,6.91-15.91,7.18-24.67,1.85ZM219.7,128.61l2.46-6.43c-6.01-1.86-11.28-13.35-15.14-2.81l1.26,1.21,4.62-4.3-3.36,5.57,10.15,6.77ZM243.16,121.83c6.17,8.35,8,4.02,2.09-2.42l-6.4,3.35c3.46,8.34,9.25,8.58,4.31-.92ZM233.89,124.3l-11.1-1.86c-.32,4.75-5.67,6.48,1.22,8.02l1.85-6.17c-.11,4.05-3.55,7.04,2.47,6.79l1.23-6.17-.32,6.19,5.26-.02-.62-6.78ZM240.67,129.83l-2.45-6.5-3.66.4c.57,5.35-1.16,8.49,6.11,6.1ZM363.49,145.91c-21.09,13.5-43.49,24.75-66.68,34.24-.9,1.01.24,6.83.97,7.7,1.96,2.33,32.52,11.44,37.33,15.15,16.75-14.5,26.62-34.94,28.38-57.09ZM169.71,182.31l-27.76,13.56,24.68,10.5,3.09-24.06ZM390.65,227.98l-19.14-3.09.28,2.5c1.03,1.31,15.72,2.24,17.94,1.82,1.03-.2,1.03.31.92-1.23ZM297.46,296.48v-9.57c0-.38-1.27-1.19-1.85-.92-.43.54.71,9.15-1.85,9.25.49-2.79,1.87-9.81-1.85-9.26-.49.66.5,10.32-2.47,10.49l1.85-11.1-5.57.35.02,5.19,3.07-4.93-1.85,11.1,11.99,1.15,2.2-11.63h-2.47s-1.23,9.87-1.23,9.87ZM284.5,305.43c-.74,5.29.55,12.11,0,17.59,6.39,2.13,1.8-11.18,7.4-13.58,1.15.87.41,11.17-.16,13.1-.79,2.67-7.14,9.81-7.23,10.67-.1.97-.11,1.04.91.91,12.32-9.73,15.55-18.61,12.08-34.28l-10.11-.8c-1.13.43-2.73,5.26-2.89,6.39ZM379.53,341.53l-25.29,7.39,16.01,9.86,9.28-17.26ZM396.2,350.16l-13.59-7.12-3.68,6.51,6.16-1.24-7.4,3.7,10.8-4.31c-1.84,5.68-12.65,3.35-14.51,10.48l22.21-8.02ZM252.36,476.11c-.25-.02-4.32,1.05-4.79,1.59-.27.74-.38,15.06-.12,15.8.49,1.43,5.98,2.54,6.81,4.15l-8.02-3.08-1.23,12.94c4.22-.56,25.12,12.24,26.47,11.71.23-.09,2.56-3.62,2.26-4.3-4.84-2.73-20.96-16.12-19.36-21.76,1.2-4.22,7.58-3.81,7.89-4.16.39-.43.18-10.01,0-11.72-1.96,1.18-5.97.68-8.68.38-1.24-.14-1.14-1.56-1.24-1.57ZM213.52,476.69c-3.6,1.58-8.41-1.37-11.42,2.46l-.61-1.84c-3.79-.26-3.29,10.08-2.51,11.14.9,1.23,11.17,1.29,8.38,8.59,10.02.6,3.5-14.04,6.16-20.36ZM200.96,500.37c.5.24.77,2.45,1.74.98,10.18-10.38-8.22-16.96-9.54-3.69,3.04-.02,5.23,1.51,7.8,2.71ZM268.45,497.66c.35-13.29-20.13-7.26-9.24,3.09l9.24-3.09ZM215.92,508.08l-.85-13.49c-1.92,4.52-7.75,2.72-8.85,3.15-.32.12-2.94,4.84-3.82,5.78-4.39,4.72-8.96,8.85-14.79,11.74l3.38,4.61,24.92-11.78ZM246.86,510c15.06,5.36,20.41,14.52,37.93,12.95,1.51-.14,9.15-1.55,9.56-2.81,1.61-4.99-12.66.46-14.81.7-13.86,1.57-20.24-9.36-32.69-10.84ZM294.98,521.12c-19.65,11.05-33.57-4.55-50.92-11.1-3.82,9.69,2.64,8.22,8.37,11.38,11.81,6.52,19.9,13.62,34.8,10.8,7.75-1.47,9.78-2.3,7.74-11.08ZM213.52,510.63c-14.43,4.21-18.26,12.15-34.71,9.71-4.01-.6-11.27-5.44-11,.39,18.09,8.99,30.5-2.5,45.71-10.1ZM217.23,511.25c-18.03,5.65-29.85,21.81-50.6,10.49-1.53,9.13,1.45,9.77,9.66,11.01,14.45,2.18,20.06-3.6,31.45-9.7,6.71-3.6,11.1-.43,9.49-11.8ZM291.28,515.58c-6.23-5.59-15.28-3.66-17.89,4.3,5.14-1.02,12.13-1.18,17-3.06.77-.3,1.12.38.89-1.25ZM188.84,519.88c-1.74-7.72-13.09-10.04-17.88-3.39l17.88,3.39ZM292.52,532.23c-7.71,1.47-15.73,2.04-23.45,0,2.56,4.61,3.25,1.64,5.2,1.8.25.02.4,1.88,3.09,1.88.85,0,1.66-1.26,2.42-1.16.67.08,1.41,1.67,2.02,1.75,1.08.13,1.55-1.49,2.45-1.66,1.88-.37,6.85-.12,8.26-2.61Z"/>
      <path class="cls-32" d="M444.34,228.6c-.02-.15.75-.9.55-1.46-.48-1.33-22.52-10.01-25.23-12.73l1.85,7.4-25.02,9.28,21,11.69,20.06-10.47-20.63,11.72c-3.22-.24-18.92-12.12-21.95-12.66-1.34-.24-2.73,2.43-4.32,2.16l3.7-3.7c8.44-1.76,17.24-7.06,25.92-8.65-1.62-8.15-7.56-16.28-5.56-24.68l-3.39,4.32-2.77-1.86,7.1-6.78c.67,6.5-1.66,15.48,3.74,20.94,3.87,3.92,24.07,10.02,26.19,12.69,1.85,2.34-.12,2.12-1.23,2.78Z"/>
    </g>
  </g>
</svg>