<svg xmlns="http://www.w3.org/2000/svg" xmlns:xlink="http://www.w3.org/1999/xlink" id="Layer_1" data-name="Layer 1" viewBox="0 0 464.55 564.47"><defs><linearGradient id="linear-gradient" x1="0" x2="464.55" y1="282.24" y2="282.24" gradientUnits="userSpaceOnUse"><stop offset="0" stop-color="#f7f4f1"/><stop offset="1" stop-color="#e8d5c4"/></linearGradient><linearGradient id="linear-gradient-2" x1="74.3" x2="155.45" y1="219.09" y2="219.09" gradientUnits="userSpaceOnUse"><stop offset="0" stop-color="#a0622c"/><stop offset=".13" stop-color="#a16530"/><stop offset=".27" stop-color="#a76e3c"/><stop offset=".41" stop-color="#b07e51"/><stop offset=".55" stop-color="#be946f"/><stop offset=".7" stop-color="#cfb095"/><stop offset=".84" stop-color="#e3d2c2"/><stop offset=".98" stop-color="#fbf9f7"/><stop offset="1" stop-color="#fff"/></linearGradient><linearGradient xlink:href="#linear-gradient-2" id="linear-gradient-3" x1="163.76" x2="178.9" y1="284.45" y2="284.45"/><linearGradient xlink:href="#linear-gradient-2" id="linear-gradient-4" x1="266.64" x2="284.4" y1="281.88" y2="281.88"/><linearGradient xlink:href="#linear-gradient-2" id="linear-gradient-5" x1="265.44" x2="288.18" y1="330.14" y2="330.14"/><linearGradient xlink:href="#linear-gradient-2" id="linear-gradient-6" x1="146.9" x2="183.06" y1="221.87" y2="221.87"/><linearGradient xlink:href="#linear-gradient-2" id="linear-gradient-7" x1="278.43" x2="303.15" y1="222.09" y2="222.09"/><linearGradient xlink:href="#linear-gradient-2" id="linear-gradient-8" x1="258.5" x2="292.25" y1="80.53" y2="80.53"/><linearGradient xlink:href="#linear-gradient-2" id="linear-gradient-9" x1="161.13" x2="189.14" y1="209.38" y2="209.38"/><linearGradient xlink:href="#linear-gradient-2" id="linear-gradient-10" x1="281.24" x2="308.44" y1="251.82" y2="251.82"/><linearGradient xlink:href="#linear-gradient-2" id="linear-gradient-11" x1="302.76" x2="328.73" y1="240.64" y2="240.64"/><linearGradient xlink:href="#linear-gradient-2" id="linear-gradient-12" x1="107.64" x2="114.43" y1="151.32" y2="151.32"/><linearGradient xlink:href="#linear-gradient-2" id="linear-gradient-13" x1="165.21" x2="171.69" y1="183.48" y2="183.48"/><linearGradient xlink:href="#linear-gradient-2" id="linear-gradient-14" x1="179.19" x2="187.2" y1="314.46" y2="314.46"/><linearGradient xlink:href="#linear-gradient-2" id="linear-gradient-15" x1="176.15" x2="191.98" y1="285.32" y2="285.32"/><linearGradient xlink:href="#linear-gradient-2" id="linear-gradient-16" x1="141.18" x2="147.48" y1="247.73" y2="247.73"/><linearGradient xlink:href="#linear-gradient-2" id="linear-gradient-17" x1="270.47" x2="276.37" y1="111.67" y2="111.67"/><linearGradient xlink:href="#linear-gradient-2" id="linear-gradient-18" x1="141.67" x2="166.42" y1="232.11" y2="232.11"/><linearGradient xlink:href="#linear-gradient-2" id="linear-gradient-19" x1="173.19" x2="182.18" y1="64.77" y2="64.77"/><linearGradient xlink:href="#linear-gradient-2" id="linear-gradient-20" x1="264.21" x2="270.79" y1="73.95" y2="73.95"/><linearGradient xlink:href="#linear-gradient-2" id="linear-gradient-21" x1="348.41" x2="359.58" y1="149.43" y2="149.43"/><linearGradient xlink:href="#linear-gradient-2" id="linear-gradient-22" x1="153.58" x2="161.95" y1="192.14" y2="192.14"/><linearGradient xlink:href="#linear-gradient-2" id="linear-gradient-23" x1="267.45" x2="287.34" y1="132.66" y2="132.66"/><linearGradient xlink:href="#linear-gradient-2" id="linear-gradient-24" x1="174.52" x2="184.68" y1="285.27" y2="285.27"/><linearGradient xlink:href="#linear-gradient-2" id="linear-gradient-25" x1="156.98" x2="178.99" y1="178.75" y2="178.75"/><linearGradient xlink:href="#linear-gradient-2" id="linear-gradient-26" x1="288.15" x2="293.5" y1="84.6" y2="84.6"/><linearGradient xlink:href="#linear-gradient-2" id="linear-gradient-27" x1="343.73" x2="359.91" y1="179.15" y2="179.15"/><linearGradient xlink:href="#linear-gradient-2" id="linear-gradient-28" x1="335.22" x2="362.01" y1="188.49" y2="188.49"/><linearGradient xlink:href="#linear-gradient-2" id="linear-gradient-29" x1="87.81" x2="109.48" y1="176.84" y2="176.84"/><linearGradient xlink:href="#linear-gradient-2" id="linear-gradient-30" x1="282.47" x2="299.54" y1="216.62" y2="216.62"/><linearGradient xlink:href="#linear-gradient-2" id="linear-gradient-31" x1="282.88" x2="299.11" y1="225.2" y2="225.2"/><linearGradient xlink:href="#linear-gradient-2" id="linear-gradient-32" x1="282.47" x2="299.19" y1="222.8" y2="222.8"/><linearGradient xlink:href="#linear-gradient-2" id="linear-gradient-33" x1="291.72" x2="302.75" y1="253.21" y2="253.21"/><linearGradient xlink:href="#linear-gradient-2" id="linear-gradient-34" x1="195.63" x2="214.29" y1="148.52" y2="148.52"/><linearGradient xlink:href="#linear-gradient-2" id="linear-gradient-35" x1="209.03" x2="226.87" y1="126.83" y2="126.83"/><linearGradient xlink:href="#linear-gradient-2" id="linear-gradient-36" x1="126.47" x2="370.34" y1="206.64" y2="206.64"/><linearGradient xlink:href="#linear-gradient-2" id="linear-gradient-37" x1="331.17" x2="367.78" y1="173.07" y2="173.07"/><linearGradient id="New_Gradient_Swatch_1" x1="45.59" x2="418.95" y1="473.72" y2="473.72" data-name="New Gradient Swatch 1" gradientUnits="userSpaceOnUse"><stop offset="0" stop-color="#a0622c"/><stop offset=".13" stop-color="#a16530"/><stop offset=".27" stop-color="#a76e3c"/><stop offset=".41" stop-color="#b07e51"/><stop offset=".55" stop-color="#be946f"/><stop offset=".7" stop-color="#cfb095"/><stop offset=".84" stop-color="#e3d2c2"/><stop offset=".98" stop-color="#fbf9f7"/><stop offset="1" stop-color="#fff"/></linearGradient><style>.cls-10{fill:#1f1c1a}</style></defs><rect width="464.55" height="564.47" rx="65.51" ry="65.51" style="fill:url(#linear-gradient)"/><path d="M77.14 180.37c-8.39-9.04 3.53-20.16 13.39-16.23.18-6.58 7.51-10.83 13.27-7.38 2.3 1.38 2.38 3.59 2.57 3.73.2.15 4.78-.28 5.01-.37.29-.12.67-2.33 2.17-2.78 1.85-.56 5.39 1.06 7.83-.09l-.78-4.61c.62-1.57 3.54.31 3.19 1.52-.2.69-1.74.38-1.64 2.47.02.44 1.51 2.98 1.67 3.04.27.11 2.78-2.67 5.43-.77 1.2.86 1.36 3.05 1.51 3.15 1.3.85 5.67-.98 4.79 4.69-.14.91-3.39 5.17-4.32 5.42-4.07 1.07-5.86-1.85-9.25-3.15-1.64 6.73-1.22-2.84-1.46-3.19-.18-.27-2.15-.64-2.32-.95-.41-.74.21-2.67-.04-3.36-.13-.35-1.62.24-1.2-2.89-1.18-1.38-4.33-.46-4.92 1.25 1.51.88 4.78 3.6 5.45 5.09 1.09 2.44-1.92 8.48 3.57 8.02 2.2-.19 1.64-2.08 3.15-2.36-1.33 4.73-7.95 3.84-7.91-1.22l-2.64 4.06c3.84.72 9.65 2.69 9.65 7.5 0 5.41-4.33 4.04-6.41 5.28-.93.56-3.93 7.36-7.7 6.72l5.66 17.42c2.56-5.34 5.41-10.55 8.61-15.54 1.76-2.75 8.73-10.79 9.44-12.47.79-1.87.59-5.38 1.23-7.69.96-3.46 7.01-13.91 9.92-15.65 1.17-.69 1.16-.59 2.45-.17-4.78 6-10.43 12.17-10.95 20.28 2.47-2.16 16.37-15.3 18.46-15.26.54.01 1.06.46 1.41.86-3.11 2.9-20.26 15.82-20.63 19.05-.61 5.37 6.67 18.4 10.29 22.55 1.04 1.19 6.3 5.25 6.29 5.67-.05 1.64-8.93 1.67-10.7 2.09-.49.12-.98.27-1.47.36 1.03 1.42-.52.8-1.2-.21l10.54-1.42c-.02-2.3-11.86-1.1-12.73-.76-.78.31-.64 1.52-1.28 1.97l-.4-1.62c-.9-.24-16.94-.3-17.78-.01-.38.13-.74 1.19-.68 1.45.22.91 1.86.77 2.7.84 10.35.86 13.87-2.86 22.86 5.84-1.72-.87-8.21-5.28-8.72-5.28h-16.03l2.03 6.08c-1.01 1.07-2.44-5.73-3.04-6.08l-.6-.4 2.12 7.04 10.45-.14c-.61-1.55-3.15-.43-4.06-.81-.05-.02.42-.73.04-1.02-1.57-1.2-3.12-2.43-4.5-3.84 4.67-.81 6.11 2.52 9.74 4.47l-1.21.8 15.01.41c-.12-.47-.76-.77-1.21-1.21.45.23 2.19.58 2.36.88l-.57 2.31c-7.55-1.51-17.39.84-24.68-.39-3.9-.66-5.37-6.23-7.37.84l.44.83h30.64c-.1.7-.54.58-1.02.66-4.41.71-29.67-.75-30.66.41-.31.37-.49 3.46-1.19 4.2h30.43c.11.6-.15.96-.69 1.17-1.57.6-8.54-.52-10.87.05.23 2.39-1.2-1.53-2.03.83l-17.16-.55c-4.28 17.12-.23 35.85 11.68 48.83 0-.65-1.58-7.65 1.01-4.86 1.04 1.11 1.28 8.15 2.64 9.92-.66 2.24-15.52-3.99-10.75-5.05l5.48 1.82c-12.19-14.3-16.59-33.03-12.18-51.34H95.82l11.33-.42 1.25-5.26-10.95-.41h11.36c-.12-1.01 1.31-4.13 1.24-4.63-.03-.24-1.92-.76-1.24-2.27l1.61 1.62c.45-2.28 2.79-4.62 2.75-7-.02-.99-5.44-17.96-5.96-18.8-2.1-3.41-5.55-3.07-6.85.76l8.03 22.6-.98-.85-13.62.04v5.68h2.84l-1.21-1.21c4.07.27 11.11-2.21 13.39 1.61l-15.77-.66-.06-6.06 14.62-.18c-.79-.5-1.02-3.65-1.22-3.65h-14.2l13.8-.41-5.89-16.23c-5.08.85-10.36.8-11.56-5.27-8.65 6.51-19.31.03-11.36-9.74.56 2-1.04 1.98-1.64 3.83-2.7 8.37 7.87 9.81 12.81 5.11 1.9 4.41 6.52 7.87 11.1 4.61l-1.82-5.81.47-.84c6.9 1.71 9.57 8.79 16.17 1.98.86-.89 1.62-3.28 2.15-3.65.9-.62 2.71.27 4.4-1.17 5.39-4.63-3.2-11.28-8.33-9.75l2.43-4.86c-4.74-.41-4.93-6.24 0-6.9-1.56-.3-3.23-2.26-4.7-2.43-1.22-.15-3.89 1.05-4.22.8-.07-.06-.03-1.25-.46-1.77-5.53-6.63-13.53-2.39-14.54 5.26-7.84-2.48-17.63 2.29-15.75 11.63.26 1.29 1.55 2.57 1.93 3.95Zm47.88-18.66c.69-.73 2.06 3.11 4.07 1.77 1.83-1.22.14-4.49-1.87-4.61-3.05-.17-5.78 5.71-1.79 4.05.13-.13-.58-1.03-.41-1.21m9.24 1.72c-.57-.66-3.11-1.17-3.78-.11-1.19 1.32.47 2.76-.57 4.6-.77 1.35-3.71.51-4.48 2.31 1.9.65 4.11 2.17 6.09.62.95-.75.62-1.67 1.05-2.2.93-1.17 3.93-2.6 1.7-5.21Zm-21.14 1.19c-1.79.62-.91 3.83 1.24 4.31 4.73 1.06 3.04-5.78-1.24-4.31m20.42 21.03c-3.07 1.12-17.82 25.35-16.63 26.37l30.03-1.22c-6.8-6.59-12.6-15.49-13.39-25.15Zm-19.48 26.78c-.19-3.65-1.63-7.03-2.73-10.45-.91-2.81-1.48-6.99-3.75-9.03 2.29 6.42 3.62 13.27 6.49 19.47Z" style="fill:url(#linear-gradient-2)"/><path d="m168.85 311.03.6-3.66c1.1-1.9 2.3 8.26 2.24 8.74-.08.6.22.67-.62.61s-10.62-8.58-6.16-7.65l2.31 1.96c-6.86-17.1-1.48-41.22 8.6-56.12.49-.72 1.47-3.08 2.55-2.71 1.06.36.19.86.05 1.25-1.84 5.05-6.3 10.57-8.36 16.39-4.56 12.9-6.88 28.36-1.21 41.19" style="fill:url(#linear-gradient-3)"/><path d="M282.4 273.36c.37.63 0 2.41.13 2.73s1.37-.12 1.6 1.07c.32 1.63-1.04 6.62-.88 9.35.04.71 1.28.91 1.13 1.61-.05.23-2.02 3.44-2.73 2.63l.4-2.84c-2.34-1.44-7.8 2.4-8.66 2.36-.3-.01-5.26-2.21-5.46-2.44-.12-.14-.96-2.83-1.3-3.37l2.03.19.41-11.77c1.58.73 12.93-.17 13.32.47Zm-8.45 1.16 7.7-.21-12.17-.21c.78 5.49-3.74 13.84 4.06 15.01-.11-3.73-1.81-7.28 0-10.95l-2.22.8-.63-1.02c1.86-4.33 3.75-1.39 7.12-2.2l.4.8c-3.01.81-.02 1.9 1.82.81l-1.16 1.06-.46 8.27c-1.27.16-.64-.21-.72-.89-.1-.86 1.5-10.55-1.77-6.99-.48.53-.99 8.81-1.98 10.31 2.89-1.26 5.15-2.55 8.52-2.02l1.21-9.74c-2.39.21-2.91-.19-4.27-1.2-.16-.12.25-.81.21-.83-1.13-.53-4.79.93-5.68-.81Z" style="fill:url(#linear-gradient-4)"/><path d="m286.47 320.84 1.71 12.34-8.55.99.12 3.97-13.52 1.31-.79-14.19c.22-.27 5.53-.17 6.1-.59.71-.52.02-1.78.64-2.29.79-.65 12.29-1.31 14.29-1.54m-.35.75c-1.74.63-13.36 1.09-13.8 1.63-.09.11.05.88 0 1.21l11.77-1.62-6.49 1.62.81.8-12.19.59.43 12.8 12.4-1.19c.71-2.1-1.68-11.65.05-12.53.99-.51 4.54-.41 5.81-.47l-5.68 1.21v1.62c1.22-.35 5.96-1.22 6.09.4-1.29.65-7.78-.45-5.51 1.95 1.81-.27 4.35-1.48 5.91-.12l-6.08 1.01c.01 2.21 5.09-.93 6.09.6-1.46 1.01-5.48.35-6.09 2.23l8.11-.81-1.62-10.96Z" style="fill:url(#linear-gradient-5)"/><path d="M159.92 220.55c-.78-1.31-8.66-5.95-8.5-6.67.85-3.93 9.44 2.96 11.75 2.21l-.52.73c-1.03-.34-3.93-1.5-3.94.48l24.34 12.8c.09.6-.43.94-.98 1-3.03.33-14.94-8.09-18.48-9.13-5.38-1.59-11.28.3-16.05-.59-.69-.13-.68.2-.6-.81h12.99Z" style="fill:url(#linear-gradient-6)"/><path d="M303.15 209.61c-2.02 4.39-1.63 22.65-3.64 25.34-3.59 4.81-15.94-.43-21.09-.23l4.08-27.53zm-.79.79-19.48-2.44-3.25 25.97 15.62 2.85 1.03-4.06 2.83 1.21z" style="fill:url(#linear-gradient-7)"/><path d="M273.95 61.88v5.68l10.96 1.22-3.24 20.26c.4.61 13.49 2.36 9.98 5.25l-10.01-3.04-2.02 7.95 4.47-30.03c-3.04.95-11.14-3.55-10.63 1.75-2.67 2.61-1.71-2.68-1.96-2.96s-6.69-.61-7.73-1.05l-4.41 28.2 18.23 3.69-19.1-3.08 4.29-28.57c1.05-1.99 6.79.62 8.75-.18 1.01-.76-.66-5.48 2.41-5.1Z" style="fill:url(#linear-gradient-8)"/><path d="m187.92 203.5-3.24 1.42 4.47 5.29-19.31 6.27-8.7-12.77 8.54 12.37 18.25-6.69-4.29-4.7-2.2.84 1.21 1.2-13.8 3.65 2.84-1.61c-5.27 1.71-7-1.95-8.92-6.09l4.65 5.53 19.29-5.93 1.22 1.21Z" style="fill:url(#linear-gradient-9)"/><path d="M308.44 249.36c-1.35 3.04-9.34 8.55-12.34 8.49-2.5-.05-15.4-7.08-14.84-9.1 1.61-1.17 3.74-.41 5.7-.8 1.28-.26 6.64-2.19 7.02-2.17 2.08.15 9.98 6.01 14.46 3.57Zm-1.22.81c-3.96 2.12-11.32-3.45-13.26-3.56-2-.11-7.99 3.74-11.09 2.34-1.65 1.33 11.73 8.12 14.01 8.07 1.8-.04 9.01-5.05 10.34-6.85" style="fill:url(#linear-gradient-10)"/><path d="m328.73 237.59-7.99 10.07-17.98-6.02 9.19-8.01c5.46 2.1 10.81 4.12 16.78 3.96m-1.22.82c-5.58.26-10.39-2.52-15.56-4.02l-7.17 7.26 15.98 5.18z" style="fill:url(#linear-gradient-11)"/><path d="M112.1 155.15c.32.22 1.1 0 1.56.06.62-1.75-1.26-1-1.21-1.42.12-1.06 2.08-.15 1.96.87l-.58.92-3.81.43c1.27-1.16 1.88-1.28 0-2.43l-.2 1.23h-.83c-2.23-3.47-2.04-8.61 3.26-8.17 5.96.49-2.37 6.98-.14 8.5Z" style="fill:url(#linear-gradient-12)"/><path d="m171.69 179.97-.03 6.46c-6.39 1.78-7.09-.63-6.05-6.46h6.09Z" style="fill:url(#linear-gradient-13)"/><path d="M182.53 307.84c3.74-.66 7.77 12.75 1.07 13.25-6.32.48-5.07-12.54-1.07-13.25m1.33 12.12c4.72-1.5 2.23-9.72-1.02-11.76-3.13 2.94-5.36 10.79.61 11.76l-2.02-3.03 2.42-.41c-3.27-1.47-3.5-3.77-1-6.28 4.6 4.99-.97.74-.16 3.39.21.69 2.65 1.1 2.63 2.48-.01 1.1-1.91 2.36-1.46 3.85" style="fill:url(#linear-gradient-14)"/><path d="M176.15 276.55c1.54-.78 8.31-.91 9.8-.6 6.6 1.4 2.19 14.94 3.6 16.42.21.22 1.78-.25 2.22-.41l.21.81c-.63.78-9.6 2.01-11.14 2.06-8.21.27 7.28-2.27 8.3-2.05V279.8l-3.25.4v-3.65z" style="fill:url(#linear-gradient-15)"/><path d="M147.14 235.98c1.58.06-2.75 5.93-3.06 6.67-1.32 3.17-2.07 7.43-1.79 10.84.16 1.9 2.78 4.19.38 6.01-2.63-1.71-.98-3.67-1.03-4.67-.41-7.51-.12-13.2 5.49-18.84Z" style="fill:url(#linear-gradient-16)"/><path d="M276.37 109.39c-.28 4.73-.31 6.82-5.9 4.44l.8-4.92c1.22-1.01 3.72.2 5.11.48Z" style="fill:url(#linear-gradient-17)"/><path d="m165.2 225.01-2.43-2.43c3.15.54 4.14 4.05 3.44 6.69-.8 3.01-2.99.96-3.85 1.84-.37.38 1.04 9.28.2 10.53l-.61-10.55-20.28-.21 23.43-.49.5-4.58-21.51-.81h21.1Z" style="fill:url(#linear-gradient-18)"/><path d="M179.36 69.96c-4.49.24-.54-4.16-.43-5.54.26-3.2-4.41-.99-3.19 1.93-6.2-1.05.29-9.09 4.69-6.1 4.35 2.96-.73 6.38-1.07 9.71m-.78-.37c.04-3.23 4.93-5.35 1.65-8.33-2.86-2.59-7.86 1.5-5.3 4.28-.3-3.9 5.34-5.42 4.87-1.05-.15 1.46-2.82 3.4-1.22 5.11Z" style="fill:url(#linear-gradient-19)"/><path d="M269.62 74.34c.15.44 1.53 1.76 1.08 2.96l-6.49-.41c.27-1.68 3.1-8.89 5.08-5.28.45.82.03 1.83.34 2.72Z" style="fill:url(#linear-gradient-20)"/><path d="M357.82 143.58c2.21 2.18.1 4.55.27 5.76.19 1.36 3.7 3.3-.75 6.28-1.75-.42 1.4-1.79 1.46-3.44.1-2.41-1.52-1.52-1.68-2.05-.28-.91 1.8-3.44.45-5.69s-4.34-.51-4.09 1.85c-.92.73-1.94-3.6-3.61-1.38-1.19 3.37-1.62 8.47 1.8 10.7l1.82-2.41c-3.42 10.74-8.2-10.72-2.23-9.76 2.33 3.77 3.24-3.13 6.57.16Z" style="fill:url(#linear-gradient-21)"/><path d="M157.49 181.99c.73 6.4 1.55 12.81 4.46 18.66-3.29-.92-3.43-11.17-4.11-12.12-.16-.22-3.32-.9-3.59.15l6.07 13.6c-1.51-2.49-6.64-11.41-6.74-13.78s2.59-.85 3.9-.83v-5.68Z" style="fill:url(#linear-gradient-22)"/><path d="m267.45 136.14 15.86 1.83 4.03-11.16-3.51 11.7z" style="fill:url(#linear-gradient-23)"/><path d="m176.15 277.36 1.01 14.61 7.52-.21c-3.43.3-8.99 3.68-10.16-1.21l1.63-.21v-12.99Z" style="fill:url(#linear-gradient-24)"/><path d="M178.99 175.91v4.06c-.93-.31-.04-2.13-.58-2.86-.67-.91-17.97 1.03-20.52.43v4.06c-1.14-.62-1.23-4.32-.14-4.81l21.24-.87Z" style="fill:url(#linear-gradient-25)"/><path d="M288.95 76.9c2.18 4.55 5.53 10.3 4.27 15.41l-5.08-15.2z" style="fill:url(#linear-gradient-26)"/><path d="M343.75 181.99c-.22-1.1 2.06-1.31 2.76-1.5 2.06-.56 10.4-1.27 11.14-1.74.79-.51.64-1.66.71-2.43 1.87-.05.42 2 1.56 3.11l-.54.93c-4.7-2.03-10.83.85-15.62 1.63Z" style="fill:url(#linear-gradient-27)"/><path d="m362.01 185.25-12.35 7.29-14.44-8.11 14.82 7.28z" style="fill:url(#linear-gradient-28)"/><path d="M101.88 169.82c.11-.04.52-2.1 1.63-1.62-3.09 3.11 1.47 3.38 3.38 4.93 3.85 3.12 3.52 9.68-1.75 10.48.11-1.46 1.49-.55 2.53-2.14 2.22-3.39.36-8.15-3.74-8.82 3.94 5.28-6.84 8.86-1.63 11.76l1.22-3.24c.83 3.59-2.24 6.64-3.65 2.03-4.81 4.71-14.29-.67-8.73-6.51.66-.7 6.5-3.82 7.76-4.41 1.02-.48 3.61-.14 3.41-1.04-5-5.13-16.77.39-12.98 7.9-2.62-.96-1.24-5.27-.17-6.86 2.2-3.3 6.41-3.91 10-3.57.83.08 2.61 1.15 2.75 1.1Zm-3.24 10.95-4.02-1.04-.04-4.23c-10.06 4.43 1.06 13.74 5.68 5.47l-1.22-.4c2.74-1.39.63-3.98-1.43-4.65-1.18-.09-1.04 4.86 1.03 4.85" style="fill:url(#linear-gradient-29)"/><path d="M291.8 211.21c1.8 3.47.44 6.11-.8 9.33l8.52.82c.11.08-.22.54-.4.62-.75.32-15.59-1.34-16.24-1.84-2.4-1.87 6.76-.57 7.3.41-.26-3.29-2.73-7.79 1.62-9.33Z" style="fill:url(#linear-gradient-30)"/><path d="M299.11 225.83c-.17.74-.72.77-1.35.78-3.85.06-10.9-1.97-14.87-2.81l16.23 2.03Z" style="fill:url(#linear-gradient-31)"/><path d="M299.11 223.39c.16.15.14 1.1-.56.77l-16.07-2.6c1.94-.84 16.02 1.24 16.63 1.83" style="fill:url(#linear-gradient-32)"/><path d="m296.67 256.25 1.22-1.61c-1.25-.26-2.2 2.12-2.84.41l2.43-1.63-4.05 1.62 2.84-2.43c-9.82 4.24-1.13-2.19 1.87-2.43.73-.06 4.54.92 4.62 1.41l-6.08 4.66Z" style="fill:url(#linear-gradient-33)"/><path d="M214.29 167.79c-9.75-10.37-15.98-24.64-18.66-38.55 4.39 14.09 10.43 26.35 18.66 38.55" style="fill:url(#linear-gradient-34)"/><path d="M210 119.32c3.42 3.06 6.25 7.53 9.88 10.75.38.34 1.17-.04 1.26.04.14.12.05 1.08.44 1.41.33.27 1.16-.28 1.21-.24.26.21 2.06 3.72 4.08 4.05-8.1-2.56-13.37-9.66-17.85-16.44-.05-1.39.76.24.98.44Z" style="fill:url(#linear-gradient-35)"/><path d="M280.04 174.69c-1.33.71-2.67 1.68-4.09 2.3 3.43 10.71 4.26 22.42 1.93 33.48-1.36 6.45-3.29 5.38-4.65 8.33-.77 1.67-.07 5.33-.56 6.74-.25.73-1.43.79-1.8 1.69-.45 1.07.94 8.93.64 10.92-.39 2.68-6.21 10.9-8.52 11.79-2.01.77-2.73-.6-4.45-.19l3.68-23.71c-3.55-1.42-.37-5.98-1.23-8.47-.1-.3-1.92-.85-2.75-2.21-1.42-2.34-1.68-7.5-2.9-10.51-.23-.57.37-1.18-.86-.94 8.36 26.99.51 55.17-.42 82.56-.26 7.52.8 15.45.41 22.73-.46 8.52-3.52 18.33-3.26 26.78.07 2.17 2.29 6.06 2.05 6.3-.68.69-2.66-1.33-1.22 3.25l-2.23-2.84-.2 2.43-2.03-2.02c.81 1.97-.68 6.13-.03 7.86.16.41 2.16.59 2.75 1.19.86.87.95 3.42 1.81 4.88 4.19 7.16 16.75 8.7 17.37 17.53.21 2.99.15 5.58-2.66 7.06-.59.31-6.6 1.95-7.2 1.99-.55.04-1.23-.98-1.68-1-.27-.01-.84.78-1.59.68-3.73-.52-10.87-3.79-13.86-6.06-1.11-.84-.35-2.28-2-2.07-.2.03-.03 1.33-3.07.22-4.47-1.63-4.29-3.82-3.98-8.07.6-8.15 4.64-16.89 2-25.24l-1.65-.18v2.84l-1.02-2.03-1.42 2.03c1.21-1.72.26-4.95-1.62-4.06.55-2.13 2.75-2.63 2.86-5.03.28-6.27-4.65-18.08-5.28-25.61-.77-9.19.77-18.72.41-28-.61-15.76-4.12-32.15-4.28-48.08-.21 16.25-4.11 32.32-4.1 48.56 0 8.34 2.11 17.18 1.88 25.11-.16 5.65-2.15 11.86-2.8 17.48-.22 1.9-1.13 10.03-.88 11.3.36 1.85 2.2 2.62 2.86 4.26-2.6-.88-1.15.39-2.01 1.06-.39.3-1.13-.38-1.23-.25-.47.58 1.88 3.14.6 4.05l-1.82-2.84c-.55.32-1.21 9.75-.84 10.7.19.5 1.29.11 1.6.91.41 1.05-.15 3.8.06 5.22.53 3.48 3.31 13.03-.04 15.4-2.42 1.71-4.67.66-5.53.9-.42.12-5.61 4.47-7.06 5.17-2.3 1.12-10.45 2.89-12.62 2.59-2.66-.37-8.24-2.09-8.82-5.01-2.44-12.37 12.44-13 17.51-21.4.9-1.49.91-3.54 1.75-4.74.73-1.05 2-.75 2.26-1.82.12-.49-.2-7.23-.44-7.52-.15-.18-1.29.57-1.78.37-.51-.21-.48-1.03-.95-1.19-2.31-.78-1.66 1.72-3.35 2.44.04-1.13 1.2-2.7.83-3.85-.2-.61-1.21.38-1.24-.82-.02-.98 1.52-2.02 1.63-3.64.4-5.73-3.37-17.07-4.05-23.56-.82-7.78-.19-15.72-.84-23.52-1.64-19.95-4.95-39.78-4.87-59.86-15.83 13.69-28.91 32.34-37.8 51.26-10.67 22.7-14.24 46.05 4.74 65.6l-1.01-6.89c1.67-1.98 3.85 9.81 5.09 10.55-.41 1.24-4.22-.35-5.4-.71-5.7-1.71-12.71-6.34-1.32-3.15-21.54-24.05-12.43-50.96 1.07-76.04 2.65-4.93 6.91-9.79 7.86-15.07.77-.21.09 1.66.8 1.21s7.91-11.06 9.54-12.98c5.13-6.03 10.88-11.61 16.63-17.05.54-11.99 3.21-23.74 6.3-35.29-4.35 1.14-6.84-3.74-8.68-6.95-2.93-5.13-5-10.51-3.51-16.57-4.35-.25-14.99-7.45-18.15-7.66-2.73-.18-5.9 4.89-9.03 3.16l6.48-4.66c-1.42-.37-8.21-5.4-8.72-5.39-.4.01-4.96 4.13-5.73 4.75-3.86-.98 4.12-5.07 3.91-5.84-21.47-14.19-30.92-38.46-22.9-63.49.85-2.66 6.1-11.97 6.21-12.9s-1.14-2.52-.75-2.95c.11-.12 2.36-.13 3.22-.65 1.17-.71 6.52-7.66 8.77-9.49 2.9-2.35 6.37-4.5 9.92-5.7l-6.62-.06c-.75-.15-.89-1.55-.67-1.95.32-.59 11.72-.3 13.38-.41-.73 1.32-5.56 9.66-6.07 9.95-.34.19-.64.26-1.02.19-1.88-.58 2.03-5.56 2.63-6.48-6.76 2.17-12.23 7.36-16.63 12.78 2.26-.27 5.74-.36 4.64-3.04 1.95-2.43 3.28.7 4.5.82 1.52.15 5.27-2.28 7.3-1.67l1.81 4.09-1.65-3.62c-2.77.66-18.32 3.98-18.83 6-.18.7.43 2.04.19 2.9l-1.22-1.21v1.62l-1.21-.8 1.22 5.68-.41-3.24 5.68-1.22-4.87 1.62c.81 5.52 3.14 1.68 4.53 1.3.68-.18 2.56.42 4.16-.44.43-.23.16-1.2.24-1.27.22-.17.65.78 1.24.64 2.22-.55 4.76-1.06 3.63-3.47 1.21 2.12 4.42 1.06 3.24-1.22 1.78.81 4.38 1.79 5.27-.81l2.84 8.92-2.21-4.36-3.03 1.16c-.21 3.62 2.07.56 4.03 1.98-2.08.75-6.16.66-7.31 2.84-1.56-.7-.7-1.86-1.22-3.24-1.66 1.36-5.52.7-4.04 3.25l3.64-.81-3.65 1.62c1.94.73.41 2.37.81 2.83.19.22 5.16-1.27 4.87-2.43l2.42.8-17.85 5.69-4.06-13.19c-15.4 25.31-7.17 57.07 17.85 72.29 2.7-1.8 19.37-11.31 21.33-9.2l.18 1.23-19.48 8.94c-.18.47 8.02 5.38 8.52 5.45 1.25.18 17.8-9.64 21.11-9.72.76-.62.33-1.01.02-1.65-1.21-2.5-12.37-10.14-15.25-12.75-10.79-9.79-26.31-27.36-14.56-42.18 2.55-3.22 26.56-18.94 29.98-19.13 1.93-.11 3.93.89 5.19.75 1.87-.22 5.06-3.81 7.82-3.12l-.23-6.94c-1.87.54.09 5.02 0 6.49-2.44-1.68-1.78-5.58-1.35-8.06 1.24-7.26 7.82-16.04 13.12-20.96 15.42-14.3 23.22-13.8 35.06 3.91 4.54 6.79 9.18 19.55 7.92 27.71-.34 2.19-2.26 3.94-2.3 5.6-.08 3.38 5.7 7.56 6.03 13.1.01.2-.32 4-1.25 3.86.78-5.63-2.73-8.9-5.68-12.98.16 6.74 8.49 9.46 3.25 17.04l2.83-3.65c-.72 5.54-8.13 5.96.4 10.75-.73 1.63-3.66-.57-4.05-.2 1.77 3.91-2.1 4.84-3.65 7.29 8.6 2.98 12.14 11.16 15.02 19.08l4.84-26.21 19.65 2.7c.24-.17.66-1.33.66-1.45v-7.71c1.88-1.79 1.21.97 2.02 1.82l2.25-7.3c7.73 3.31 14.69 9.87 18.08 17.61l-1.65 1.06c-2.76-7.52-9.37-12.75-16.04-16.63l-1.41 7.29c6.86-7.75-1.04 6.05-2.3 6.45l-20.44-2.6-5.16 25.91c.59 1.51.31 3.11 2.32 3.12.14.83-1.1.08-1.21.59-.22 1.08 2.81 8.39 2.43 10.36 15.68-5.86 30.33-14.09 44.56-22.8l-1.9-9.14 1.74-1.32 2.46 8.5c17.21-12.87 33.56-38.99 18.96-59.54-8.41-11.83-27.57-17.04-41.48-16.55l-.4.61c1.08-.56 6.19 3.6 3.45 3.66-.53.01-8.28-3.98-9.52-4.31-.17-1.13 8.25-5.47 8.92-5.23 2.89 1.05-3.25 2.66-3.25 3.85 17.46-1.81 40.4 5.99 47.42 23.39 7.54 18.71-3.5 38.02-16.78 50.85-1.48 1.42-7.01 4.89-7.66 6.1-.24.45-.52 8.3-.86 10.16-2.12 11.64-8.81 21.81-17.26 29.81l18.88 11.88c.96-1.48 10.01-7.88 10.28-8.49.53-1.22-3.39-5.69-.55-8.45 3.41-3.32 8.19-.69 11.57.41-3.11-1.05-11.9-2.82-11.74 2.58s5.77 9.66 8.98 4.2c4.77-8.11-9.65-6.85-6.98-3.13 3.17-3.87 9.13-1.45 5.68 3.25 2.44-7.07-7.52-5.18-4.67.81-2.5-2.93-2.98-7.78 2.02-7.92 6.69-.19 7.19 5.68 2.64 9.34 4.09.2 5.06-5.95 4.06-9.13 1.96.64 3.1.59 4.87 1.21h-4.06c.4 4.43-.09 8.72-5.48 8.96-1.69.08-5.98-1.57-6.3-1.5-.7.15-8.8 7.19-8.92 7.77l13.16 2.65 3.47 2.01c-1.38.29-7.79-.85-4.87 3.05 1.55 2.07 18.44 7.82 21.38 10.67l15.55-8.85-15.55 9.67c-2.57-.3-21.76-12.24-22.6-11.29-.41.47.18 1.52.65 1.99.94.93 20.59 10.95 21.8 10.9 2.18-1.7 18.76-9.93 19.33-10.88.27-.46-.08-1.31-.6-1.61l-2.22.81 2.42-1.84.02-.8c-2.85-1-3.12-2.32-6.09-.61.65-1.32 2.67-1.44 3.65-2.02.02.19-.54.62-.41.8s3.95 1.45 4.06 1.64c.22.38-1.55 1.86.22 3.24l-20.34 12.16c-1.28.06-20.98-9.7-22.29-10.94-2.15-2.06.08-3.26.2-5.68l-6.89-.41c21.4 21.06 18.79 48.56 5.3 73.2 3.3 2.82 14.8 5.03 6.06 9.58h2.22l.21.8-18.26 6.9c3.45-.2 7.87-1.82 11.34-3.06 1.96-.7 5.72-1.66 6.52-3.42l.42 2.97c-3.8.88-12.35 6.48-15.52 6.9-2.04.27-3.54-1.91-5.19-1.16-1.32.6-6.11 8.63-8.92 9.16 10.47 15.6 13 39.79-6.5 49.5l5.81.07.49 1.57c-1.65.16-12.14 2.25-11.83-.04.08-.59 6.39-8.34 7.34-9.31 2.14 1.06-2.08 5.02-1.82 5.27 17.03-9.04 14.76-31.59 5.08-45.36l-14 8.44c-.09 1.1 13.32-1.67 8.54 1.85-.61.45-13.27.49-15.04.58-.91-.84 7.78-9.92 8.34-11.76 3.52-.71-2.55 7.25-3.47 7.91-.04 1.15 14.21-7.76 14.58-9.34-5.42-6.64-12.11-12.62-19.49-17.01-5.4-3.21-11.43-5.68-17.27-7.91-.21-.08-4.82.25-3.39-1.65.37-.49 6.9 1.4 7.82 1.71 12.57 4.21 25.62 12.88 33.22 23.79 1.43.67 7.94-7.38 8.88-9.06-8.24-2.91-6.47-6.21-6.09-13.59.63-.7 16.01-3.28 18.05-5.29 1.88-1.86 8.54-20.59 9.27-24.01 6.59-30.89-13.5-50.43-38.95-63.15-3.67 2.15-6.9 4.97-10.56 7.14-1.43.85-3.27 1.21-4.18 1.7.32-.69-.97-1.32-.81-1.62.37-.7 12.32-6.09 13.39-8.52l-22.31-8.93 4.89 19.05c2.08.05 2.88-1.3 4.85.02Zm-62.9-137.97c-.08.82-5.07 8.41-4.46 8.92 4.87.39 3.09-5.66 6.29-8.11l-2.24 7.3 3.63-.44.63-4.43c.15 3.75-1.74 4.68 3.04 4.88l1.63-9.33-1.22 9.33 4.17.43c.28-.09.7-.89.7-1.03v-9.13l.6 10.15 5.26 1.65 1.03-.84c-1.07 1.13.8 1.94 1.22 1.62.5-.38-.01-3.56.81-4.06-.91 2.49.97 3.26 1.24 3.89.08.18-.56 1-.42 1.39.05.13 2.49.83 2.62.81 2.57-.36-4.06-15.24-6.81-17.12-6.76-4.62-13.01-1.1-17.73 4.14.03-.32.13-.85-.2-.81-3.41 3.12-6.45 6.65-8.32 10.95 4.35.05 3.85-3.71 5.61-6.76 1.01-1.74 1.75-2.1 2.91-3.38Zm30.03 16.23c-1.39-6.31-3.52-11.87-8.52-16.23.62 2.42 2.33 4.46 3.13 6.81 1.5 4.42-.34 7.45 5.39 9.42m-.41 10.76c.3-2.3-.22-5.14 0-7.51.66 1.85.95 4.32.8 6.28-.33 4.15-3.69 5.92.62 8.73 4.07-8.38 3.81-14.07-4.39-19.14-8.8-5.45-20.22-7.82-30.39-5.49-10.88 2.49-12.24 6.93-10.87 17.74 5.03-3.03 1.47-9.87 4.06-14.61l-.62 11.36c4.97-2.88 3.03-7.37 4.68-12.17l-.21 8.91c2.55-1.96 6.42-2.21 9.55-1.79l1.21-8.34-.24 8.54 8.36 2.24 1.2-10.37.08 10.88c3.48.52 5.22 2.98 8.16 4.64.62.35 1.59-.27 1.91-.1.41.22-.43 1.9.6 1.62 2.44-3.22.87-7.37 1.83-10.95 1.47 3.86-.99 8.22.41 11.36l-1.21.2 2.82 2.64c.23-.09 1.55-4.06 1.63-4.67Zm-46.66 3.44c3.36-.77 1.12-5.93 1.27-8.27.16-2.56.84-5.11 1.57-7.55-4.3 4.05-4.46 10.48-2.83 15.82Zm19.88-10.13c-10.05-1.47-15.26 6.9-20.61 13.58l4.38 6.11c4.98-.25 5.85-6.89 9.36-9.32 2.66-1.84 5.96-1.39 8.49-3.28l-8.75 1.41-.58-.79 13.39-3.46-.83-.85-13.77 2.27c4.26-2.59 9.42-2.58 14.2-3.25-4.77-2.31-11.07.35-15.83 2.03zm31.63 17.03c1.58-4.84 1.92-10.96-.79-15.41.79 4.35.54 9.52-1.96 13.25.43 1.69 1.17 2.03 2.75 2.16m-44.21 4.88c1.68 16.52 19.83 30.38 30.39 11.1.87-1.59 6.04-12.58 1.48-11.51-1.51 1.12 1.79 1.82 1.26 3.25l-1.46 1.45-1.43-.24c-1.35-1.39.26-3.36.11-4.21-.04-.21-2.08-2.57-2.51-3.55-2.81-6.48 3.31-15.18-8.16-16.2-1.26.06-.25 1.9-.81 2.86-.5.86-2.57.57-3.04 1.42l.81.61c-2.42 2.49-9.8 2.91-11.59 5.65-1.29 1.98.36 1.74.57 3.17.32 2.16-3.49 5.7-5.62 6.2m-6.49-3.25c-1.11-1.26.68-3.38-3.25-1.63l1.62-1.42-.63-1.01-6.97 3.43.68 1.67c2.51-.53.4.21.42 1.19.08 3.52 6.58-2.35 8.13-2.23l-6.49 4.46c1.86-.54 2.56-.02 1.82 1.62l5.89-3.24-4.06 2.84c1.27 2.77 6.11.45 5.67-2.61-.29-2.01-2.27-2.44-2.83-3.08Zm-9.33 4.46c-1.46-1.46 2.13-11.35-9.31-6.26-3.04 1.35-22.8 14.64-24.79 17.01-16.17 19.24 15.35 42.19 28.21 52.96 2.2.46.34-19.56-1.01-21.71l.8-.19 2.84 15.43-.81 1.21h1.22c-1.15 1.27-1.07 4 0 5.27-2.46-.19-.31.65-.42 1.21 0 .04-.75-.1-.81.28-1.93 13.62-6.36 29.25 2.1 40.85 2.52 3.45 5.72 6.47 7.23.69-.41-.39-3.07 1.28-2.84-.81l9.33-4.27-7.3-1.22c4.88-4.51 11.8.89 17.44.82-1.55-.86-1.54-2.71.17-1.85.91.46.14 2.37.24 2.45.79.69 9 1.02 10.75 1.63 4.39-1.05 9.25-1.25 13.52-2.73 2.78-.96 7.05-4.02 9.39-4.37.64-.1 2.59.42 1.25 1.23-2.09-.24-4.14 1.03-5.67 2.42l4.45 1.82h-7.71c5.71 2 13.51 9.49 16.62-.25.84-2.64.02-4.48-.29-6.44-.19-1.24-2.09-8.1-1.72-8.31.09-.05 1.95-.06 2.03 0-1.8 2.81 1.55 7.05 1.94 10.06.26 1.99-.68 5.7-1.76 7.37-1.77 2.74-4.36 1.95-4.23 5.46.15 4 4.48 19.44 5.94 23.7 1.6 4.67 4.56 2.22 7.67 2.14.18 0 .14.67.37.67 3.64.08 1.47-.45 1.83-.71.78-.58.84.92 1.8 1.26 6.28 2.27 6.97-6.36 7.48-10.45 2.94-23.74-9.24-48.94-13.25-72.26l-1.11-.53c-.99 2.51-6.07 7.1-6.59 9.24-.88 3.64-.17 10.94-.84 15.36-.61 4.05-1.81 9.22-3.72 12.74 3.21-12.11 3.14-24.08 2.84-36.52 2.25.45.34 6.26 1.82 6.48l6.68-9.14c-2.85-11.36-10.24-17.51-20.55-22.02-7.9 7.5-19.74 9.43-28.83 2.87-1.95-1.41-5.22-6.14-6.08-6.54-.7-.33-1.27.75-2.33-.44-1.08 1.05-1.09 1.19-1.04-.42l-19.29-4.09-8.1 9.77 6.7-9.73-16.23 6.08c5.91-4.49 13.94-4.26 19.07-10.15.34-1.49-9.32-.19-10.14-2.02 3.93-.33 8.48 1.03 12.35.37 3.64-.62 8.44-6.05 7.93-9.88-.35-2.65-1.92-1.73-2.01-1.86-.15-.22.48-.95.32-1.15-.79-1.04-2.96-1.23-2.36-2.9-.18-.18-1.09.53-1.21.4Zm51.78 1.47c1.54-1.4 3.66-5.9.76-6.76l-2.54 3.45.3 4.27c.07.08 1.26-.77 1.47-.96Zm7.86 14.76c1.39-5.16-4.24-6.33-5.47-10.54-2.67 3.13 1.01 3.82 2.63 5.89 1.17 1.49 1.78 3.14 2.85 4.66Zm-47.47-8.93c-.06 0 .24-1.03-.4-.81-.32.11-4.22 4.74-4.4 5.14-3.38 7.24 2.25 6.84 6 9.28 1.48.96 1.91 2.75 3.26 3.43-.43-5.97-5.54-3.59-5.99-8.82-.37-4.34 1.42-5.56 2.54-9.03-.32.23-.6.81-1.01.81m48.69 19.48c.39-2.45-2.27-3.36-2.74-5.57-.52-2.43.3-4.54-.83-7.29-.35-.86-4.26-5.32-4.94-5.39-.06 0-.84.94-.82 1.01.6 2.01 8.1 6.21 4.87 11.16l.8-.81c-.65 3.26 1.79 4.75 3.65 6.9Zm-8.52-4.87c3.93-4.03.38-9.1-4.06-10.55l2.03 10.14c1.78-1.21 1.39-3.52 1.41-5.27 1.33 1.68 1.03 3.78.62 5.68m-48.57-2.56c-1.23-1.18-1.54-3.31-2.36-4.73-2.42 1.88-6.47 1.57-7.11 5.27l11.9 2.88 1.08-2.47c-.89.74-2.82-.27-3.52-.94Zm21.38-1.09-.73 7.45c5.38 5.25 13.5 6.42 19.38 1.28-2.47-2.92-2.63-6.3-2.43-9.95-5.08 4.55-10.46 4.72-16.22 1.22m2.03 15.82 1.62-4.23c-3.95-1.22-7.42-8.78-9.96-1.85l.83.8 3.04-2.83-2.21 3.66 6.67 4.45Zm15.43-4.46c4.06 5.49 5.26 2.65 1.37-1.59l-4.21 2.2c2.27 5.48 6.08 5.64 2.84-.61m-6.1 1.63-7.3-1.22c-.21 3.12-3.73 4.26.8 5.28l1.22-4.06c-.07 2.66-2.33 4.63 1.63 4.46l.81-4.06-.21 4.07h3.46zm4.46 3.63-1.61-4.27-2.41.26c.37 3.52-.76 5.58 4.02 4.01m80.76 10.57c-13.87 8.87-28.6 16.27-43.84 22.51-.59.66.16 4.49.64 5.06 1.29 1.53 21.38 7.52 24.54 9.96 11.01-9.54 17.5-22.97 18.66-37.54Zm-127.42 23.94-18.26 8.92 16.23 6.91 2.03-15.82Zm145.28 30.03-12.58-2.03.18 1.64c.67.86 10.34 1.47 11.8 1.2.68-.13.68.21.6-.81m-61.28 45.04v-6.29c0-.25-.84-.78-1.21-.61-.28.36.47 6.02-1.22 6.08.32-1.83 1.23-6.45-1.22-6.09-.32.44.33 6.79-1.62 6.9l1.22-7.3-3.66.23v3.41l2.04-3.24-1.22 7.3 7.89.75 1.45-7.65h-1.62l-.81 6.49Zm-8.52 5.89c-.49 3.48.36 7.97 0 11.57 4.2 1.4 1.18-7.35 4.86-8.93.76.57.27 7.35-.11 8.61-.52 1.76-4.69 6.45-4.75 7.02-.07.64-.07.68.6.6 8.1-6.4 10.23-12.24 7.95-22.54l-6.65-.52c-.75.28-1.8 3.46-1.9 4.2Zm62.49 23.74-16.63 4.86 10.53 6.49zm10.96 5.67-8.94-4.68-2.42 4.28 4.05-.82-4.87 2.44 7.1-2.83c-1.21 3.74-8.32 2.21-9.54 6.89l14.61-5.28Zm-94.58 82.82c-.17-.01-2.84.69-3.15 1.05-.18.49-.25 9.9-.08 10.39.32.94 3.93 1.67 4.48 2.73l-5.27-2.02-.81 8.51c2.78-.37 16.52 8.05 17.41 7.7.15-.06 1.69-2.38 1.49-2.83-3.18-1.79-13.78-10.6-12.73-14.31.79-2.78 4.99-2.51 5.19-2.73.26-.29.12-6.58 0-7.7-1.29.78-3.92.45-5.7.25-.82-.09-.75-1.03-.81-1.03Zm-25.54.38c-2.37 1.04-5.53-.9-7.51 1.62l-.4-1.21c-2.49-.17-2.16 6.63-1.65 7.33.59.81 7.34.85 5.51 5.65 6.59.4 2.3-9.23 4.05-13.39m-8.26 15.57c.33.15.5 1.61 1.14.64 6.69-6.83-5.4-11.16-6.27-2.42 2-.01 3.44.99 5.13 1.78m44.38-1.78c.23-8.74-13.24-4.77-6.08 2.03zm-34.54 6.85-.56-8.87c-1.26 2.97-5.09 1.79-5.82 2.07-.21.08-1.93 3.18-2.51 3.8-2.88 3.1-5.89 5.82-9.73 7.72l2.23 3.03zm20.34 1.26c9.91 3.52 13.42 9.55 24.94 8.52.99-.09 6.02-1.02 6.29-1.85 1.06-3.28-8.32.3-9.74.46-9.12 1.03-13.31-6.15-21.49-7.13m31.64 7.31c-12.92 7.27-22.07-2.99-33.48-7.3-2.51 6.37 1.74 5.4 5.5 7.48 7.76 4.29 13.09 8.95 22.88 7.1 5.1-.96 6.43-1.51 5.09-7.28Zm-53.56-6.89c-9.49 2.77-12.01 7.99-22.82 6.39-2.64-.39-7.41-3.58-7.24.26 11.9 5.91 20.06-1.64 30.06-6.64Zm2.43.4c-11.86 3.71-19.62 14.34-33.27 6.9-1.01 6 .95 6.43 6.35 7.24 9.5 1.43 13.19-2.37 20.68-6.38 4.41-2.36 7.3-.28 6.24-7.76m48.7 2.85c-4.1-3.67-10.05-2.4-11.76 2.83 3.38-.67 7.97-.78 11.18-2.01.5-.19.74.25.58-.82m-67.36 2.83c-1.14-5.07-8.6-6.6-11.76-2.23zm68.17 8.12c-5.07.97-10.34 1.34-15.42 0 1.68 3.03 2.13 1.08 3.42 1.19.17.01.26 1.23 2.03 1.24.56 0 1.09-.83 1.59-.77.44.05.92 1.1 1.33 1.15.71.09 1.02-.98 1.61-1.09 1.24-.24 4.5-.08 5.43-1.72Z" style="fill:url(#linear-gradient-36)"/><path d="M366.47 179.97c-.01-.1.49-.59.36-.96-.32-.88-14.81-6.58-16.59-8.37l1.21 4.86-16.45 6.1 13.81 7.69 13.19-6.88-13.57 7.7c-2.12-.16-12.44-7.97-14.44-8.32-.88-.16-1.79 1.6-2.84 1.42l2.43-2.43c5.55-1.16 11.34-4.64 17.04-5.69-1.07-5.36-4.97-10.71-3.66-16.23l-2.23 2.84-1.82-1.22 4.67-4.46c.44 4.28-1.09 10.18 2.46 13.77 2.54 2.58 15.83 6.59 17.22 8.34 1.22 1.54-.08 1.39-.81 1.83Z" style="fill:url(#linear-gradient-37)"/><path d="M75.76 475.84c.42-.17 1.97-.7 4.07-1.3 2.15-5.37 4.6-10.9 6.6-15.15-1.8.53-3.17 1.03-3.82 1.47-.87.6-.8-1.4-.12-1.6 1.45-.4 3-.85 4.62-1.3 2.02-4.3 3.57-7.3 3.45-7.72-.17-.72 3.55.83 2.85 1.25-.25.15-.5.25-.65.45-.82 1.1-1.97 3-3.27 5.4 5.17-1.35 11.15-2.57 17.92-2.9 2.57-.12 2.37.35 2.45 1.17.07.82-.3 1.37-.73 1.37-.77 0-.62-.75-1-.97-1.38-.77-12.2.92-19.4 2.75-2.27 4.3-4.87 9.85-7.1 15.27 4.22-1.17 9.75-2.42 13.32-2.35.75.03.8 2.58.15 2.45s-1.72-.53-2.92-.73c-3.12-.52-7.5.65-11.12 2.05-2.47 6.17-4.35 12.02-4.52 15.45-.05.83.45 1.47.45 1.85 0 .85-2.17-.12-2.17-.95 0-3.25 1.9-9.2 4.35-15.57-1.32.6-2.45 1.17-3.27 1.65-.62.35-.45-1.92-.12-2.05Z" class="cls-10"/><path d="M97.13 482.69c0-2.12 1.7-6.2 2.62-9.25-2.57 2.37-6.5 8.17-8.2 8.17-.5 0-1.35-.77-1.35-1.65 0-1.72 2.62-8.17 4.95-8.17 1.72 0 3.05 1.57 2.85 1.87-.3.42-.87-.57-1.42-.57-1.38 0-4.97 4.47-4.97 7.17 0 .28.2.3.27.3 1.17 0 6-6.05 6.85-7.12s1.2-1.47 1.55-1.47 1.1.45 1.1 1.12c0 .9-2.82 8.62-2.82 10.57 0 .45.35.52.48.52 1.72 0 8.67-8.7 9.97-9.92.35-.33.5.17.32.38-.1.12-2.97 3.55-5.55 6.47-1.8 2.02-3.42 3.85-4.32 3.85-1.3 0-2.32-1.35-2.32-2.27Z" class="cls-10"/><path d="M104.61 485.44c0-2.45 3-10.17 4.45-13.82.05-.12.05-.23 0-.35l-.02-.05a.45.45 0 0 1-.02-.38c.3-.72 1.22-2.57 1.52-2.67.33-.1 1.52.52 1.27 1.1-1.17 2.6-6.72 17.22-5.72 17.27s8.97-16.87 11.27-16.87c1.23 0 1.38 1.05 1.38 1.72 0 1.72-2.57 9.3-2.12 9.3 1.25 0 5.1-7.82 6.67-7.82s1.77 1.1 1.77 1.7c0 2.32-1.72 7.07-.82 7.07s4.2-3.22 7.52-7.4c.25-.33.62.1.38.35s-5.85 7.75-7.8 7.75c-.6 0-2.02-.77-2.02-1.9 0-2.8 1.75-6.9 1.12-6.9s-5.8 8.82-6.85 8.82c-.67 0-1.75-.8-1.75-2.35 0-2.55 3.02-9.3 2.3-9.27-1.25.03-10.12 17.07-10.6 17.07s-1.92-.27-1.92-2.37Z" class="cls-10"/><path d="M129.46 481.94c0-2.38 1.32-6.67 1.85-7.7.07-.15.07-.27.05-.4-.02-.15-.17-.2-.08-.4.55-1.1.7-1.38.88-1.42.1-.02.25-.02.4.05.72.28 1.67 1.28 1.5 1.58-1.8 2.82-4.35 8.77-3.4 9.22 1.35.62 7.4-5.8 10.12-9.42.6-.8.75.05.47.35s-7.37 9.6-10.37 9.6c-.72 0-1.42-.3-1.42-1.45Zm4.35-13.67c.1-.35.6-2.47.75-3.02s1.8.5 1.57 1.03c-.23.52-1.25 2.05-1.45 2.47-.2.4-.97-.12-.88-.47Z" class="cls-10"/><path d="M136.53 491.59c0-7.3 10.75-41.12 12.77-41.12.65 0 2.3.83 2 1.3-.25.4-.72-.12-1.3.23-2.62 1.6-11.65 31.24-11.65 39.12 0 .88.05 1.82.6 1.82 1.72 0 9-13.6 12.12-19.82.05-.1.7.08.52.4-3.92 7.27-10.17 20.14-12.32 20.14-1.32 0-2.75-.7-2.75-2.07Z" class="cls-10"/><path d="M148.53 481.94c0-2.38 1.32-6.67 1.85-7.7.07-.15.07-.27.05-.4-.02-.15-.17-.2-.08-.4.55-1.1.7-1.38.88-1.42.1-.02.25-.02.4.05.72.28 1.67 1.28 1.5 1.58-1.8 2.82-4.35 8.77-3.4 9.22 1.35.62 7.4-5.8 10.12-9.42.6-.8.75.05.47.35s-7.37 9.6-10.37 9.6c-.72 0-1.42-.3-1.42-1.45Zm4.35-13.67c.1-.35.6-2.47.75-3.02s1.8.5 1.57 1.03c-.23.52-1.25 2.05-1.45 2.47-.2.4-.97-.12-.88-.47Z" class="cls-10"/><path d="M157.56 480.09c0-3.72 3.3-8.6 6.02-8.6 1.2 0 1.85.6 1.85 1.5 0 1.17-1.35 2.95-2.72 2.95-.82 0-1.22-.5-1.62-1-1.15 1.7-2.07 4-2.07 6.17 0 1.15.52 1.9 1.57 1.9 2.72-.05 9.95-8.22 10.57-8.97.42-.52.77.28.35.7-1.5 1.57-8.1 8.82-10.65 8.82-1.9 0-3.3-1.15-3.3-3.47m3.7-5.42c.25.35.65.55.95.55.65 0 2.42-1.22 2.42-2.67 0-.17-.07-.33-.3-.33-.85 0-2.02.97-3.07 2.45" class="cls-10"/><path d="M162.81 491.51c0-2.17 4.32-6.17 9.1-9.67-.25-.05-.52-.12-.8-.2-1.27-.4-3-1.5-3-2.87 0-2.58 2.77-4.87 4.1-5.9.32-.22.45-.4.47-.65.03-.2.2-.38.58-.55 1.12-.5 2.47-1.2 3.05-1.2.68 0 1.17 1.2.55 1.42-2.32.83-7.75 5.12-7.75 7.25 0 .88 1.65 1.08 3.05 1.5.35.1.67.22.98.35 3.72-2.62 7.52-4.82 9.67-5.55.18-.05.4.42.25.47-2.1.7-5.65 2.85-9.15 5.4 1.38.72 1.8 1.6 1.8 2.9 0 3.15-7.1 9.6-10.57 9.6-1.72 0-2.32-1.35-2.32-2.3Zm1.92 1.48c3.87-.45 9.75-7.42 9.75-10.05 0-.53-.65-.7-1.57-.88-4.82 3.67-9.3 7.95-9.3 10.02 0 .47.35 1 1.12.9ZM189.76 483.49c.12-1.9 1.35-5.87 2.77-9.55.05-.12.05-.22 0-.35l-.02-.05a.5.5 0 0 1-.03-.38c.33-.7 1.02-2.05 1.32-2.15.33-.1 1.32.48 1.27 1.1s-2.7 5.5-3.5 10.15c-.23 1.25 6.3-10.62 10.07-10.62.67 0 1.17.5 1.17 1.55 0 1.75-2.92 8.85-2.2 9.25 1.15.65 8.4-7.8 8.87-8.3.48-.5.72-.05.45.32s-6.87 8.8-9.1 8.8c-1.2 0-1.77-1.05-1.77-1.5 0-3.37 2.97-9.02 2.37-9.47-1.2-.9-6.25 5.47-10.32 12.35-.25.2-1.42-.2-1.37-1.15Z" class="cls-10"/><path d="M213.66 482.69c0-2.12 1.7-6.2 2.62-9.25-2.57 2.37-6.5 8.17-8.2 8.17-.5 0-1.35-.77-1.35-1.65 0-1.72 2.62-8.17 4.95-8.17 1.72 0 3.05 1.57 2.85 1.87-.3.42-.87-.57-1.42-.57-1.38 0-4.97 4.47-4.97 7.17 0 .28.2.3.27.3 1.17 0 6-6.05 6.85-7.12s1.2-1.47 1.55-1.47 1.1.45 1.1 1.12c0 .9-2.82 8.62-2.82 10.57 0 .45.35.52.48.52 1.72 0 8.67-8.7 9.97-9.92.35-.33.5.17.32.38-.1.12-2.97 3.55-5.55 6.47-1.8 2.02-3.42 3.85-4.32 3.85-1.3 0-2.32-1.35-2.32-2.27Z" class="cls-10"/><path d="M222.31 483.11c0-2.75 2.67-9.8 2.67-9.95s.07-.4-.08-1.02 2.17.23 2.17 1.55-3.42 6.62-3.42 10.35c0 1 .25 1.4.82 1.35 2.1-.22 5.6-5.72 8-9.97-.2-.5-.32-.97-.32-1.38 0-.88.35-1.7.9-1.7s1.4.35 1.4.97c0 .22-.4 1-1.02 2.12.27.95.8 1.8 1.87 1.8 2.12 0 4.1-2.52 4.35-2.82s1.5 0 .95.58-3.32 3.1-5.12 3.1c-1 0-1.92-.82-2.55-1.8-2.35 3.95-6.72 10.35-8.27 10.35-.92 0-2.35-.78-2.35-3.52Z" class="cls-10"/><path d="M237.33 481.94c0-2.38 1.32-6.67 1.85-7.7.07-.15.07-.27.05-.4-.02-.15-.17-.2-.08-.4.55-1.1.7-1.38.88-1.42.1-.02.25-.02.4.05.72.28 1.68 1.28 1.5 1.58-1.8 2.82-4.35 8.77-3.4 9.22 1.35.62 7.4-5.8 10.12-9.42.6-.8.75.05.47.35s-7.37 9.6-10.37 9.6c-.72 0-1.42-.3-1.42-1.45Zm4.35-13.67c.1-.35.6-2.47.75-3.02s1.8.5 1.57 1.03c-.22.52-1.25 2.05-1.45 2.47-.2.4-.97-.12-.88-.47Z" class="cls-10"/><path d="M235.96 499.19c0-2.88 7.5-11.02 17-18.7 1.95-4.92 3.07-8.62 2.7-8.12-1.03 1.4-6.55 9.92-9.12 9.92-.7 0-1.7-.38-1.7-1.97 0-2.15 4.42-8.37 6.32-8.37.93 0 1.72.92 2.03 1.5.05.1.07.45-.5.17-.4-.2-.97-.33-1.45.03-2.08 1.47-5.1 5.35-5.1 7.17 0 .17 0 .55.35.55 2.65 0 9.67-10.32 9.92-11.3.45-1.7 1.45-.17 1.25.52-.27.97-1.17 4.17-2.55 8.2 2.62-2.02 5.35-3.97 8.07-5.75.33-.2.88.52.55.72-2.62 1.57-5.82 3.82-9.07 6.37-3.38 9.57-9.07 22.69-15.35 22.69-2.5 0-3.35-2.1-3.35-3.65Zm2.9 2.87c4.4 0 10-11.42 13.52-20.09-7.87 6.45-15.4 14.2-15.4 17.84 0 1.47.7 2.25 1.87 2.25Z" class="cls-10"/><path d="M266.56 482.69c0-2.12 1.7-6.2 2.62-9.25-2.57 2.37-6.5 8.17-8.2 8.17-.5 0-1.35-.77-1.35-1.65 0-1.72 2.62-8.17 4.95-8.17 1.72 0 3.05 1.57 2.85 1.87-.3.42-.88-.57-1.43-.57-1.37 0-4.97 4.47-4.97 7.17 0 .28.2.3.27.3 1.17 0 6-6.05 6.85-7.12s1.2-1.47 1.55-1.47 1.1.45 1.1 1.12c0 .9-2.82 8.62-2.82 10.57 0 .45.35.52.48.52 1.72 0 8.67-8.7 9.97-9.92.35-.33.5.17.33.38-.1.12-2.97 3.55-5.55 6.47-1.8 2.02-3.42 3.85-4.32 3.85-1.3 0-2.32-1.35-2.32-2.27Z" class="cls-10"/><path d="M273.73 492.29c.17-6.95 3.35-18 6.1-26.09-5.05.57-11.7 1.55-16.05 2.82-.4.12-1.07-1.27-.32-1.45 2.75-.6 10.52-1.5 16.6-2.05 1.42-4.1 2.7-7.37 3.37-8.82.17-.38.88-.27 1.75-.1.85.17 1.7.52 1.6.88-.05.2-.55.1-1.05.47-1.17.88-2.6 3.7-4.02 7.45 2.4-.2 4.37-.33 5.45-.33 3.6 0 3.97 1.15 3.97 1.47 0 .47-.3.83-.65.85-.17 0-.4-.38-.12-.55.43-.3.3-1.17-3.9-1.2-.7 0-2.55.12-4.97.38-2.97 8.02-5.82 19.89-6.07 26.44-.12 3.6 1.82 4.05 1 4.3-.68.22-2.75-1-2.67-4.47Z" class="cls-10"/><path d="M282.48 481.94c0-2.38 1.33-6.67 1.85-7.7.08-.15.08-.27.05-.4-.03-.15-.18-.2-.08-.4.55-1.1.7-1.38.88-1.42.1-.02.25-.02.4.05.72.28 1.67 1.28 1.5 1.58-1.8 2.82-4.35 8.77-3.4 9.22 1.35.62 7.4-5.8 10.12-9.42.6-.8.75.05.47.35-.27.3-7.37 9.6-10.37 9.6-.72 0-1.42-.3-1.42-1.45Zm4.35-13.67c.1-.35.6-2.47.75-3.02s1.8.5 1.57 1.03c-.22.52-1.25 2.05-1.45 2.47-.2.4-.97-.12-.88-.47Z" class="cls-10"/><path d="M290.41 483.49c.12-1.9 1.35-5.87 2.77-9.55.05-.12.05-.22 0-.35l-.02-.05a.5.5 0 0 1-.03-.38c.32-.7 1.02-2.05 1.32-2.15.33-.1 1.32.48 1.28 1.1-.05.62-2.7 5.5-3.5 10.15-.22 1.25 6.3-10.62 10.07-10.62.68 0 1.18.5 1.18 1.55 0 1.75-2.92 8.85-2.2 9.25 1.15.65 8.4-7.8 8.87-8.3s.73-.05.45.32-6.87 8.8-9.1 8.8c-1.2 0-1.78-1.05-1.78-1.5 0-3.37 2.97-9.02 2.38-9.47-1.2-.9-6.25 5.47-10.32 12.35-.25.2-1.42-.2-1.38-1.15Z" class="cls-10"/><path d="M297.59 499.19c0-2.88 7.5-11.02 17-18.7 1.95-4.92 3.07-8.62 2.7-8.12-1.03 1.4-6.55 9.92-9.12 9.92-.7 0-1.7-.38-1.7-1.97 0-2.15 4.42-8.37 6.32-8.37.93 0 1.72.92 2.03 1.5.05.1.07.45-.5.17-.4-.2-.97-.33-1.45.03-2.08 1.47-5.1 5.35-5.1 7.17 0 .17 0 .55.35.55 2.65 0 9.67-10.32 9.92-11.3.45-1.7 1.45-.17 1.25.52-.27.97-1.17 4.17-2.55 8.2 2.62-2.02 5.35-3.97 8.07-5.75.33-.2.88.52.55.72-2.62 1.57-5.82 3.82-9.07 6.37-3.38 9.57-9.07 22.69-15.35 22.69-2.5 0-3.35-2.1-3.35-3.65Zm2.89 2.87c4.4 0 10-11.42 13.52-20.09-7.87 6.45-15.4 14.2-15.4 17.84 0 1.47.7 2.25 1.87 2.25ZM330.96 486.99c0-6.2 6.77-27.04 10.77-32.32.4-.52.88-.82 1.17-.82.95 0 2.22.75 2.1 1.1-.12.38-.85 0-1.58.55-3.85 2.95-10.52 24.54-10.52 28.62 3.17-5.75 6.82-10.62 8.45-10.62 1.3 0 1.97 1.25 1.92 2.25-.08 1.57-1.17 3.6-1.17 5.1 0 .55.2.82.6.82 1.7 0 5.62-4.65 8.32-7.97.17-.22.62.15.25.62-2.7 3.32-6.8 8.15-8.22 8.15s-2.32-1.1-2.32-2.1.88-4.35.88-5.2c0-.4-.07-.7-.32-.7-1.43 0-6.47 7.1-8.77 13.17-.15.38-1.55-.2-1.55-.65Z" class="cls-10"/><path d="M348.08 480.09c0-3.72 3.3-8.6 6.02-8.6 1.2 0 1.85.6 1.85 1.5 0 1.17-1.35 2.95-2.72 2.95-.83 0-1.22-.5-1.62-1-1.15 1.7-2.08 4-2.08 6.17 0 1.15.52 1.9 1.58 1.9 2.72-.05 9.95-8.22 10.57-8.97.42-.52.77.28.35.7-1.5 1.57-8.1 8.82-10.65 8.82-1.9 0-3.3-1.15-3.3-3.47m3.7-5.42c.25.35.65.55.95.55.65 0 2.42-1.22 2.42-2.67 0-.17-.08-.33-.3-.33-.85 0-2.02.97-3.07 2.45" class="cls-10"/><path d="M357.51 491.59c0-7.3 10.75-41.12 12.77-41.12.65 0 2.3.83 2 1.3-.25.4-.72-.12-1.3.23-2.62 1.6-11.65 31.24-11.65 39.12 0 .88.05 1.82.6 1.82 1.72 0 9-13.6 12.12-19.82.05-.1.7.08.52.4-3.92 7.27-10.17 20.14-12.32 20.14-1.33 0-2.75-.7-2.75-2.07Z" class="cls-10"/><path d="M365.71 496.84c2.55-14.4 4.3-19.22 5.72-22.89.05-.12.05-.22 0-.35l-.03-.05a.5.5 0 0 1-.03-.38c.33-.7 1.03-2.05 1.33-2.15.33-.1 1.33.48 1.27 1.1-.05.62-2.7 5.5-5.77 20.14 1.2-4.02 8.65-24.39 13.12-24.39.95 0 2.12.75 2.12 2.52 0 2.1-.65 4.55-1.62 6.85 3.4-2.12 6.57-3.92 7.05-4.3.25-.2 1.28.28.67.6-.62.33-4.47 2.35-8.22 4.82-1.52 3.2-3.55 6-5.07 7.12-.47.33-.95.38-1.3.38-.95 0-2-.5-2-1.12 0-1.35 3.22-3.8 6.75-6.15 1.35-2.85 2.4-6.22 2.52-9.12.03-.55-.12-.8-.47-.8-3.4 0-10.55 15.22-13.42 25.62-.82 2.95-.67 6.85-1.28 6.85-.95 0-2.02-.42-1.35-4.3Zm8.94-11.83c1.1-.03 2.85-2.15 4.4-5.07-1.92 1.4-3.6 2.88-4.57 4.22-.32.45-.57.88.17.85" class="cls-10"/><path d="M87.97 431.16c48.92-10.02 99.05-12.73 148.98-13.43 14.25-.2 28.58-.23 42.66 1.95 17.14 2.66 33.58 8.55 50.31 13.16 15.7 4.33 31.7 7.54 47.85 9.6 7.22.92 14.92 1.8 20.54 6.42 7.54-1.85 14.5 3.49 17.59 10.6 3.1 7.12 2.7 15.2 2.22 22.95-.37 5.85-.77 11.8-2.79 17.31-3.62 9.89-12.21 17.38-21.83 21.66-9.62 4.29-20.26 5.71-30.77 6.43-24.04 1.64-48.16 3.7-72.25 3.46-43.11-.42-86.19-9.58-129.08-5.15-33.28-.76-66.44-3-99.47-7.15-4.77-.6-10.11-1.56-12.87-5.5-1.61-2.29-2.02-5.19-2.31-7.98-2.71-26.45 2.64-54.71 19.67-75.13 5.16-6.19 11.63-11.74 19.47-13.64 7.83-1.91 17.16.71 21.21 7.67.45.77 1.14 1.71 1.98 1.44s-.53-1.72-.5-.83" style="fill:none;stroke:url(#New_Gradient_Swatch_1);stroke-dasharray:33.68 18.37 0;stroke-miterlimit:10"/></svg>