<?xml version="1.0" encoding="UTF-8"?>
<svg id="Layer_1" data-name="Layer 1" xmlns="http://www.w3.org/2000/svg" xmlns:xlink="http://www.w3.org/1999/xlink" viewBox="0 0 559 170.59">
  <defs>
    <style>
      .cls-1 {
        mask: url(#mask);
      }

      .cls-2 {
        fill: url(#New_Gradient_Swatch_1);
        stroke: url(#New_Gradient_Swatch_1-2);
        stroke-miterlimit: 10;
      }

      .cls-3 {
        fill: #fff;
      }
    </style>
    <mask id="mask" x="0" y="0" width="559" height="170.59" maskUnits="userSpaceOnUse">
      <g id="path-1-inside-1_1_35" data-name="path-1-inside-1 1 35">
        <path class="cls-3" d="M3.5,19.5C3.5,10.66,10.66,3.5,19.5,3.5h520c8.84,0,16,7.16,16,16v131.59c0,8.84-7.16,16-16,16H19.5c-8.84,0-16-7.16-16-16V19.5Z"/>
      </g>
    </mask>
    <linearGradient id="New_Gradient_Swatch_1" data-name="New Gradient Swatch 1" x1=".5" y1="85.3" x2="558.5" y2="85.3" gradientUnits="userSpaceOnUse">
      <stop offset="0" stop-color="#305f64"/>
      <stop offset="1" stop-color="#000"/>
    </linearGradient>
    <linearGradient id="New_Gradient_Swatch_1-2" data-name="New Gradient Swatch 1" x1="0" x2="559" xlink:href="#New_Gradient_Swatch_1"/>
  </defs>
  <g class="cls-1">
    <path class="cls-2" d="M19.5,3.5v3h520V.5H19.5v3ZM555.5,19.5h-3v131.59h6V19.5h-3ZM539.5,167.09v-3H19.5v6h520v-3ZM3.5,151.09h3V19.5H.5v131.59h3ZM19.5,167.09v-3c-7.18,0-13-5.82-13-13H.5c0,10.49,8.51,19,19,19v-3ZM555.5,151.09h-3c0,7.18-5.82,13-13,13v6c10.49,0,19-8.51,19-19h-3ZM539.5,3.5v3c7.18,0,13,5.82,13,13h6c0-10.49-8.51-19-19-19v3ZM19.5,3.5V.5C9.01.5.5,9.01.5,19.5h6c0-7.18,5.82-13,13-13v-3Z"/>
  </g>
</svg>