<?xml version="1.0" encoding="UTF-8"?>
<svg id="Layer_1" data-name="Layer 1" xmlns="http://www.w3.org/2000/svg" xmlns:xlink="http://www.w3.org/1999/xlink" viewBox="0 0 559 170.59">
  <defs>
    <style>
      .cls-1 {
        fill: url(#New_Gradient_Swatch_1-7);
        stroke: url(#New_Gradient_Swatch_1-8);
      }

      .cls-1, .cls-2, .cls-3, .cls-4, .cls-5, .cls-6, .cls-7, .cls-8 {
        stroke-miterlimit: 10;
      }

      .cls-2 {
        fill: url(#New_Gradient_Swatch_1-5);
        stroke: url(#New_Gradient_Swatch_1-6);
      }

      .cls-3 {
        fill: url(#New_Gradient_Swatch_1-3);
        stroke: url(#New_Gradient_Swatch_1-4);
      }

      .cls-4 {
        fill: url(#New_Gradient_Swatch_1-11);
        stroke: url(#New_Gradient_Swatch_1-12);
      }

      .cls-5 {
        fill: url(#New_Gradient_Swatch_1-15);
        stroke: url(#New_Gradient_Swatch_1-16);
      }

      .cls-6 {
        fill: url(#New_Gradient_Swatch_1-13);
        stroke: url(#New_Gradient_Swatch_1-14);
      }

      .cls-7 {
        fill: url(#New_Gradient_Swatch_1);
        stroke: url(#New_Gradient_Swatch_1-2);
      }

      .cls-8 {
        fill: url(#New_Gradient_Swatch_1-9);
        stroke: url(#New_Gradient_Swatch_1-10);
      }

      .cls-9 {
        opacity: .52;
      }

      .cls-10 {
        fill: url(#New_Gradient_Swatch_1-17);
      }
    </style>
    <linearGradient id="New_Gradient_Swatch_1" data-name="New Gradient Swatch 1" x1="552.5" y1="85.3" x2="558.5" y2="85.3" gradientUnits="userSpaceOnUse">
      <stop offset="0" stop-color="#305f64"/>
      <stop offset="1" stop-color="#000"/>
    </linearGradient>
    <linearGradient id="New_Gradient_Swatch_1-2" data-name="New Gradient Swatch 1" x1="552" x2="559" xlink:href="#New_Gradient_Swatch_1"/>
    <linearGradient id="New_Gradient_Swatch_1-3" data-name="New Gradient Swatch 1" x1="539.5" y1="160.59" y2="160.59" xlink:href="#New_Gradient_Swatch_1"/>
    <linearGradient id="New_Gradient_Swatch_1-4" data-name="New Gradient Swatch 1" x1="539" y1="160.59" x2="559" y2="160.59" xlink:href="#New_Gradient_Swatch_1"/>
    <linearGradient id="New_Gradient_Swatch_1-5" data-name="New Gradient Swatch 1" x1="539.5" y1="10" y2="10" xlink:href="#New_Gradient_Swatch_1"/>
    <linearGradient id="New_Gradient_Swatch_1-6" data-name="New Gradient Swatch 1" x1="539" y1="10" x2="559" y2="10" xlink:href="#New_Gradient_Swatch_1"/>
    <linearGradient id="New_Gradient_Swatch_1-7" data-name="New Gradient Swatch 1" x1="19.5" y1="3.5" x2="539.5" y2="3.5" xlink:href="#New_Gradient_Swatch_1"/>
    <linearGradient id="New_Gradient_Swatch_1-8" data-name="New Gradient Swatch 1" x1="19" y1="3.5" x2="540" y2="3.5" xlink:href="#New_Gradient_Swatch_1"/>
    <linearGradient id="New_Gradient_Swatch_1-9" data-name="New Gradient Swatch 1" x1="19.5" y1="167.09" x2="539.5" y2="167.09" xlink:href="#New_Gradient_Swatch_1"/>
    <linearGradient id="New_Gradient_Swatch_1-10" data-name="New Gradient Swatch 1" x1="19" y1="167.09" x2="540" y2="167.09" xlink:href="#New_Gradient_Swatch_1"/>
    <linearGradient id="New_Gradient_Swatch_1-11" data-name="New Gradient Swatch 1" x1=".5" x2="6.5" xlink:href="#New_Gradient_Swatch_1"/>
    <linearGradient id="New_Gradient_Swatch_1-12" data-name="New Gradient Swatch 1" x1="0" x2="7" xlink:href="#New_Gradient_Swatch_1"/>
    <linearGradient id="New_Gradient_Swatch_1-13" data-name="New Gradient Swatch 1" x1=".5" y1="160.59" x2="19.5" y2="160.59" xlink:href="#New_Gradient_Swatch_1"/>
    <linearGradient id="New_Gradient_Swatch_1-14" data-name="New Gradient Swatch 1" x1="0" y1="160.59" x2="20" y2="160.59" xlink:href="#New_Gradient_Swatch_1"/>
    <linearGradient id="New_Gradient_Swatch_1-15" data-name="New Gradient Swatch 1" x1=".5" y1="10" x2="19.5" y2="10" xlink:href="#New_Gradient_Swatch_1"/>
    <linearGradient id="New_Gradient_Swatch_1-16" data-name="New Gradient Swatch 1" x1="0" y1="10" x2="20" y2="10" xlink:href="#New_Gradient_Swatch_1"/>
    <linearGradient id="New_Gradient_Swatch_1-17" data-name="New Gradient Swatch 1" x1="3.5" y1="85.3" x2="555.5" y2="85.3" xlink:href="#New_Gradient_Swatch_1"/>
  </defs>
  <polygon class="cls-7" points="555.5 19.5 552.5 19.5 552.5 151.09 555.5 151.09 558.5 151.09 558.5 19.5 555.5 19.5"/>
  <path class="cls-3" d="M555.5,151.09h-3c0,7.18-5.82,13-13,13v6c10.49,0,19-8.51,19-19h-3Z"/>
  <path class="cls-2" d="M539.5,3.5v3c7.18,0,13,5.82,13,13h6c0-10.49-8.51-19-19-19v3Z"/>
  <g>
    <polygon class="cls-1" points="19.5 3.5 19.5 6.5 539.5 6.5 539.5 3.5 539.5 .5 19.5 .5 19.5 3.5"/>
    <polygon class="cls-8" points="539.5 167.09 539.5 164.09 19.5 164.09 19.5 167.09 19.5 170.09 539.5 170.09 539.5 167.09"/>
    <polygon class="cls-4" points="3.5 151.09 6.5 151.09 6.5 19.5 3.5 19.5 .5 19.5 .5 151.09 3.5 151.09"/>
    <path class="cls-6" d="M19.5,167.09v-3c-7.18,0-13-5.82-13-13H.5c0,10.49,8.51,19,19,19v-3Z"/>
    <path class="cls-5" d="M19.5,3.5V.5C9.01.5.5,9.01.5,19.5h6c0-7.18,5.82-13,13-13v-3Z"/>
    <g id="path-1-inside-1_1_35" data-name="path-1-inside-1 1 35" class="cls-9">
      <path class="cls-10" d="M3.5,19.5C3.5,10.66,10.66,3.5,19.5,3.5h520c8.84,0,16,7.16,16,16v131.59c0,8.84-7.16,16-16,16H19.5c-8.84,0-16-7.16-16-16V19.5Z"/>
    </g>
  </g>
</svg>