<svg xmlns="http://www.w3.org/2000/svg" xmlns:xlink="http://www.w3.org/1999/xlink" id="Layer_1" data-name="Layer 1" viewBox="0 0 1636.95 823.76"><defs><linearGradient id="linear-gradient" x1="0" x2="635.69" y1="437.54" y2="437.54" gradientUnits="userSpaceOnUse"><stop offset="0" stop-color="#305f64"/><stop offset="1"/></linearGradient><linearGradient id="linear-gradient-2" x1="89.75" x2="210.87" y1="464.19" y2="464.19" gradientUnits="userSpaceOnUse"><stop offset="0" stop-color="#a0622c"/><stop offset=".85" stop-color="#fff"/></linearGradient><linearGradient xlink:href="#linear-gradient-2" id="linear-gradient-3" x1="223.27" x2="245.86" y1="564.93" y2="564.93"/><linearGradient xlink:href="#linear-gradient-2" id="linear-gradient-4" x1="376.83" x2="403.33" y1="560.96" y2="560.96"/><linearGradient xlink:href="#linear-gradient-2" id="linear-gradient-5" x1="375.03" x2="408.96" y1="635.34" y2="635.34"/><linearGradient xlink:href="#linear-gradient-2" id="linear-gradient-6" x1="198.11" x2="252.08" y1="468.48" y2="468.48"/><linearGradient xlink:href="#linear-gradient-2" id="linear-gradient-7" x1="394.41" x2="431.31" y1="468.81" y2="468.81"/><linearGradient xlink:href="#linear-gradient-2" id="linear-gradient-8" x1="364.67" x2="415.04" y1="250.64" y2="250.64"/><linearGradient xlink:href="#linear-gradient-2" id="linear-gradient-9" x1="219.35" x2="261.16" y1="449.23" y2="449.23"/><linearGradient xlink:href="#linear-gradient-2" id="linear-gradient-10" x1="398.61" x2="439.2" y1="514.63" y2="514.63"/><linearGradient xlink:href="#linear-gradient-2" id="linear-gradient-11" x1="430.73" x2="469.49" y1="497.41" y2="497.41"/><linearGradient xlink:href="#linear-gradient-2" id="linear-gradient-12" x1="139.51" x2="149.65" y1="359.74" y2="359.74"/><linearGradient xlink:href="#linear-gradient-2" id="linear-gradient-13" x1="225.43" x2="235.1" y1="409.31" y2="409.31"/><linearGradient xlink:href="#linear-gradient-2" id="linear-gradient-14" x1="246.31" x2="258.25" y1="611.17" y2="611.17"/><linearGradient xlink:href="#linear-gradient-2" id="linear-gradient-15" x1="241.77" x2="265.38" y1="566.26" y2="566.26"/><linearGradient xlink:href="#linear-gradient-2" id="linear-gradient-16" x1="189.57" x2="198.98" y1="508.33" y2="508.33"/><linearGradient xlink:href="#linear-gradient-2" id="linear-gradient-17" x1="382.54" x2="391.35" y1="298.63" y2="298.63"/><linearGradient xlink:href="#linear-gradient-2" id="linear-gradient-18" x1="190.3" x2="227.24" y1="484.26" y2="484.26"/><linearGradient xlink:href="#linear-gradient-2" id="linear-gradient-19" x1="237.34" x2="250.77" y1="226.35" y2="226.35"/><linearGradient xlink:href="#linear-gradient-2" id="linear-gradient-20" x1="373.19" x2="383.01" y1="240.5" y2="240.5"/><linearGradient xlink:href="#linear-gradient-2" id="linear-gradient-21" x1="498.86" x2="515.53" y1="356.83" y2="356.83"/><linearGradient xlink:href="#linear-gradient-2" id="linear-gradient-22" x1="208.08" x2="220.57" y1="422.65" y2="422.65"/><linearGradient xlink:href="#linear-gradient-2" id="linear-gradient-23" x1="378.03" x2="407.71" y1="330.98" y2="330.98"/><linearGradient xlink:href="#linear-gradient-2" id="linear-gradient-24" x1="239.33" x2="254.49" y1="566.18" y2="566.18"/><linearGradient xlink:href="#linear-gradient-2" id="linear-gradient-25" x1="213.16" x2="246" y1="402.01" y2="402.01"/><linearGradient xlink:href="#linear-gradient-2" id="linear-gradient-26" x1="408.91" x2="416.91" y1="256.91" y2="256.91"/><linearGradient xlink:href="#linear-gradient-2" id="linear-gradient-27" x1="491.88" x2="516.03" y1="402.64" y2="402.64"/><linearGradient xlink:href="#linear-gradient-2" id="linear-gradient-28" x1="479.18" x2="519.15" y1="417.02" y2="417.02"/><linearGradient xlink:href="#linear-gradient-2" id="linear-gradient-29" x1="109.91" x2="142.27" y1="399.07" y2="399.07"/><linearGradient xlink:href="#linear-gradient-2" id="linear-gradient-30" x1="400.45" x2="425.91" y1="460.37" y2="460.37"/><linearGradient xlink:href="#linear-gradient-2" id="linear-gradient-31" x1="401.06" x2="425.28" y1="473.61" y2="473.61"/><linearGradient xlink:href="#linear-gradient-2" id="linear-gradient-32" x1="400.45" x2="425.4" y1="469.9" y2="469.9"/><linearGradient xlink:href="#linear-gradient-2" id="linear-gradient-33" x1="414.25" x2="430.71" y1="516.78" y2="516.78"/><linearGradient xlink:href="#linear-gradient-2" id="linear-gradient-34" x1="270.84" x2="298.69" y1="355.42" y2="355.42"/><linearGradient xlink:href="#linear-gradient-2" id="linear-gradient-35" x1="290.83" x2="317.47" y1="321.99" y2="321.99"/><linearGradient xlink:href="#linear-gradient-2" id="linear-gradient-36" x1="167.62" x2="531.59" y1="444.99" y2="444.99"/><linearGradient xlink:href="#linear-gradient-2" id="linear-gradient-37" x1="473.12" x2="527.77" y1="393.26" y2="393.26"/><linearGradient id="New_Gradient_Swatch_1" x1="784.08" x2="1342.08" y1="136.12" y2="136.12" data-name="New Gradient Swatch 1" gradientUnits="userSpaceOnUse"><stop offset="0" stop-color="#305f64"/><stop offset="1"/></linearGradient><linearGradient xlink:href="#New_Gradient_Swatch_1" id="New_Gradient_Swatch_1-2" x1="783.58" x2="1342.58" data-name="New Gradient Swatch 1"/><linearGradient id="linear-gradient-38" x1="1097.45" x2="1617.45" y1="493.03" y2="493.03" gradientUnits="userSpaceOnUse"><stop offset="0" stop-color="#a0622c"/><stop offset=".36" stop-color="#7f521d"/><stop offset=".98" stop-color="#3f3300"/></linearGradient><linearGradient id="New_Gradient_Swatch_7" x1="1096.95" x2="1617.95" y1="493.03" y2="493.03" data-name="New Gradient Swatch 7" gradientUnits="userSpaceOnUse"><stop offset="0" stop-color="#a0622c"/><stop offset=".36" stop-color="#7f521d"/><stop offset=".98" stop-color="#3f3300"/></linearGradient><linearGradient xlink:href="#linear-gradient-38" id="linear-gradient-39" x1="1630.45" x2="1636.45" y1="574.83" y2="574.83"/><linearGradient xlink:href="#New_Gradient_Swatch_7" id="New_Gradient_Swatch_7-2" x1="1629.95" x2="1636.95" y1="574.83" y2="574.83" data-name="New Gradient Swatch 7"/><linearGradient xlink:href="#linear-gradient-38" id="linear-gradient-40" y1="656.62" y2="656.62"/><linearGradient xlink:href="#New_Gradient_Swatch_7" id="New_Gradient_Swatch_7-3" y1="656.62" y2="656.62" data-name="New Gradient Swatch 7"/><linearGradient xlink:href="#linear-gradient-38" id="linear-gradient-41" x1="1078.45" x2="1084.45" y1="574.83" y2="574.83"/><linearGradient xlink:href="#New_Gradient_Swatch_7" id="New_Gradient_Swatch_7-4" x1="1077.95" x2="1084.95" y1="574.83" y2="574.83" data-name="New Gradient Swatch 7"/><linearGradient xlink:href="#linear-gradient-38" id="linear-gradient-42" x1="1078.45" x2="1097.45" y1="650.12" y2="650.12"/><linearGradient xlink:href="#New_Gradient_Swatch_7" id="New_Gradient_Swatch_7-5" x1="1077.95" x2="1097.95" y1="650.12" y2="650.12" data-name="New Gradient Swatch 7"/><linearGradient xlink:href="#linear-gradient-38" id="linear-gradient-43" x1="1617.45" x2="1636.45" y1="650.12" y2="650.12"/><linearGradient xlink:href="#New_Gradient_Swatch_7" id="New_Gradient_Swatch_7-6" x1="1616.95" x2="1636.95" y1="650.12" y2="650.12" data-name="New Gradient Swatch 7"/><linearGradient xlink:href="#linear-gradient-38" id="linear-gradient-44" x1="1617.45" x2="1636.45" y1="499.53" y2="499.53"/><linearGradient xlink:href="#New_Gradient_Swatch_7" id="New_Gradient_Swatch_7-7" x1="1616.95" x2="1636.95" y1="499.53" y2="499.53" data-name="New Gradient Swatch 7"/><linearGradient xlink:href="#linear-gradient-38" id="linear-gradient-45" x1="1078.45" x2="1097.45" y1="499.53" y2="499.53"/><linearGradient xlink:href="#New_Gradient_Swatch_7" id="New_Gradient_Swatch_7-8" x1="1077.95" x2="1097.95" y1="499.53" y2="499.53" data-name="New Gradient Swatch 7"/><mask id="mask" width="559" height="170.59" x="783.58" y="50.82" maskUnits="userSpaceOnUse"><path id="path-1-inside-1_1_35" d="M787.08 70.32c0-8.84 7.16-16 16-16h520c8.84 0 16 7.16 16 16v131.59c0 8.84-7.16 16-16 16h-520c-8.84 0-16-7.16-16-16z" class="cls-51" data-name="path-1-inside-1 1 35"/></mask><mask id="mask-1" width="559" height="170.59" x="1077.95" y="489.53" maskUnits="userSpaceOnUse"><path id="path-1-inside-1_1_35-2" d="M1081.45 509.03c0-8.84 7.16-16 16-16h520c8.84 0 16 7.16 16 16v131.59c0 8.84-7.16 16-16 16h-520c-8.84 0-16-7.16-16-16z" class="cls-51" data-name="path-1-inside-1 1 35"/></mask><style>.cls-4{fill:#c7ad95}.cls-5{fill:#ad8c6d}.cls-6{fill:#cdae94}.cls-51{fill:#fff}.cls-55{fill:#bb9270}.cls-88{fill:#d9c5b4}.cls-93{fill:#a77243}.cls-94{fill:#ddcbbb}.cls-98{fill:#c9ac94}</style></defs><path d="m857.21 289.54-1.92 7.6c-12.96-1.38-25.88-3.6-39.05-3.03v-7.63c13.84-.67 27.4 1.39 40.98 3.06Z" style="fill:#b68a63"/><path d="m554.2 383.99-3.81 3.04c2.01.19 4.33-.26 6.25-.06 1.76.18 1.23 1.42 2.02 1.57 1.78.34 4.11-.16 6.01.02-7.18 2.47-21.14 8.25-28.36 9-5.64.58-3.9-3.67-5.95-6.7 8.06-1.7 15.91-5.01 23.83-6.87Z" class="cls-6"/><path d="M968.69 303.24c9.83-.11 19.71.08 29.54 0v7.63c-7.61-.03-15.26.03-22.87 0-.95-.85-3.11-1-3.8-1.91-1.03-1.36 4.1-1.25 1.89-2.65-.42-.27-3.65.18-4.76-.01v-3.04Z" style="fill:#ebe1d7"/><path d="M1539.81 467.5c2.2 2.08 10.96 9.18 11.65 10.94.63 1.61-1.46 4.89-3.11 5.26-5.17 1.17-14.82-10.66-18.47-13.36-1.09-2.98 5.74-6.97 8.67-5.26.72.42.63 1.82 1.26 2.41Z" style="fill:#f6f4f1"/><path d="M396.03 407.61c5.81-.4 11.88.63 17.67-.46 3.38.4 2.21 5.98 2.34 8.08-6.52-.32-13.58.43-20.01 0-1.62-.11-4.87-1.42-7.53-.84-1.09-1.95-.46-3.96-.02-5.96 2.7.64 5.91-.7 7.56-.81Z" style="fill:#ede4db"/><path d="M617.09 358.09c2.62-1.37 16.68-9.76 17.76-9.82 1.74-.1 3.25 4.05 5.37 4.71l.25 1.32c-5.33 4.26-12.36 6.72-18.62 9.89-2.56-.93-8.36-1.14-6.66-3.81h3.8l-1.9-2.28Z" style="fill:#b68d68"/><path d="m1139.25 326.1-5.72 1.53 2.86 3.04-4.75.76c4.59.2 7.99 1.42 11.94 3.06.84.35 1.15 1.41 1.39 1.52-3.71-1.9-30.51-8.05-31.43-9.17-1.38-1.66 1.58-2.38 1.68-2.64.23-.61-.25-3.56 1.18-4.96 7.77 1.99 15.29 4.44 22.85 6.86" style="fill:#c4a081"/><path d="M981.08 286.48c3.64 2.27 4.28-2.6 6.67-3.46.28-.1 4.18.99 4.3 1.16 1.21 1.69-3.97 5.58-5.25 6.88-4.15 4.21-7.7 7.12-12.86 10.65-1.5-1.33-7.32-4.92-5.78-6.84 4.23-2.81 8.81-5.5 12.93-8.38Z" style="fill:#d8c2ae"/><path d="M1195.47 342.86c.63.01 1.29-.05 1.91 0 .74 2.08 3.1 1.25 4.76 1.52 4.39.72 9.27 1.56 13.34 3.05-.69-.04-3.15.26-4.28.31-4.37.22 1.95 1.26-.49 2.73h6.67c.08 3.26-3.08 1.4-5.7 1.53l3.81 3.04c-6.97-1.17-14.18-2.84-20.96-4.57-1.21-2.1-4.79-.58-3.82-3.8-1.56-.28-.83 1.11-.94 2.28-.38-.15-1.66.21-1.88-.01-.4-.42.35-2.63.93-3.03.25-.17 1.75.18 1.9 0 1.5-1.73-3.44-3.2 4.77-3.05Z" style="fill:#af7d51"/><path d="m1062.07 308.58 4.76.76c2.22.32 9.96.37 11.03 1.5l-1.51 7.65c-6.9-1.33-13.95-2.14-20.96-3.05l1.43-1.53-5.21-1.1c.97-.59 1.56-3.11 2.02-3.34 1.56-.8 5.28 1.2 4.62-1.65.99.12 2.4.57 3.81.76Z" style="fill:#d5bda7"/><path d="M1505.14 424.37c.45 1.63-1.43 1.38-2.2 2.47-.92 1.29-.63 5.6-3.12 1.41l-1.35 1.46c-1.93-2.05-13.37-11.64-13.37-12.57 0-1.65 4.88-4.24 6.23-5.7 5.37 3.79 9.56 8.37 13.82 12.94Z" style="fill:#e1d0c1"/><path d="M1274.56 350.47c3.6-.07 10.72-.5 13.77-.05 1.26.19-.13 2.33 1 2.35l1.42-2.29c2.07 3.65-1.21 1.91-2.84 3.79l9.52.78c.25 1-1.75 1.21-2.61 1.32-6.49.84-13.29.09-19.3 1.72-1.76-.04-6.59.33-7.49-.11-1.27-.62-1.16-6.07-1.09-7.51 2.53-.03 5.09.05 7.63 0Z" style="fill:#a26b39"/><path d="m475.12 402.28-.95 3.04 4.76.02-2.85 1.51 3.82.39c.06 1.46-7.86.03-4.77 2.67-6.62.88-13.2 2.32-20 2.28l-.94-7.6c6.94-.8 14.03-1.36 20.94-2.3Z" class="cls-94"/><path d="m1369.84 361.14-6.67 2.67c-.22.58 3.04-.09.94 1.89l5.7 1.15-4.75 1.14c-6.51-1.5-13.4-2.6-20.01-3.81.18-1.19 1.5-7.34 1.95-7.6.96-.54 20.04 3.87 22.83 4.55Z" style="fill:#b78a64"/><path d="M1041.11 245.35c.49-1.49 3.38-3.94 4.73-4.98 1.52-1.17 10.05-7.24 10.99-7.24 1.3 0 6.38 4.29 5.75 5.38-1.35 2.32-12.72 9.21-15.75 11.41-5.69-2.06 1.68-7.01-5.72-4.57" style="fill:#ede4dc"/><path d="M685.7 318.48c4.87-2.57 9.33-5.72 14.75-7.63.55 1.67 5.28 6.45 4.27 7.6-5.18 1.53-10.61 4.38-15.21 6.89-1.98-.9-6.55.03-7.62-1.91-.15-.28 4.32-2.78 3.81-4.95" style="fill:#a77141"/><path d="m1440.35 383.99 1.92 3.42c-6.24 1.01.57.64-1.92 2.29-3.87 2.56-2.87-2.61-8.57-1.14-3.71-1.46-8.39-2.89-12.39-3.82-.29-.32 3.04-6.92 3.79-7.29 1.61-.78 14.79 5.6 17.17 6.53Z" style="fill:#ccad93"/><path d="m750.49 294.1 25.72-5.34.97 8.39c-6.52.28-13.63 1.72-20.01 3.05.54-.57 1.79-2.91.39-3.06-1.13-.12-4.06.65-3.24-1.12.88-1.91 9.07 1.27 9.51-2.29l-13.33.37Z" class="cls-93"/><path d="M685.7 318.48c.51 2.17-3.96 4.67-3.81 4.95 1.07 1.94 5.64 1.01 7.62 1.91-2.48 1.35-15.8 9.71-16.83 9.83-1.99.24-4.39-4.7-5.93-5.74-.42-.99 3.25-2.52 4.36-3.19 4.68-2.82 9.72-5.19 14.59-7.75Z" style="fill:#ab774a"/><path d="m750.49 294.1 13.33-.37c-.44 3.56-8.63.37-9.51 2.29-.81 1.77 2.11 1 3.24 1.12 1.39.15.15 2.49-.39 3.06-2.76.57-15.83 4.54-16.7 4.47-1.06-.09-3.75-5.79-3.23-7.03.78-1.89 5.6-1.73 7.55-2.01 1.59-.23 3.2.23 3.81-1.52.62-.06 1.28.04 1.91 0Z" style="fill:#a46b3a"/><path d="M1440.35 383.99c6.4 2.52 13.39 4.32 19.03 7.99-2.62 1.86-2.67 4.1-4.72 6.15-1.17.45-19.94-8.41-22.89-9.57 5.7-1.47 4.69 3.69 8.57 1.14 2.49-1.64-4.31-1.27 1.92-2.29l-1.92-3.42Z" style="fill:#d1b59e"/><path d="M1369.84 361.14c2.19.54 15.28 3.92 15.8 4.53.38.45-2.04 6.54-2.56 6.83-1.2.69-15.36-3.9-18-4.51l4.75-1.14-5.7-1.15c2.1-1.99-1.16-1.32-.94-1.89l6.67-2.67Z" class="cls-55"/><path d="M1505.14 424.37c4.11 4.41 7.9 8.98 11.43 13.7l-8.59 3.5c-3.49-3.57-6.2-8.34-9.51-11.86l1.35-1.46c2.49 4.19 2.2-.12 3.12-1.41.78-1.08 2.66-.83 2.2-2.47" style="fill:#e5d8cd"/><path d="M1041.11 245.35c7.4-2.44.03 2.51 5.72 4.57-2.66 1.93-9.42 8.59-12.39 9.51-2 .62-6.76-4.53-6.61-5.22.39-1.79 10.64-8 13.27-8.86Z" style="fill:#e8ddd2"/><path d="M475.12 402.28c2.7-.37 17.3-3.47 18.06-3.03.39.23 2.41 6.93 1.88 7.54-3.53 1.26-7.87 1.01-11.36 1.59l-4.76.76c-1.13.17-2.28.56-3.81.76-3.09-2.64 4.83-1.2 4.77-2.67l-3.82-.39 2.85-1.51-4.76-.02.95-3.04Z" style="fill:#d8c5b2"/><path d="M1274.56 350.47c3.5-1.27 9.07-.94 12.9-.79 5.06.2 12.26.4 17.04.87 6.63.66 1.74 4.52 2.45 8.3-10.35-1.42-20.97-.51-31.44-.77 6.02-1.62 12.81-.87 19.3-1.72.86-.11 2.86-.32 2.61-1.32l-9.52-.78c1.63-1.89 4.91-.14 2.84-3.79l-1.42 2.29c-1.13-.02.26-2.16-1-2.35-3.05-.45-10.17-.01-13.77.05Z" style="fill:#a67041"/><path d="M1058.26 307.81c.67 2.85-3.06.85-4.62 1.65-.46.23-1.05 2.75-2.02 3.34l5.21 1.1-1.43 1.53c-2.72-.35-16.5-1.46-17.22-1.85-1.4-.76-2.08-7.99 1.4-8.01 4.72-.03 13.51 1.62 18.67 2.25Z" class="cls-88"/><path d="M910.57 300.96c3.24.44 22.19 1.59 22.82 2.35l.04 7.55c-.53.35-13.07-1.07-13.71-1.44-1.2-.69-.96-4.88-1.63-5.33-.46-.31-7.72-.08-9.43-.08 1.05-1.37 3.91-.61 5.72-.77z" class="cls-98"/><path d="M986.8 291.05c1.28-1.29 6.46-5.19 5.25-6.88-.12-.16-4.01-1.26-4.3-1.16-2.39.86-3.03 5.73-6.67 3.46 2.31-1.62 15.19-11.34 16.69-11.24.87.06 6.21 4.84 6.13 5.54-4.7 3.14-9.54 6.22-13.88 9.43-1.11.82-1.21 2.17-3.22.84Z" style="fill:#dcc8b8"/><path d="m617.09 358.09 1.9 2.28h-3.8c-1.7 2.68 4.1 2.89 6.66 3.82-2.51 1.27-11.84 7.29-13.97 7.54s-4.95-5.24-6.04-6.77c5.14-1.78 10.56-4.42 15.25-6.87" style="fill:#bb9371"/><path d="M1139.25 326.1c4.51 1.44 9 3.76 14.26 3.84.88.81-1.49 6.23-2.81 7.27-1.13.56-4.6-.67-5.73-1.2-.24-.11-.55-1.17-1.39-1.52-3.95-1.65-7.35-2.86-11.94-3.06l4.75-.76-2.86-3.04z" style="fill:#be9977"/><path d="M979.17 9.95c3.34-.27 7.08.19 10.49 0v7.63c-2.22.03-4.46-.04-6.67 0-3.57.06-7.05.2-10.49-.77l.95-6.09c2.12.75 4.63-.67 5.72-.76Z" style="fill:#a67448"/><path d="M396.03 407.61c-1.65.11-4.86 1.45-7.56.81-.44 2.01-1.07 4.02.02 5.96 2.66-.58 5.92.73 7.53.84-6.46.03-13.16 0-19.56-.76-1.56-.18-1.38.48-1.44-1.14-.03-.83.74-6.21 1.04-6.43.72-.56 17.63-.23 19.96.72Z" style="fill:#f1eae5"/><path d="M1215.48 347.43c1.87.1 12.83 1.16 13.3 1.55.95.8-1.13 6.04-.94 7.57-.49.38-10.61-1.21-12.36-1.5l-3.81-3.04c2.62-.13 5.78 1.73 5.7-1.53h-6.67c2.44-1.47-3.87-2.52.49-2.73 1.13-.06 3.59-.35 4.28-.31Z" style="fill:#a97749"/><path d="M899.13 3.1c1.87 0 14.16-.35 14.31.44v7.18c-4.77.02-9.56-.04-14.31 0 4.23-1.81.05-1.24-.04-2.01-.22-1.99 1.07-3.83.04-5.61" style="fill:#e0d0c2"/><path d="M558.97 382.47c2.86-.95 5.74-2.01 8.56-3.05l3.83 7.61c-.21.22-5.53 1.14-6.67 1.53-1.9-.18-4.23.32-6.01-.02-.79-.15-.26-1.38-2.02-1.57-1.92-.2-4.24.25-6.25.06l3.81-3.04c.29-.07.65.06.95 0 1.44-.29 3.09.28 3.81-1.52Z" style="fill:#c8a889"/><path d="M979.17 9.95c-1.09.09-3.6 1.51-5.72.76l-.95 6.09c3.44.97 6.92.83 10.49.77-6.38 1.36-14.25.82-20.96.76l-1.91-6.09c2.05.08 3.37.38 2.87-1.53 5.43-.2 10.78-.63 16.2-.76Z" style="fill:#b28259"/><path d="M968.69 303.24v3.04c1.11.19 4.34-.25 4.76.01 2.2 1.4-2.93 1.29-1.89 2.65.69.92 2.85 1.06 3.8 1.91-5.71-.03-11.45.02-17.16 0v-7.63c3.48-.02 7 .04 10.49 0Z" style="fill:#f0e9e2"/><path d="M962.97 10.72c.51 1.91-.81 1.61-2.87 1.53l1.91 6.09c-4.11-.03-8.25.06-12.35-.03 0-1.21-1.42-7.27.58-7.63 4.23-.05 8.51.2 12.73.04" style="fill:#ba8f6b"/><path d="m910.57 300.96 3.81 2.28c-1.8.15-4.67-.61-5.72.77h-1.91c-2.09.02-5.37-.57-6.67.76h-6.67c-.98-11.1 9.05-4.91 17.16-3.81" style="fill:#c4a587"/><path d="M881.03 10.72c-1.13-.04-3.15.44-3.92-.44-.37-.43-1.88-7.83-1.73-8.23.52-1.4 12.11-4.29 9.46 1.05-.23.1-1.73 2.67-2.57 3.62-1.27 1.44-3.71.92-1.24 4" style="fill:#f6f2ef"/><path d="M899.13 3.1c1.02 1.78-.27 3.62-.04 5.61.09.77 4.27.2.04 2.01-2.85.02-5.73.03-8.58 0-3.85-2.69 2.53-3.58.95-7.62 2.53-.05 5.09-.01 7.62 0Z" style="fill:#e9dcd2"/><path d="M1059.21 8.43c10.73.62 11.94.32 8.57 9.15l-10.47-1.53c.58-.02 2.07-.95 3.81 0-.78-1.7.82-3.85.85-5.01 0-.37-1.4-.29-1.48-.49-.27-.65 1.24-1.35-1.27-2.12Z" style="fill:#d1b7a2"/><path d="M1099.35 33.48c-.89-1.21 3.5-8.16 8.02-6.04 5.58 2.61 2.08 7.34-2.34 8.09-.86.15-5.52-1.83-5.68-2.05" style="fill:#f6f4f2"/><path d="M891.51 3.1c1.58 4.04-4.81 4.93-.95 7.62-3.16-.03-6.37.1-9.53 0-2.47-3.08-.02-2.56 1.24-4 .83-.95 2.34-3.52 2.57-3.62.47-.21 5.3.03 6.67 0" style="fill:#eee7df"/><path d="M1059.21 8.43c2.51.77 1 1.48 1.27 2.12.08.19 1.49.12 1.48.49-.03 1.15-1.64 3.31-.85 5.01-1.74-.95-3.23-.01-3.81 0-3.48.1-7-.07-10.48 0 1.51-.24 6.81-1.05 7.23-1.49 1.02-1.06-.99-3.88.39-5.36-2.83-.15-5.76.17-8.57 0-.32-.02-.64.02-.95 0 3.71-1.22 10.08-1.01 14.29-.76Z" class="cls-4"/><path d="M1044.92 9.19c.32.02.64-.02.95 0-.62 3.34 1.03 4.88-2.86 6.86-3.29.32-5.51.92-9.53.76.58-1.21 3.01-.29 3.65-1.12.15-.2 1.02-4.39.96-4.62-.15-.58-2.63-.21-.8-1.12l2.86-1.52c1.36.06 3.05.66 4.76.76Z" style="fill:#c39d7d"/><path d="M1037.3 9.95c-1.83.91.65.54.8 1.12.06.23-.8 4.42-.96 4.62-.64.82-3.08-.1-3.65 1.12-1.58-.06-3.19.05-4.77 0V9.19c1.96.25 8.63-.69 8.58.76" class="cls-55"/><path d="M1045.87 9.19c2.82.18 5.75-.14 8.57 0-1.39 1.48.63 4.29-.39 5.36-.42.44-5.72 1.25-7.23 1.49-1.1.18-2.61-.12-3.81 0 3.89-1.98 2.24-3.51 2.86-6.86Z" style="fill:#c6a587"/><path d="m1040.16 8.43-2.86 1.52c.05-1.45-6.62-.51-8.58-.76 2.71-1.28 8.02-.91 11.43-.76Z" class="cls-4"/><path d="M1012.51 311.62c-1.67.18-.89-1.72-.94-2.65-.1-1.65.06-3.32 0-4.96 1.67-.18.89 1.72.94 2.65.1 1.65-.06 3.32 0 4.96" style="fill:#e5e3e1"/><path d="M1015.37 16.81c-1.67.18-.89-1.72-.94-2.65-.1-1.65.06-3.32 0-4.96 1.67-.18.89 1.72.94 2.65.1 1.65-.06 3.32 0 4.96" style="fill:#ada297"/><path d="M1189.75 348.95c.11-1.17-.62-2.56.94-2.28-.97 3.23 2.61 1.71 3.82 3.8-2.06-.52-2.83-.75-4.76-1.52" class="cls-5"/><path d="M1090.65 319.24c-1.95-.04-.49-5.28.95-5.32z" style="fill:#d7d5d1"/><path d="M1014.42 273.53c-1.74-.81-4.04-2.21-3.79-3.81 1.74.81 4.04 2.21 3.79 3.81" style="fill:#e9e9e8"/><path d="M1195.47 342.86c-8.21-.14-3.26 1.32-4.77 3.05-.15.18-1.66-.18-1.9 0l1.97-4.55z" class="cls-5"/><path d="M946.79 304.01h.93v5.32h-.93z" style="fill:#d4d3d0"/><path d="M906.76 304c-1.29 1.32-4.59.76-6.67.76 1.3-1.33 4.58-.74 6.67-.76" class="cls-98"/><path d="M868.63 300.19c-.12.11-.62-.04-.93 0-.04-1.55.88-3.01.95-4.56h.93c.32.55-.54 4.2-.96 4.56Z" style="fill:#ccc7c3"/><path d="M1202.14 344.38c-1.67-.27-4.03.55-4.76-1.52 1.63.14 3.61.52 4.76 1.52" class="cls-5"/><path d="M1320.3 355.81h.93v4.56h-.93z" style="fill:#bab6b3"/><path d="M1397.47 373.33c.39-1.3.14-3.92 1.9-3.81.65 1.95-1.13 2.71-1.9 3.81" style="fill:#cbc9c7"/><path d="M1466.09 403.8c-.31-1.37 1.29-2.5 2.84-3.05.31 1.37-1.29 2.5-2.84 3.05" style="fill:#e2e0e0"/><path d="M1241.22 354.29h.93v3.8h-.93z" style="fill:#a29682"/><path d="M1397.47 373.33c-.34 1.14.26 2.71-1.9 3.05-.55-1.52 1.24-2.11 1.9-3.05" style="fill:#d5d4d0"/><path d="M558.97 382.47c-.72 1.81-2.37 1.23-3.81 1.52.85-1.35 2.57-1.11 3.81-1.52" class="cls-6"/><path d="M748.58 294.1c-.61 1.75-2.22 1.29-3.81 1.52.89-1.12 2.3-1.37 3.81-1.52" class="cls-93"/><path d="M790.52 291.06h.93v3.8h-.93z" style="fill:#a8a39d"/><path d="M935.35 11.48h.93v3.8h-.93z" style="fill:#d6d1ce"/><path d="M483.69 408.37c-1.44.24-3.13.51-4.76.76z" class="cls-94"/><path d="m1066.83 309.34-4.76-.76c1.65.23 3.2.53 4.76.76" class="cls-88"/><rect width="635.69" height="772.43" y="51.32" rx="89.65" ry="89.65" style="fill:url(#linear-gradient)"/><path d="M93.99 404.51c-12.52-13.94 5.28-31.08 19.98-25.02.26-10.13 11.21-16.68 19.8-11.38 3.44 2.12 3.55 5.53 3.83 5.74.3.23 7.14-.43 7.48-.57.43-.18 1-3.6 3.24-4.29 2.76-.86 8.04 1.63 11.68-.14l-1.16-7.1c.93-2.42 5.28.48 4.76 2.35-.29 1.06-2.6.59-2.45 3.81.03.68 2.26 4.59 2.5 4.69.4.17 4.14-4.12 8.1-1.18 1.78 1.33 2.04 4.71 2.25 4.85 1.94 1.31 8.47-1.52 7.15 7.23-.21 1.41-5.06 7.97-6.45 8.35-6.08 1.65-8.75-2.84-13.8-4.86-2.44 10.37-1.82-4.37-2.17-4.91-.27-.42-3.21-.99-3.46-1.46-.61-1.14.32-4.11-.07-5.18-.19-.54-2.41.37-1.79-4.46-1.75-2.12-6.46-.71-7.34 1.93 2.26 1.36 7.14 5.55 8.13 7.85 1.63 3.76-2.86 13.07 5.33 12.35 3.28-.29 2.45-3.2 4.7-3.63-1.99 7.28-11.86 5.91-11.8-1.88l-3.93 6.26c5.73 1.11 14.41 4.14 14.41 11.56 0 8.33-6.46 6.22-9.56 8.13-1.39.86-5.87 11.34-11.49 10.35l8.45 26.85c3.83-8.23 8.07-16.26 12.85-23.95 2.63-4.23 13.03-16.63 14.09-19.22 1.18-2.89.88-8.3 1.84-11.86 1.44-5.34 10.46-21.44 14.81-24.12 1.74-1.07 1.73-.92 3.66-.26-7.14 9.24-15.56 18.76-16.34 31.26 3.69-3.33 24.43-23.59 27.55-23.52.81.02 1.59.71 2.11 1.32-4.64 4.47-30.24 24.39-30.79 29.36-.91 8.28 9.96 28.36 15.36 34.75 1.56 1.84 9.4 8.09 9.39 8.74-.07 2.53-13.33 2.58-15.97 3.22-.74.18-1.46.42-2.2.56 1.53 2.19-.77 1.24-1.8-.33l15.73-2.19c-.02-3.54-17.71-1.69-18.99-1.16-1.16.47-.95 2.34-1.91 3.04l-.6-2.5c-1.34-.36-25.28-.46-26.53-.02-.57.2-1.1 1.83-1.01 2.23.33 1.41 2.77 1.19 4.02 1.29 15.45 1.33 20.7-4.41 34.12 9.01-2.56-1.35-12.26-8.13-13.02-8.13h-23.92l3.03 9.37c-1.5 1.64-3.64-8.83-4.54-9.38l-.9-.62 3.16 10.85 15.6-.22c-.91-2.39-4.71-.67-6.06-1.25-.07-.03.62-1.12.06-1.57-2.35-1.85-4.65-3.75-6.72-5.92 6.97-1.24 9.12 3.89 14.53 6.88l-1.81 1.23 22.4.63c-.17-.73-1.13-1.19-1.81-1.87.66.35 3.27.89 3.52 1.36l-.84 3.56c-11.27-2.32-25.96 1.29-36.84-.6-5.82-1.01-8.02-9.61-11.01 1.29l.65 1.28h45.73c-.15 1.08-.81.89-1.52 1.01-6.58 1.1-44.28-1.16-45.76.64-.47.57-.72 5.33-1.78 6.47h45.42c.17.92-.22 1.48-1.03 1.8-2.34.92-12.75-.8-16.22.08.35 3.68-1.79-2.36-3.04 1.27l-25.61-.84c-6.39 26.38-.34 55.25 17.42 75.25 0-1-2.36-11.79 1.51-7.5 1.55 1.72 1.9 12.56 3.94 15.29-.99 3.46-23.17-6.15-16.05-7.78l8.18 2.8c-18.2-22.04-24.76-50.9-18.17-79.12h-16.34l16.9-.65 1.86-8.1-16.35-.63h16.96c-.18-1.55 1.96-6.37 1.85-7.14-.05-.37-2.87-1.17-1.85-3.49l2.41 2.5c.68-3.52 4.17-7.12 4.1-10.78-.03-1.52-8.12-27.68-8.9-28.97-3.14-5.25-8.28-4.74-10.22 1.17l11.98 34.83-1.46-1.31-20.33.06v8.76h4.24l-1.81-1.87c6.08.42 16.58-3.4 19.98 2.49l-23.54-1.01-.09-9.34 21.81-.28c-1.17-.78-1.53-5.62-1.82-5.62h-21.2l20.59-.63-8.8-25.01c-7.58 1.31-15.46 1.23-17.25-8.13-12.91 10.03-28.82.04-16.95-15.01.84 3.09-1.56 3.05-2.45 5.91-4.03 12.91 11.75 15.11 19.11 7.87 2.84 6.79 9.73 12.13 16.56 7.1l-2.71-8.95.7-1.29c10.3 2.63 14.28 13.54 24.14 3.05 1.29-1.37 2.42-5.06 3.21-5.62 1.35-.96 4.05.42 6.56-1.81 8.04-7.13-4.78-17.39-12.43-15.02l3.63-7.5c-7.07-.63-7.36-9.61 0-10.63-2.33-.46-4.82-3.48-7.02-3.75-1.82-.23-5.81 1.62-6.29 1.24-.11-.09-.05-1.93-.69-2.72-8.26-10.21-20.19-3.69-21.7 8.1-11.7-3.82-26.31 3.53-23.5 17.93.39 1.99 2.31 3.96 2.89 6.09Zm71.47-28.76c1.04-1.12 3.08 4.8 6.07 2.73 2.73-1.88.21-6.93-2.79-7.1-4.55-.26-8.63 8.8-2.68 6.24.2-.2-.87-1.58-.61-1.86Zm13.78 2.65c-.85-1.02-4.64-1.8-5.64-.18-1.77 2.03.7 4.26-.85 7.08-1.14 2.09-5.54.78-6.68 3.56 2.84 1 6.14 3.34 9.08.95 1.42-1.15.93-2.57 1.56-3.39 1.38-1.8 5.87-4.01 2.53-8.03Zm-31.55 1.83c-2.68.95-1.36 5.9 1.85 6.64 7.06 1.64 4.54-8.9-1.85-6.64m30.48 32.42c-4.58 1.73-26.6 39.07-24.83 40.64l44.81-1.88c-10.15-10.15-18.8-23.87-19.99-38.76Zm-29.07 41.27c-.29-5.63-2.43-10.84-4.08-16.1-1.36-4.34-2.21-10.77-5.6-13.91 3.42 9.9 5.41 20.45 9.68 30.01" style="fill:url(#linear-gradient-2)"/><path d="m230.87 605.89.89-5.63c1.65-2.93 3.44 12.73 3.35 13.47-.12.92.33 1.04-.92.94s-15.84-13.23-9.19-11.79l3.44 3.02c-10.24-26.36-2.21-63.53 12.84-86.49.73-1.12 2.19-4.74 3.81-4.18 1.58.55.28 1.32.07 1.92-2.75 7.78-9.41 16.29-12.48 25.27-6.81 19.88-10.27 43.71-1.8 63.48Z" style="fill:url(#linear-gradient-3)"/><path d="M400.34 547.83c.56.97 0 3.71.2 4.2s2.04-.19 2.39 1.64c.48 2.52-1.55 10.2-1.31 14.41.06 1.09 1.92 1.4 1.69 2.48-.07.36-3.02 5.3-4.07 4.06l.6-4.37c-3.5-2.22-11.65 3.69-12.92 3.64-.45-.02-7.86-3.41-8.15-3.76-.18-.21-1.43-4.37-1.94-5.19l3.03.29.61-18.14c2.36 1.13 19.3-.27 19.87.73Zm-12.61 1.79 11.49-.32-18.16-.32c1.17 8.46-5.59 21.33 6.06 23.14-.17-5.75-2.7-11.23 0-16.88l-3.32 1.24-.94-1.58c2.78-6.67 5.6-2.14 10.63-3.39l.6 1.23c-4.49 1.24-.04 2.93 2.71 1.26l-1.74 1.63-.69 12.74c-1.89.25-.95-.33-1.07-1.37-.15-1.32 2.24-16.25-2.64-10.77-.72.81-1.47 13.57-2.95 15.89 4.32-1.94 7.69-3.94 12.72-3.12l1.81-15.01c-3.56.32-4.34-.29-6.37-1.85-.24-.18.37-1.25.32-1.28-1.69-.82-7.14 1.43-8.48-1.25Z" style="fill:url(#linear-gradient-4)"/><path d="m406.41 621 2.55 19.02-12.76 1.53.18 6.11-20.17 2.02-1.18-21.87c.33-.42 8.25-.26 9.1-.92 1.06-.8.03-2.74.95-3.53 1.17-.99 18.35-2.02 21.33-2.37Zm-.51 1.15c-2.59.97-19.95 1.68-20.59 2.51-.14.18.08 1.35 0 1.86l17.56-2.49-9.68 2.5 1.2 1.24-18.2.91.64 19.73 18.51-1.83c1.06-3.24-2.51-17.95.07-19.32 1.48-.79 6.77-.62 8.67-.73l-8.48 1.87v2.5c1.83-.53 8.9-1.89 9.09.62-1.92 1-11.61-.7-8.22 3.01 2.7-.42 6.49-2.29 8.82-.19l-9.08 1.56c.02 3.4 7.6-1.43 9.09.93-2.18 1.56-8.17.53-9.09 3.44l12.11-1.25-2.42-16.89Z" style="fill:url(#linear-gradient-5)"/><path d="M217.54 466.43c-1.16-2.02-12.93-9.16-12.69-10.29 1.26-6.05 14.08 4.56 17.54 3.41l-.78 1.13c-1.54-.52-5.87-2.32-5.88.73l36.33 19.72c.13.93-.63 1.44-1.46 1.53-4.52.51-22.29-12.47-27.59-14.08-8.04-2.45-16.84.46-23.96-.91-1.02-.2-1.01.31-.9-1.25h19.38Z" style="fill:url(#linear-gradient-6)"/><path d="M431.31 449.58c-3.01 6.76-2.43 34.91-5.43 39.05-5.36 7.41-23.79-.66-31.47-.36l6.08-42.43zm-1.18 1.22-29.07-3.76-4.85 40.02 23.31 4.39 1.53-6.26 4.23 1.87z" style="fill:url(#linear-gradient-7)"/><path d="M387.72 221.89v8.76l16.36 1.88-4.83 31.23c.59.95 20.14 3.63 14.9 8.1l-14.94-4.69-3.01 12.25 6.67-46.27c-4.54 1.47-16.62-5.47-15.86 2.69-3.99 4.03-2.56-4.13-2.92-4.57s-9.98-.93-11.54-1.62l-6.58 43.46 27.2 5.68-28.51-4.74 6.4-44.03c1.57-3.06 10.14.95 13.06-.27 1.5-1.17-.98-8.44 3.59-7.86Z" style="fill:url(#linear-gradient-8)"/><path d="m259.33 440.16-4.84 2.18 6.67 8.15-28.82 9.67-12.99-19.67 12.74 19.07 27.24-10.31-6.4-7.24-3.28 1.3 1.81 1.86-20.59 5.63 4.24-2.49c-7.86 2.64-10.44-3-13.32-9.39l6.94 8.52 28.79-9.15 1.81 1.86Z" style="fill:url(#linear-gradient-9)"/><path d="M439.2 510.84c-2.02 4.68-13.94 13.18-18.42 13.09-3.73-.08-22.98-10.91-22.15-14.02 2.41-1.81 5.59-.63 8.51-1.23 1.92-.39 9.91-3.38 10.47-3.34 3.1.23 14.9 9.26 21.59 5.5m-1.81 1.25c-5.91 3.27-16.89-5.32-19.78-5.49-2.99-.17-11.93 5.77-16.55 3.61-2.46 2.06 17.5 12.51 20.9 12.43 2.68-.07 13.44-7.78 15.43-10.55" style="fill:url(#linear-gradient-10)"/><path d="m469.49 492.7-11.93 15.52-26.83-9.28 13.72-12.35c8.14 3.24 16.14 6.35 25.04 6.11m-1.82 1.26c-8.33.4-15.5-3.88-23.22-6.19l-10.7 11.18 23.85 7.98z" style="fill:url(#linear-gradient-11)"/><path d="M146.17 365.65c.48.34 1.65 0 2.33.09.92-2.7-1.88-1.54-1.81-2.18.19-1.64 3.11-.24 2.93 1.35l-.87 1.42-5.69.66c1.89-1.78 2.8-1.97 0-3.74l-.29 1.89h-1.24c-3.33-5.34-3.05-13.26 4.86-12.59 8.9.76-3.54 10.76-.21 13.1Z" style="fill:url(#linear-gradient-12)"/><path d="m235.1 403.89-.05 9.96c-9.53 2.74-10.59-.97-9.03-9.96z" style="fill:url(#linear-gradient-13)"/><path d="M251.29 600.97c5.58-1.02 11.6 19.64 1.6 20.43-9.43.74-7.57-19.33-1.6-20.43m1.99 18.68c7.04-2.3 3.33-14.97-1.52-18.12-4.66 4.53-8 16.63.9 18.12l-3.02-4.68 3.62-.64c-4.88-2.27-5.22-5.81-1.5-9.68 6.87 7.69-1.44 1.14-.24 5.23.31 1.07 3.95 1.7 3.93 3.83-.02 1.69-2.86 3.64-2.17 5.93Z" style="fill:url(#linear-gradient-14)"/><path d="M241.77 552.74c2.29-1.19 12.4-1.41 14.62-.92 9.86 2.15 3.26 23.03 5.37 25.31.31.33 2.65-.38 3.32-.64l.31 1.25c-.95 1.21-14.33 3.09-16.62 3.17-12.26.41 10.86-3.5 12.39-3.17v-20l-4.85.62v-5.63h-14.54Z" style="fill:url(#linear-gradient-15)"/><path d="M198.46 490.21c2.36.09-4.11 9.14-4.57 10.28-1.97 4.88-3.09 11.46-2.67 16.71.24 2.93 4.15 6.46.57 9.26-3.92-2.63-1.46-5.66-1.54-7.2-.6-11.57-.17-20.34 8.2-29.04Z" style="fill:url(#linear-gradient-16)"/><path d="M391.35 295.12c-.42 7.29-.46 10.51-8.81 6.85l1.19-7.58c1.82-1.55 5.55.3 7.62.74Z" style="fill:url(#linear-gradient-17)"/><path d="m225.41 473.31-3.63-3.75c4.7.84 6.18 6.24 5.14 10.32-1.19 4.63-4.46 1.48-5.74 2.84-.55.58 1.55 14.3.29 16.23l-.9-16.26-30.26-.32 34.97-.75.75-7.07-32.1-1.25h31.49Z" style="fill:url(#linear-gradient-18)"/><path d="M246.56 234.34c-6.71.37-.81-6.42-.64-8.54.39-4.93-6.58-1.52-4.76 2.98-9.26-1.63.43-14.01 6.99-9.41 6.5 4.56-1.09 9.84-1.59 14.97m-1.17-.57c.07-4.97 7.36-8.25 2.46-12.84-4.26-3.99-11.73 2.32-7.91 6.59-.45-6.01 7.96-8.36 7.27-1.62-.23 2.24-4.21 5.23-1.82 7.87" style="fill:url(#linear-gradient-19)"/><path d="M381.27 241.09c.23.67 2.28 2.71 1.61 4.56l-9.69-.63c.41-2.59 4.62-13.71 7.58-8.13.67 1.27.04 2.83.5 4.2" style="fill:url(#linear-gradient-20)"/><path d="M512.9 347.81c3.3 3.36.15 7.01.4 8.87.28 2.09 5.52 5.09-1.12 9.68-2.61-.65 2.09-2.75 2.19-5.31.14-3.72-2.27-2.34-2.51-3.16-.41-1.4 2.69-5.3.68-8.77s-6.48-.78-6.1 2.85c-1.37 1.12-2.89-5.55-5.39-2.13-1.78 5.2-2.41 13.06 2.68 16.49l2.72-3.72c-5.11 16.55-12.24-16.53-3.33-15.05 3.48 5.81 4.84-4.82 9.8.24Z" style="fill:url(#linear-gradient-21)"/><path d="M213.91 407.02c1.09 9.86 2.31 19.74 6.66 28.76-4.91-1.42-5.12-17.21-6.13-18.68-.23-.34-4.95-1.39-5.36.24l9.06 20.95c-2.25-3.84-9.91-17.59-10.06-21.24s3.86-1.3 5.82-1.27v-8.76Z" style="fill:url(#linear-gradient-22)"/><path d="m378.03 336.34 23.67 2.83 6.01-17.21-5.23 18.04z" style="fill:url(#linear-gradient-23)"/><path d="m241.77 553.99 1.5 22.52 11.23-.32c-5.12.47-13.42 5.68-15.16-1.87l2.43-.32z" style="fill:url(#linear-gradient-24)"/><path d="M246 397.63v6.25c-1.39-.47-.05-3.28-.87-4.41-1-1.4-26.82 1.58-30.63.66v6.25c-1.7-.96-1.83-6.66-.21-7.41z" style="fill:url(#linear-gradient-25)"/><path d="M410.12 245.04c3.25 7.02 8.25 15.87 6.37 23.74l-7.58-23.43 1.21-.32Z" style="fill:url(#linear-gradient-26)"/><path d="M491.9 407.01c-.33-1.7 3.07-2.02 4.12-2.31 3.07-.86 15.52-1.95 16.62-2.69 1.18-.79.95-2.56 1.07-3.75 2.8-.07.63 3.08 2.32 4.8l-.81 1.44c-7.02-3.12-16.16 1.31-23.32 2.51" style="fill:url(#linear-gradient-27)"/><path d="m519.15 412.03-18.42 11.23-21.55-12.48 22.11 11.21z" style="fill:url(#linear-gradient-28)"/><path d="M130.92 388.25c.16-.06.78-3.24 2.44-2.49-4.61 4.79 2.19 5.22 5.04 7.61 5.75 4.81 5.25 14.92-2.62 16.15.16-2.24 2.22-.85 3.77-3.29 3.31-5.22.54-12.56-5.59-13.59 5.88 8.14-10.21 13.65-2.43 18.13l1.82-5c1.24 5.53-3.35 10.24-5.45 3.13-7.18 7.25-21.32-1.03-13.03-10.03.99-1.07 9.71-5.89 11.58-6.8 1.52-.74 5.39-.21 5.09-1.61-7.47-7.9-25.02.61-19.37 12.18-3.92-1.48-1.84-8.13-.26-10.58 3.29-5.08 9.56-6.03 14.92-5.5 1.25.12 3.89 1.78 4.1 1.7Zm-4.83 16.88-6-1.6-.06-6.52c-15.02 6.83 1.58 21.18 8.48 8.44l-1.82-.62c4.09-2.15.95-6.13-2.14-7.17-1.75-.13-1.55 7.49 1.54 7.47" style="fill:url(#linear-gradient-29)"/><path d="M414.37 452.05c2.69 5.35.66 9.41-1.2 14.38l12.72 1.26c.16.13-.33.83-.6.95-1.12.49-23.27-2.06-24.23-2.84-3.59-2.88 10.1-.88 10.9.63-.39-5.07-4.07-12.01 2.42-14.38Z" style="fill:url(#linear-gradient-30)"/><path d="M425.28 474.57c-.26 1.14-1.08 1.19-2.02 1.2-5.75.09-16.27-3.04-22.2-4.33z" style="fill:url(#linear-gradient-31)"/><path d="M425.27 470.82c.24.24.22 1.7-.84 1.19L400.44 468c2.9-1.29 23.91 1.92 24.83 2.82" style="fill:url(#linear-gradient-32)"/><path d="m421.64 521.46 1.82-2.49c-1.86-.41-3.28 3.26-4.24.63l3.63-2.51-6.05 2.49 4.23-3.74c-14.66 6.54-1.69-3.37 2.79-3.75 1.1-.09 6.78 1.42 6.89 2.18l-9.07 7.18Z" style="fill:url(#linear-gradient-33)"/><path d="M298.69 385.13c-14.56-15.99-23.85-37.97-27.85-59.41 6.55 21.71 15.56 40.62 27.85 59.41" style="fill:url(#linear-gradient-34)"/><path d="M292.29 310.42c5.1 4.72 9.32 11.6 14.74 16.57.57.52 1.75-.05 1.88.06.21.18.07 1.66.66 2.17.49.42 1.73-.44 1.81-.37.39.33 3.08 5.74 6.08 6.23-12.09-3.95-19.96-14.89-26.64-25.33-.07-2.14 1.14.37 1.46.67Z" style="fill:url(#linear-gradient-35)"/><path d="M396.81 395.76c-1.98 1.09-3.99 2.6-6.11 3.54 5.12 16.51 6.36 34.55 2.88 51.6-2.03 9.94-4.91 8.29-6.94 12.84-1.15 2.58-.11 8.21-.84 10.39-.38 1.13-2.13 1.22-2.69 2.6-.68 1.65 1.4 13.77.96 16.84-.59 4.13-9.26 16.8-12.71 18.18-3 1.19-4.07-.93-6.64-.29l5.49-36.55c-5.29-2.19-.55-9.22-1.84-13.06-.15-.46-2.87-1.32-4.1-3.41-2.12-3.6-2.51-11.55-4.33-16.2-.34-.88.56-1.81-1.28-1.45 12.48 41.6.76 85.03-.63 127.24-.38 11.59 1.2 23.81.62 35.03-.68 13.14-5.26 28.25-4.86 41.27.1 3.34 3.41 9.34 3.06 9.71-1.02 1.06-3.97-2.05-1.83 5.01l-3.33-4.37-.3 3.75-3.02-3.12c1.2 3.03-1.02 9.45-.04 12.11.24.64 3.22.91 4.1 1.83 1.28 1.34 1.42 5.27 2.7 7.53 6.25 11.03 25 13.4 25.92 27.01.31 4.61.23 8.6-3.97 10.87-.87.47-9.85 3.01-10.75 3.07-.82.06-1.84-1.51-2.51-1.55-.4-.02-1.26 1.21-2.37 1.05-5.56-.8-16.22-5.84-20.69-9.35-1.65-1.3-.52-3.52-2.99-3.19-.29.04-.04 2.06-4.59.34-6.67-2.52-6.4-5.89-5.94-12.43.89-12.55 6.93-26.03 2.98-38.9l-2.46-.27v4.38l-1.52-3.13-2.12 3.13c1.81-2.65.38-7.63-2.42-6.25.81-3.28 4.1-4.05 4.26-7.76.42-9.66-6.94-27.86-7.88-39.47-1.15-14.16 1.15-28.86.61-43.16-.91-24.29-6.15-49.55-6.38-74.1-.31 25.04-6.14 49.81-6.12 74.85.01 12.86 3.15 26.48 2.81 38.7-.24 8.72-3.21 18.27-4.18 26.95-.33 2.93-1.69 15.46-1.32 17.42.53 2.85 3.28 4.04 4.27 6.57-3.88-1.35-1.72.6-3 1.64-.58.47-1.68-.58-1.84-.38-.69.89 2.8 4.83.9 6.25l-2.71-4.37c-.81.49-1.8 15.02-1.26 16.49.28.77 1.93.17 2.39 1.4.6 1.62-.23 5.85.09 8.04.79 5.36 4.93 20.08-.07 23.73-3.61 2.64-6.97 1.01-8.25 1.39-.63.19-8.37 6.88-10.54 7.98-3.43 1.73-15.59 4.46-18.84 3.99-3.96-.57-12.3-3.23-13.16-7.72-3.65-19.06 18.57-20.03 26.13-32.98 1.34-2.3 1.36-5.45 2.61-7.31 1.09-1.63 2.98-1.16 3.37-2.8.18-.75-.29-11.15-.66-11.59-.23-.28-1.93.88-2.65.57-.77-.32-.71-1.58-1.42-1.83-3.45-1.2-2.48 2.65-5 3.76.06-1.75 1.79-4.17 1.24-5.93-.29-.94-1.81.59-1.86-1.26-.04-1.51 2.27-3.11 2.44-5.61.6-8.83-5.02-26.3-6.04-36.32-1.22-11.99-.29-24.22-1.25-36.24-2.45-30.75-7.39-61.32-7.26-92.26-23.63 21.09-43.15 49.85-56.42 79.01-15.92 34.99-21.26 70.97 7.07 101.11l-1.51-10.62c2.49-3.05 5.75 15.11 7.6 16.26-.61 1.91-6.29-.54-8.07-1.09-8.51-2.64-18.97-9.77-1.96-4.85-32.15-37.07-18.55-78.54 1.6-117.19 3.96-7.59 10.31-15.09 11.74-23.22 1.15-.33.14 2.56 1.19 1.87s11.8-17.05 14.24-20.01c7.65-9.3 16.23-17.9 24.82-26.28.81-18.48 4.79-36.59 9.4-54.39-6.49 1.76-10.21-5.76-12.95-10.71-4.38-7.91-7.47-16.19-5.24-25.53-6.49-.39-22.37-11.48-27.08-11.8-4.08-.28-8.81 7.53-13.48 4.88l9.67-7.18c-2.13-.57-12.25-8.33-13.01-8.31-.6.02-7.41 6.37-8.56 7.32-5.76-1.52 6.14-7.82 5.83-9.01-32.05-21.87-46.15-59.28-34.18-97.86 1.27-4.11 9.11-18.44 9.27-19.88s-1.7-3.88-1.12-4.54c.16-.19 3.53-.2 4.8-.99 1.75-1.1 9.73-11.81 13.09-14.62 4.33-3.62 9.5-6.94 14.81-8.79l-9.88-.09c-1.12-.23-1.33-2.39-1-3.01.48-.9 17.49-.46 19.97-.63-1.09 2.03-8.3 14.89-9.06 15.34-.5.29-.96.41-1.53.29-2.81-.89 3.02-8.57 3.93-9.99-10.09 3.35-18.25 11.34-24.83 19.7 3.37-.41 8.57-.55 6.93-4.69 2.9-3.75 4.9 1.08 6.72 1.27 2.28.23 7.87-3.51 10.89-2.57l2.7 6.3-2.46-5.59c-4.14 1.02-27.34 6.13-28.11 9.25-.26 1.08.65 3.14.28 4.46l-1.82-1.87v2.49l-1.8-1.24 1.82 8.75-.62-4.99 8.48-1.88-7.27 2.5c1.21 8.5 4.68 2.58 6.76 2 1.01-.28 3.81.65 6.21-.68.64-.35.24-1.86.36-1.95.33-.26.98 1.2 1.85.98 3.32-.85 7.11-1.63 5.42-5.35 1.8 3.27 6.6 1.63 4.84-1.87 2.66 1.25 6.53 2.76 7.86-1.25l4.24 13.75-3.3-6.72-4.52 1.78c-.32 5.57 3.08.87 6.01 3.06-3.1 1.16-9.2 1.02-10.91 4.38-2.33-1.08-1.04-2.87-1.81-4.99-2.47 2.1-8.24 1.08-6.04 5l5.43-1.24-5.45 2.5c2.89 1.13.61 3.66 1.21 4.37.28.33 7.7-1.95 7.27-3.74l3.62 1.24-26.64 8.76-6.06-20.33c-22.98 39.01-10.7 87.95 26.65 111.41 4.03-2.77 28.91-17.43 31.83-14.18l.27 1.9-29.07 13.78c-.27.73 11.97 8.3 12.71 8.41 1.87.27 26.57-14.85 31.51-14.97 1.14-.96.49-1.55.02-2.54-1.81-3.85-18.46-15.62-22.76-19.65-16.1-15.09-39.27-42.17-21.73-65 3.81-4.96 39.64-29.19 44.75-29.48 2.88-.16 5.86 1.38 7.75 1.15 2.79-.33 7.55-5.88 11.68-4.8l-.34-10.7c-2.79.83.13 7.74 0 10-3.64-2.59-2.65-8.6-2.02-12.42 1.85-11.18 11.67-24.73 19.59-32.3 23.02-22.04 34.65-21.27 52.32 6.02 6.77 10.46 13.71 30.13 11.82 42.71-.51 3.38-3.38 6.07-3.44 8.63-.11 5.21 8.5 11.65 9 20.19.02.31-.48 6.16-1.87 5.94 1.17-8.67-4.08-13.72-8.48-20.01.23 10.38 12.67 14.59 4.84 26.26l4.22-5.62c-1.07 8.55-12.13 9.18.6 16.57-1.1 2.51-5.46-.87-6.04-.31 2.65 6.03-3.13 7.47-5.45 11.24 12.84 4.59 18.12 17.2 22.42 29.4l7.23-40.39 29.32 4.16c.36-.26.99-2.05.99-2.23v-11.88c2.81-2.76 1.81 1.49 3.02 2.81l3.35-11.25c11.54 5.1 21.93 15.21 26.99 27.14l-2.47 1.63c-4.12-11.59-13.99-19.65-23.95-25.63l-2.1 11.24c10.24-11.94-1.56 9.32-3.43 9.94l-30.51-4.01-7.69 39.93c.87 2.32.47 4.79 3.47 4.81.21 1.27-1.64.12-1.8.92-.33 1.66 4.2 12.93 3.63 15.96 23.4-9.03 45.27-21.71 66.51-35.13l-2.84-14.09 2.6-2.04 3.67 13.11c25.69-19.84 50.09-60.09 28.3-91.76-12.55-18.24-41.14-26.27-61.92-25.51l-.6.94c1.61-.87 9.24 5.55 5.15 5.65-.79.02-12.37-6.14-14.21-6.64-.26-1.75 12.31-8.44 13.32-8.06 4.32 1.62-4.86 4.1-4.86 5.93 26.06-2.79 60.29 9.22 70.77 36.05 11.26 28.83-5.22 58.6-25.05 78.37-2.2 2.2-10.46 7.54-11.43 9.4-.36.69-.77 12.8-1.28 15.66-3.17 17.94-13.14 33.62-25.76 45.95l28.18 18.3c1.44-2.28 14.95-12.15 15.34-13.09.79-1.87-5.07-8.76-.82-13.03 5.09-5.11 12.22-1.06 17.26.63-4.65-1.61-17.76-4.35-17.52 3.97.23 8.08 8.62 14.89 13.41 6.48 7.12-12.5-14.4-10.56-10.41-4.82 4.74-5.97 13.63-2.23 8.48 5 3.64-10.89-11.22-7.98-6.97 1.25-3.74-4.52-4.44-11.99 3.02-12.2 9.98-.29 10.73 8.76 3.95 14.4 6.1.32 7.56-9.17 6.05-14.08 2.92.98 4.63.9 7.26 1.87h-6.06c.6 6.82-.13 13.43-8.17 13.81-2.52.12-8.93-2.42-9.4-2.32-1.04.23-13.13 11.08-13.31 11.97l19.64 4.09 5.18 3.09c-2.06.44-11.63-1.31-7.27 4.7 2.32 3.2 27.52 12.05 31.91 16.45l23.21-13.64-23.2 14.9c-3.84-.46-32.48-18.87-33.72-17.4-.62.73.26 2.34.97 3.06 1.41 1.43 30.72 16.88 32.54 16.8 3.26-2.62 28-15.3 28.85-16.77.41-.7-.12-2.02-.9-2.47l-3.32 1.25 3.61-2.84.03-1.23c-4.26-1.55-4.66-3.57-9.09-.94.97-2.04 3.98-2.23 5.45-3.12.03.29-.8.95-.61 1.24s5.89 2.23 6.06 2.53c.32.59-2.32 2.86.33 5l-30.36 18.74c-1.91.09-31.31-14.94-33.26-16.87-3.22-3.17.13-5.02.3-8.76l-10.29-.63c31.94 32.45 28.05 74.85 7.91 112.82 4.93 4.35 22.09 7.75 9.05 14.77l3.32-.02.31 1.25-27.25 10.64c5.15-.31 11.74-2.81 16.92-4.72 2.92-1.08 8.54-2.56 9.73-5.27l.62 4.58c-5.68 1.36-18.43 9.99-23.16 10.63-3.05.42-5.28-2.94-7.75-1.79-1.97.92-9.12 13.31-13.31 14.12 15.62 24.04 19.4 61.32-9.7 76.29l8.67.1.74 2.42c-2.47.25-18.12 3.47-17.66-.07.12-.91 9.54-12.85 10.96-14.34 3.2 1.64-3.1 7.74-2.71 8.12 25.41-13.93 22.03-48.69 7.58-69.9l-20.9 13.01c-.14 1.69 19.88-2.58 12.74 2.85-.9.69-19.81.75-22.44.89-1.36-1.29 11.61-15.29 12.44-18.13 5.26-1.09-3.81 11.17-5.17 12.19-.06 1.78 21.21-11.95 21.76-14.39-8.09-10.23-18.07-19.45-29.08-26.22-8.06-4.95-17.06-8.75-25.78-12.19-.31-.12-7.19.39-5.06-2.54.55-.75 10.29 2.16 11.67 2.63 18.76 6.49 38.23 19.85 49.58 36.66 2.14 1.03 11.85-11.38 13.25-13.96-12.29-4.49-9.66-9.56-9.1-20.95.93-1.08 23.9-5.06 26.94-8.16 2.8-2.86 12.74-31.74 13.83-37 9.84-47.6-20.15-77.73-58.13-97.32-5.48 3.32-10.29 7.66-15.76 11.01-2.13 1.3-4.87 1.87-6.24 2.62.47-1.07-1.44-2.03-1.21-2.49.55-1.08 18.38-9.38 19.98-13.13l-33.3-13.76 7.3 29.36c3.11.07 4.3-2 7.24.03Zm-93.87-212.64c-.12 1.26-7.57 12.96-6.66 13.75 7.26.61 4.61-8.72 9.39-12.5l-3.34 11.26 5.42-.68.95-6.83c.22 5.78-2.6 7.21 4.54 7.51l2.44-14.38-1.82 14.37 6.23.66c.42-.14 1.04-1.37 1.04-1.59v-14.07l.89 15.64 7.86 2.55 1.54-1.29c-1.6 1.74 1.19 2.99 1.81 2.5.75-.59-.02-5.48 1.21-6.25-1.36 3.84 1.45 5.02 1.85 5.99.11.28-.83 1.55-.62 2.14.07.2 3.71 1.28 3.92 1.25 3.84-.55-6.06-23.49-10.17-26.39-10.08-7.12-19.42-1.69-26.46 6.37.05-.49.19-1.31-.3-1.25-5.09 4.81-9.63 10.26-12.42 16.88 6.49.07 5.74-5.71 8.38-10.42 1.5-2.69 2.61-3.24 4.34-5.21Zm44.81 25.01c-2.07-9.72-5.26-18.3-12.71-25.01.93 3.74 3.48 6.88 4.67 10.49 2.24 6.81-.51 11.49 8.04 14.52m-.6 16.58c.45-3.55-.33-7.92 0-11.57.98 2.85 1.42 6.65 1.19 9.68-.49 6.4-5.51 9.12.93 13.45 6.08-12.91 5.68-21.68-6.55-29.5-13.13-8.4-30.18-12.05-45.36-8.46-16.23 3.84-18.27 10.68-16.22 27.34 7.5-4.67 2.19-15.22 6.06-22.51l-.92 17.5c7.42-4.43 4.52-11.36 6.98-18.75l-.31 13.74c3.81-3.03 9.59-3.41 14.25-2.76l1.81-12.86-.35 13.16 12.48 3.45 1.79-15.99.12 16.77c5.19.8 7.79 4.59 12.18 7.15.92.54 2.38-.41 2.85-.15.61.34-.64 2.94.9 2.5 3.64-4.96 1.3-11.36 2.73-16.88 2.2 5.95-1.47 12.67.61 17.5l-1.8.31 4.22 4.08c.34-.14 2.32-6.26 2.43-7.19Zm-69.64 5.31c5.01-1.19 1.67-9.13 1.89-12.75.24-3.95 1.25-7.87 2.34-11.64-6.42 6.24-6.66 16.16-4.23 24.39m29.66-15.62c-15-2.27-22.78 10.63-30.77 20.93l6.54 9.41c7.44-.38 8.73-10.62 13.97-14.36 3.98-2.84 8.89-2.14 12.67-5.05l-13.06 2.17-.87-1.22 19.98-5.33-1.24-1.31-20.55 3.5c6.36-4 14.05-3.98 21.19-5-7.12-3.55-16.52.54-23.62 3.13l15.74-6.86Zm47.22 26.24c2.36-7.46 2.86-16.89-1.18-23.75 1.17 6.7.81 14.67-2.92 20.42.65 2.6 1.75 3.12 4.1 3.33m-65.99 7.53c2.51 25.47 29.6 46.83 45.35 17.11 1.3-2.44 9.01-19.39 2.2-17.74-2.25 1.72 2.67 2.8 1.89 5.02l-2.17 2.23-2.14-.37c-2.02-2.14.39-5.18.17-6.48-.06-.33-3.1-3.97-3.74-5.48-4.2-9.99 4.94-23.39-12.18-24.96-1.88.09-.37 2.92-1.21 4.41-.74 1.32-3.84.87-4.54 2.19l1.2.93c-3.61 3.84-14.62 4.48-17.3 8.71-1.93 3.05.54 2.68.86 4.88.47 3.33-5.21 8.78-8.39 9.56Zm-9.69-5.01c-1.65-1.94 1.01-5.21-4.85-2.51l2.42-2.19-.94-1.55-10.41 5.28 1.02 2.58c3.74-.82.6.32.63 1.83.12 5.43 9.83-3.62 12.13-3.44l-9.69 6.87c2.77-.83 3.83-.03 2.71 2.5l8.79-4.99-6.05 4.38c1.89 4.26 9.12.7 8.46-4.02-.43-3.09-3.39-3.76-4.23-4.75Zm-13.92 6.88c-2.18-2.25 3.19-17.49-13.9-9.65-4.54 2.08-34.03 22.57-37 26.21-24.13 29.65 22.9 65.02 42.11 81.62 3.28.7.5-30.14-1.5-33.46l1.19-.3 4.24 23.78-1.21 1.86h1.82c-1.71 1.96-1.59 6.16.01 8.13-3.67-.29-.46 1-.62 1.87-.01.06-1.13-.15-1.2.43-2.88 20.99-9.49 45.09 3.14 62.95 3.76 5.31 8.54 9.97 10.79 1.06-.62-.6-4.58 1.97-4.23-1.25l13.92-6.58-10.9-1.88c7.29-6.95 17.61 1.37 26.04 1.26-2.31-1.32-2.29-4.18.25-2.85 1.36.71.21 3.66.35 3.78 1.18 1.06 13.43 1.57 16.04 2.51 6.55-1.61 13.8-1.93 20.17-4.2 4.14-1.48 10.52-6.2 14.01-6.73.96-.15 3.86.65 1.86 1.9-3.13-.38-6.17 1.59-8.46 3.72l6.65 2.81h-11.5c8.53 3.08 20.16 14.63 24.81-.38 1.26-4.07.02-6.9-.44-9.93-.29-1.91-3.12-12.49-2.57-12.81.14-.08 2.9-.09 3.03 0-2.68 4.33 2.31 10.86 2.9 15.5.39 3.06-1.02 8.79-2.63 11.35-2.64 4.22-6.5 3.01-6.31 8.42.22 6.17 6.68 29.96 8.87 36.53 2.39 7.2 6.81 3.42 11.44 3.3.26 0 .21 1.03.55 1.04 5.43.12 2.19-.69 2.73-1.1 1.17-.9 1.25 1.41 2.69 1.95 9.38 3.5 10.41-9.8 11.17-16.11 4.39-36.58-13.79-75.43-19.78-111.37l-1.65-.82c-1.47 3.87-9.06 10.93-9.83 14.24-1.31 5.61-.26 16.87-1.25 23.68-.91 6.25-2.7 14.22-5.55 19.63 4.8-18.66 4.69-37.12 4.24-56.28 3.36.69.51 9.65 2.72 9.99l9.97-14.09c-4.26-17.51-15.28-26.99-30.68-33.94-11.78 11.56-29.46 14.53-43.03 4.42-2.91-2.17-7.79-9.47-9.07-10.09-1.05-.5-1.9 1.15-3.48-.68-1.61 1.63-1.63 1.83-1.55-.65l-28.79-6.3-12.09 15.06 9.99-15-24.22 9.37c8.82-6.93 20.8-6.57 28.46-15.64.5-2.29-13.91-.29-15.13-3.11 5.86-.5 12.65 1.59 18.43.57 5.43-.95 12.6-9.32 11.83-15.22-.53-4.08-2.86-2.67-3-2.87-.23-.34.71-1.46.48-1.78-1.19-1.6-4.42-1.9-3.52-4.47-.26-.28-1.63.81-1.81.62Zm77.29 2.27c2.3-2.16 5.46-9.09 1.14-10.42l-3.79 5.31.45 6.58c.11.13 1.88-1.19 2.19-1.48Zm11.72 22.74c2.08-7.96-6.32-9.76-8.17-16.25-3.98 4.83 1.51 5.89 3.92 9.07 1.74 2.3 2.66 4.84 4.25 7.17Zm-70.84-13.75c-.09 0 .36-1.58-.6-1.24-.48.17-6.29 7.31-6.57 7.92-5.04 11.16 3.36 10.55 8.96 14.3 2.21 1.48 2.85 4.24 4.86 5.29-.65-9.2-8.27-5.54-8.93-13.59-.55-6.69 2.12-8.57 3.79-13.92-.48.36-.9 1.25-1.51 1.25Zm72.66 30.01c.58-3.77-3.38-5.18-4.09-8.59-.78-3.75.45-6.99-1.23-11.24-.52-1.32-6.36-8.2-7.37-8.31-.1 0-1.25 1.45-1.22 1.55.9 3.1 12.08 9.57 7.27 17.2l1.2-1.24c-.98 5.02 2.67 7.32 5.45 10.63Zm-12.7-7.5c5.86-6.21.57-14.02-6.06-16.26l3.03 15.63c2.66-1.86 2.08-5.43 2.11-8.13 1.98 2.6 1.54 5.82.92 8.75Zm-72.5-3.95c-1.84-1.81-2.31-5.1-3.52-7.3-3.61 2.89-9.66 2.42-10.61 8.12l17.77 4.43 1.61-3.8c-1.33 1.14-4.21-.42-5.25-1.45m31.92-1.67-1.09 11.48c8.03 8.08 20.16 9.9 28.92 1.97-3.68-4.5-3.93-9.71-3.62-15.33-7.58 7.01-15.62 7.27-24.21 1.88m3.02 24.38 2.42-6.52c-5.9-1.88-11.07-13.52-14.86-2.85l1.24 1.23 4.54-4.36-3.29 5.64 9.96 6.86Zm23.02-6.88c6.06 8.46 7.85 4.08 2.05-2.45l-6.28 3.39c3.39 8.45 9.08 8.7 4.23-.94m-9.09 2.51-10.89-1.88c-.31 4.81-5.57 6.56 1.2 8.13l1.82-6.25c-.11 4.11-3.48 7.14 2.43 6.88l1.21-6.25-.31 6.27 5.16-.02-.6-6.87Zm6.65 5.6-2.41-6.59-3.59.41c.56 5.42-1.14 8.6 6 6.18m120.53 16.29c-20.7 13.68-42.68 25.08-65.44 34.7-.88 1.02.23 6.92.96 7.8 1.93 2.36 31.92 11.6 36.63 15.35 16.44-14.7 26.12-35.41 27.85-57.85m-190.17 36.9-27.25 13.74 24.22 10.64 3.03-24.39Zm216.83 46.28-18.78-3.13.28 2.53c1.01 1.33 15.43 2.27 17.6 1.85 1.01-.2 1.01.32.9-1.25m-91.46 69.41v-9.69c0-.38-1.25-1.2-1.81-.93-.42.55.7 9.28-1.82 9.37.48-2.82 1.84-9.94-1.82-9.38-.48.67.49 10.46-2.42 10.63l1.81-11.24-5.46.36.02 5.26 3.02-5-1.81 11.25 11.77 1.16 2.16-11.78h-2.42l-1.21 10Zm-12.72 9.07c-.73 5.36.54 12.28 0 17.82 6.27 2.16 1.77-11.33 7.26-13.76 1.13.88.4 11.32-.16 13.27-.78 2.71-7 9.94-7.09 10.82-.1.99-.11 1.05.89.92 12.09-9.86 15.26-18.86 11.86-34.74l-9.92-.81c-1.11.43-2.68 5.33-2.84 6.48m93.27 36.59-24.82 7.49 15.71 10zm16.35 8.75-13.34-7.22-3.61 6.6 6.05-1.26-7.26 3.75 10.6-4.37c-1.8 5.76-12.42 3.4-14.24 10.62l21.8-8.13ZM337.41 654.73c-.25-.02-4.24 1.06-4.71 1.61-.26.75-.37 15.26-.12 16.02.48 1.45 5.86 2.57 6.69 4.21l-7.87-3.12-1.21 13.12c4.14-.57 24.66 12.41 25.98 11.87.22-.09 2.52-3.67 2.22-4.36-4.75-2.77-20.57-16.34-19-22.05 1.18-4.28 7.44-3.87 7.75-4.21.39-.44.17-10.15 0-11.87-1.92 1.19-5.85.69-8.51.39-1.22-.14-1.11-1.58-1.21-1.59Zm-38.11.58c-3.53 1.6-8.25-1.39-11.2 2.49l-.6-1.87c-3.72-.27-3.23 10.22-2.47 11.29.88 1.24 10.96 1.31 8.22 8.71 9.83.61 3.43-14.23 6.05-20.63Zm-12.33 24c.49.24.75 2.48 1.7.99 9.99-10.52-8.07-17.19-9.36-3.73 2.98-.02 5.14 1.53 7.66 2.74m66.24-2.74c.34-13.46-19.76-7.35-9.07 3.13zm-51.56 10.55-.83-13.68c-1.89 4.58-7.6 2.76-8.69 3.19-.32.13-2.89 4.9-3.75 5.86-4.31 4.78-8.79 8.97-14.52 11.9l3.32 4.67 24.46-11.94Zm30.36 1.95c14.78 5.43 20.03 14.72 37.23 13.13 1.48-.14 8.98-1.57 9.38-2.85 1.58-5.06-12.42.46-14.53.71-13.61 1.59-19.86-9.48-32.08-10.98Zm47.23 11.27c-19.28 11.2-32.94-4.61-49.97-11.25-3.75 9.82 2.59 8.33 8.21 11.53 11.59 6.61 19.53 13.8 34.16 10.94 7.61-1.49 9.6-2.33 7.6-11.23Zm-79.94-10.63c-14.17 4.26-17.92 12.31-34.06 9.84-3.93-.6-11.06-5.51-10.8.4 17.76 9.11 29.93-2.53 44.86-10.24m3.63.62c-17.7 5.72-29.29 22.1-49.65 10.63-1.5 9.25 1.42 9.91 9.48 11.16 14.18 2.21 19.69-3.65 30.86-9.84 6.58-3.64 10.89-.44 9.31-11.96Zm72.68 4.39c-6.11-5.66-15-3.71-17.55 4.36 5.04-1.03 11.9-1.2 16.68-3.1.75-.3 1.1.39.87-1.26m-100.54 4.36c-1.71-7.82-12.84-10.18-17.55-3.44zm101.76 12.52c-7.56 1.49-15.43 2.06-23.01 0 2.51 4.68 3.18 1.66 5.11 1.83.25.02.39 1.9 3.04 1.91.83 0 1.63-1.28 2.38-1.18.66.08 1.38 1.7 1.98 1.77 1.06.14 1.52-1.51 2.41-1.69 1.85-.38 6.72-.12 8.11-2.65Z" style="fill:url(#linear-gradient-36)"/><path d="M525.81 403.89c-.02-.16.74-.91.54-1.48-.47-1.35-22.1-10.15-24.76-12.9l1.81 7.5-24.55 9.41 20.61 11.85 19.68-10.61-20.25 11.87c-3.16-.25-18.57-12.28-21.55-12.83-1.32-.24-2.68 2.47-4.23 2.19l3.63-3.75c8.29-1.79 16.92-7.16 25.44-8.77-1.59-8.26-7.42-16.5-5.46-25.01l-3.33 4.38-2.72-1.88 6.97-6.87c.66 6.59-1.63 15.69 3.67 21.22 3.8 3.97 23.63 10.15 25.7 12.86 1.82 2.37-.12 2.15-1.21 2.81Z" style="fill:url(#linear-gradient-37)"/><g style="mask:url(#mask)"><path d="M803.08 54.32v3h520v-6h-520zm536 16h-3v131.59h6V70.32zm-16 147.6v-3h-520v6h520zm-536-16h3V70.32h-6v131.59h3Zm16 16v-3c-7.18 0-13-5.82-13-13h-6c0 10.49 8.51 19 19 19zm536-16h-3c0 7.18-5.82 13-13 13v6c10.49 0 19-8.51 19-19zm-16-147.6v3c7.18 0 13 5.82 13 13h6c0-10.49-8.51-19-19-19zm-520 0v-3c-10.49 0-19 8.51-19 19h6c0-7.18 5.82-13 13-13z" style="stroke-miterlimit:10;fill:url(#New_Gradient_Swatch_1);stroke:url(#New_Gradient_Swatch_1-2)"/></g><g style="mask:url(#mask-1)"><path d="M1097.45 493.03v3h520v-6h-520z" style="stroke-miterlimit:10;fill:url(#linear-gradient-38);stroke:url(#New_Gradient_Swatch_7)"/><path d="M1633.45 509.03h-3v131.59h6V509.03z" style="stroke-miterlimit:10;fill:url(#linear-gradient-39);stroke:url(#New_Gradient_Swatch_7-2)"/><path d="M1617.45 656.62v-3h-520v6h520z" style="stroke-miterlimit:10;fill:url(#linear-gradient-40);stroke:url(#New_Gradient_Swatch_7-3)"/><path d="M1081.45 640.62h3V509.03h-6v131.59z" style="stroke-miterlimit:10;fill:url(#linear-gradient-41);stroke:url(#New_Gradient_Swatch_7-4)"/><path d="M1097.45 656.62v-3c-7.18 0-13-5.82-13-13h-6c0 10.49 8.51 19 19 19z" style="stroke-miterlimit:10;fill:url(#linear-gradient-42);stroke:url(#New_Gradient_Swatch_7-5)"/><path d="M1633.45 640.62h-3c0 7.18-5.82 13-13 13v6c10.49 0 19-8.51 19-19z" style="stroke-miterlimit:10;fill:url(#linear-gradient-43);stroke:url(#New_Gradient_Swatch_7-6)"/><path d="M1617.45 493.03v3c7.18 0 13 5.82 13 13h6c0-10.49-8.51-19-19-19z" style="fill:url(#linear-gradient-44);stroke:url(#New_Gradient_Swatch_7-7);stroke-miterlimit:10"/><path d="M1097.45 493.03v-3c-10.49 0-19 8.51-19 19h6c0-7.18 5.82-13 13-13z" style="stroke-miterlimit:10;fill:url(#linear-gradient-45);stroke:url(#New_Gradient_Swatch_7-8)"/></g></svg>