<?xml version="1.0" encoding="UTF-8"?>
<svg id="Layer_1" data-name="Layer 1" xmlns="http://www.w3.org/2000/svg" xmlns:xlink="http://www.w3.org/1999/xlink" viewBox="0 0 559 170.59">
  <defs>
    <style>
      .cls-1 {
        mask: url(#mask);
      }

      .cls-2 {
        fill: url(#linear-gradient-6);
        stroke: url(#New_Gradient_Swatch_7-6);
      }

      .cls-2, .cls-3, .cls-4, .cls-5, .cls-6, .cls-7, .cls-8, .cls-9 {
        stroke-miterlimit: 10;
      }

      .cls-3 {
        fill: url(#linear-gradient-3);
        stroke: url(#New_Gradient_Swatch_7-3);
      }

      .cls-4 {
        fill: url(#linear-gradient-4);
        stroke: url(#New_Gradient_Swatch_7-4);
      }

      .cls-5 {
        fill: url(#linear-gradient-2);
        stroke: url(#New_Gradient_Swatch_7-2);
      }

      .cls-6 {
        fill: url(#linear-gradient-7);
        stroke: url(#New_Gradient_Swatch_7-7);
      }

      .cls-7 {
        fill: url(#linear-gradient-5);
        stroke: url(#New_Gradient_Swatch_7-5);
      }

      .cls-8 {
        fill: url(#linear-gradient-8);
        stroke: url(#New_Gradient_Swatch_7-8);
      }

      .cls-10 {
        fill: #fff;
      }

      .cls-9 {
        fill: url(#linear-gradient);
        stroke: url(#New_Gradient_Swatch_7);
      }
    </style>
    <mask id="mask" x="0" y="0" width="559" height="170.59" maskUnits="userSpaceOnUse">
      <g id="path-1-inside-1_1_35" data-name="path-1-inside-1 1 35">
        <path class="cls-10" d="M3.5,19.5C3.5,10.66,10.66,3.5,19.5,3.5h520c8.84,0,16,7.16,16,16v131.59c0,8.84-7.16,16-16,16H19.5c-8.84,0-16-7.16-16-16V19.5Z"/>
      </g>
    </mask>
    <linearGradient id="linear-gradient" x1="19.5" y1="3.5" x2="539.5" y2="3.5" gradientUnits="userSpaceOnUse">
      <stop offset="0" stop-color="#a0622c"/>
      <stop offset=".36" stop-color="#7f521d"/>
      <stop offset=".98" stop-color="#3f3300"/>
    </linearGradient>
    <linearGradient id="New_Gradient_Swatch_7" data-name="New Gradient Swatch 7" x1="19" y1="3.5" x2="540" y2="3.5" gradientUnits="userSpaceOnUse">
      <stop offset="0" stop-color="#a0622c"/>
      <stop offset=".36" stop-color="#7f521d"/>
      <stop offset=".98" stop-color="#3f3300"/>
    </linearGradient>
    <linearGradient id="linear-gradient-2" x1="552.5" y1="85.3" x2="558.5" y2="85.3" xlink:href="#linear-gradient"/>
    <linearGradient id="New_Gradient_Swatch_7-2" data-name="New Gradient Swatch 7" x1="552" y1="85.3" x2="559" y2="85.3" xlink:href="#New_Gradient_Swatch_7"/>
    <linearGradient id="linear-gradient-3" y1="167.09" y2="167.09" xlink:href="#linear-gradient"/>
    <linearGradient id="New_Gradient_Swatch_7-3" data-name="New Gradient Swatch 7" y1="167.09" y2="167.09" xlink:href="#New_Gradient_Swatch_7"/>
    <linearGradient id="linear-gradient-4" x1=".5" y1="85.3" x2="6.5" y2="85.3" xlink:href="#linear-gradient"/>
    <linearGradient id="New_Gradient_Swatch_7-4" data-name="New Gradient Swatch 7" x1="0" y1="85.3" x2="7" y2="85.3" xlink:href="#New_Gradient_Swatch_7"/>
    <linearGradient id="linear-gradient-5" x1=".5" y1="160.59" x2="19.5" y2="160.59" xlink:href="#linear-gradient"/>
    <linearGradient id="New_Gradient_Swatch_7-5" data-name="New Gradient Swatch 7" x1="0" y1="160.59" x2="20" y2="160.59" xlink:href="#New_Gradient_Swatch_7"/>
    <linearGradient id="linear-gradient-6" x1="539.5" y1="160.59" x2="558.5" y2="160.59" xlink:href="#linear-gradient"/>
    <linearGradient id="New_Gradient_Swatch_7-6" data-name="New Gradient Swatch 7" x1="539" y1="160.59" x2="559" y2="160.59" xlink:href="#New_Gradient_Swatch_7"/>
    <linearGradient id="linear-gradient-7" x1="539.5" y1="10" x2="558.5" y2="10" xlink:href="#linear-gradient"/>
    <linearGradient id="New_Gradient_Swatch_7-7" data-name="New Gradient Swatch 7" x1="539" y1="10" x2="559" y2="10" xlink:href="#New_Gradient_Swatch_7"/>
    <linearGradient id="linear-gradient-8" x1=".5" y1="10" x2="19.5" y2="10" xlink:href="#linear-gradient"/>
    <linearGradient id="New_Gradient_Swatch_7-8" data-name="New Gradient Swatch 7" x1="0" y1="10" x2="20" y2="10" xlink:href="#New_Gradient_Swatch_7"/>
  </defs>
  <g class="cls-1">
    <g>
      <polygon class="cls-9" points="19.5 3.5 19.5 6.5 539.5 6.5 539.5 3.5 539.5 .5 19.5 .5 19.5 3.5"/>
      <polygon class="cls-5" points="555.5 19.5 552.5 19.5 552.5 151.09 555.5 151.09 558.5 151.09 558.5 19.5 555.5 19.5"/>
      <polygon class="cls-3" points="539.5 167.09 539.5 164.09 19.5 164.09 19.5 167.09 19.5 170.09 539.5 170.09 539.5 167.09"/>
      <polygon class="cls-4" points="3.5 151.09 6.5 151.09 6.5 19.5 3.5 19.5 .5 19.5 .5 151.09 3.5 151.09"/>
      <path class="cls-7" d="M19.5,167.09v-3c-7.18,0-13-5.82-13-13H.5c0,10.49,8.51,19,19,19v-3Z"/>
      <path class="cls-2" d="M555.5,151.09h-3c0,7.18-5.82,13-13,13v6c10.49,0,19-8.51,19-19h-3Z"/>
      <path class="cls-6" d="M539.5,3.5v3c7.18,0,13,5.82,13,13h6c0-10.49-8.51-19-19-19v3Z"/>
      <path class="cls-8" d="M19.5,3.5V.5C9.01.5.5,9.01.5,19.5h6c0-7.18,5.82-13,13-13v-3Z"/>
    </g>
  </g>
</svg>