<?xml version="1.0" encoding="UTF-8"?>
<svg id="Layer_1" data-name="Layer 1" xmlns="http://www.w3.org/2000/svg" viewBox="0 0 158.05 51.39">
  <g>
    <path d="M30.41,14.85c1.31,0,2.35-1.13,2.35-2.39,0-1.44-1.04-2.48-2.3-2.48s-2.44,1.04-2.44,2.48c0,1.26,1.13,2.39,2.39,2.39Z"/>
    <path d="M53.19,34.97v-8.57c0-4.38-2.26-7.04-5.86-7.04-1.31,0-2.48.54-3.74,1.35-1.17.77-2.17,1.44-3.07,2.08v-3.56c-1.89.86-4.11,1.44-6.32,1.8v1.17c2.44.41,2.75.54,2.75,3.47v9.29c0,2.62-.21,3.07-2.29,3.36-1.98-.27-2.22-.79-2.22-3.45v-15.61c-1.94.81-4.06,1.4-6.41,1.8v1.08c2.71.45,2.84.63,2.84,3.43v9.29c0,2.33-.19,3.02-1.52,3.34-1.6-.34-2.35-.98-4.17-2.93-2.35-2.48-7.35-8.26-10.78-12.32,2.89-2.84,6.41-6.27,7.76-7.58,3.02-3.11,4.2-3.34,7.58-3.74v-1.26h-10.96v1.26l1.26.14c1.94.27,2.08.86.72,2.39-2.08,2.35-5.1,5.41-7.62,7.8-1.31,1.26-2.35,1.98-3.25,2.08v-7.76c0-4.01.63-4.33,4.15-4.65v-1.26H0v1.26c3.74.27,4.06.59,4.06,4.65v17.59c0,3.92-.36,4.24-4.06,4.56v1.26h12.05v-1.26c-3.74-.32-4.15-.63-4.15-4.56v-8.57c.72-.05,1.49.05,2.53,1.31,4.11,4.78,7.76,9.16,11.23,13.08h21.79v-1.26c-2.66-.27-2.93-.36-2.93-3.47v-10.56c1.4-1.26,3.16-2.35,5.01-2.35,2.98,0,4.11,2.12,4.11,5.28v7.44c0,3.07-.27,3.38-2.89,3.65v1.26h9.34v-1.26c-2.62-.27-2.89-.41-2.89-3.47Z"/>
    <path d="M93.61,19.9v1.22c2.62.36,2.93.86,2.39,2.57-.95,2.84-2.75,7.85-4.01,10.96l-4.38-11.1c-.59-1.67-.36-2.12,1.71-2.44v-1.22h-8.62V7.27c-1.44.54-4.24,1.26-6.68,1.53v1.17c2.89.36,3.11.63,3.11,3.38v21.61c0,1.74-.13,2.54-.81,2.96v-.61l-1.44-.09c-1.67-.09-1.98-.41-1.98-2.75V7.27c-1.67.59-4.83,1.22-7.08,1.53v1.17c3.2.27,3.52.36,3.52,3.25v6.63c-.95-.41-2.44-.5-3.07-.5-6.18,0-11.68,4.69-11.68,10.96s4.78,9.93,8.39,9.93c.54,0,1.76-.27,3.56-1.31.81-.5,1.99-1.13,2.8-1.62v2.93c1.48-.53,3.17-.93,4.56-1.21v.67h10.02v-1.26c-2.93-.27-3.2-.5-3.2-3.47v-13.78c2.04.33,2.46.96,3.38,3.27,1.35,3.25,3.79,8.8,5.55,13.94.27.77.27,1.17.09,1.85-.23.59-.9,2.17-1.85,4.06-.54,1.13-1.58,2.21-3.02,3.34-.68.59-.99.99-.99,1.58,0,1.13,1.31,2.17,2.75,2.17.59,0,1.08-.23,1.35-1.17.72-2.35,1.53-5.14,4.47-12.36,3.11-7.85,4.33-10.92,5.46-13.44,1.13-2.57,1.62-2.93,3.97-3.29v-1.22h-8.26ZM69.34,35.83c-1.08.81-2.84,1.62-4.47,1.62-2.89-.04-6.27-2.93-6.27-8.39,0-6.5,3.83-7.94,6-7.94,1.76,0,3.7.72,4.74,2.3v12.41Z"/>
  </g>
  <g>
    <path d="M126.1,45.4c-.64,0-.51.85-1.73.85-6.21,0-10.79-6.01-15.27-12.79,12.35-1.26,25.01-18.73,25.01-26.94,0-3.26-1.9-6.51-5.26-6.51-6.58,0-21.68,22.73-27.38,38.51,2.65-13.74,8.41-25.07,12.25-32.37,1.53-2.88,2.99-3.26,3.83-3.56.78-.27-2.21-2.65-3.12-2.38-1.63.44-14.89,28.03-17,47.64-.14,1.29,2.75,1.97,2.65.98-.14-1.42.37-4.89,1.09-6.75,1.12-2.85,2.48-6.01,4-9.26.2.2.51.37.95.51,4.75,6.65,8.82,13.81,16.93,13.74,2.51-.03,3.32-.68,3.46-1.29.03-.17-.1-.37-.41-.37ZM105.57,32c7.02-14.69,17.37-30.81,24.06-30.81.85,0,2.75.54,2.75,3.46,0,14.05-17.71,27.62-24.87,27.62-.92,0-1.42-.07-1.93-.27Z"/>
    <path d="M157.32,25.75c-.85,1.02-10.65,12.11-14.35,12.18-1.42,0-2.14-1.02-2.14-2.58,0-2.95,1.26-6.07,2.82-8.38.54.68,1.09,1.36,2.21,1.36,1.87,0,3.7-2.41,3.7-4,0-1.22-.88-2.04-2.51-2.04-2.69,0-5.78,3.49-7.27,7.33-2.02,1.47-4.23,2.32-6.13,2.57,1.42-2.92,2.51-6.28,2.51-8.72,0-2.07-1.66-3.49-3.66-3.49-3.6,0-8.18,3.05-8.18,7.67,0,1.26.51,2.58,1.73,3.56-.44,1.36-.75,2.78-.78,4.07-.03,1.36,1.32,3.09,2.82,3.09s3.49-2.38,5.16-5.39c2.27-.22,4.38-1.15,6.17-2.32-.34,1.12-.54,2.25-.54,3.3,0,3.16,1.9,4.72,4.48,4.72,3.46,0,12.42-9.84,14.45-11.98.58-.58.1-1.66-.48-.95ZM128.07,37.53c-.88,0-.31-2.24.75-4.92.95.27,2.1.41,3.43.41h.07c-1.46,2.65-3.16,4.51-4.24,4.51ZM132.68,32.27h-.2c-1.36,0-2.48-.17-3.36-.44.81-2,1.87-4.14,2.71-5.73.31-.54-.27-1.56-1.49-1.56-.78,0-2.58,2.41-3.83,5.39-.24-.48-.34-.98-.34-1.49,0-1.83,3.05-7.67,7.06-7.67,1.15,0,2,.88,2,2.27,0,2.99-1.12,6.45-2.54,9.23ZM148.05,23.28c.31,0,.41.2.41.44,0,1.97-2.41,3.63-3.29,3.63-.39,0-.91-.26-1.26-.7.23-.28.44-.55.61-.79.04-.06.06-.11.06-.17,1.23-1.48,2.5-2.41,3.47-2.41Z"/>
  </g>
</svg>