<?xml version="1.0" encoding="UTF-8"?>
<svg id="Layer_1" data-name="Layer 1" xmlns="http://www.w3.org/2000/svg" viewBox="0 0 1234.77 635.06">
  <defs>
    <style>
      .cls-1 {
        fill: #a19785;
      }

      .cls-2 {
        fill: #e8ddd4;
      }

      .cls-3 {
        fill: #9f764f;
      }

      .cls-4 {
        fill: #aca399;
      }

      .cls-5 {
        fill: #b99b7c;
      }

      .cls-6 {
        fill: #eee8e1;
      }

      .cls-7 {
        fill: #ceb9a6;
      }

      .cls-8 {
        fill: #b18d6a;
      }

      .cls-9 {
        fill: #c9b098;
      }

      .cls-10 {
        fill: #b69676;
      }

      .cls-11 {
        fill: #d8d6d2;
      }

      .cls-12 {
        fill: #c2a78c;
      }

      .cls-13 {
        fill: #bab7b4;
      }

      .cls-14 {
        fill: #f7f5f2;
      }

      .cls-15 {
        fill: #a07349;
      }

      .cls-16 {
        fill: #ac855f;
      }

      .cls-17 {
        fill: #c0a78c;
      }

      .cls-18 {
        fill: #9f7249;
      }

      .cls-19 {
        fill: #ded2c5;
      }

      .cls-20 {
        fill: #d6d5d1;
      }

      .cls-21 {
        fill: #ece5dd;
      }

      .cls-22 {
        fill: #dbcdbe;
      }

      .cls-23 {
        fill: #ccc8c4;
      }

      .cls-24 {
        fill: #a0744b;
      }

      .cls-25 {
        fill: #cccac8;
      }

      .cls-26 {
        fill: #a47951;
      }

      .cls-27 {
        fill: #d2bfab;
      }

      .cls-28 {
        fill: #dfd2c4;
      }

      .cls-29 {
        fill: #c4af99;
      }

      .cls-30 {
        fill: #d5d4d1;
      }

      .cls-31 {
        fill: #e7ded4;
      }

      .cls-32 {
        fill: #b08d69;
      }

      .cls-33 {
        fill: #f7f5f3;
      }

      .cls-34 {
        fill: #f1ebe7;
      }

      .cls-35 {
        fill: #cdb7a2;
      }

      .cls-36 {
        fill: #b1906d;
      }

      .cls-37 {
        fill: #c8af97;
      }

      .cls-38 {
        fill: #a27950;
      }

      .cls-39 {
        fill: #9b6d42;
      }

      .cls-40 {
        fill: #a87f58;
      }

      .cls-41 {
        fill: #f6f3f0;
      }

      .cls-42 {
        fill: #bfa286;
      }

      .cls-43 {
        fill: #ece5de;
      }

      .cls-44 {
        fill: #a98e71;
      }

      .cls-45 {
        fill: #e4d9cf;
      }

      .cls-46 {
        fill: #c4aa8e;
      }

      .cls-47 {
        fill: #be9f81;
      }

      .cls-48 {
        fill: #d7c7b7;
      }

      .cls-49 {
        fill: #d5c4b1;
      }

      .cls-50 {
        fill: #b69575;
      }

      .cls-51 {
        fill: #d6d2cf;
      }

      .cls-52 {
        fill: #eae2d9;
      }

      .cls-53 {
        fill: #d6c7b5;
      }

      .cls-54 {
        fill: #eaeae9;
      }

      .cls-55 {
        fill: #f0eae4;
      }

      .cls-56 {
        fill: #c5ae98;
      }

      .cls-57 {
        fill: #a8a49f;
      }

      .cls-58 {
        fill: #e3e1e1;
      }

      .cls-59 {
        fill: #9d6e43;
      }

      .cls-60 {
        fill: #e6e4e2;
      }

      .cls-61 {
        fill: #dacabb;
      }

      .cls-62 {
        fill: #b49270;
      }
    </style>
  </defs>
  <path class="cls-32" d="M506.04,380.07l-2.02,9.98c-13.6-1.81-27.16-4.72-40.99-3.98v-10.01c14.53-.88,28.75,1.83,43,4.01Z"/>
  <path class="cls-9" d="M188.04,504.07l-3.99,3.99c2.11.25,4.54-.34,6.56-.07,1.85.24,1.29,1.86,2.12,2.06,1.87.45,4.32-.21,6.31.02-7.54,3.24-22.19,10.83-29.76,11.81-5.91.77-4.1-4.81-6.25-8.8,8.46-2.23,16.69-6.57,25.01-9.01Z"/>
  <path class="cls-52" d="M623.04,398.07c10.32-.15,20.69.11,31.01,0v10.01c-7.99-.04-16.02.04-24.01,0-1-1.12-3.26-1.31-3.99-2.51-1.08-1.79,4.3-1.64,1.99-3.48-.44-.35-3.83.23-4.99-.02v-3.99Z"/>
  <path class="cls-14" d="M1222.42,613.68c2.31,2.73,11.51,12.06,12.23,14.36.66,2.11-1.53,6.42-3.27,6.91-5.43,1.53-15.56-14-19.38-17.54-1.14-3.91,6.03-9.16,9.1-6.9.76.56.66,2.39,1.32,3.17Z"/>
  <path class="cls-21" d="M22.04,535.07c6.1-.53,12.47.82,18.54-.6,3.55.53,2.32,7.86,2.46,10.6-6.84-.42-14.25.56-21,0-1.7-.14-5.11-1.86-7.91-1.1-1.15-2.56-.48-5.2-.03-7.83,2.83.84,6.2-.92,7.93-1.07Z"/>
  <path class="cls-36" d="M254.04,470.07c2.75-1.8,17.51-12.81,18.64-12.9,1.82-.13,3.41,5.31,5.64,6.19l.27,1.73c-5.59,5.59-12.98,8.82-19.54,12.98-2.69-1.22-8.78-1.5-6.99-5h3.98s-1.99-3-1.99-3Z"/>
  <path class="cls-42" d="M802.04,428.07l-6.01,2.01,3,3.99-4.99.99c4.82.26,8.39,1.86,12.54,4.02.88.46,1.21,1.85,1.46,1.99-3.89-2.5-32.02-10.57-32.99-12.03-1.45-2.18,1.66-3.12,1.77-3.46.25-.8-.27-4.67,1.24-6.51,8.15,2.62,16.04,5.83,23.98,9.01Z"/>
  <path class="cls-49" d="M636.04,376.07c3.82,2.98,4.49-3.42,7-4.54.3-.13,4.38,1.3,4.51,1.52,1.27,2.22-4.17,7.33-5.51,9.03-4.36,5.52-8.08,9.34-13.5,13.98-1.57-1.75-7.69-6.46-6.07-8.98,4.44-3.68,9.24-7.22,13.57-11Z"/>
  <path class="cls-40" d="M861.04,450.07c.66.01,1.35-.07,2,0,.77,2.73,3.25,1.64,5,2,4.61.94,9.73,2.05,14,4-.72-.05-3.3.34-4.49.41-4.58.29,2.05,1.66-.52,3.58h7c.08,4.28-3.24,1.84-5.98,2.01l3.99,3.99c-7.31-1.54-14.88-3.73-22-6-1.27-2.76-5.02-.76-4.01-4.99-1.64-.36-.87,1.46-.99,2.99-.4-.2-1.74.28-1.97-.02-.42-.55.37-3.46.97-3.98.26-.23,1.84.24,2,0,1.58-2.28-3.62-4.2,5-4.01Z"/>
  <path class="cls-27" d="M721.04,405.07l5,1c2.33.42,10.45.48,11.58,1.97l-1.58,10.04c-7.24-1.74-14.64-2.81-21.99-4l1.5-2-5.46-1.45c1.02-.78,1.64-4.08,2.12-4.38,1.63-1.05,5.54,1.58,4.85-2.16,1.04.16,2.52.74,4,1Z"/>
  <path class="cls-28" d="M1186.04,557.07c.47,2.14-1.5,1.81-2.31,3.24-.97,1.69-.67,7.35-3.28,1.85l-1.41,1.92c-2.02-2.69-14.03-15.28-14.04-16.5,0-2.17,5.12-5.56,6.54-7.48,5.64,4.97,10.03,10.99,14.5,16.98Z"/>
  <path class="cls-39" d="M944.04,460.07c3.78-.09,11.25-.66,14.45-.07,1.32.25-.14,3.06,1.05,3.08l1.49-3c2.17,4.79-1.27,2.5-2.98,4.98l9.99,1.02c.27,1.31-1.84,1.59-2.74,1.74-6.81,1.11-13.94.12-20.26,2.25-1.84-.06-6.92.44-7.86-.14-1.33-.82-1.21-7.97-1.14-9.86,2.66-.05,5.35.07,8,0Z"/>
  <path class="cls-22" d="M105.04,528.07l-1,3.99,4.99.02-2.99,1.98,4.01.51c.06,1.92-8.25.04-5.01,3.5-6.95,1.15-13.85,3.04-20.99,3l-.98-9.97c7.29-1.05,14.72-1.79,21.98-3.02Z"/>
  <path class="cls-8" d="M1044.04,474.07l-7,3.51c-.23.76,3.19-.12.99,2.49l5.99,1.51-4.98,1.5c-6.84-1.97-14.06-3.41-21-5,.19-1.57,1.57-9.64,2.05-9.97,1.01-.71,21.03,5.08,23.96,5.98Z"/>
  <path class="cls-43" d="M699.04,322.07c.51-1.96,3.55-5.17,4.97-6.53,1.59-1.53,10.54-9.51,11.53-9.51,1.37,0,6.69,5.63,6.03,7.06-1.41,3.05-13.35,12.09-16.53,14.98-5.97-2.71,1.77-9.2-6-6Z"/>
  <path class="cls-15" d="M326.04,418.07c5.11-3.37,9.79-7.51,15.48-10.02.58,2.19,5.54,8.46,4.48,9.98-5.43,2.01-11.13,5.74-15.96,9.04-2.08-1.18-6.88.04-8-2.51-.16-.36,4.53-3.64,4-6.49Z"/>
  <path class="cls-37" d="M1118.04,504.07l2.01,4.49c-6.55,1.33.6.84-2.02,3-4.07,3.35-3.01-3.42-8.99-1.49-3.89-1.91-8.8-3.79-13-5.01-.31-.42,3.19-9.09,3.98-9.56,1.69-1.02,15.53,7.35,18.02,8.58Z"/>
  <path class="cls-24" d="M394.04,386.07l26.99-7.01,1.01,11.01c-6.84.36-14.3,2.26-21,4,.57-.75,1.88-3.82.41-4.02-1.19-.16-4.26.86-3.4-1.47.92-2.51,9.52,1.67,9.98-3l-13.99.48Z"/>
  <path class="cls-26" d="M326.04,418.07c.53,2.85-4.16,6.13-4,6.49,1.12,2.54,5.92,1.32,8,2.51-2.6,1.78-16.58,12.74-17.67,12.9-2.09.31-4.61-6.18-6.23-7.54-.44-1.3,3.41-3.31,4.57-4.19,4.91-3.7,10.2-6.81,15.32-10.18Z"/>
  <path class="cls-59" d="M394.04,386.07l13.99-.48c-.46,4.67-9.06.49-9.98,3-.85,2.33,2.21,1.31,3.4,1.47,1.46.2.15,3.27-.41,4.02-2.9.75-16.61,5.96-17.53,5.87-1.11-.11-3.93-7.61-3.39-9.22.82-2.48,5.88-2.27,7.92-2.64,1.67-.31,3.36.3,4-2,.65-.08,1.34.06,2,0Z"/>
  <path class="cls-35" d="M1118.04,504.07c6.72,3.3,14.05,5.67,19.98,10.49-2.75,2.44-2.8,5.38-4.96,8.07-1.22.58-20.92-11.04-24.02-12.56,5.98-1.93,4.93,4.84,8.99,1.49,2.61-2.16-4.53-1.67,2.02-3l-2.01-4.49Z"/>
  <path class="cls-50" d="M1044.04,474.07c2.3.71,16.04,5.14,16.58,5.95.4.58-2.15,8.58-2.69,8.97-1.26.91-16.12-5.12-18.9-5.92l4.98-1.5-5.99-1.51c2.2-2.61-1.22-1.73-.99-2.49l7-3.51Z"/>
  <path class="cls-45" d="M1186.04,557.07c4.32,5.79,8.29,11.78,12,17.98l-9.02,4.59c-3.67-4.68-6.5-10.94-9.98-15.57l1.41-1.92c2.61,5.5,2.31-.16,3.28-1.85.81-1.42,2.79-1.09,2.31-3.24Z"/>
  <path class="cls-31" d="M699.04,322.07c7.77-3.2.03,3.29,6,6-2.79,2.54-9.88,11.27-13,12.49-2.09.82-7.09-5.95-6.93-6.85.41-2.35,11.17-10.5,13.93-11.64Z"/>
  <path class="cls-53" d="M105.04,528.07c2.83-.48,18.16-4.55,18.96-3.98.41.3,2.53,9.1,1.97,9.89-3.7,1.66-8.26,1.33-11.93,2.08l-5,1c-1.19.23-2.39.73-4,1-3.24-3.46,5.07-1.58,5.01-3.5l-4.01-.51,2.99-1.98-4.99-.02,1-3.99Z"/>
  <path class="cls-18" d="M944.04,460.07c3.67-1.66,9.52-1.24,13.54-1.04,5.31.26,12.87.52,17.88,1.15,6.96.86,1.83,5.93,2.57,10.9-10.86-1.87-22-.67-33-1.01,6.31-2.13,13.44-1.15,20.26-2.25.9-.15,3-.43,2.74-1.74l-9.99-1.02c1.71-2.48,5.15-.19,2.98-4.98l-1.49,3c-1.18-.02.28-2.83-1.05-3.08-3.2-.59-10.67-.02-14.45.07Z"/>
  <path class="cls-48" d="M717.04,404.07c.7,3.74-3.21,1.12-4.85,2.16-.48.31-1.1,3.61-2.12,4.38l5.46,1.45-1.5,2c-2.86-.47-17.31-1.92-18.07-2.43-1.47-1-2.18-10.49,1.47-10.52,4.96-.04,14.18,2.12,19.6,2.95Z"/>
  <path class="cls-56" d="M562.04,395.07c3.4.58,23.28,2.08,23.95,3.09l.05,9.91c-.56.46-13.72-1.4-14.39-1.89-1.26-.91-1-6.4-1.71-7-.48-.41-8.1-.11-9.9-.1,1.1-1.8,4.11-.81,6-1.01l-4-2.99Z"/>
  <path class="cls-61" d="M642.04,382.07c1.34-1.7,6.78-6.81,5.51-9.03-.12-.22-4.21-1.65-4.51-1.52-2.51,1.13-3.18,7.52-7,4.54,2.43-2.12,15.94-14.88,17.51-14.76.91.07,6.52,6.35,6.43,7.27-4.93,4.12-10.01,8.17-14.56,12.38-1.16,1.07-1.27,2.85-3.38,1.1Z"/>
  <path class="cls-10" d="M254.04,470.07l1.99,2.99h-3.98c-1.79,3.52,4.3,3.79,6.99,5.01-2.63,1.67-12.43,9.58-14.66,9.9s-5.2-6.88-6.34-8.89c5.4-2.33,11.08-5.8,16-9.02Z"/>
  <path class="cls-5" d="M802.04,428.07c4.74,1.89,9.44,4.94,14.97,5.04.92,1.07-1.56,8.18-2.95,9.54-1.18.73-4.83-.88-6.01-1.58-.25-.15-.58-1.54-1.46-1.99-4.15-2.16-7.72-3.76-12.54-4.02l4.99-.99-3-3.99,6.01-2.01Z"/>
  <path class="cls-3" d="M634.04,13.07c3.5-.35,7.43.25,11.01,0v10.01c-2.33.03-4.68-.05-7.01,0-3.75.07-7.4.26-11.01-1.01l1-7.99c2.23.98,4.86-.88,6.01-.99Z"/>
  <path class="cls-34" d="M22.04,535.07c-1.73.15-5.1,1.91-7.93,1.07-.46,2.63-1.12,5.27.03,7.83,2.8-.76,6.21.96,7.91,1.1-6.78.04-13.81,0-20.52-1-1.64-.24-1.45.64-1.51-1.5-.03-1.09.78-8.15,1.09-8.45.75-.73,18.51-.31,20.95.95Z"/>
  <path class="cls-38" d="M882.04,456.07c1.96.13,13.47,1.53,13.96,2.04,1,1.05-1.18,7.93-.98,9.94-.51.5-11.13-1.59-12.97-1.98l-3.99-3.99c2.75-.17,6.07,2.27,5.98-2h-7c2.56-1.93-4.07-3.3.52-3.59,1.19-.07,3.77-.46,4.49-.41Z"/>
  <path class="cls-19" d="M550.04,4.07c1.96.01,14.86-.46,15.02.58v9.43c-5,.03-10.03-.05-15.02,0,4.44-2.38.05-1.62-.04-2.64-.24-2.61,1.12-5.03.04-7.36Z"/>
  <path class="cls-46" d="M193.04,502.07c3-1.24,6.03-2.64,8.98-4l4.02,9.99c-.22.29-5.8,1.5-7,2.01-1.99-.23-4.44.42-6.31-.02-.83-.2-.27-1.82-2.12-2.06-2.02-.26-4.45.33-6.56.07l3.99-3.99c.3-.09.68.08,1,0,1.52-.39,3.24.37,4-2Z"/>
  <path class="cls-16" d="M634.04,13.07c-1.15.11-3.78,1.98-6.01.99l-1,7.99c3.61,1.27,7.26,1.09,11.01,1.01-6.7,1.79-14.96,1.07-22,1l-2.01-7.99c2.15.11,3.54.5,3.01-2.01,5.7-.26,11.31-.83,17-1Z"/>
  <path class="cls-55" d="M623.04,398.07v3.99c1.16.25,4.56-.33,4.99.02,2.31,1.84-3.07,1.7-1.99,3.48.73,1.2,2.99,1.39,3.99,2.51-5.99-.04-12.02.02-18.01,0v-10.01c3.66-.03,7.35.06,11.01,0Z"/>
  <path class="cls-62" d="M617.04,14.07c.53,2.51-.85,2.11-3.01,2.01l2.01,7.99c-4.31-.04-8.66.07-12.97-.03,0-1.59-1.49-9.54.61-10.02,4.43-.07,8.93.26,13.36.05Z"/>
  <path class="cls-17" d="M562.04,395.07l4,2.99c-1.89.2-4.9-.79-6,1.01-.67,0-1.33,0-2,0-2.19.03-5.64-.74-7,1-2.33,0-4.68,0-7,0-1.03-14.58,9.5-6.44,18-5Z"/>
  <path class="cls-41" d="M531.04,14.07c-1.19-.05-3.31.58-4.11-.58-.39-.56-1.98-10.28-1.82-10.8.55-1.83,12.71-5.63,9.93,1.38-.24.14-1.82,3.51-2.7,4.75-1.33,1.89-3.9,1.2-1.3,5.25Z"/>
  <path class="cls-2" d="M550.04,4.07c1.07,2.33-.28,4.76-.04,7.36.09,1.01,4.48.26.04,2.64-2.99.03-6.01.04-9,0-4.05-3.53,2.66-4.7,1-10,2.66-.06,5.34-.02,8,0Z"/>
  <path class="cls-7" d="M718.04,11.07c11.27.82,12.53.42,8.99,12.01l-10.99-2.01c.6-.02,2.17-1.25,3.99,0-.82-2.23.86-5.06.89-6.57,0-.48-1.47-.39-1.56-.64-.28-.85,1.3-1.77-1.33-2.79Z"/>
  <path class="cls-33" d="M760.16,43.94c-.94-1.59,3.67-10.71,8.42-7.93,5.85,3.42,2.18,9.63-2.46,10.62-.91.19-5.8-2.4-5.96-2.69Z"/>
  <path class="cls-6" d="M542.04,4.07c1.66,5.3-5.05,6.47-1,10-3.32-.04-6.69.14-10,0-2.59-4.04-.02-3.35,1.3-5.25.88-1.25,2.46-4.62,2.7-4.75.49-.28,5.57.03,7,0Z"/>
  <path class="cls-29" d="M718.04,11.07c2.63,1.01,1.05,1.94,1.33,2.79.08.26,1.57.16,1.56.64-.03,1.51-1.72,4.34-.89,6.57-1.83-1.25-3.39-.02-3.99,0-3.65.13-7.35-.09-11,0,1.58-.32,7.14-1.38,7.59-1.96,1.07-1.39-1.04-5.09.41-7.03-2.97-.19-6.04.23-9,0-.33-.03-.67.02-1,0,3.89-1.6,10.58-1.32,15-1Z"/>
  <path class="cls-47" d="M703.04,12.07c.33.02.67-.03,1,0-.65,4.39,1.08,6.4-3,9-3.45.42-5.79,1.21-10,1,.61-1.59,3.16-.39,3.83-1.47.16-.26,1.07-5.77,1-6.07-.16-.76-2.76-.28-.84-1.47l3-2c1.43.08,3.2.87,5,1Z"/>
  <path class="cls-50" d="M695.04,13.07c-1.92,1.19.68.71.84,1.47.06.3-.84,5.81-1,6.07-.67,1.08-3.23-.13-3.83,1.47-1.66-.08-3.35.07-5.01,0v-10.01c2.06.33,9.05-.9,9.01,1Z"/>
  <path class="cls-12" d="M704.04,12.07c2.96.24,6.03-.18,9,0-1.46,1.94.66,5.64-.41,7.03-.44.58-6,1.64-7.59,1.96-1.15.23-2.74-.16-4,0,4.08-2.6,2.35-4.61,3-9Z"/>
  <path class="cls-29" d="M698.04,11.07l-3,2c.05-1.9-6.95-.67-9-1,2.84-1.68,8.41-1.2,12-1Z"/>
  <path class="cls-60" d="M669.03,409.06c-1.75.23-.93-2.26-.99-3.48-.1-2.16.06-4.35,0-6.51,1.75-.23.93,2.26.99,3.48.1,2.16-.06,4.35,0,6.51Z"/>
  <path class="cls-4" d="M672.03,22.06c-1.75.23-.93-2.26-.99-3.48-.1-2.16.06-4.35,0-6.51,1.75-.23.93,2.26.99,3.48.1,2.16-.06,4.35,0,6.51Z"/>
  <path class="cls-44" d="M855.04,458.07c.12-1.53-.65-3.36.99-2.99-1.01,4.24,2.74,2.24,4.01,4.99-2.16-.69-2.97-.98-5-2Z"/>
  <path class="cls-11" d="M751.03,419.06c-2.05-.06-.51-6.93,1-6.99l-1,6.99Z"/>
  <path class="cls-54" d="M671.03,359.07c-1.83-1.07-4.24-2.9-3.98-5,1.83,1.07,4.24,2.9,3.98,5Z"/>
  <path class="cls-44" d="M861.04,450.07c-8.62-.19-3.42,1.73-5,4.01-.16.23-1.74-.23-2,0l2.07-5.97,4.93,1.97Z"/>
  <rect class="cls-30" x="600.05" y="399.07" width=".98" height="6.99"/>
  <path class="cls-56" d="M558.04,399.07c-1.36,1.73-4.82.99-7,1,1.36-1.74,4.81-.97,7-1Z"/>
  <path class="cls-23" d="M518.03,394.06c-.13.14-.66-.05-.98,0-.05-2.04.92-3.95,1-5.99h.98c.34.72-.57,5.51-1,5.99Z"/>
  <path class="cls-44" d="M868.04,452.07c-1.75-.36-4.23.73-5-2,1.71.19,3.78.69,5,2Z"/>
  <rect class="cls-13" x="992.05" y="467.07" width=".98" height="5.99"/>
  <path class="cls-25" d="M1073.04,490.07c.41-1.7.15-5.15,1.99-4.99.68,2.56-1.19,3.56-1.99,4.99Z"/>
  <path class="cls-58" d="M1145.05,530.07c-.33-1.8,1.35-3.28,2.98-4,.33,1.8-1.35,3.28-2.98,4Z"/>
  <rect class="cls-1" x="909.05" y="465.07" width=".98" height="4.99"/>
  <path class="cls-20" d="M1073.04,490.07c-.36,1.5.28,3.55-1.99,4-.58-1.99,1.3-2.77,1.99-4Z"/>
  <path class="cls-9" d="M193.04,502.07c-.76,2.37-2.48,1.61-4,2,.89-1.77,2.7-1.46,4-2Z"/>
  <path class="cls-24" d="M392.04,386.07c-.64,2.3-2.33,1.69-4,2,.94-1.47,2.41-1.8,4-2Z"/>
  <rect class="cls-57" x="436.05" y="382.07" width=".98" height="4.99"/>
  <rect class="cls-51" x="588.05" y="15.07" width=".98" height="4.99"/>
  <path class="cls-22" d="M114.04,536.07c-1.51.31-3.29.67-5,1l5-1Z"/>
  <path class="cls-48" d="M726.04,406.07l-5-1c1.73.3,3.36.7,5,1Z"/>
</svg>