<?xml version="1.0" encoding="UTF-8"?>
<svg id="Layer_1" data-name="Layer 1" xmlns="http://www.w3.org/2000/svg" xmlns:xlink="http://www.w3.org/1999/xlink" viewBox="0 0 517.37 572.59">
  <defs>
    <style>
      .cls-1 {
        fill: url(#linear-gradient-8);
      }

      .cls-2 {
        fill: url(#linear-gradient-7);
      }

      .cls-3 {
        fill: url(#linear-gradient-5);
      }

      .cls-4 {
        fill: url(#linear-gradient-6);
      }

      .cls-5 {
        fill: url(#linear-gradient-9);
      }

      .cls-6 {
        fill: url(#linear-gradient-4);
      }

      .cls-7 {
        fill: url(#linear-gradient-3);
      }

      .cls-8 {
        fill: url(#linear-gradient-2);
      }

      .cls-9 {
        fill: url(#linear-gradient);
      }

      .cls-10 {
        fill: url(#linear-gradient-43);
      }

      .cls-11 {
        fill: url(#linear-gradient-40);
      }

      .cls-12 {
        fill: url(#linear-gradient-41);
      }

      .cls-13 {
        fill: url(#linear-gradient-42);
      }

      .cls-14 {
        fill: url(#linear-gradient-49);
      }

      .cls-15 {
        fill: url(#linear-gradient-48);
      }

      .cls-16 {
        fill: url(#linear-gradient-45);
      }

      .cls-17 {
        fill: url(#linear-gradient-47);
      }

      .cls-18 {
        fill: url(#linear-gradient-44);
      }

      .cls-19 {
        fill: url(#linear-gradient-46);
      }

      .cls-20 {
        fill: url(#linear-gradient-10);
      }

      .cls-21 {
        fill: url(#linear-gradient-11);
      }

      .cls-22 {
        fill: url(#linear-gradient-12);
      }

      .cls-23 {
        fill: url(#linear-gradient-13);
      }

      .cls-24 {
        fill: url(#linear-gradient-19);
      }

      .cls-25 {
        fill: url(#linear-gradient-14);
      }

      .cls-26 {
        fill: url(#linear-gradient-21);
      }

      .cls-27 {
        fill: url(#linear-gradient-20);
      }

      .cls-28 {
        fill: url(#linear-gradient-22);
      }

      .cls-29 {
        fill: url(#linear-gradient-23);
      }

      .cls-30 {
        fill: url(#linear-gradient-28);
      }

      .cls-31 {
        fill: url(#linear-gradient-25);
      }

      .cls-32 {
        fill: url(#linear-gradient-32);
      }

      .cls-33 {
        fill: url(#linear-gradient-31);
      }

      .cls-34 {
        fill: url(#linear-gradient-33);
      }

      .cls-35 {
        fill: url(#linear-gradient-30);
      }

      .cls-36 {
        fill: url(#linear-gradient-15);
      }

      .cls-37 {
        fill: url(#linear-gradient-16);
      }

      .cls-38 {
        fill: url(#linear-gradient-17);
      }

      .cls-39 {
        fill: url(#linear-gradient-18);
      }

      .cls-40 {
        fill: url(#linear-gradient-35);
      }

      .cls-41 {
        fill: url(#linear-gradient-34);
      }

      .cls-42 {
        fill: url(#linear-gradient-36);
      }

      .cls-43 {
        fill: url(#linear-gradient-38);
      }

      .cls-44 {
        fill: url(#linear-gradient-27);
      }

      .cls-45 {
        fill: url(#linear-gradient-24);
      }

      .cls-46 {
        fill: url(#linear-gradient-26);
      }

      .cls-47 {
        fill: url(#linear-gradient-29);
      }

      .cls-48 {
        fill: url(#linear-gradient-37);
      }

      .cls-49 {
        fill: url(#linear-gradient-39);
      }

      .cls-50 {
        fill: url(#linear-gradient-53);
      }

      .cls-51 {
        fill: url(#linear-gradient-54);
      }

      .cls-52 {
        fill: url(#linear-gradient-50);
      }

      .cls-53 {
        fill: url(#linear-gradient-51);
      }

      .cls-54 {
        fill: url(#linear-gradient-52);
      }
    </style>
    <linearGradient id="linear-gradient" x1="329.93" y1="124.66" x2="370.45" y2="124.66" gradientUnits="userSpaceOnUse">
      <stop offset="0" stop-color="#a0622c"/>
      <stop offset=".13" stop-color="#a16530"/>
      <stop offset=".27" stop-color="#a76e3c"/>
      <stop offset=".41" stop-color="#b07e51"/>
      <stop offset=".55" stop-color="#be946f"/>
      <stop offset=".7" stop-color="#cfb095"/>
      <stop offset=".84" stop-color="#e3d2c2"/>
      <stop offset=".98" stop-color="#fbf9f7"/>
      <stop offset="1" stop-color="#fff"/>
    </linearGradient>
    <linearGradient id="linear-gradient-2" x1="25.13" y1="349.17" x2="68.83" y2="349.17" xlink:href="#linear-gradient"/>
    <linearGradient id="linear-gradient-3" x1="306.5" y1="106.61" x2="325.26" y2="106.61" xlink:href="#linear-gradient"/>
    <linearGradient id="linear-gradient-4" x1="292.36" y1="33.01" x2="315.18" y2="33.01" xlink:href="#linear-gradient"/>
    <linearGradient id="linear-gradient-5" x1="51.29" y1="102.48" x2="79.1" y2="102.48" xlink:href="#linear-gradient"/>
    <linearGradient id="linear-gradient-6" x1="270.01" y1="10.81" x2="289.69" y2="10.81" xlink:href="#linear-gradient"/>
    <linearGradient id="linear-gradient-7" x1="83.83" y1="297.22" x2="97.1" y2="297.22" xlink:href="#linear-gradient"/>
    <linearGradient id="linear-gradient-8" x1="93.64" y1="291.21" x2="95.73" y2="291.21" xlink:href="#linear-gradient"/>
    <linearGradient id="linear-gradient-9" x1="86.11" y1="289.49" x2="88.22" y2="289.49" xlink:href="#linear-gradient"/>
    <linearGradient id="linear-gradient-10" x1="312.82" y1="70.52" x2="320.26" y2="70.52" xlink:href="#linear-gradient"/>
    <linearGradient id="linear-gradient-11" x1="292.72" y1="48.57" x2="299.29" y2="48.57" xlink:href="#linear-gradient"/>
    <linearGradient id="linear-gradient-12" x1="273.79" y1="26.3" x2="280.14" y2="26.3" xlink:href="#linear-gradient"/>
    <linearGradient id="linear-gradient-13" x1="352.44" y1="147.89" x2="363.04" y2="147.89" xlink:href="#linear-gradient"/>
    <linearGradient id="linear-gradient-14" x1="351.41" y1="140.63" x2="355.05" y2="140.63" xlink:href="#linear-gradient"/>
    <linearGradient id="linear-gradient-15" x1="360.04" y1="140.52" x2="363.5" y2="140.52" xlink:href="#linear-gradient"/>
    <linearGradient id="linear-gradient-16" x1="286.23" y1="89.65" x2="301.93" y2="89.65" xlink:href="#linear-gradient"/>
    <linearGradient id="linear-gradient-17" x1="40.78" y1="346.04" x2="55.68" y2="346.04" xlink:href="#linear-gradient"/>
    <linearGradient id="linear-gradient-18" x1="47.69" y1="335.88" x2="62.86" y2="335.88" xlink:href="#linear-gradient"/>
    <linearGradient id="linear-gradient-19" x1="34.97" y1="356.78" x2="49.47" y2="356.78" xlink:href="#linear-gradient"/>
    <linearGradient id="linear-gradient-20" x1="31.56" y1="362.89" x2="45.89" y2="362.89" xlink:href="#linear-gradient"/>
    <linearGradient id="linear-gradient-21" x1="33.61" y1="359.49" x2="47.35" y2="359.49" xlink:href="#linear-gradient"/>
    <linearGradient id="linear-gradient-22" x1="312.12" y1="104.12" x2="319.64" y2="104.12" xlink:href="#linear-gradient"/>
    <linearGradient id="linear-gradient-23" x1="300.53" y1="32.77" x2="308.36" y2="32.77" xlink:href="#linear-gradient"/>
    <linearGradient id="linear-gradient-24" x1="137.15" y1="154.02" x2="163.88" y2="154.02" xlink:href="#linear-gradient"/>
    <linearGradient id="linear-gradient-25" x1="61.57" y1="104.98" x2="70.52" y2="104.98" xlink:href="#linear-gradient"/>
    <linearGradient id="linear-gradient-26" x1="144.22" y1="156.33" x2="157.18" y2="156.33" xlink:href="#linear-gradient"/>
    <linearGradient id="linear-gradient-27" x1="59.41" y1="101.98" x2="62.03" y2="101.98" xlink:href="#linear-gradient"/>
    <linearGradient id="linear-gradient-28" x1="144.7" y1="151.59" x2="146.94" y2="151.59" xlink:href="#linear-gradient"/>
    <linearGradient id="linear-gradient-29" x1="151.82" y1="150.21" x2="153.77" y2="150.21" xlink:href="#linear-gradient"/>
    <linearGradient id="linear-gradient-30" x1="65.19" y1="98.85" x2="67.19" y2="98.85" xlink:href="#linear-gradient"/>
    <linearGradient id="linear-gradient-31" x1="276.77" y1="11.07" x2="284.27" y2="11.07" xlink:href="#linear-gradient"/>
    <linearGradient id="linear-gradient-32" x1="195.32" y1="89.88" x2="203.04" y2="89.88" xlink:href="#linear-gradient"/>
    <linearGradient id="linear-gradient-33" x1="31.94" y1="245.71" x2="33.96" y2="245.71" xlink:href="#linear-gradient"/>
    <linearGradient id="linear-gradient-34" x1="129.16" y1="302.78" x2="130.57" y2="302.78" xlink:href="#linear-gradient"/>
    <linearGradient id="linear-gradient-35" x1="128.51" y1="303.46" x2="129.19" y2="303.46" xlink:href="#linear-gradient"/>
    <linearGradient id="linear-gradient-36" x1="0" y1="301.29" x2="517.37" y2="301.29" xlink:href="#linear-gradient"/>
    <linearGradient id="linear-gradient-37" x1="217.61" y1="267.3" x2="217.95" y2="267.3" xlink:href="#linear-gradient"/>
    <linearGradient id="linear-gradient-38" x1="275.99" y1="229.07" x2="277.35" y2="229.07" xlink:href="#linear-gradient"/>
    <linearGradient id="linear-gradient-39" x1="274.28" y1="186.74" x2="274.62" y2="186.74" xlink:href="#linear-gradient"/>
    <linearGradient id="linear-gradient-40" x1="214.19" y1="304.17" x2="214.54" y2="304.17" xlink:href="#linear-gradient"/>
    <linearGradient id="linear-gradient-41" x1="214.54" y1="289.15" x2="215.9" y2="289.15" xlink:href="#linear-gradient"/>
    <linearGradient id="linear-gradient-42" x1="216.93" y1="284.37" x2="217.27" y2="284.37" xlink:href="#linear-gradient"/>
    <linearGradient id="linear-gradient-43" x1="218.64" y1="154.65" x2="219.99" y2="154.65" xlink:href="#linear-gradient"/>
    <linearGradient id="linear-gradient-44" x1="220.34" y1="138.94" x2="220.68" y2="138.94" xlink:href="#linear-gradient"/>
    <linearGradient id="linear-gradient-45" x1="314.56" y1="304.17" x2="314.9" y2="304.17" xlink:href="#linear-gradient"/>
    <linearGradient id="linear-gradient-46" x1="43.84" y1="345.36" x2="52.03" y2="345.36" xlink:href="#linear-gradient"/>
    <linearGradient id="linear-gradient-47" x1="429.89" y1="236.45" x2="452.82" y2="236.45" xlink:href="#linear-gradient"/>
    <linearGradient id="linear-gradient-48" x1="429.61" y1="231.63" x2="450.17" y2="231.63" xlink:href="#linear-gradient"/>
    <linearGradient id="linear-gradient-49" x1="458.93" y1="242.4" x2="487.76" y2="242.4" xlink:href="#linear-gradient"/>
    <linearGradient id="linear-gradient-50" x1="136.36" y1="502.76" x2="142.43" y2="502.76" xlink:href="#linear-gradient"/>
    <linearGradient id="linear-gradient-51" x1="143.19" y1="504.47" x2="149.07" y2="504.47" xlink:href="#linear-gradient"/>
    <linearGradient id="linear-gradient-52" x1="145.24" y1="496.81" x2="151.03" y2="496.81" xlink:href="#linear-gradient"/>
    <linearGradient id="linear-gradient-53" x1="150.49" y1="506.57" x2="155.76" y2="506.57" xlink:href="#linear-gradient"/>
    <linearGradient id="linear-gradient-54" x1="152.33" y1="499.04" x2="157.29" y2="499.04" xlink:href="#linear-gradient"/>
  </defs>
  <path class="cls-9" d="M344.94,139.97l-8.18,8.87c2.02-6.11,6.46-9.18,8.38-15.85,2.8-9.73,1.62-19.82-4.4-28.06-3.28-4.49-8.14-6.15-10.8-10.7,15.12,4.38,22.8,24.96,17.08,39.26,6.38-6.01,20.18-4.88,22.74,4.55,5.89,21.71-27.46,23.08-24.81,1.94ZM353.64,131.94c-10.31,2.28-9.8,21.45,3.93,21.53,16.07.09,14.31-25.56-3.93-21.53Z"/>
  <path class="cls-8" d="M48,324.29l20.83,12.94-22.87,36.83-20.83-12.94,22.87-36.83ZM66.38,337.3l-18.32-10.15-19.62,33.34,17.4,10.9,20.54-34.08Z"/>
  <path class="cls-7" d="M317.63,113.34c-.7.7,1.93,6.04-3.07,5.53-4.25-.43-1.64-4.78-2.38-5.53-.33-.33-4.13.69-5.17-.64-.83-1.07-.77-16.07,1.09-17.43s15.39-1.4,16.71,1c.38,3.48,1.49,15.55-2.19,16.93-1.21.46-4.74-.11-4.99.13ZM322.75,96.27h-12.29c-.24,0-1.05.88-1.71.68v14c0,1.45,3.67.15,4.43.99,1.81,2.01-.05,4.38.69,4.81,2.85,1.66.9-4.06,2.34-5.17,1.21-.93,4.99.33,6.24-.59,1.15-.86,2.31-13.85.29-14.73Z"/>
  <path class="cls-6" d="M297.3,43.52c-1.51-1.4.68-3.77.24-4.63-.76-1.48-5.06-.94-5.18-4.34-.04-1.27,5.95-12.1,7.13-12.75,3.35-1.84,14.12,3.74,15.46,6.5,1.45,3-4.41,13.7-6.51,14.78-2.51,1.3-3.85-1.8-5.42-1.39-.77.2-2.37,4.93-5.72,1.82ZM307.98,41.58c.61-.26,5.6-10.18,6.14-11.79-.28-1.37-11.69-7.59-13.09-7.19-.67.19-7.33,11.21-7.2,11.9.22,1.18,4.42,1.95,5.05,3.06.93,1.63-.93,4.22.68,4.77,3.15-5.28,6.38.15,8.42-.74Z"/>
  <path class="cls-3" d="M68.39,88.91l10.71,14.55-17.1,12.59-10.71-14.55,17.1-12.59ZM67.52,92.28c-.83.02-13.25,8.96-13.3,9.79l8.4,11.1,13.99-10.41c-2.12-1.43-6.88-10.52-9.09-10.48Z"/>
  <path class="cls-4" d="M280.09,18.43c-.2.13.32,3.52-2.76,3.15-3.56-.43-2.35-3.24-2.85-3.69-.9-.8-3.64-.66-4.34-2.19-.63-1.39.96-14.71,3.6-15.59,1.93-.64,14.9,1.44,15.76,3.78.64,1.75-.42,13.5-1.56,14.55-2.15,1.96-7.49-.23-7.84,0ZM278.77,17.17c2.11-.69,7.07.98,7.82-.06.35-.48,1.82-11.09,1.59-11.82-1-3.12-10.95-2.72-13.79-3.15-1.38.62-2.71,11.81-2.43,12.45,1.25,2.89,6.63-1.53,4.04,4.53,3.57,1.02,2.57-1.88,2.78-1.95Z"/>
  <path class="cls-2" d="M97.1,296.32c-.18,8.46-15.62.83-12.96-2.05.49-.53,8.63,7.75,12.96,2.05Z"/>
  <polygon class="cls-1" points="95.73 293.59 93.64 291.86 95.39 288.83 95.73 293.59"/>
  <path class="cls-5" d="M88.22,287.45v4.1s-2.04,0-2.04,0c-.1-1.6-.39-4.27,2.04-4.09Z"/>
  <path class="cls-20" d="M316.95,75.78c-6.42-1.7,8.06-13.2-4.09-6.83-.57-5.37,6.32-4.4,7.4-.22-1.13,2.77-4.22,3.34-3.31,7.04Z"/>
  <path class="cls-21" d="M299.29,48.57c0,1.81-1.47,3.29-3.29,3.29s-3.29-1.47-3.29-3.29,1.47-3.29,3.29-3.29,3.29,1.47,3.29,3.29ZM295.11,47.12c-.34.16-.97,3.2,1.01,2.72s.6-3.49-1.01-2.72Z"/>
  <path class="cls-22" d="M280.14,26.3c0,1.75-1.42,3.17-3.17,3.17s-3.17-1.42-3.17-3.17,1.42-3.17,3.17-3.17,3.17,1.42,3.17,3.17ZM278.03,25.26h-2.05s0,2.06,0,2.06h2.05s0-2.06,0-2.06Z"/>
  <path class="cls-23" d="M362.63,147.55c2.63,3.19-8.2.52-10.17,1.29-.52-3.47,9.6-1.98,10.17-1.29Z"/>
  <path class="cls-25" d="M352.81,137.24c2.5-.4,3.16,5.71.67,6.81-2.22-.9-2.95-6.44-.67-6.81Z"/>
  <path class="cls-36" d="M360.66,137.93c2.65-1.83,3.92,4.81,1.68,5.45s-2.91-4.6-1.68-5.45Z"/>
  <polygon class="cls-37" points="301.93 87.4 288.96 91.9 286.23 91.15 301.93 87.4"/>
  <path class="cls-38" d="M55.68,346.04c0,4.11-3.34,7.45-7.45,7.45s-7.45-3.34-7.45-7.45,3.34-7.45,7.45-7.45,7.45,3.34,7.45,7.45ZM47.79,340.14c-7.81.76-6.37,12.52,1.79,11.47,7.19-.93,4.83-12.11-1.79-11.47Z"/>
  <path class="cls-39" d="M62.27,341.38c-2.43-1.3-17.81-7.92-13.98-10.92,1.34-1.04,17.84,8.78,13.98,10.92ZM50.67,331.83c-1.53-1.26-1.55,1.32-.33,1.36.6.02.39-1.31.33-1.36ZM51.36,333.86l2.71,1.04c-.59-.73-2.5-2.89-2.71-1.04ZM55.79,335.92v.68l.34-.34-.34-.34ZM58.53,337.29v.68l.34-.34-.34-.34ZM60.91,338.66h-1.36v.67h1.36v-.67Z"/>
  <path class="cls-24" d="M49.3,359.83c.36.48.17,1.78-.97,1.32l-13.36-8.83c2.27.64,13.52,6.44,14.33,7.52Z"/>
  <path class="cls-27" d="M45.89,367.32c-4.7-1.84-11.09-4.91-14.33-8.86,4.97,2.33,10.45,4.85,14.33,8.86Z"/>
  <path class="cls-26" d="M47.25,362.56c.1.16.24,1.43-.35,1.36-.79.11-12.82-6.48-13.3-8.88,1.75,1.08,13.21,6.87,13.64,7.52Z"/>
  <path class="cls-28" d="M316.26,109.24c-5.88-1.64,5.2-7.18-.94-8.84l-3.15,2.69c-.26-1.99.3-3.75,2.43-4.1,9.84,1.66,2.33,5.05,1.65,10.25Z"/>
  <path class="cls-29" d="M307.21,28.18c1,.75,1.58,3.53.77,4.79-.22.35-5.99,5.4-6.37,5.25-4.23-1.63,5.43-6.42,5.1-7.83-1.29-1.9-3.07-.76-4.44.31-3.49-3.21,2.47-4.38,4.94-2.53Z"/>
  <path class="cls-45" d="M149.67,142.71c-4.45,2.77-7.64.87-9.87,6.84-7.01,18.76,23.54,20.92,22.17,3.06-.63-8.14-6.31-7.09-10.93-11.27,19.7,1.71,15.51,28.3-4.28,25.09-13.93-2.26-12.53-28.1,2.91-23.72Z"/>
  <path class="cls-31" d="M61.6,107.18c-.45-2.61,3.51-.69,5.47-1.68,1.29-.65,1.34-3.01,2.01-3.45,3.84-2.53-.44,9.86-7.48,5.14Z"/>
  <path class="cls-46" d="M157.18,152.94c-.81,6.17-8.6,9.21-12.96,4.42,2.15-1.52,3.95,1.16,7.54.04,2.73-.85,2.83-4.04,5.42-4.46Z"/>
  <path class="cls-44" d="M59.55,100.37c1.05-1.13,3.82,3.38,1.7,3.39-.64,0-2.34-2.71-1.7-3.39Z"/>
  <path class="cls-30" d="M146.25,149.53l.69,4.09c-2.07.69-3.46-4.54-.69-4.09Z"/>
  <path class="cls-47" d="M153.77,148.16l-.33,4.09c-1.66-1.51-2.71-3.98.33-4.09Z"/>
  <path class="cls-35" d="M67.06,100.36c-1.14,1.81-2.93-3.63-1.02-3.39.95.12,1.39,2.81,1.02,3.39Z"/>
  <path class="cls-33" d="M279.47,13.08c-.2.22.34,7.14-1.87,1.23,2.9-3.18,7.67-10.78.09-4.77-2.76-.17,1.16-6.57,5.1-3.04,4.44,3.98-2.48,5.63-3.33,6.58Z"/>
  <path class="cls-32" d="M203.04,89.88c0,2.13-1.73,3.86-3.86,3.86s-3.86-1.73-3.86-3.86,1.73-3.86,3.86-3.86,3.86,1.73,3.86,3.86ZM200.93,89.78c0-.97-.79-1.76-1.76-1.76s-1.76.79-1.76,1.76.79,1.76,1.76,1.76,1.76-.79,1.76-1.76Z"/>
  <path class="cls-34" d="M33.6,244.44c.13.05.92,2.76-.34,2.71-1.66-.07-1.97-3.68.34-2.71Z"/>
  <g>
    <path class="cls-41" d="M129.19,302.46c.27-.1,1.43-.2,1.37.34.07.69-.94.17-1.37.34.1-.07-.09-.65,0-.68Z"/>
    <path class="cls-40" d="M128.51,303.15c.21-.07.56.1.68,0-.03.01-.35,1.42-.68,0Z"/>
    <path class="cls-42" d="M321.39,60.77c6.62,1.22,3.89,17.58,1.93,18.31-1.3.48-5.39-.18-5.69.12.17,1.01-.24,5.23,0,5.47.8.81,19.46-.25,22.86.01,18.23,1.4,38.43,6.05,51.56,19.45,2.15.46.81-6.14-.01-7.51-2.94-4.89-29.8-15.89-36.18-17.76-3.09-.9-22.93-4.32-23.21-5.48-.23-.99.74-1.52,1.62-1.65,3.22-.47,18.57,3.55,22.63,4.72,12.83,3.7,24.55,9.77,35.81,16.75-6.1-28.94-32.72-51.74-62.11-54.28.34.57,10.84,5.2,5.78,6.82-.89.28-14.14-7.55-17.28-6.93-.27-.36-.27-2.22-.01-2.54.65-.8,18.92-6.91,19.7-6.23,2.87,2.53-8.61,4.56-8.87,6.13,29.62,2.11,53.27,22.35,63.5,49.5,1.18,3.12,1.03,8.28,2.26,10.37,2.36,4,19.81,14.1,21.96,21.38,2.27-.71,7.88-23.35,6.41-26.86-3.49-8.35-26.82-16.08-34.73-19.22.17-2.56,14,2.37,15.47,2.95,7.43,2.97,14.06,7.89,20.01,13.09l-5.46-28.67c-2.59-2.45.56,15.46-5.38,9.84,2.97-3.22-1.29-20.36,4.01-18.38.98.36,13.3,14.69,13.52,15.86,1.32,6.92-7.53-4.82-8.72-5.63,5.57,8.68,2.91,21.91,4.78,30.03.34,1.47,7.03,9.64,8.53,12.64,8.16,16.29,11.44,34.38,10.57,52.59,60.58-10.69,92.91,43.21,53.27,90.46,5.96,2.63,2.74,3.8,2.97,4.8.33,1.46,2.22,2.39,1.5,3.76-.89,1.7-31.09,19.41-33,19.65-2.53.33-5.68-3.21-7.9-3.12-2.47.1-9.48,5.73-12.74,5.99,8.72,10.03,19.38,22.53,16.39,36.86,5.79-4.21,9.26-11.04,11.25-17.76.93-3.13.48-12.9,3.66-9.09.14,12.71-5.87,23.42-15.38,31.28,11.94,33.25,17.48,71.31,9.7,106.18-6.3,28.22-25.61,59.81-59.06,53.93.61-3.97,6.22-1.09,9.17-1.35,25.63-2.31,39.44-24.29,45.93-46.97,10.07-35.19,4.22-73.78-6.64-108.02-1.57.74-7.96,10.08-8.08,10.74-.21,1.17,7.94,18.49,9.08,22.07,9.16,28.81,9.92,65.82-13.28,88.39,30.31-8.58-8.36,10.16-10.21,5.38,2.86-2.71,5.48-16.86,6.43-18.04.62-.76,2.85-.92,3.09-.66,1.59,1.67-3.97,12.53-1.71,11.6,25.99-27.01,21.65-71.54,5.14-102.41.21,23.52-5.2,48.39-15.46,69.55-2.94,6.06-9,13.4-11.5,19.22-.85,1.98.15,4.19-.69,6.13-.45,1.04-2.63,1.33-3.01,2.51-.93,2.94,1.93,8.31-1.42,14.92-.85,1.68-6.83,8.04-8.46,7.75-4.21-.73,1.28-8.72-3.16-8.8.72,22.76-2.03,45.76-2.11,68.63-.01,3.27,2.32,6.39,1.46,10.95-.91,4.78-6.07,3.74-6.17,4.74-.18,1.75,13.01,13.91,12.93,18.37-.16,9.28-15.57,6.76-21.09,4.13-15.74-7.52-5.77-18.13-8.33-22.05-.58-.9-6.52-.84-7.49-1.88-1.1-1.19-2.72-10.47.8-10.95l-4.13-60.31-4.68,59.7c2.66.75,2.47,7.39,1.92,9.57-1.15,4.5-7.57,3.1-8.17,3.79-.45.52,2.33,9.48,1.06,13.68-2.43,8.07-26.71,16.56-29.58,7.67-2.87-8.87,10.37-14.22,12.81-21.71-7.49-1.29-8.38-3.63-8.17-10.9.04-1.27,1.76-2.08,1.75-2.72-.02-4.02-2.11-9.47-1.09-14.02-15.06,7.46-31.66,12.57-48.47,14.33-2.24,17.64,14.05,23.11,23.57,32.76,19.07,19.33-10.35,21.32-23.83,14.95-5.45-2.57-11.59-11.2-12.39-11.52-1.36-.54-.25,1.94-3.21,1.21-19.69-4.87-3.1-23.22-7.64-36.11-17.55-1.57-34.12-8.06-44.78-22.46l4.02,52.84c-.68,1.37-5.91,4.43-7.44,4.93-1.46.47-2.48-1.51-3.39-1.1-.5.23-3.98,6.81-6.52,8.85-11.42,9.14-46.61,8.34-30.93-11.13,4.15-5.15,12.21-9.32,16.97-15.12,8.76-10.67,5.57-14.41,6.12-27.18.03-.68,2.02-.66,2.09-2.17.23-5.1-2.47-12.66-2.08-18.12l-40.31,3.73-8.67,23.58c-2.32.79-24.44-5.46-26.09-7.21-4.27-4.51,4.81-17.45,3.07-20.78-.33-.62-10.1-5.43-12.2-6.96-26.72-19.53-41.03-57.62-23.69-87.94l-38.48,2.82c-9.24,33.7.5,78.11,32.69,96.16l-5.13-9.54c1.96-2.05,6.11,5.7,7.52,7.15,1.23,1.27,11.01,7.13,6.36,9.12-1.01.43-23.81,2.51-18.33-2.62h10.58c-35.59-18.29-45.22-64.37-37.63-100.96-32.57-4.14-52.47-32.3-38.95-64.04,1.12-2.62,10.87-18.68,13.76-17.29-.29,4.64-5.91,8.96-8.54,13.64-17.44,31.01,1.39,61.44,35.17,64.87,4.48-20.9,17.44-38.51,31.31-54.16-3.89-3.64-7.81-16.51-10.85-19.21-2.3-2.05-17.06-7.79-21.6-10.49-41.08-24.43-78.14-73.54-41.17-119.23,17.18-21.23,28.59-16.68,47.71-26.71.93-.49,15.87-12.44,16.28-13.41.74-1.72.42-9.48,1.03-12.29,1.98-9.08,4.4-16.7,9.78-24.36,1.9-2.7,11.16-11.37,11.52-12.37,3.57-9.85-1.98-14.93,9.98-24.84,19.42-16.08,38.25-9.02,58.97-10.61,6.46-.5,16.52-5.21,24.71-6.08,2.49-.26,14.68.38,15.26-.1.29-.24-1.42-4.6-.38-7.55.93-2.64,5.1-3.18,5.69-4.21.64-1.14-.22-3.02,1.52-5.65,2.01-3.03,5.48-2.91,7.56-4.73,4.1-3.6,5.15-9.15,13.3-9.29,3.18-.05,6.6,2.52,8.96,2.55,5.13.06,7.05-4.74,15.04-1.28,1.5.65,8.95,6.53,10.5,7.93,1.71,1.54,1.75,4.6,2.86,5.67,1.6,1.54,5.52,1,7.5,5.13.27.56,3.78,11.19,3.9,11.81.49,2.72-.69,13.19-.35,14.68.6,2.71,7.17,5.06,1.08,8.84,1.13-3.56,1.1-5.44-2.73-6.83,3.8,5.75-3.07,13.43-3.27,16.15-.11,1.53,2,3.7,1.86,6-.13,2.1-2.63,4.11-2.58,5.4.07,1.78,5.91,7.33-.8,9.32,4.36-5.41-3.49-7.93-3.95-12.78-.14-1.52,1.6-4.61,1.22-4.96-3.18-2.9-8.46,7.91-9.95,10.18-1.18,1.79-5.14,4.47-5.59,6.01-.75,2.55-.27,12.66.71,15.37,2.49,6.83,6.65,3.59,9.54,4.75,5.59,2.25,24.77,13.14,28.54,17.25,7.42,8.06,10.17,24.35,13.64,34.51l8.86-4.11c-1.44-1.57-4.76.38-4.09-3.39,14.39.92,28.53-10.11,39.52-18.86,11.81-9.4,36.64-36.18,34.2-52.49-.42-2.8-12.35-10.56-15.24-12.07-20.7-10.81-48.75-10.47-71.46-8.08.34-2.6,7.46-1.71,9.55-2.05-4.04-.28-2.14-5.55-2.72-6.14-.36-.37-4.17,1.1-5.32-1.85-.65-1.66-.6-16.58,1.56-16.58,3.4,0,9.32-.55,12.29,0ZM235.7,32.78h-1.36v.67h1.36v-.67ZM237.75,32.78h-1.36v.67h1.36v-.67ZM260.62,32.77v.68l.34-.34-.34-.34ZM261.99,33.46v.68l.34-.34-.34-.34ZM231.95,34.14v.68l.34-.34-.34-.34ZM263.35,34.14v.68l.34-.34-.34-.34ZM280.41,49.18l.35,1.02.35.32v-.67l-.7-.67ZM213.52,53.27c-.81.81-2.24,2.14-2.06,3.38.7-.86,2.07-2.24,2.06-3.38ZM285.54,64.18l-.33-3.41c-1.5,1.06-1.49,2.75.33,3.41ZM322.75,62.82h-13.31v14.34c0,.51,5.84-1.72,5.8,6.13.42-9.42,6.48-4.81,7.85-6.12.53-.5,1.46-13.56-.34-14.34ZM209.76,64.87c-10.95-.97-22.77-.27-32.77,4.76,5.99-1.91,26.77,13.13,28.33,12.97,3.12-.33-.87-15.39,4.44-17.73ZM166.74,69.65c-22.91-2.01-62.94,1.19-62.81,32.08l14.33-8.2c-1.78-.57-14.77,2.74-10.82-1.95.67-.8,18.47-3.4,20.44-1.71.78,2.49-16.31,26.55-7.21,5.73-12.02,7.73-19.48,5.71-12.75,21.6,9.45,22.33,14.14-2.31,20.05-12.27,5.8-9.77,14.08-17.92,22.85-24.94l15.93-10.35ZM284.86,68.96v5.45s.69,0,.69,0v-5.45s-.69,0-.69,0ZM204.81,84.15c-4.05-4.27-28.11-13.77-33.97-12.85-3.02.48-13.6,7.27-16.6,9.4-13.57,9.6-25.79,23.99-30.5,40.15,20.08-13.06,46.68-19.36,70.57-16.3,5.31.68,17.8,5.83,20,5.9,1.34.04,9.39-4.82,12.51-3.95-2.39-9.95-6-6.37-12.28-11.6.23,2.67-2.34,4.15-2.72,6.54-.29,1.85,2.23,8.57-.38,6.44-5.3-5.03,1.78-10.09,1.56-13.81-.16-2.8-5.06-9.47-3.95-13.51-5.57,6.09,2.2,8.07,2.05,13.65-2.33-1.09-5.89-9.63-6.3-10.07ZM277.92,92.98c-.36-.56-2.22-.9-3-.2-5.1,4.53,6.35,5.39,3,.2ZM221.99,93.6c-1.03-.77-4.1.31-3.35,2.32,1.17,3.12,6.48.02,3.35-2.32ZM444.55,156.28c4.41-6.27-6.83-55.19-16.98-61.37,1.3,5.36-7.56,22.8-7.37,25.49.08,1.14,8.67,16.42,10.1,20.58,1.88,5.44,3.08,11.04,3.72,16.77.54.79,10.22-1.04,10.53-1.48ZM280.75,96.96c-5.93,3.22-.3,13.85.72,5.11.21-1.8-.3-3.42-.72-5.11ZM408.45,133.14c2.15-1.43,8.14-11.28,7.88-13.04-.43-2.94-16.78-18.66-20.85-20.41-1.09,12.23,13.32,20.22,12.98,33.45ZM213.8,112.74c-23.39-10.19-51.77-7.4-74.82,2.54-8.47,3.65-20.01,8.1-17.98,19.23,22.21-3.76,44.46.35,63.48,12.29,1.36-7.84,15.47-14.78,18.48-19.43,1.41-2.18.81-5.33,2.68-7.56,2.78-3.32,8.99-1.18,8.16-7.07ZM82.08,150.2c5.79-2.41,29.22-15.15,29.96-20.92.15-1.17-11.06-16.96-9.49-21.41-13.49,10.16-19.51,25.79-20.47,42.33ZM334.7,178.21c1.84.9,10.15,4.55,11.43,4.65,3.08.24,28.94-17.33,33.16-20.49,5.24-3.92,28.13-22.3,28.34-28.01.25-6.43-7.86-19.73-12.52-24.43-6.08,31.56-33.15,54.37-60.42,68.28ZM210.44,119.49c-3.37.17-4.48,3.16-4.09,6.13l4.09-6.13ZM407.08,168.64l24.47-9.94c-1.63-12.46-5.4-25.05-13.21-35.11-.75,4.16-7.81,10.9-8.4,14.16-.55,3.02.97,8.16.54,12.11-.7,6.37-1.91,12.58-3.39,18.79ZM118.12,135.03c.57-.68,1.33-7.87.49-8.03-2.71.85-1.6,4.62-2.38,5.14-1.09.73-2.5-.62-3.41-.04-1.74,1.12-4,4.19-5.48,5.81,1.76-.52,10.11-2.09,10.78-2.88ZM204.97,129.73c-1.56-1.18-18.14,15.04-18.36,17.51-.07.81,5.33,5.69,5.73,5.68.75-.02,8.91-8.94,11.84-9.19-1.77-2.6-1.96-6.38.09-8.9-3.32,1.33-1.65,6.45-2.04,9.22-5.06-5.95.39-9.38,2.74-14.33ZM220.68,142.7c1.67-2.24,3.83-2.39,3.41-7.51-3.47-.73-7.06,5.66-5.46,7.51.17.19,1.61-.19,2.05,0-.97,1.3-2.96,1.96-2.73,4.09,3.62-1.02,5.57.58,4.77-4.1-.6-.13-1.63.18-2.05,0ZM170.83,196.64c-.43-7.89.75-15.55,2.39-23.22,1.88-8.79,5.78-16.56,8.61-24.95-18.24-11.79-40.25-14.94-61.51-11.22-1.85,2.09,3.3,29.17,6.21,32.35,2.44,2.66,16.08,5.74,19.39,9.96-5.66-14.74,11.34,6.83,9.2,8.89-6.98-.28-28.99-3.49-7.51-4.43l-18.76-10.59c4.1,10.56,13.33,20.74,22.24,27.6,2.57,1.98,20.43,12.93,22.13,12.67.89-.13.99-1.16.69-2.04-.65-1.93-16.57-17.53-16.74-18.78-.09-.67.66-1.64,1.02-1.68.94-.09,10.51,12.59,12.98,13.63l-3.77-9.2,3.42,1.01ZM275.98,139.96c.39-1.81-5.04-4.51-5.45-4.09-1.75,1.8,4.21,4.37,5.45,4.09ZM118.27,150.55c-.43-3.03,0-7.65,0-10.92,0-.27-.89-1.04-.69-1.71-15.76,1.7-21.37,12.08-26.63,25.6l32.1,5.12c-1.72-5.92-3.91-11.95-4.78-18.09ZM217.95,139.29c-30.68,8.23-33.38,36.44-39.97,62.76l16.75,15.75-.67-35.5c5.86,9.79,3.37,25.87,2.71,37.2-1.19,20.34-6.67,42.71-7.52,62.12-.19,4.3-.22,8.57,1.4,12.65l2.72-3.41c.17.84-.3,2.94.04,3.38.56.73,16.32.69,18.41.72l6.14-155.67ZM275.9,140.73c-.23-.27-3.85-.62-4.68-1.45-2.05,5.51,7.56,4.83,4.68,1.45ZM283.5,294.27h17.75c-3.31,3-.57,8.4-.68,12.97,1.1.21,1.48-.24,1.89-1.17,1.2-2.73,1.71-19.91,1.54-23.77-.8-18.27-6.06-39.16-7.52-58.03-1.09-14.14-2.03-28.51-.69-42.65,4.88,1.46,1.34,6.59,1.31,9.16-.12,9.12.89,17.97,1.43,27.02l17.74-14.33-17.05,17.42c-.48,20.87,5.63,42.27,6.79,62.8.39,6.9-4.4,16.45,2.74,20.81l1.37-5.46c-.33,10.11,12.57,9.32,15.7,2.04,0,1.48-3.15,6.73.35,5.48,1.47-.52,1.4-8.6,4.44-8.88-.17.84-3.55,9.51-1.03,8.86,5.04-5.73,6.25-14.72,5.72-22.09-8.9-31.06-13.53-64.01-21.66-95.09-6.32-24.14-10.66-40.18-35.93-50.1l5.8,155ZM366.8,202.78c9.73-10.86,19.87-20.74,31.46-29.63,1.45-1.11,4.56-.64,6.41-3.15,2.47-3.34,6.16-29.63,3.42-30.01-15.94,18.66-36.57,32.57-57.69,44.71,7.24,3.9,14.3,9.69,16.39,18.09ZM275.84,144.2c-.54-.4-3.59-.3-4.63-.82-.72,3.7,2.49,4.03,5.45,4.09.24-.23-.32-2.9-.82-3.27ZM98.47,144.76c-.65-.58-14.95,7.42-15.37,8.18-1.04,1.93.62,14.49,5.47,10.24,1.45-1.27,6.05-16.26,9.9-18.42ZM220,150.21c1.58-1.77,3.43.89,2.73-3.41-2.41-.14-5.25.56-4.77,3.41.6.13,1.61-.17,2.04,0-2.47,2.76-2.45,3.29-2.71,7.18-.42,1.8,1.33.71,2.02,1.01-8.11,7.04,6.8,4.87,2.73,0-.19-.23-2.24.22-2.73,0,1.44-1.25,3.14-.22,3.43-2.37.72-2.79-2.07-1.22-2.07-2.06,0-.27,3.21-1.26,2.06-3.75-.77-.17-2.17.22-2.73,0ZM276.65,148.19l-4.75-.71c.55,1.44-.41,10.55,0,10.92.17.16,4.6.15,4.79,0,1.61-1.38-1.39-2.88-1.38-3.07.03-.4,4.98-3.8-2.05-4.1,2.83-.83,3.99.82,3.4-3.05ZM175.61,206.19l14.93-50.35c.15-2.99-4.07-3.57-5.71-5.63-8.83,16.16-15.33,37.97-9.22,55.98ZM80.03,155.67l-11.6,9.55,12.97-1.36-1.37-8.19ZM433.71,180.93c38.05-12.94,76.89,11.19,51.21,52.19.18.79,13.22,7.5,14.33,7.63,4.2.5,12.18-19.14,13.16-23.1,11.08-44.66-26.33-66.72-65.6-58.09-1.41,5.04-.34,11.82-3.89,15.89l.7-16.36c-1.26,1.05-8.77,1.56-9.15,2.11-.85,1.2.66,16.57-.76,19.72ZM277.26,159.85c-2.59-3.56-11.65,2.89.08,3.33-.14-.89.33-2.76-.08-3.33ZM431.65,162.5c-3.49-.58-32.54,10.96-27.99,15.7,1.25.27,6.41-6.07,6.81-2.39.08.74-9.83,10.55-10.58,10.58-3.04.1-.93-6.41-2.04-8.2-2.92-1.12-28.37,23.98-29.36,28.05-1.59,6.58,2.05,16.93-5.12,24.18-7.18,7.27,1.17-9,1.6-10.69.18-.71,2.42-10.79-.22-8.76-2.36,1.81-10.19,22.47-8.9,25.59l37.4,11.86c3.1.14,19.91-15.57,21.68-19.69-2.8,2.61-17.75,18.6-20.48,17.74-3.67-1.17,8.59-9.23,10.24-10.91,13.49-13.68,22.81-31.39,25.58-50.54-1.33-1.42-11.85,5.74-12.94,5.85-1.01.1-1.45-.48-1.39-1.41,4.5-5.26,15.7-4.18,15.7-12.3v-14.68ZM222.04,163.18c-6.76-2.28-8.14,14.82-.29,9.61,1.26-3.87-.54-4.14-3.81-4.49,4.06-.25,4.52-1.06,4.1-5.12ZM269.51,163.88l-21.92,16.38-21.42-15.38c3.84,2.92,17.67,16.08,21.49,16.09,3.4,0,19.23-13.51,21.86-17.09ZM277.36,163.86h-4.79v4.11h4.79v-4.11ZM87.54,165.92c-1.75-2.14-1.75,4.18,0,2.04.06-.08.06-1.96,0-2.04ZM82.66,166.7c-2.02-1.17-16.45.8-19.06,2.24-3.57,1.96-15.38,18.09-17.99,22.3-4.74,7.66-8.58,15.91-11.33,24.51,9.62,2.18,5.55,1.08,8.61-4.01,3.87-6.41,7.51-9.2,15.56-8.2,7.97.98,8.32,7.5,9.35,8.08,1.27.7,9.56-2.99,14.57,3.5,6.57,8.51-3.01,17.11-1.68,18.06,7.18,3.27,10.47-8.03,16.78-10.59-5.46-10.51-11.67-20.19-12.69-32.42-.35-4.23,1.51-21.36-2.13-23.47ZM173.57,215.76c-.46-.64-11.74-4.6-14.54-6.29-10.85-6.52-18.35-13.1-26-23.16-2.37-3.12-7.28-13.23-9.35-14.55-3.52-2.24-31.4-6.93-34.01-5.09-5.74,4.05,8.17,20.62,11.19,23.82,11.44,12.14,32.11,24.44,48.14,29.01,3.09.88,20.48,4.82,22.23,4.25.98-.32,2.59-7.66,2.35-7.99ZM59.55,169.33c-23,5.31-45.22,20.43-53.05,43.55-16.82,49.69,29.21,89.22,70.11,106.65-1.53-2.74-3.69-15.02-5.11-16.39-.69-.67-7.89-2.67-9.92-3.73-10.19-5.32-17.85-10.19-24.17-20.21-1.88-2.98-5.84-14.21-6.5-14.67-1.97-1.38-14.06,2.83-15.69-8.19-1.08-7.28,3.99-10.08,4.05-12.23.1-4.07-7.07-7.05-2.17-17.88,4.08-9.02,10.95-7.1,14.31-9.93.94-.79,7.65-18.7,9.85-22.58,5.05-8.92,11.59-16.71,18.29-24.37ZM277.35,169.32h-4.79v2.74h4.79v-2.74ZM278.04,173.41h-5.49s0,4.13,0,4.13h5.49s0-4.13,0-4.13ZM221.37,174.1c-2.68-2.79-8.84,5.05-2.04,5.12-6.65-.17-1.35,12.36,1.97,6.02.14-.26.05-4.86.11-5.91.03-.67-1.38-.2-1.41-.8-.01-.26,3.27-2.48,1.38-4.44ZM402.97,174.79c-2.28-.09-3,2.31-2.72,4.09,1.07-.15,3.3-3.49,2.72-4.09ZM123.05,211.65c-13.56-9.23-26.7-19.29-35.49-33.44-2.67,15.03,3.63,30.03,12.27,42.04l23.23-8.59ZM278.04,178.2h-5.46c-1.04,2.81,2.71,2.5,2.74,3.07.04.77-2.3-.31-2.76,2.04-.1.49.69,5.09.69,6.73,0,.68,1.39.19,1.39.79s-1.4.13-1.38.79c.09,3.48-.05,7,0,10.48l5.37-1.08c-1.09-4.76.87-5.24-4.69-5.41,7.09,1.23,2.8-7.94,4.16-12.94-5.42-.49,2.93-1.48-.05-4.48ZM479.44,185.72c-14.12-7.57-31.5-7.15-46.29-1.93-2.03,15.9-8.31,31.11-17.86,43.91l5.44-4.11c-2.74,4.19-5.62,9.2-8.89,12.96-.57.65-5.06,5.21-5.37,5.49-3.09,2.86-7.01,4.9-10.31,7.5,8.31,4.47,17.44,6.11,26.17,10,5.17,2.3,24.08,15.22,25.55,15.48,2.97.53,8.8-4.02,11.73-5.02l.71-.98c-.64-1.31-24.14-10.8-25.95-13.31-.22-.31-1.44-7.13-1.37-7.51.17-.9,2.75-.49,2.05-2.4-2.94-.44-13.19.14-15.26-.78-2.17-.97-.59-4.65-1.15-5.34-.15-.18-3.03.23-3.36-1.05-.61-2.37,15.4-13.15,16.06-15.39,1.33-4.49-8.36-14.46,6.8-15.66,12.62-1,17.23,4.76,11.94,16.36,16.33-.94-5.29,4.11-9.22,4.16-3.8.05-7.02-2.98-8.72-2.68-.97.17-14.03,11.46-13.47,12.18,6.74-1.84,22.47,7.13,26.28,7.23,4.2.12,21.11-8.91,26.91-9.35,1.29-2.36-8.45-20.34-5.4-24.49-.9,2.81-14.3,2.25-14.32,1.02,7.04-1.13,10.24-2.07,15.36-7.16l1.01,1c-1.49,12.59.05,23.31,14.33,26.01,8.32-11.96,12.36-29.04,1.38-40.67-3.08,5.52,7.16,12.27-2.41,14.34,5.19-5.8.25-6.19-.21-7.91s2.46-17.54-5.6-5.07l-4.76-3.41c-1.46,3.78-2.54,12.22,1.03,15,3.57,2.78,1.51-2.23,4.42-2.03-5.12,16.66-13.69-15.5-4.48-14.36,2.42.3,3.28,3.72,7.21-2.02ZM352.45,238.29h-18.09c-1.51,0-5.97,2.54-3.98-1.38l22.65-.77c3.61-15.99,3.43-38.01-18.33-38.14.12-4.06,6.08-2.21,8.57-1.4,9.06,2.93,14.49,13.42,13.97,22.57,1.04-1.93,7.79-11.58,7.9-12.63.59-5.85-12.22-19.58-18.07-19.81-4.15-.17-23.36,13.92-27.4,11.65-.53-.37-.97-1.2-.67-1.72.66-1.14,21.1-8.93,23.89-10.95,1.44-1.74-11.31-4.21-12.62-4.12s-15.17,6.5-15.42,7.32l14.4,63.04c9.03-5.5,23.74.69,23.2-13.66ZM221.35,191.84c2.16-2.41-2.66-7.29-5.15-4.12-3.29,4.18,3.72,5.71,5.15,4.12ZM215.9,197.32c.94.95,7.98-.08,5.14-4.14-1.22-1.76-8.13,1.12-5.14,4.14ZM220.68,198c-.13-.13-3.19-.11-3.66.1-1.56.73-1.11,12.38-1.16,15.15-.01.69,1.42.2,1.41.8-.01.63-1.41-.15-1.44,1.31-.26,13.95-.43,27.79-.68,41.75-.03,1.47,1.58.72,1.44,1.32-.12.49-2.94.71-2.07,3.41.27.84,2.05-.13,2.07.68s-1.88-.19-2.11.72c-.95,3.79.8,11.7.06,16.01,7.69-.99,2.69-3.37,2.72-3.75.01-.12,1.27-.98,1.34-2.08.11-1.77.91-13.56.73-14.3-.22-.88-1.88.15-2.08-.7-.13-.55,1.74-.13,2.05-2.05.29-1.81.02-6.64,0-8.76,0-.67-1.33.21-1.38-1.48,0-.22.99.19,1.38-2.64.03-.25-3.59-.81.68-2.82.83-2.95-4.85-1.24.05-2.76-.55-6.33,0-12.66-.02-18.98,0-.69-1.41-.2-1.41-.8s1.41-.11,1.41-.79c0-1.87.76-7.03.66-7.39-.25-.86-2.08.13-2.07-.69,0-.43,6.93-2.77-1.37-4.1l3.43-.34c-.19-1.16.26-6.58,0-6.84ZM278.72,208.93c2.12-4.08-3.04-8.58-5.47-6.15-.4.39.62,9.29.67,11.16.02.67,1.38.2,1.39.79s-1.5-.13-1.46,1.35c.07,2.31.07,18.79.76,19.48,1.74,1.74,9.91-1.84.68-3.08l4.1-.35c-3.01-4.92,2.37-15.63-3.42-17.41,4.47.1,3.69-4.36.01-5.8h2.73ZM168.11,326.36v-11.61c2.99,2.55-.58,10.74,2.73,11.61v-11.61c.7-.28,1.37,1.56,1.37,1.71v9.9c0,.1,1.62-.06,2.04,0,.93-1.18-2.88-11.37.69-11.61v11.61c0,.1,2.05.1,2.05,0v-11.61h.68v10.92c0,.1,2.05.1,2.05,0v-10.92h.68v10.92c0,.1,2.05.1,2.05,0v-11.61l2.73,10.92c-3.83-10.81,5.5-17.89,4.83-28.38-.08-1.28-2.77-6.83-2.84-10.87-.19-12.36,9.82-59.58,6.25-66.96-1.7-3.51-12.73-10.75-15.41-14.62-4.68,25.8-13.72,51.15-17.88,77.01-1.9,11.79-3.52,23.26,6.28,32.21l-1.02-6.14c2.15,2.17,5.08,9.1,3.08,1.35,4.4.52.17,4.61,5.79,3.42l-.34-3.41c.17,4.57,5.96,4.82,8.44,1.62,1.37-1.77.79-6.76,2.84-5.35-.51,12.83-10.17,6.73-18.14,9.86-.71,1.06-.8,10.33,1.06,11.64ZM84.13,235.56c-15.62-1.04,1.26-4.79-1.66-16.45-2.4-9.58-14.33-4.52-15.43-5.02-1.64-.75-1.14-6.77-6.79-8.26-16.87-4.45-14.57,11.12-17.09,13.34-.7.62-7.7-2.79-9.64-.96s-4.27,29.09-2.64,31l8.2-1.01c.64,2.2-7.65,2.26-8.2,3.07-.27.4,1.78,8.25,1.71,9.55,10.98-4.79,5.32.43,10.9,4.8,10.28,8.04,15.73-5.05,17.15-5.42.58-.15,8.23,3.67,11.1,1.89,1.25-.77,7.12-24.01,12.39-26.52ZM438.34,209.08c-1.37.12-5.71,1.31-6.35,2.57-4.99,12.78,14.24,20.04,17.72,9.53,3.36-10.15-2.14-12.88-11.37-12.1ZM170.81,226.71c-8.49-1.3-16.99-2.65-25.22-5.16-14.17-4.33-15.08-10.21-31.08-5.12-4.48,1.42-8.85,3.65-12.61,6.49-.11,1.25,15.38,15.47,17.37,16.13,2.22.74,3.98-.77,5.84.24,1.73.94.83,3.24,2.45,5.07,1.37,1.55,17.98,9.79,19.78,9.6,2.02-3.48,2.55-7.53,4.49-11.14,4.05-7.54,10.15-12.66,18.33-15.46-2.22,4.7-8.2,5.89-12.26,10.61-3.97,4.61-6.82,11.35-7.47,17.31l11.94,3.46,8.44-32.02ZM30.87,218.49c-7.1.11-13.56,7.82-13.67,14.71-.08,4.82,4.82,10.67,4.72,11.47-.06.44-3.35,3.43-4.14,5.43-3.55,8.9,4.17,14.78,12.42,12.07-1.24-2.35-.04-6.25-1.03-8.18-.6-1.18-4.31-1.69-4.48-2.43-.35-1.52,3.02-4.85,3.42-6.82,1.49-7.46-1.38-18.37,2.77-26.24ZM147.55,256.79l-26.15-11.74-20.89-20.1c-2.36-1.32-12.36,9.34-12.28,10.27.07.86,11.32,4.64,6.73,14.24-2.05,4.3-7.61,2.93-9.49,4.17-.54.35-1.82,4.72-3.71,6.53-2.28,2.19-6.69,2.68-7.73,4.56-2,3.62-2.06,32.98-.02,36.24.35.56,6.71,2.72,7.38,2.17-15.78-30.97,39.22-26.92,17.76,2.04.98.69,22.25-1.08,23.93-1.66,6.14-2.12,18.55-16.64,28.64-16.09-4.25-9.52-5.53-20.29-4.17-30.65ZM445.99,245.8c2.62,2.17,21.87,13.65,23.43,13.5,2.77-.26,24.32-14.9,29.13-16.58l-25.92-13.31c-.55,1.66,1.9,6.5,1.32,7.46-.76,1.26-24.66,7.09-27.96,8.94ZM231.26,232.82v.68l.34-.34-.34-.34ZM279.4,240.33c1.69-1.83-2.08-6.33-4.49-3.46-2.64,3.15,3.94,4.06,4.49,3.46ZM84.23,251.36c.76-.43,3.85.12,5.87-.62,7.11-2.62,3.08-12.41-2.94-13.84-2.53.04-13.4,20.81-11.55,24.62,5.26.7,8.02-9.81,8.62-10.15ZM388.63,248.54c-4.28-1.93-31.23-11.73-33.54-9.17-.62.68-.93,6.03-1.97,7.44l35.51,1.73ZM439.16,243.76c-2.03-1.17-18.51-5.02-19.09-3.09-1.26,4.19,16.02,3.64,19.09,3.09ZM124.41,241.02c-.64-.63-3.39.54-2.72,2.04s4.14-.65,2.72-2.04ZM279.4,241.01l-4.5.66c.49,4.48-.88,6.31,4.5,5.49v-6.15ZM443.26,245.8c-1.31-.37-8.55.94-7.19,3.43l34.84,18.13,31.05-17.81c-1.3-1.41-8.55-4.63-8.86-1.36-.05.5,4.18-.52,1.04,3.77-1.25,1.71-21.51,13.62-23.11,13.48-1.27-1.89-26.52-12.8-24.36-14.86,4.94,1.09,21.5,12.7,24.91,12.71.99,0,15.88-8.49,17.36-9.69.46-.37,4.98-3.98,2.42-4.39-2.88-.46-18.68,11.73-22.46,11.59-4.45-.16-19.17-12.2-23.46-12.83-3.11-.46-7.82,5.65-2.2-2.17ZM280.08,251.94c2.19-2.11-3.01-5.91-4.79-4.1-2.58,2.62,2.84,5.97,4.79,4.1ZM28.48,249.21v.68l.34-.34-.34-.34ZM386.59,251.26c-5.17-.43-32.05-3.98-34.49-1.38-.66.7-.96,5.55-2.38,6.83,11.07,4.79,25.86,2.34,35.99-3.92.7-.43,1.21.06.87-1.53ZM334.7,253.3c6.48-.65,13.92,7.25,14.33-3.41l-14.33,3.41ZM435.88,254.55c1.68,2.57,30.58,14.28,35.03,17.61,3.53-2.58,31.78-16.67,31.73-18.51-.03-1.23-1.81-.87-2.68-.66-5.49,1.37-23.99,16.36-28.48,16.54-3.76.14-34.3-18.97-35.73-17.58-.09.09-.15,2.19.13,2.6ZM279.99,253.4c-1.05-1.56-6.99-.65-4.37,3.35,2.16,3.3,6.85.32,4.37-3.35ZM431.65,282.66c2.93-3.06-29.57-27.28-33.76-28.7-9.66-3.29-19.49,5.42-29.05,7.89,6.58,1.97,13.1,4.41,19.36,7.26,5.22,2.38,27.98,16.49,29.65,16.83,3.95.8,9.6-3.59,13.8-3.28ZM344.14,263.42c.23-.12,2.37-4.33,1.49-5l-15.7-3.75c.03,1.36,1.63,9.32,2.05,9.56.53.3,11.62-.52,12.16-.81ZM445.3,275.85l-37.54-19.12c5.65,1.25,24.88,23.71,26.6,24.21,1.51.44,8.43-3.3,10.53-3.68l.41-1.41ZM149.67,258.09v15.36c0,1.95,3.64,15.76,7.45,13.25,1.06-.7,4.54-21.81,5.55-24.86l-.02-1.02-12.98-2.73ZM280.08,258.77c-.24-.22-3.25.14-4.1,0v2.72s3.41.01,3.41.01c-4.86.25-5.18,5.08,0,4.1-7.69,1.87-.97,7.79,1.37,5.46.44-.43-.24-11.87-.68-12.29ZM356.55,260.82c-4.5.03-7.99-4.25-9.56,2.03l9.56-2.03ZM71.16,264.23c-2.7.99-7.79-1.91-9.78-1.29-.77.24-2.58,3.5-4.34,4.59-7.89,4.89-15.4,1.08-19-6.7-7.27,2.47-2.8,9.46-.22,14.54,6.52,12.8,19.44,21.28,32.97,25.06l.36-36.2ZM382.49,269.7c-5.95-.94-15.19-6.62-20.87-6.78-.89-.03-15.14,2.45-15.84,2.84-.77.43-9.41,13.83-9.59,14.69-.6,2.73,1.51,9.08.56,12.46,2.35-.5,13.97,1.62,15.02.67.42-.38,1.53-8.04,3.15-10.85,2.3-3.99,8.68-9.4,13.25-10.65,5.77-1.58,10.4.72,14.34-2.38ZM342.21,266.28l-9.55-.69,3.07,11.6,6.48-10.92ZM280.77,271.74c-.15-.14-3.95-.14-4.1,0-1.79,1.72,1.38,3.53,1.38,3.76,0,.47-5.33,6.3,3.37,2.67l-2.69-2.34c1.75-.05,3.1-3.05,2.05-4.09ZM218.63,279.25c-8.42.77-3.37,4.98-3.42,5.45,0,.07-1.33-.19-1.36.46-.13,2.85.33,5.64-.67,8.42,8.83,1.31,4.29-8.24,5.45-14.33ZM414.58,287.43l-12.97-8.17c5.37,7.52,1.48,12.37,12.97,8.17ZM454.19,322.27c21.19-3.36,6.44-34.52-3.72-41.69-3.92-2.77-9.81,1.56-14.03,3.11,8.66,11.31,15.56,24.31,17.74,38.58ZM281.45,279.93c-.17-.17-4.61-.16-4.79,0-.33.31,1.06,7.17.65,7.89,4.52,2.06,6.37-2.6,2.08-3.46l2.05-.33c-.13-.84.22-3.89.01-4.1ZM88.05,283.51c-10.17,1.75-10.75,17.41-1.56,20.36,20.16,6.47,21.78-23.83,1.56-20.36ZM452.13,322.26c.36-6.84-13.74-37.32-19.37-37.54-2.27-.09-8.5,3.29-11.35,3.41l30.71,34.13ZM155.83,290.17c1.98-.65,1.31-2.09-.69-2.04l.69,2.04ZM282.13,291.54c2.23-1.82-6.33-5.61-4.78,0,.98-.17,4.45.27,4.78,0ZM407.15,291.62c-.34.49-.84,11.28-.75,11.86.27,1.76,2.99,3.3,3.15,6.93.11,2.46-1.72,5.29-1.64,6.61.18,3.23,5.45,10.68,3.91,15.16l37.31-7.16c1.93-3.01-27.18-35.17-32.79-35.56-.58-.04-8.9,1.76-9.17,2.15ZM129.19,302.46c-.25.2-.44.48-.68.68-6.9,5.91-12.87,12.57-16.38,21.17,9.26-5.67,18.85-11.29,29.18-14.85.77-.26,15.69-5.64,10.32-.26-.88.88-19.36,7.23-23.26,9.16-1.48.73-18.21,9.68-17.61,10.71l32.08,2.05c-10.07-8.33,5.46-2,9.48-.6l-.03,2.2-12.51,6.61c-3.19-2.96,3.27-3.67,4.42-5.46l-35.4-1.95c-1.2.72-5.38,20.28-4.87,22.74.45,2.13,11.78,12.22,13.62,11.68,7.28-7.89,15.3-14.88,24.11-21.02,3.76-2.62,16.87-11.4,20.49-12.29.91-.23,2.87-1.13,3.21.51s-23.86,15.22-27.24,17.81c-2.56,1.96-19.21,16.13-18.5,18l14.33,8.21c1.89-14.03,12.28-24.64,23.13-32.52,1.98-1.44,10.59-5.29,10.89-5.82.26-.45,1.04-9.9.86-10.39-.27-.77-2.48-.37-3.14-1.77-1.23-2.61.36-8.59-.49-11.8-.35-1.31-4.29-5.53-5.42-8.23-5.34-12.75.04-21.59-17.89-13.35-5.07,2.33-8.5,5.35-12.71,8.79ZM282.13,292.22c-5.94-2.44-5.32,5.38-4.8,9.93.31,2.71.99,7.45,5.13,5.79,1.42-.57-.76-13.51-.33-15.72ZM218.63,293.59c-7.07.76-5.22.69-5.49,7.05-.03.7,3.13.24.03,1.59l-.67,6.38c.87-.35,5.89-1.18,6.06-1.43,2-2.88-1.31-6.05-1.3-6.41,0-.4,2.87-3.92,1.37-7.17ZM295.78,295.64h-11.27c-.16,0-.91-1.29-1.03-.34-.57,9.66,1.72,21.14,4.1,3.75v9.56c0,.1,2.05.1,2.05,0v-12.29h1.37v12.29h1.37v-11.61h1.37v11.61c0,.1,2.05.1,2.05,0v-12.97ZM351.09,296.32c-.54-.53-13-.35-15.02-1.37,1.28,4.68-4.67,10.84-5.31,13.47-.66,2.68.52,7.35-.24,9.32-.52,1.35-2.39.7-2.7,1.53-.54,1.42,2.31,14.24,2.12,17.62-.22,3.83-4.09,10.76-3.93,12.22.03.29,2.33,5.06,2.58,5.22.4.26,6.01-.85,7.15,4.79,9.23-7.64,6.78-18.66,11.26-28.32-.15-.72-15.31-4.28-12.29-6.49l12.28,4.78c.4-4.66,3.56-6.61,3.31-11.98-.1-2.14-2.11-4.2-1.8-7.29.3-3.02,3.72-5.78,3.78-6.31.04-.36-.92-6.94-1.18-7.19ZM211.81,296.32h-19.46c-.15,0-.74-1-1.02-.68-.4.46-.56,10.68-.69,12.29,4.62-.76-.18-8.73,3.4-10.92-1.68,12.75,1.63,19.02,2.75,1.37v10.23c4.98,1.52,1.94-7.83,4.09-10.92v9.9c0,.17-1.06,1.35-.68,1.7,4.8,4.42,2.45-11.6,4.77-12.28.7,2.06-1.54,11.35-.67,12.29.32.35,3.41-.14,3.41-1.03v-10.58h.68v10.92c.85.22,3.41-.13,3.41-1.02v-11.27ZM298.52,295.64h-1.37v12.29c3.62.36,1.37-.85,1.37-1.71v-10.58ZM308.53,308.14l-3.89-5.32,3.45,24.23c3.64-3.61,1.95-14.56.44-18.9ZM121.68,305.2c-15.74,1.92-31.61,2.04-47.12-1.02-.27.87,5.03,16.05,6.19,17.02,1.24,1.05,23.34,7.42,24.87,7.19,2.78-.41,12.05-20.28,16.06-23.2ZM310.8,307.24c.41-.64-.5-1.97-1.35-2.04-.62,1.14.6,3.21,1.35,2.04ZM313.54,307.93c-.34.39.25,8.1,0,9.56,3.27.26-.14-6.81,2.04-8.19-.49,8.14,2.2,14.66,2.4,1.35,1.34,0-1.25,8.22,1.7,7.52l1.37-9.56v9.56l2.04-6.14v6.14s2.05-1.36,2.05-1.36l.69,2.04v-11.61c-2.82-.31-.75,5.75-1.37,7.51l-1.31-7.21c-.87-.66-9.28.02-9.6.38ZM326.51,307.93l1.02,10.22c1.2,0,2.44-10.61-1.02-10.22ZM312.85,314.07c-.02-1.65.55-4.12-1.35-4.78.17,1.2-.06,4.33,1.35,4.78ZM189.95,309.98c-6.47,2.45-3.27,10.52-3.4,15.89,0,.38-3.07,1.31-.68,5.27l4.08-21.16ZM455.56,329.77l6.13-8.19c-3.99,3.02-8.59,2.06-6.13,8.19ZM102.56,329.78l-20.47-5.46,9.21,15.62,11.27-10.15ZM401.6,333.87c-.08-3.51-1.19-7.32-4.08-9.56l-4.11,6.82c3.2-.5,5.75.91,8.18,2.74ZM361.31,325.69l-1.4.42-2.67,7.08c2.3-2,4.48-2.35,7.5-2.06l-3.43-5.45ZM417.33,350.25c8.93-1.66,18.84-5.14,26.56-9.95,3.97-2.47,12.9-7.25,7.59-12.27-1.39-1.31-32.61,8.7-37.51,7.26-1.25,5.25,3.22,9.26,3.37,14.96ZM105.97,332.51l-12.93,10.58,7.83,9.21,5.11-19.79ZM373.62,373.47h10.24c1.21-2.97-2.46-21.04-1.77-21.89,1.05-1.29,3.88-.27,4.5-.65.1-.06-1.03-1.64-.09-2.4,4.75-3.83,11.12-7.33,16.68-9.9l.39-1.6c-10.48-8.72-6.39-.91-7.03.26-.52.94-13.72,11.77-16.14,13.99-.23.21.29,3.27-2.93,1.74-1.09-.52-12.17-15.62-16.68-15.86l-.14-1.93,5.45-1.38c-7.26-2.79-11.85,4.67-15.69,9.56,1.67.57,19.68,8.27,18.43,4.8-1.28-.27-14.27-8.3-11.94-8.89l15.35,10.59-4.09,1.01c3.25,1.35,4.67-1.81,7.37.84l-1.92,21.7ZM435.08,413.07c14-22.32,18.96-51.04,19.1-77.15-10.45,8.3-22.82,14.53-36.18,16.39-.71,4.39,3.94,5,5.35,9.39.65,2.01-.21,9.23.26,11.25,3,13.14,11.02,26.24,11.47,40.13ZM392.74,348.21c2.46-.66,15.03-2.54,14.94-4.99-.34-9.07-16.94,3.15-14.94,4.99ZM178.34,359.83c-6.16-3.73-8.83-11.87-10.57-18.44-10.77,5.72-23.1,14.83-28.47,26.15-1.32,2.77-5.69,11.89-.79,12.58,4.23.59,32.89-17.21,39.42-18.88l.41-1.4ZM91.62,344.8c-14.57,13.21-26.91,32.13-30.74,51.57,2.9,1.94,36.48-.83,39.54-4.2,2.84-3.12.09-7.87.06-11.51-.04-5.57,1.31-19.67.59-23.75-.54-3.07-8.67-8.21-9.47-12.11ZM355.07,369.29c-.02-1.79-1.76-18.23-2.07-19.24-.37-1.18-1.83-1.97-2.94-2.35-2.72,2.79-13.21,9.83-13.67,13.41-.42,3.26,10.86,16.52,3.79,21.91l-1.37-8.87-.7,11.6c-1.66.48-1.91-1.4-2-2.47-.73-9,3.65-20.88-5.17-28.25,1.88,8.31-14.7,9.58-15.39,11.97-1.04,12.08,9.22,28.13,22.56,23.18,4.78-1.77,8.33-11.94,8.75-16.57.46-5-4.59-12.86-5.32-17.9,4.58,6.45,8.58,12.82,9.38,21.01.47,4.83-6.31,11.6.85,13.81-.37-3.33,4.16-12.4,3.86-14.69-.13-1-2.8-2.32-2.53-4.78.17-1.6,1.99-1.65,1.98-1.78ZM391.37,349.57c1.11-1.11-2.22-2.86-2.03-1.02.05.49,1.63,1.41,2.03,1.02ZM406.19,378.06c1.07-1.68.6-3.69,1.43-5.07,1.28-2.12,9.07-12.65,9.03-13.46-.03-.68-6.59-10.42-7.16-10.72-.26-.13-5.62-.82-5.82-.6-1.1,1.23-3.57,31.02-1.36,32.77.69-.79,3.58-2.46,3.88-2.93ZM325.48,352.99v.68l.34-.34-.34-.34ZM372.26,353.67l-10.24-.68c.9,4.65.4,9.36,1.31,14.01.22,1.11,1.48,1.13,1.99,2.85,1.01,3.39-4.11,4.02,5.57,3.6l1.37-19.79ZM374.29,355.03v-2.04c-1.45-.31-.55,2.87,0,2.04ZM383.52,352.99v.68l.34-.34-.34-.34ZM394.1,352.99l-8.88.68c1.76,2.79.66,19.1,1.36,19.8,3.27,3.25,3.36-3.36,3.54-3.66.59-.99,1.92-1.16,2.17-1.96,1.26-4.15.68-10.43,1.81-14.86ZM327.53,355.72v.68l.34-.34-.34-.34ZM314.21,357.09c-2.63-.05-1.14,4.56.68,4.1l-.68-4.1ZM316.61,357.09v.68l.34-.34-.34-.34ZM373.61,358.45v-1.36h-.67v1.36h.67ZM323.09,359.13v-1.36h-.67v1.36h.67ZM320.42,358.17l-1.42.29.69,3.41,1.42-.29-.69-3.41ZM104.6,385.07c.16-2.93,10.31-14.92,10.2-15.93-.1-.96-9.93-8.77-11.54-10-1.37,8.57-.33,17.02-.01,25.6l1.35.34ZM317.63,359.14h-1.36c.23,1.5.36,3.22,2.04,2.72l-.68-2.72ZM418.2,364.42c-.51-.99-.13-2.19-.21-3.24-.99,2.87-7.42,11.21-7.8,13.56-.59,3.67,2.2,13.04,2.37,17.48.32,8.31-3.33,21.53.77,27.9,4.8,7.44,10.37,1.35,12.82,3.23.28.22-.52,3.4,1.73,3.37,4.36-.07,5.32-15.78,5.06-18.69-.76-8.21-10.9-36.19-14.74-43.61ZM190.63,490.92c-7.12,1.01-11.08-8.61-12.98-9.9-3.89-2.64-18.33-1.75-19.14-10.95l21.19-107.52-37.54,19.13c3.79,4.27,17.6,5.7,20.75,8.27.96.78,1.05,2.38.41,2.65-2.95,1.23-20.48-8.36-23.72-8.74-7.56-.88-.27,15.44,1.52,18.99,2.25,4.43,6.02,8.8,9.57,12.27-3.84-13.71,8.95,4.91,5.15,6.46-3.89,1.58-27.15-9.94-6.87-4.74-8.36-7.84-14.49-19.41-15.02-31.07l-27.94,9.31c-1.63,3.98,11.96,34.93,16.39,37.4,1.89,1.05,7.61,1.05,8.5,2.42,1.27,1.94-1.08,5.27,0,8.19,1.15,3.13,13.53,11.44,14.67,14.02.31.71,1.07,1.61-.36,1.71-2.5.18-12.72-10.84-15.01-12.97-.81,8.49-6.92,2.41-8.51,3.41-.21.13.44,2.52-1.72,2.78-3.17.37-1.71-2.55-2.81-3.54-.58-.52-3.35-.45-4-1.92-.36-.82,1.8-11.06,2.32-12.73.95-3.02,3.05-.92,2.75-2.65l-15.33-35.88c-11.86,22.48-4.03,52.55,16.6,67.11l-.57,1.84c-18.61-9.44-26.66-33.78-23.9-53.93-8.27,31.36,10.81,66.35,40.03,79.13,1.91.04,2.27-8.95,3.64-9.9.79-.55,5.46,1.28,7.9-3.04,4.29,4.3-.49,4.76,7.32,7.03,8.28,2.4,3.88-.54,7.35-1.9,4.45-1.74,2.52,4.7,2.75,5.08.69,1.14,5.43.43,2.7,7.56l23.89-3.4ZM414.93,363.93l-1.02,1.02.32.32.7-.67v-.67ZM413.57,365.98c-1.07,1.28-2.53,3.07-2.75,4.75,1.07-1.28,2.53-3.06,2.75-4.75ZM266.08,368.01v.68l.34-.34-.34-.34ZM266.42,372.79c-.14-1.02.59-2.93-.67-2.72.14,1.02-.59,2.93.67,2.72ZM391.71,370.06v.68l.34-.34-.34-.34ZM220.34,370.74v.68l.34-.34-.34-.34ZM361.67,370.74v.68l.34-.34-.34-.34ZM133.96,381l-16.61-9.53-12.73,20.43,29.35-10.91ZM355.18,372.78v-1.36h-.67v1.36h.67ZM358.59,371.43c-1.43-1.55-2.6,1.43-1.35,2.04,1.62.8,1.74-1.62,1.35-2.04ZM360.64,371.43h-1.36v.67h1.36v-.67ZM395.46,373.47v-2.04c-1.45-.31-.55,2.87,0,2.04ZM398.19,371.43c-.75-1.16-1.97.9-1.35,2.04.85-.08,1.77-1.41,1.35-2.04ZM410.16,371.44l-1.02,1.02.32.32.7-.67v-.67ZM220.67,374.83v-1.36h-.67v1.36h.67ZM266.43,373.47h-.68v10.24h.68v-10.24ZM220.34,375.52v.68l.34-.34-.34-.34ZM362.01,375.52c-1.35-1.57-4.67,3.32-1.69,4.09,1.81.47,2.08-3.63,1.69-4.09ZM396.83,376.21c-.45-.54-5.47-1.09-3.79,2.02,1.93,3.54,5.13-.41,3.79-2.02ZM219.31,380.99v8.18s.69,0,.69,0v-8.18s-.69,0-.69,0ZM266.08,384.4v.68l.34-.34-.34-.34ZM219.99,391.22v-1.36h-.67v1.36h.67ZM267.11,390.54h-.68v12.97h.68v-12.97ZM191.66,391.22v.68l.34-.34-.34-.34ZM351.08,393.95v-2.04c-1.45-.31-.55,2.87,0,2.04ZM191.31,396.68v-2.04c-1.45-.31-.55,2.87,0,2.04ZM350.4,397.36c-.14-1.02.59-2.93-.67-2.72.14,1.02-.59,2.93.67,2.72ZM342.89,395.32c-6.45,6.99-16.16,5.32-23.21.35,7.78,21.47,7.45,55.95,15.49,76,1.48,3.69,5.15,4.84,8.41,6.27-.79-15.07-2.72-30.28-2.06-45.43.17-3.89,3.76-21.04,3.37-22.09-.07-.2-2.55-.98-3.36-2.45-2.72-4.92.45-7.84,1.37-12.64ZM219.31,397.36v-1.36h-.67v1.36h.67ZM190.63,401.46c-.2-1.1.67-3.55-.67-3.41.23.93-.71,3.47.67,3.41ZM219.31,402.14c-.29-1.04.77-4.02-.67-4.09.29,1.04-.77,4.02.67,4.09ZM349.71,401.46v-2.04c-1.45-.31-.55,2.87,0,2.04ZM189.95,406.24c-.2-1.1.67-3.55-.67-3.41.23.93-.71,3.47.67,3.41ZM219.32,402.83h-.68v21.17h.68v-21.17ZM305.68,403.51v.68l.34-.34-.34-.34ZM267.79,404.2h-1.37c-.21.47.68.83.68,1.02v11.95h.68v-12.97ZM189.27,410.34c-.2-1.1.67-3.55-.67-3.41.23.93-.71,3.47.67,3.41ZM306.7,408.29v-1.36h-.67v1.36h.67ZM185.17,442.43l3.41-31.4-4.07,26.98.66,4.42ZM307.38,414.43c-.14-1.02.59-2.93-.67-2.72.14,1.02-.59,2.93.67,2.72ZM308.07,419.21v-2.04c-1.45-.31-.55,2.87,0,2.04ZM268.47,419.9h-.68v13.66h.68v-13.66ZM308.75,424.67c-.14-1.02.59-2.93-.67-2.72.14,1.02-.59,2.93.67,2.72ZM218.97,425.36v.68l.34-.34-.34-.34ZM309.43,430.82c-.33-1.19.82-4.51-.67-4.77.34,1.15-.84,4.43.67,4.77ZM415.94,432.87c-.03-1.66.56-4.12-1.35-4.78.04,1.62-.58,4.09,1.35,4.78ZM417.31,432.87c-.33-1.19.82-4.51-.67-4.77.34,1.15-.84,4.43.67,4.77ZM418.68,428.09v6.84s1.37,0,1.37,0v-6.84s-1.37,0-1.37,0ZM422.09,428.09v6.15s1.37,0,1.37,0v-6.15s-1.37,0-1.37,0ZM218.29,428.78v.68l.34-.34-.34-.34ZM412.53,431.5c-.14-1.02.59-2.93-.67-2.72.14,1.02-.59,2.93.67,2.72ZM426.87,434.23l-.67-5.45c.86,1.98-1.87,6.15.67,5.45ZM218.29,430.82v.68l.34-.34-.34-.34ZM310.11,436.28c-.33-1.19.82-4.51-.67-4.77.34,1.15-.84,4.43.67,4.77ZM218.63,432.19h-.68v26.63h.68v-26.63ZM413.45,434.72c-.39-1.12.25-2.65-.9-2.53v6.82c3.78-.57.99-4.03.9-4.29ZM129.88,435.61c-1.92.71-11.82-2.16-12.32-1.77s-2.78,11.53-2.43,12.03c1.01,1.44,5.12-.16,5.18,4.06,1.32-3.92-6.27-12.96,2.21-12.82,5.11.09,6.79,7.93,7.36-1.51ZM269.16,434.24c-1.88-.39-.66,8.24,0,10.24v-10.24ZM310.8,441.74c-.33-1.19.82-4.51-.67-4.77.34,1.15-.84,4.43.67,4.77ZM120.32,442.43c.62.58,4.09-.06,3.4-2.38-.8-2.67-5.18.7-3.4,2.38ZM127.82,448.58c.2-3.3,1.84-6.58-2.72-7.51l-3.43,6.83,6.15.69ZM311.48,446.52c-.29-1.04.77-4.02-.67-4.09.29,1.04-.77,4.02.67,4.09ZM183.81,443.12v5.45s.69,0,.69,0v-5.45s-.69,0-.69,0ZM269.84,445.16c-1.9-.58-.67,7.74,0,9.56v-9.56ZM312.13,447.85l-.95.1,1.03,9.56.95-.1-1.03-9.56ZM183.8,454.03c-.33-1.19.82-4.51-.67-4.77.34,1.15-.84,4.43.67,4.77ZM183.12,460.18c-.33-1.19.82-4.51-.67-4.77.34,1.15-.84,4.43.67,4.77ZM269.5,456.09v.68l.34-.34-.34-.34ZM269.84,457.46v8.18s.69,0,.69,0v-8.18s-.69,0-.69,0ZM313.53,462.23c-.29-1.04.77-4.02-.67-4.09.29,1.04-.77,4.02.67,4.09ZM218.62,460.86v-1.36h-.67v1.36h.67ZM181.07,475.88l1.37-15.01c-.96,4.73-2.65,10.31-1.37,15.01ZM218.62,464.28c-.14-1.02.59-2.93-.67-2.72.14,1.02-.59,2.93.67,2.72ZM314.21,467.69c-.29-1.04.77-4.02-.67-4.09.29,1.04-.77,4.02.67,4.09ZM218.62,466.32v-1.36h-.67v1.36h.67ZM271.2,475.88l.03-7.18-1.38-2.37,1.35,9.55ZM218.62,468.37v-1.36h-.67v1.36h.67ZM218.29,469.74v.68l.34-.34-.34-.34ZM314.89,473.15c-.2-1.1.67-3.55-.67-3.41.23.93-.71,3.47.67,3.41ZM218.29,472.47v.68l.34-.34-.34-.34ZM315.58,477.93c-.29-1.04.77-4.02-.67-4.09.29,1.04-.77,4.02.67,4.09ZM344.26,505.24c.99-1.85-.74-15.84,0-19.12-3.4,4.54-6.36,10.24-11.6,12.98l3.09.11c3.66,3.32-8.78,5.09-10.15,4.56-2.64-.49,5.95-14.4,7.03-10.42l-.32,3c2.52-2.4,13.2-12.75,10.6-16.04-.26-.33-6.93-4.25-7.36-4.31-.95-.14-17.43,5.34-18.16,5.96-1.06.9-.85,4.37-2.02,6.01-3.7,5.19-17.12,6.11-23.01,6,3.5,3.6.11,11.88.69,16.92.07.65,1.71.76,1.94,1.61.47,1.75-.7,6.22,1.11,6.88,5.75.75,46.99-11.93,48.17-14.14ZM180.39,481.34c-.33-1.19.82-4.51-.67-4.77.34,1.15-.84,4.43.67,4.77ZM218.29,476.57v.68l.34-.34-.34-.34ZM271.2,477.26v6.82s.69,0,.69,0v-6.82s-.69,0-.69,0ZM146.94,478.62c-.84-1.27-2.19,1.9-2.04,2.04.66.61,2.67-1.09,2.04-2.04ZM218.29,479.98v.68l.34-.34-.34-.34ZM142.85,482.04c-1.64-2.2-4.86,1.52-4.1,4.08l25.93,7.52c3.3-9.6-3.4-1.97-5.04-2.79-1.84-.91-.44-3.01-1.5-4.13-.35-.37-9.12-3.22-9.63-3.19-1.91.11-2.25,2.92-4.5,2.51-2.58-.47-.9-3.65-1.17-4.01ZM145.75,483.38c0-.47-.38-.84-.84-.84s-.84.38-.84.84.38.84.84.84.84-.38.84-.84ZM161.38,483.06l-.73,2.71,1.42.38.73-2.71-1.42-.38ZM218.63,483.4h-1.36v.67h1.36v-.67ZM271.55,484.76v.68l.34-.34-.34-.34ZM218.29,485.44v.68l.34-.34-.34-.34ZM164.02,495.01c-3.75.93-24.78-8.21-25.94-7.52-6.83,4.09,12.96,4.77,5.15,10.33-5.39,3.84-3.01-7.79-6.51-5.55-.69.44-3.57,13.83-4.79,15.69l25.94,7.52,6.16-20.48ZM161.28,487.5c-.75-1.16-1.97.9-1.35,2.04.85-.08,1.77-1.41,1.35-2.04ZM272.54,487.44l-.89.08.37,4.16.89-.08-.37-4.16ZM218.63,490.23c-2.09.41-5.93-.92-7.5.67,2.09-.42,5.89.92,7.5-.67ZM210.44,490.92c-1.02.14-2.93-.59-2.72.67,1.02-.14,2.93.59,2.72-.67ZM220.34,490.91v.68l.34-.34-.34-.34ZM222.73,491.6h-1.36v.67h1.36v-.67ZM282.13,491.6c-1.1.2-3.55-.67-3.41.67.93-.23,3.47.71,3.41-.67ZM224.77,492.28h-1.36v.67h1.36v-.67ZM286.22,492.28c-1.02.14-2.93-.59-2.72.67,1.02-.14,2.93.59,2.72-.67ZM225.8,492.96v.68l.34-.34-.34-.34ZM272.07,511.54c.03-.27,1.83-.14,1.91-2.49.06-1.79-1.36-15.69-2.42-16.07-14.14,6.51-28.9,7.41-43.36,1.34,5.93,17.1,27.52,24.93,44.38,25.94-.22-3.01-.82-5.64-.51-8.72ZM291.68,492.96c-1.04.29-4.02-.77-4.09.67,1.04-.29,4.02.77,4.09-.67ZM140.8,496.36c1,.77,2.95-1.55,1.01-2.04-1.61-.41-1.1,1.97-1.01,2.04ZM156.5,516.86l-23.89-6.83c.43,2.39,5.56,3.1,7.51,3.75,4.23,1.4,12.73,4.44,16.38,3.09ZM361.33,540.74c1.99-2.22-7.5-7.59-9.55-3.06l9.55,3.06ZM396.16,540.75c.32.4,7.22-5.09,9.53-3.06-1.95-4.26-12.13-.16-9.53,3.06ZM399.48,552.98c4.3-5.66-5.36-12.25-9.47-15.64-1.35,8.86,1.23,12.67,9.47,15.64ZM366.78,538.02c-.78-.73-10.39,9.56-10.61,10.26-2.63,8.53,17.42-.71,10.61-10.26ZM359.28,542.79c1.77-1.69-7.03-4.38-8.18-3.4l8.18,3.4ZM407.07,539.39c-3.08-.08-8.48-.6-9.55,3.4l9.55-3.4ZM357.23,545.52c1.82-1.76-7.26-5.06-8.87-3.4l8.87,3.4ZM409.12,542.12c-3.5.02-7.17-.82-9.54,2.38l9.54-2.38ZM355.18,546.22c-2.83-.89-5.82-2.49-8.86-1.37,2.59.62,6.18,2.3,8.86,1.37ZM411.17,544.85l-6.33.14-3.22,2.57,9.55-2.71ZM230.92,546.21c-15.79,7.44-18.71,22.25-39.25,19.8-4.04-.48-14.6-7.64-10.82-.16,2.99,5.92,21.31,4.01,26.85,1.85,7.06-2.76,13.68-14.12,14.7-13.96s.75,2.56,1.35,2.71c3.14.75,9.65-6.07,7.18-10.23ZM323.59,567.88c1.03-1.26,1.41-3.59-.15-4.58-22.3,13.84-34.4-9.02-52.23-16.4-1.7,4.85,4.57,10.13,8.57,10.2,3.13.06.94-1.83,2-2.01s10.51,11.22,15.38,13.3c5.38,2.3,22.54,4.25,26.43-.51ZM357.23,553.71c-3.38-7.27-13.03-9.84-16.96-1.57,3.1,5.48,12.05,4.07,16.96,1.57ZM403.22,549.18c-10.93,8.17,17.5,9.08,12.78.74-2.01-3.55-9.88-2.9-12.78-.74ZM365.09,550.31v.68l.34-.34-.34-.34ZM416.63,554.4c-8.57,6.21-17.59.89-25.24-3.76,5.96,5.27,19.51,12.99,25.24,3.76ZM340.17,555.09c5.66,7.39,18.75,2.15,23.88-3.77-7.98,4.63-14.63,8.53-23.88,3.77Z"/>
    <g>
      <polygon class="cls-48" points="217.61 266.96 217.95 267.3 217.61 267.64 217.61 266.96"/>
      <rect class="cls-43" x="275.99" y="228.74" width="1.36" height=".67"/>
      <polygon class="cls-49" points="274.28 186.4 274.62 186.74 274.28 187.08 274.28 186.4"/>
      <polygon class="cls-11" points="214.19 303.83 214.54 304.17 214.19 304.51 214.19 303.83"/>
      <rect class="cls-12" x="214.54" y="288.82" width="1.36" height=".67"/>
      <polygon class="cls-13" points="216.93 284.03 217.27 284.37 216.93 284.71 216.93 284.03"/>
      <rect class="cls-10" x="218.64" y="154.31" width="1.36" height=".67"/>
      <polygon class="cls-18" points="220.34 138.6 220.68 138.94 220.34 139.28 220.34 138.6"/>
      <polygon class="cls-16" points="314.56 303.83 314.9 304.17 314.56 304.51 314.56 303.83"/>
    </g>
  </g>
  <path class="cls-19" d="M47.26,345.48c-.28-.86-1.08-3.73.35-4.09,2.49,0,.85,2.59,1.01,2.72,1.06.85,2.17-2.55,3.41-.32-.84,3.79-3.51,1.64-4.78,1.69,1.37,4.14,1.55,1.03,2.74,2.05,5.58,4.83-13.65-1.55-2.74-2.05Z"/>
  <g>
    <path class="cls-17" d="M451.11,235.55c.2.04,1.52.68,1.7,1.02-.73,2.14-24.09.94-22.88-1.02h2.74c4.88,0,14.23-.8,18.43,0Z"/>
    <path class="cls-15" d="M448.38,230.77c.83.17,2.15.76,1.7,2.04-6.39-.3-14.86.68-20.48-2.04,5.43.77,13.74-1.04,18.78,0Z"/>
    <path class="cls-14" d="M486.95,244.43c-1.07,1.35-2.29-1.38-2.43-1.37-8.32.73-17.13,3.62-25.55,4.1-.41-2.07,2.83-2.04,4.09-2.39,6.7-1.85,14.91-2.05,21.85-3.07-3.71-8.48,5.55-1.67,2.05,2.74Z"/>
  </g>
  <g>
    <path class="cls-52" d="M142.1,500.54c1.55,2.35-2.67,7.95-5.09,4.04-2.66-4.3,3.58-6.34,5.09-4.04ZM140.11,501.84c-.75-1.16-1.97.9-1.35,2.04.85-.08,1.77-1.41,1.35-2.04Z"/>
    <path class="cls-53" d="M144.3,501.93c2.96-1.83,6.96,3.19,3.31,5.06-3.91,2-5.77-3.54-3.31-5.06ZM146.94,503.88c-.08-.06-1.96-.06-2.04,0-2.14,1.75,4.18,1.75,2.04,0Z"/>
    <path class="cls-54" d="M145.67,499c-1.9-2.96,2.99-7.98,5.06-3.3,1.62,3.68-3.82,5.22-5.06,3.3ZM148.99,495.69c-.75-.66-2.7,1.29-2.04,2.04,1,1.14,3.18-1.04,2.04-2.04Z"/>
    <path class="cls-50" d="M155.76,506.57c0,1.45-1.18,2.63-2.63,2.63s-2.63-1.18-2.63-2.63,1.18-2.63,2.63-2.63,2.63,1.18,2.63,2.63ZM153.94,506.6c0-.47-.38-.84-.84-.84s-.84.38-.84.84.38.84.84.84.84-.38.84-.84Z"/>
    <path class="cls-51" d="M156.43,501.76c-2.82,1.88-5.53-3.82-3.24-5.29,3.75-2.4,5.16,4.01,3.24,5.29ZM155.81,499.78c1.11-1.11-2.22-2.86-2.03-1.02.05.49,1.63,1.41,2.03,1.02Z"/>
  </g>
</svg>